<svg width="36" height="36" viewBox="0 0 36 36" fill="none" xmlns="http://www.w3.org/2000/svg">
<path d="M0.875 29.5666C1.07308 29.3123 1.24415 29.0308 1.46924 28.8037C8.5191 21.6837 15.569 14.5728 22.6188 7.46184C23.3031 6.77163 23.8343 6.77163 24.5186 7.47092C25.8601 8.815 27.1927 10.1682 28.5252 11.5123C29.1104 12.1026 29.1194 12.702 28.5342 13.2923C21.4123 20.4758 14.2814 27.6685 7.14154 34.8612C6.97047 35.0337 6.74538 35.1518 6.5473 35.288C6.36722 35.288 6.18715 35.288 6.00708 35.288C5.74597 35.0791 5.45786 34.8975 5.22376 34.6705C3.97226 33.4263 2.72075 32.1639 1.48725 30.9016C1.25315 30.6655 1.07308 30.3749 0.875 30.1115C0.875 29.9299 0.875 29.7482 0.875 29.5666ZM18.18 15.1086C13.3 20.0308 8.42906 24.944 3.5851 29.83C4.48546 30.7381 5.40383 31.6644 6.27719 32.5363C11.1392 27.6322 16.0191 22.7099 20.8721 17.8149C19.9807 16.934 19.0714 16.0077 18.18 15.1086ZM22.4657 16.2256C23.7443 14.936 25.0228 13.6555 26.2653 12.4023C25.3739 11.5032 24.4555 10.5678 23.5732 9.67776C22.3127 10.9492 21.0342 12.2388 19.7737 13.5102C20.665 14.4093 21.5744 15.3266 22.4657 16.2256Z" fill="white"/>
<path d="M15.9999 0.378906C16.9273 2.4132 18.3319 3.83902 20.3577 4.76535C18.3499 5.70076 16.9273 7.11749 16.0089 9.16087C15.0815 7.12658 13.668 5.70076 11.6602 4.76535C13.668 3.83902 15.0725 2.42228 15.9999 0.378906Z" fill="white"/>
<path d="M30.0463 0.378906C30.7486 1.91371 31.793 2.97626 33.2066 3.63014C32.5854 4.10238 31.9191 4.4929 31.3879 5.02871C30.8567 5.56453 30.4605 6.23657 30.0193 6.83596C28.4257 4.37483 28.4437 4.72902 26.832 3.66647C28.2906 2.98534 29.344 1.93187 30.0463 0.378906Z" fill="white"/>
<path d="M33.2511 19.9677C32.8099 19.0232 32.1256 18.333 31.1172 17.8517C32.1076 17.3703 32.8099 16.6892 33.2421 15.7266C33.5572 16.1534 33.8183 16.5893 34.1694 16.9435C34.5206 17.2977 34.9527 17.5611 35.3309 17.8517C34.9527 18.1423 34.5206 18.4056 34.1694 18.7598C33.8273 19.1049 33.5752 19.5318 33.2511 19.9677Z" fill="white"/>
</svg>
