<svg width="19" height="24" viewBox="0 0 19 24" fill="none" xmlns="http://www.w3.org/2000/svg">
<path d="M14.0226 0.376876C14.04 0.683353 14.0689 0.995612 14.0689 1.30209C14.0805 3.04264 13.2523 4.25698 11.7115 5.02028C11.0744 5.33833 10.4141 5.55806 9.71326 5.66793C9.67272 5.67371 9.62638 5.67371 9.55687 5.6795C9.52212 4.03146 9.89282 2.58004 11.3119 1.55652C12.0649 1.01296 12.8931 0.642875 13.7909 0.417354C13.8257 0.411572 13.8546 0.388441 13.8894 0.371094C13.9299 0.376876 13.9763 0.376876 14.0226 0.376876Z" fill="white"/>
<path d="M18.3049 8.293C16.7179 9.49578 15.6058 10.9588 15.8607 13.0578C16.1039 15.0528 17.1176 16.5563 19 17.4468C18.9479 17.5798 18.9015 17.7186 18.8436 17.8574C18.2934 19.17 17.6968 20.4595 16.8222 21.5987C16.2777 22.31 15.5595 22.8362 14.8181 23.3277C14.2273 23.7209 13.5844 23.6804 12.9414 23.4665C12.4838 23.3161 12.0205 23.1542 11.5803 22.9634C10.5782 22.5297 9.58199 22.5413 8.57416 22.9287C8.08762 23.1137 7.59529 23.293 7.10295 23.4665C6.21676 23.7787 5.40586 23.5937 4.64709 23.0906C3.78985 22.5239 3.14692 21.7548 2.5735 20.9164C1.49037 19.3377 0.777942 17.5972 0.355116 15.7352C0.0481327 14.3705 -0.119841 12.9827 0.100261 11.5891C0.476749 9.224 1.65835 7.40249 3.89411 6.41367C5.09308 5.88745 6.34418 5.95106 7.56633 6.44258C7.93702 6.59293 8.31351 6.73171 8.68421 6.88784C9.32713 7.15962 9.95848 7.09023 10.584 6.85314C11.0937 6.65654 11.5919 6.43101 12.1074 6.26332C13.8971 5.68506 15.5595 5.96841 17.077 7.07288C17.552 7.41983 17.9632 7.81883 18.3049 8.293Z" fill="white"/>
</svg>
