<svg width="10" height="19" viewBox="0 0 10 19" fill="none" xmlns="http://www.w3.org/2000/svg">
<path d="M8.94485 0.552734C9.25562 0.630141 9.5324 0.760766 9.73635 1.01718C10.0811 1.45259 10.0908 2.08152 9.7412 2.51694C9.67322 2.59918 9.60038 2.68143 9.52269 2.75883C7.39098 4.88269 5.25927 7.00654 3.12271 9.13523C3.07415 9.18361 3.01588 9.22232 2.92848 9.33843C2.98674 9.37229 3.05958 9.39165 3.10814 9.44003C5.26413 11.5832 7.41526 13.7313 9.57125 15.8745C9.95 16.2518 10.1005 16.6921 9.93058 17.2098C9.68293 17.979 8.69235 18.2838 8.04652 17.7903C7.97368 17.7371 7.9057 17.6742 7.84257 17.6113C5.37095 15.1488 2.89934 12.6863 0.427723 10.2238C-0.0335807 9.76417 -0.130696 9.19329 0.180077 8.67079C0.252915 8.54501 0.359739 8.43373 0.461712 8.33214C2.86535 5.93252 5.2787 3.5329 7.68233 1.13329C7.9494 0.8672 8.22619 0.630141 8.60494 0.552734C8.71662 0.552734 8.83316 0.552734 8.94485 0.552734Z" fill="black"/>
</svg>
