<svg width="20" height="20" viewBox="0 0 20 20" fill="none" xmlns="http://www.w3.org/2000/svg">
<path d="M12.5654 0.595703C14.8555 1.66538 16.2054 3.45782 16.673 5.92484C16.7405 6.27658 16.7502 6.64278 16.755 7.00416C16.7646 7.44263 16.4609 7.74619 16.0463 7.75101C15.622 7.75582 15.3279 7.45709 15.3087 7.00898C15.2171 4.72988 14.1661 3.0579 12.146 1.99785C11.8519 1.84367 11.6735 1.62684 11.6928 1.28473C11.7073 0.957081 11.8905 0.740254 12.199 0.629431C12.2135 0.624613 12.2232 0.610158 12.2376 0.595703C12.3485 0.595703 12.4594 0.595703 12.5654 0.595703Z" fill="white" stroke="#5A6889" stroke-width="0.3"/>
<path d="M7.17845 0.595639C7.2122 0.614913 7.24595 0.639004 7.28452 0.653459C7.5545 0.778737 7.70877 0.985928 7.72324 1.28467C7.7377 1.59304 7.59307 1.80987 7.33273 1.96406C7.00971 2.15198 6.67224 2.32062 6.37815 2.54227C4.92217 3.65531 4.16526 5.13938 4.1074 6.97036C4.08812 7.53893 3.6494 7.88104 3.13836 7.71239C2.83463 7.61121 2.65625 7.3462 2.65625 6.98482C2.65625 5.74168 2.98409 4.58526 3.60601 3.51076C4.31953 2.28207 5.30786 1.34249 6.59028 0.71128C6.67706 0.667914 6.76384 0.634186 6.85062 0.59082C6.9615 0.595639 7.06757 0.595639 7.17845 0.595639Z" fill="white" stroke="#5A6889" stroke-width="0.3"/>
<path d="M2.62262 0.595703C2.77208 0.701708 2.95046 0.778802 3.06617 0.913717C3.26383 1.14982 3.25901 1.48229 3.06617 1.73284C2.56477 2.38332 2.15498 3.08681 1.83196 3.83848C1.70661 4.12758 1.46556 4.26731 1.15219 4.25768C0.838814 4.24804 0.626685 4.0794 0.501336 3.79511C0.486873 3.76138 0.472409 3.73247 0.453125 3.70356C0.453125 3.59274 0.453125 3.48673 0.453125 3.37591C0.462767 3.36146 0.477229 3.35182 0.48205 3.33255C0.805065 2.50378 1.24861 1.74248 1.77893 1.03418C1.92838 0.836623 2.08748 0.667979 2.32854 0.595703C2.42978 0.595703 2.5262 0.595703 2.62262 0.595703Z" fill="white" stroke="#5A6889" stroke-width="0.3"/>
<path d="M17.0848 0.595639C17.3259 0.672733 17.4898 0.836559 17.6344 1.03411C18.1358 1.70387 18.5553 2.42663 18.8831 3.19757C19.0615 3.61677 18.912 4.03115 18.5312 4.19979C18.1503 4.36844 17.7357 4.19016 17.5573 3.77577C17.268 3.09638 16.9257 2.4459 16.4533 1.88215C16.0965 1.46295 16.1254 0.812466 16.7956 0.59082C16.892 0.595639 16.9884 0.595639 17.0848 0.595639Z" fill="white" stroke="#5A6889" stroke-width="0.3"/>
<path d="M10.4361 15.6385C10.4361 16.13 10.4361 16.6119 10.4361 17.0648C10.9712 17.1901 11.5016 17.3009 12.0223 17.4358C12.2681 17.4984 12.4995 17.5948 12.7358 17.6912C13.1359 17.855 13.3143 18.2549 13.1649 18.6356C13.0202 19.0114 12.6056 19.1897 12.2103 19.0355C11.3618 18.6982 10.4891 18.4958 9.57313 18.5199C8.82103 18.5392 8.09305 18.6982 7.38916 18.9681C7.31203 18.997 7.23489 19.0307 7.15293 19.0596C6.77688 19.1801 6.38637 18.9921 6.25138 18.6356C6.11157 18.2742 6.27549 17.8743 6.63707 17.7201C7.31203 17.4358 8.01109 17.2382 8.73425 17.1467C8.81139 17.1371 8.88853 17.1226 8.97531 17.113C8.97531 16.6263 8.97531 16.1397 8.97531 15.6434C8.3341 15.5181 7.74111 15.2723 7.22043 14.8772C6.14532 14.0485 5.5716 12.9595 5.55232 11.6007C5.53304 10.0637 5.53786 8.53143 5.5475 6.99436C5.56196 4.84054 7.19632 3.09629 9.38993 2.8891C11.4244 2.69636 13.3673 4.16115 13.7771 6.20896C13.835 6.50288 13.8591 6.80644 13.8591 7.10518C13.8687 8.54588 13.8639 9.98176 13.8639 11.4225C13.8639 13.5233 12.5863 15.1374 10.5422 15.6193C10.5132 15.6241 10.4795 15.6289 10.4361 15.6385ZM12.4176 9.29755C12.4176 8.55552 12.4272 7.81349 12.4128 7.07627C12.4031 6.33906 12.1813 5.67894 11.6607 5.13928C10.9134 4.36352 9.71776 4.1226 8.67158 4.52735C7.67361 4.91282 7.01312 5.8524 6.99865 6.98954C6.97937 8.51697 6.97455 10.0492 6.99865 11.5766C7.0324 13.4173 8.71979 14.6363 10.4891 14.1352C11.651 13.8027 12.4031 12.7764 12.4128 11.5044C12.4224 10.7672 12.4176 10.0299 12.4176 9.29755Z" fill="white" stroke="#5A6889" stroke-width="0.3"/>
<path d="M9.71157 11.2925C9.4223 11.2925 9.13303 11.2973 8.84377 11.2925C8.3954 11.2876 8.08685 10.9937 8.08203 10.5745C8.08203 10.1553 8.39058 9.85176 8.83895 9.85176C9.41748 9.84694 9.99601 9.84694 10.5697 9.85176C11.0181 9.85658 11.3266 10.1505 11.3315 10.5697C11.3315 10.9889 11.0229 11.2876 10.5745 11.2925C10.2901 11.2925 10.0008 11.2925 9.71157 11.2925Z" fill="white" stroke="#5A6889" stroke-width="0.3"/>
</svg>
