<svg width="13" height="20" viewBox="0 0 13 20" fill="none" xmlns="http://www.w3.org/2000/svg">
<path d="M5.36869 11.7627C5.27346 11.7627 5.19938 11.7627 5.12001 11.7627C3.55916 11.7627 1.99831 11.7679 0.437464 11.7574C0.31577 11.7574 0.167621 11.7152 0.0829652 11.636C-0.0598923 11.4989 0.00359989 11.3406 0.10942 11.1929C0.765507 10.259 1.4163 9.32519 2.07239 8.38608C3.80255 5.91169 5.53801 3.43729 7.26817 0.957622C7.29462 0.920691 7.32108 0.88376 7.34753 0.846829C7.44277 0.714931 7.56447 0.646344 7.7232 0.704379C7.89251 0.762414 7.956 0.889036 7.94013 1.06314C7.8978 1.61711 7.85018 2.1658 7.80785 2.71977C7.70732 3.97016 7.60679 5.21527 7.50626 6.46566C7.45335 7.1357 7.40044 7.80574 7.34753 8.47577C7.34753 8.50743 7.34753 8.53908 7.34753 8.6024C7.4269 8.6024 7.50626 8.6024 7.58034 8.6024C9.14119 8.6024 10.702 8.6024 12.2629 8.6024C12.4269 8.6024 12.5804 8.61295 12.6703 8.78178C12.755 8.94533 12.6756 9.07195 12.5856 9.19857C10.1941 12.6121 7.80785 16.0309 5.4216 19.4496C5.40573 19.4707 5.38986 19.4918 5.37398 19.5129C5.27875 19.6501 5.15176 19.724 4.98245 19.6607C4.81314 19.5974 4.76023 19.4655 4.7761 19.2966C4.8343 18.5791 4.8925 17.8669 4.9507 17.1493C5.05123 15.899 5.15176 14.6538 5.25229 13.4035C5.28404 12.9814 5.32107 12.5646 5.35282 12.1425C5.35282 12.0212 5.3634 11.9051 5.36869 11.7627Z" fill="white"/>
</svg>
