<svg width="32" height="31" viewBox="0 0 32 31" fill="none" xmlns="http://www.w3.org/2000/svg">
<path d="M0 18.6298C0.191648 18.1414 0.566613 17.9014 1.05823 17.7689C1.62484 17.6116 2.18312 17.4129 2.74973 17.2308C3.408 17.0239 3.99961 17.2888 4.19126 17.8765C4.38291 18.4725 4.0746 19.0272 3.41634 19.2424C2.83306 19.4328 2.24978 19.6149 1.66651 19.8053C0.799922 20.0868 0.399959 19.9212 0.00833049 19.1265C-2.03401e-06 18.961 0 18.7954 0 18.6298Z" fill="#727272"/>
<path d="M15.9802 1.71755C17.0217 1.75066 17.78 2.21424 18.2466 3.14139C18.9799 4.6149 19.7131 6.08842 20.438 7.56193C20.538 7.76888 20.6547 7.85994 20.8963 7.89305C22.5628 8.12484 24.2376 8.36491 25.8958 8.62153C26.879 8.77054 27.5456 9.34173 27.8539 10.2772C28.1705 11.2209 27.9705 12.0901 27.2623 12.7937C26.1124 13.9361 24.9459 15.0619 23.771 16.1712C23.5044 16.4278 23.421 16.6596 23.4877 17.0239C23.7793 18.5884 24.046 20.1613 24.3043 21.7258C24.4709 22.7275 24.146 23.5553 23.3294 24.1513C22.5045 24.7556 21.5962 24.8136 20.6797 24.3417C19.2465 23.605 17.8217 22.8682 16.4051 22.0984C16.0885 21.9245 15.8635 21.9328 15.5552 22.0984C14.1637 22.8434 12.7639 23.5719 11.364 24.3003C9.87253 25.0785 8.15605 24.408 7.71443 22.8599C7.62277 22.5288 7.58945 22.1563 7.63944 21.8252C7.90608 20.1364 8.19771 18.4643 8.49768 16.7838C8.53101 16.5934 8.49768 16.4775 8.36436 16.3533C7.1395 15.1695 5.9063 13.9941 4.6981 12.7937C3.58155 11.6762 3.76486 9.83842 5.08972 9.00232C5.43135 8.78709 5.84797 8.65464 6.24793 8.59669C7.86441 8.34007 9.4809 8.11656 11.0974 7.89305C11.314 7.85994 11.4224 7.77716 11.514 7.59504C12.2473 6.09669 12.9889 4.60663 13.7388 3.11656C14.2137 2.21424 14.9636 1.75066 15.9802 1.71755ZM16.0052 19.5901C16.2552 19.6894 16.5135 19.7722 16.7468 19.8964C18.3383 20.7242 19.9298 21.5603 21.5296 22.3881C21.6879 22.4709 21.9212 22.5123 22.0712 22.4543C22.2878 22.3715 22.2295 22.1315 22.1962 21.9328C21.8795 20.1447 21.5796 18.3484 21.2629 16.552C21.1713 16.0388 21.2879 15.6331 21.6712 15.2606C23.0044 13.994 24.3209 12.7109 25.6291 11.4278C25.7458 11.3119 25.8624 11.0884 25.8208 10.9642C25.7791 10.8401 25.5541 10.7159 25.3958 10.6911C23.5627 10.4096 21.7296 10.1447 19.8964 9.88809C19.3881 9.82186 19.0632 9.58179 18.8465 9.13477C18.0466 7.51226 17.2384 5.88974 16.4301 4.26722C16.3968 4.19272 16.3635 4.11822 16.3135 4.04371C16.1385 3.75398 15.8469 3.75398 15.6719 4.03543C15.6302 4.10166 15.5969 4.18444 15.5552 4.25894C14.7387 5.89802 13.9221 7.53709 13.1138 9.17617C12.9305 9.54868 12.6639 9.79703 12.2473 9.86325C11.664 9.95431 11.0724 10.0371 10.4891 10.1199C9.16427 10.3103 7.83108 10.4924 6.50623 10.6993C6.37291 10.7159 6.19793 10.8318 6.15627 10.9477C6.11461 11.0553 6.2146 11.2209 6.28126 11.3533C6.30625 11.4113 6.38125 11.4527 6.43124 11.5106C7.71443 12.7523 8.98929 14.0023 10.2891 15.2275C10.7058 15.6166 10.8224 16.047 10.7224 16.5934C10.3975 18.4063 10.0892 20.2192 9.7892 22.0321C9.76421 22.1646 9.82253 22.3633 9.92252 22.4295C10.0142 22.4957 10.2058 22.4543 10.3475 22.4378C10.4058 22.4295 10.4558 22.3798 10.5141 22.355C12.1223 21.5106 13.7388 20.6745 15.3469 19.8384C15.5469 19.7474 15.7635 19.6811 16.0052 19.5901Z" fill="#727272"/>
<path d="M30.8401 19.9378C30.7985 19.9295 30.6735 19.913 30.5568 19.8716C29.8819 19.6564 29.2153 19.4494 28.5404 19.2259C27.9321 19.0189 27.6322 18.456 27.8155 17.8848C27.9988 17.3137 28.5821 17.0239 29.1903 17.2143C29.8902 17.4296 30.5985 17.6531 31.2901 17.9014C31.79 18.0752 32.0816 18.5885 31.9817 19.0852C31.8817 19.5901 31.44 19.9461 30.8401 19.9378Z" fill="#727272"/>
<path d="M7.60691 3.92779C7.18195 3.91951 6.89865 3.7705 6.69034 3.48904C6.26538 2.91785 5.84043 2.33837 5.43213 1.7589C5.07384 1.25393 5.18216 0.616514 5.65711 0.277109C6.1404 -0.0705744 6.77366 0.020485 7.14862 0.517176C7.58191 1.09665 8.01521 1.6844 8.43183 2.27215C8.68181 2.61983 8.69847 3.00891 8.49016 3.38143C8.29018 3.73739 7.96521 3.91951 7.60691 3.92779Z" fill="#727272"/>
<path d="M24.4224 3.91955C24.0141 3.91128 23.7058 3.72916 23.5058 3.3732C23.3059 3.01723 23.3059 2.64472 23.5308 2.31359C23.9725 1.67617 24.4224 1.04703 24.9057 0.434449C25.2557 -0.0125715 25.8806 -0.0622409 26.3389 0.260607C26.7805 0.575177 26.9305 1.20432 26.6138 1.66789C26.1806 2.30531 25.7139 2.93445 25.239 3.54704C25.0473 3.81194 24.7557 3.92783 24.4224 3.91955Z" fill="#727272"/>
<path d="M17.0665 28.2407C17.0665 28.5883 17.0748 28.9443 17.0665 29.292C17.0498 29.9046 16.5915 30.3599 15.9999 30.3599C15.4083 30.3599 14.9501 29.8963 14.9417 29.2837C14.9334 28.5801 14.9334 27.8764 14.9417 27.1728C14.9501 26.5602 15.4083 26.0966 15.9916 26.0883C16.5915 26.0801 17.0582 26.5602 17.0665 27.1811C17.0665 27.537 17.0665 27.8847 17.0665 28.2407Z" fill="#727272"/>
</svg>
