<svg width="17" height="17" viewBox="0 0 17 17" fill="none" xmlns="http://www.w3.org/2000/svg">
<path d="M11.9705 16.0898C11.583 16.0898 11.2023 16.0898 10.8148 16.0898C10.808 16.0216 10.7604 15.9875 10.6992 15.9807C8.94523 15.7555 7.52435 14.8618 6.24624 13.7225C4.13192 11.8327 2.54788 9.54721 1.47373 6.92062C0.895857 5.51522 0.501546 4.06207 0.753089 2.52022C0.88226 1.70837 1.22898 1.01931 1.94962 0.555396C2.74504 0.0368993 3.63564 -0.0517909 4.53983 0.0232546C6.08988 0.146056 7.52436 0.705487 8.89085 1.40136C9.95141 1.94715 10.9508 2.60209 11.9094 3.33208C13.4458 4.51234 14.7919 5.84952 15.7369 7.5551C16.6751 9.24021 17.049 11.0004 16.206 12.8424C15.5125 14.3569 14.3568 15.3735 12.7592 15.8715C12.494 15.9534 12.1949 15.892 11.9705 16.0898ZM11.5966 10.7616C12.9087 10.7684 13.9217 9.89515 14.0917 8.73536C14.214 7.91668 13.9285 7.21398 13.5002 6.55904C12.8679 5.57662 11.9909 4.84663 11.0256 4.21898C10.1758 3.66637 9.27156 3.2161 8.24499 3.10012C7.10965 2.97732 6.4366 3.48217 6.4638 4.66243C6.47059 4.90804 6.51139 5.16046 6.57257 5.39924C7.11645 7.30949 8.211 8.84451 9.77465 10.0384C10.3525 10.4682 10.9984 10.7479 11.5966 10.7616Z" fill="#FAB006"/>
<path d="M11.5966 10.7616C10.9984 10.7479 10.3521 10.4673 9.78785 10.0375C8.2174 8.84362 7.12285 7.30859 6.58577 5.39835C6.51779 5.15956 6.477 4.90714 6.477 4.66154C6.44301 3.48128 7.12285 2.97642 8.25819 3.09923C9.28476 3.20838 10.1822 3.66548 11.0388 4.21809C12.0041 4.84574 12.8811 5.57573 13.5134 6.55814C13.9349 7.2199 14.2272 7.9226 14.1049 8.73446C13.9213 9.89425 12.9087 10.7684 11.5966 10.7616Z" fill="#FCDE9A"/>
</svg>
