<svg width="30" height="31" viewBox="0 0 30 31" fill="none" xmlns="http://www.w3.org/2000/svg">
<path d="M0.558408 11.4443C0.649923 10.8799 0.703307 10.308 0.840581 9.75887C2.06842 5.09157 5.0503 2.18594 9.76336 1.1869C14.3315 0.218355 19.1513 2.5215 21.5155 6.61683C25.4049 13.3509 21.5384 21.4424 14.1561 23.1735C11.9597 23.6845 9.80149 23.5091 7.70426 22.6855C7.54411 22.6244 7.43734 22.6397 7.29244 22.7388C5.33248 24.0506 3.29625 24.1878 1.18376 23.1125C0.665176 22.8456 0.497397 22.3194 0.794823 21.8389C1.832 20.1078 1.99215 18.2927 1.3973 16.3709C1.09225 15.3871 0.886339 14.3804 0.642297 13.3814C0.604165 13.2136 0.581286 13.0458 0.550781 12.878C0.558408 12.3976 0.558408 11.9247 0.558408 11.4443ZM2.79292 21.9C2.86918 21.9228 2.96069 21.9533 3.05221 21.9686C4.40207 22.2431 5.60702 21.9381 6.63657 21.0229C7.01026 20.6874 7.38395 20.634 7.84153 20.8475C9.5727 21.6483 11.3878 21.8923 13.2791 21.572C18.2819 20.7408 22.1256 16.0048 21.1647 10.552C20.3182 5.74743 15.7424 2.2317 10.8844 2.77317C7.42971 3.15448 4.88252 4.95429 3.28863 8.03532C2.43448 9.6826 2.09892 11.4519 2.40397 13.2975C2.54125 14.1592 2.80054 14.9981 3.05221 15.837C3.49454 17.3165 3.66231 18.8037 3.28863 20.3137C3.1666 20.8475 2.96832 21.3661 2.79292 21.9Z" fill="#454545"/>
<path d="M25.8982 30.2659C25.6084 30.2049 25.3186 30.1592 25.0364 30.0829C24.3576 29.9075 23.7247 29.6329 23.1527 29.2135C22.9773 29.0838 22.8476 29.0762 22.6417 29.1449C18.5159 30.5786 14.7332 29.9532 11.309 27.2383C10.9735 26.9714 10.8591 26.6053 10.9811 26.2469C11.1031 25.896 11.3548 25.6978 11.7208 25.6596C12.003 25.6291 12.2318 25.7435 12.453 25.9265C13.841 27.0857 15.4272 27.7874 17.2194 28.0467C19.0497 28.3136 20.8114 28.0848 22.4968 27.3298C23.023 27.0934 23.412 27.162 23.8467 27.5357C24.9449 28.489 26.2185 28.7102 27.6293 28.3593C27.6141 28.2831 27.6064 28.2297 27.5836 28.1763C26.6989 26.1325 26.7294 24.1039 27.4844 22.0066C28.6894 18.6587 28.1937 15.5243 26.0278 12.672C25.9058 12.5119 25.7838 12.3212 25.738 12.1306C25.6465 11.7264 25.86 11.3527 26.2185 11.1925C26.5998 11.0247 26.9811 11.1163 27.2709 11.4594C28.0183 12.3517 28.6055 13.3355 29.0249 14.4184C30.1079 17.2097 30.1231 20.0085 29.0478 22.815C28.3462 24.6453 28.5597 26.3994 29.4978 28.0924C29.5817 28.2449 29.6732 28.3898 29.7189 28.5576C29.8181 28.9542 29.635 29.3203 29.2537 29.5338C28.6131 29.8922 27.9344 30.121 27.2099 30.2125C27.1336 30.2202 27.065 30.243 26.9887 30.2659C26.6227 30.2659 26.2566 30.2659 25.8982 30.2659Z" fill="#454545"/>
<path d="M6.74755 13.6327C5.97729 13.6403 5.36719 13.0302 5.36719 12.2676C5.36719 11.5049 5.98492 10.8872 6.74755 10.8872C7.49493 10.8872 8.11266 11.5049 8.12028 12.2447C8.12028 13.0149 7.51781 13.6251 6.74755 13.6327Z" fill="#454545"/>
<path d="M11.814 13.6327C11.0437 13.6404 10.4336 13.0379 10.4336 12.2676C10.4336 11.505 11.0513 10.8796 11.8063 10.8873C12.5461 10.8873 13.1638 11.4974 13.1791 12.2448C13.1943 12.9998 12.5766 13.6251 11.814 13.6327Z" fill="#454545"/>
<path d="M18.2416 12.26C18.2416 13.0303 17.6392 13.6327 16.8689 13.6327C16.1063 13.6327 15.4885 13.0074 15.4962 12.2524C15.5038 11.505 16.1215 10.8949 16.8689 10.8873C17.6239 10.8797 18.2416 11.4974 18.2416 12.26Z" fill="#454545"/>
</svg>
