<svg width="12" height="11" viewBox="0 0 12 11" fill="none" xmlns="http://www.w3.org/2000/svg">
<path d="M0.816406 5.35618C0.816406 5.20367 0.816406 5.04867 0.816406 4.89616C0.821406 4.86366 0.831407 4.83366 0.833907 4.80116C0.868909 4.37364 0.973914 3.96112 1.14642 3.5686C1.63395 2.46354 2.45648 1.68601 3.53904 1.18098C4.68409 0.643458 5.88415 0.520952 7.11671 0.783464C8.33426 1.04348 9.36431 1.6335 10.1493 2.61605C10.7019 3.30608 11.0144 4.09612 11.0519 4.98366C11.0969 6.10372 10.7169 7.07876 9.97184 7.9038C8.94179 9.04386 7.62923 9.58138 6.11166 9.64889C5.41662 9.68139 4.73659 9.57638 4.07656 9.35387C4.04156 9.34137 3.98656 9.35387 3.95656 9.37637C3.81905 9.47638 3.69404 9.59388 3.55404 9.68889C3.00401 10.0614 2.39398 10.2439 1.72895 10.2514C1.57144 10.2539 1.45894 10.1614 1.42394 10.0139C1.39143 9.8739 1.46894 9.77889 1.55144 9.68639C1.95396 9.23137 2.10897 8.70384 1.99646 8.10381C1.98646 8.05131 1.96146 7.99631 1.92646 7.95631C1.33643 7.29128 0.961413 6.52624 0.851408 5.6387C0.838907 5.54619 0.828907 5.45119 0.816406 5.35618ZM2.65649 5.14117C2.64149 5.62619 3.04151 6.03871 3.53904 6.05372C4.02156 6.07122 4.43658 5.6737 4.45408 5.17367C4.47408 4.68865 4.06656 4.26613 3.56654 4.25613C3.08401 4.24613 2.67149 4.64615 2.65649 5.14117ZM5.94165 6.05622C6.42667 6.07122 6.83919 5.6737 6.85419 5.17367C6.87169 4.69115 6.47417 4.27613 5.97415 4.25863C5.48913 4.23863 5.06661 4.64615 5.05411 5.14617C5.04661 5.6287 5.44413 6.04121 5.94165 6.05622ZM8.35926 4.25613C7.87174 4.25363 7.46172 4.65865 7.45672 5.15117C7.45172 5.6387 7.85424 6.04871 8.34926 6.05622C8.83929 6.06372 9.25681 5.6512 9.25681 5.15617C9.25681 4.66615 8.84929 4.25863 8.35926 4.25613Z" fill="white"/>
</svg>
