<svg width="31" height="32" viewBox="0 0 31 32" fill="none" xmlns="http://www.w3.org/2000/svg">
<path d="M0.578125 16.9293C0.578125 16.2943 0.578125 15.6594 0.578125 15.0245C0.617497 14.6752 0.656869 14.3181 0.704116 13.9689C1.16871 10.7227 2.47586 7.88137 4.72007 5.50034C7.0194 3.06375 9.83056 1.54783 13.1221 0.968447C13.6654 0.873206 14.2087 0.809712 14.7521 0.738281C15.382 0.738281 16.012 0.738281 16.6419 0.738281C16.9254 0.777965 17.201 0.817649 17.4845 0.849396C20.9729 1.27798 23.973 2.73041 26.422 5.2543C29.7922 8.73061 31.2332 12.9371 30.6899 17.7706C30.2489 21.6675 28.548 24.9692 25.5715 27.4852C21.2091 31.1758 16.2167 32.2234 10.8306 30.3583C5.2949 28.4455 1.99552 24.4137 0.814357 18.6278C0.704116 18.0722 0.656869 17.5007 0.578125 16.9293ZM15.7364 25.8502C17.7995 25.8264 19.6106 25.3978 21.2248 24.3264C22.8942 23.2231 24.0124 21.7231 24.3904 19.7151C24.4534 19.3817 24.3589 19.0881 24.0596 18.969C23.8076 18.8738 23.4848 18.8103 23.2407 18.8897C21.5004 19.4452 19.7208 19.7945 17.894 19.9294C15.6419 20.0961 13.4055 20.0167 11.1928 19.5643C10.3267 19.3897 9.47621 19.1278 8.62578 18.8976C8.24781 18.7944 7.90921 18.7944 7.59423 19.0563C7.27925 19.3183 7.35012 19.6516 7.42887 19.9929C7.75959 21.4056 8.47616 22.5961 9.54708 23.5565C11.3661 25.1676 13.5158 25.8026 15.7364 25.8502ZM23.1462 12.0244C23.1462 11.1513 22.9651 10.3497 22.6107 9.73857C22.2958 9.19887 21.8942 8.73061 21.217 8.73854C20.5398 8.74648 20.1145 9.19887 19.8389 9.76238C19.1066 11.2545 19.1066 12.7625 19.8468 14.2467C20.1224 14.8022 20.5398 15.2546 21.2248 15.2626C21.9099 15.2626 22.3036 14.8022 22.6107 14.2546C23.0045 13.5641 23.1462 12.8101 23.1462 12.0244ZM8.24781 11.9926C8.24781 12.8577 8.42104 13.6355 8.77539 14.2546C9.09037 14.7943 9.47621 15.2626 10.1613 15.2626C10.8464 15.2626 11.2637 14.8022 11.5393 14.2467C12.2795 12.7466 12.2795 11.2307 11.5314 9.73857C11.2558 9.19094 10.8385 8.74648 10.1692 8.73854C9.49196 8.73061 9.08249 9.19094 8.77539 9.73857C8.38954 10.4291 8.24781 11.1989 8.24781 11.9926Z" fill="white"/>
</svg>
