<svg width="24" height="22" viewBox="0 0 24 22" fill="none" xmlns="http://www.w3.org/2000/svg">
<path d="M23.3261 13.931C23.2909 14.0496 23.2602 14.1682 23.225 14.2824C22.9569 15.1214 22.1922 15.6969 21.3087 15.732C21.212 15.7364 21.1197 15.7364 21.023 15.7364C16.3158 15.7364 11.6086 15.7276 6.90134 15.7452C5.87286 15.7496 5.16524 15.284 4.72572 14.4098C4.59387 14.1463 4.60706 13.7992 4.60706 13.4917C4.59827 10.0083 4.60266 6.52494 4.60266 3.03714C4.60266 2.89218 4.61145 2.74722 4.62903 2.60226C4.7477 1.61391 5.60476 0.823224 6.60247 0.78369C6.70356 0.779297 6.80904 0.779297 6.91013 0.779297C11.6086 0.779297 16.307 0.779297 21.0098 0.779297C22.2581 0.779297 22.9833 1.33717 23.2997 2.54516C23.3041 2.55834 23.3173 2.56712 23.3261 2.57591C23.3261 6.35802 23.3261 10.1445 23.3261 13.931ZM6.00912 12.3496C6.03988 12.376 6.07504 12.4024 6.10581 12.4243C6.14097 12.354 6.16295 12.2662 6.21569 12.2135C7.14747 11.2734 8.08364 10.3378 9.01981 9.40655C9.72304 8.70811 10.6944 8.70811 11.4108 9.39337C11.5778 9.5559 11.7448 9.72282 11.9074 9.88974C12.1052 10.0918 12.2986 10.2939 12.5096 10.5047C12.9051 10.0303 13.2743 9.58665 13.6435 9.14298C14.4039 8.2293 15.1687 7.31562 15.929 6.39755C16.3949 5.83968 16.9795 5.62883 17.6871 5.78257C18.1134 5.87482 18.3903 6.17792 18.6584 6.49419C19.6913 7.70657 20.733 8.91456 21.7658 10.1226C21.8054 10.1709 21.8361 10.228 21.8669 10.2763C21.8845 10.2631 21.9021 10.2499 21.9197 10.2368C21.9197 10.1665 21.9197 10.0918 21.9197 10.0215C21.9197 7.689 21.9197 5.36088 21.9197 3.02836C21.9197 2.43534 21.6603 2.18057 21.0626 2.18057C16.3334 2.18057 11.6042 2.18057 6.87497 2.18057C6.25964 2.18057 6.00912 2.43095 6.00912 3.04153C6.00912 6.07249 6.00912 9.10784 6.00912 12.1388C6.00912 12.2091 6.00912 12.2794 6.00912 12.3496ZM6.25085 14.1287C6.25964 14.1638 6.26404 14.199 6.27283 14.2341C6.46182 14.2693 6.64642 14.3308 6.83541 14.3308C11.5954 14.3351 16.3554 14.3351 21.1153 14.3351C21.1505 14.3351 21.1901 14.3351 21.2252 14.3351C21.6384 14.3176 21.9197 14.0364 21.9284 13.6191C21.9328 13.3248 21.9153 13.0349 21.9328 12.7406C21.946 12.5341 21.8757 12.3848 21.7438 12.2354C20.3462 10.6145 18.9529 8.98924 17.5596 7.36394C17.2959 7.05646 17.2124 7.06085 16.9487 7.37273C15.6917 8.88381 14.4347 10.3949 13.1733 11.9016C12.8128 12.3321 12.3909 12.3496 11.991 11.9499C11.4899 11.4491 10.9889 10.9484 10.4878 10.4476C10.2505 10.2104 10.2065 10.2104 9.97356 10.4432C8.88356 11.5326 7.79356 12.622 6.69916 13.7114C6.55412 13.8563 6.40029 13.9881 6.25085 14.1287Z" fill="white"/>
<path d="M17.2199 21.3503C16.9079 21.2712 16.4024 21.157 15.9058 21.0208C11.449 19.8304 6.99673 18.6356 2.54442 17.4408C1.2874 17.1025 0.632518 16.0087 0.957761 14.7524C1.4676 12.7669 1.99063 10.7858 2.50926 8.80473C2.60156 8.44452 2.8389 8.23807 3.15974 8.2205C3.48059 8.20293 3.76188 8.36985 3.85418 8.67734C3.89814 8.83108 3.89813 9.01557 3.85858 9.16932C3.35753 11.1197 2.84769 13.0656 2.34224 15.016C2.17962 15.6354 2.35543 15.9429 2.96196 16.1054C7.67798 17.3661 12.394 18.6312 17.11 19.8919C17.699 20.05 18.0067 19.8611 18.1561 19.2637C18.3011 18.6707 18.4462 18.0733 18.6 17.4803C18.6923 17.1245 18.9736 16.9049 19.312 16.9136C19.6329 16.9224 19.9098 17.1508 19.9757 17.4803C19.9933 17.5769 19.9889 17.6868 19.9669 17.7834C19.8043 18.4555 19.6504 19.1319 19.4702 19.7996C19.2109 20.7353 18.3846 21.3503 17.2199 21.3503Z" fill="white"/>
<path d="M9.28592 7.31974C8.25745 7.31974 7.41797 6.48074 7.41797 5.45724C7.41797 4.42496 8.27063 3.58156 9.30789 3.58595C10.332 3.59035 11.1758 4.44253 11.1671 5.46603C11.1539 6.48952 10.3144 7.31974 9.28592 7.31974ZM9.29031 5.91408C9.54523 5.91408 9.75181 5.71641 9.7562 5.46163C9.76499 5.20686 9.54523 4.98722 9.29031 4.98722C9.03979 4.98722 8.82882 5.19368 8.82443 5.44406C8.81124 5.69884 9.0266 5.91408 9.29031 5.91408Z" fill="white"/>
</svg>
