<svg width="22" height="22" viewBox="0 0 22 22" fill="none" xmlns="http://www.w3.org/2000/svg">
<path d="M11.5824 0.134766C11.967 0.18967 12.357 0.233594 12.7416 0.29948C17.1035 1.04069 20.5644 4.4997 21.3171 8.86463C22.0642 13.1966 20.059 17.5451 16.2959 19.7522C15.8015 20.0432 15.2631 19.8346 15.1478 19.313C15.0763 19.0001 15.2192 18.7036 15.5488 18.5059C16.3563 18.0227 17.0705 17.4298 17.7023 16.7325C21.0863 12.999 20.7073 7.07473 16.8727 3.81339C14.917 2.14977 12.6537 1.43052 10.1047 1.62818C9.22568 1.69406 8.37417 1.91368 7.55014 2.23762C7.27546 2.34743 7.00627 2.31449 6.78103 2.11134C6.56678 1.92466 6.49537 1.67759 6.5558 1.40307C6.61623 1.13952 6.78103 0.974809 7.02825 0.87598C8.01709 0.491647 9.0389 0.244575 10.1047 0.167709C10.1596 0.162218 10.209 0.145747 10.264 0.134766C10.7035 0.134766 11.1429 0.134766 11.5824 0.134766Z" fill="white"/>
<path d="M0.375 10.0177C0.429936 9.61687 0.484872 9.21607 0.539808 8.82075C0.556288 8.69447 0.583756 8.5627 0.616717 8.43642C0.715602 8.03561 1.07818 7.80501 1.47372 7.88188C1.85827 7.95875 2.11647 8.3321 2.03406 8.7329C1.73191 10.2153 1.76488 11.6868 2.1714 13.1527C2.28677 13.5755 2.06153 13.9598 1.65501 14.0697C1.26496 14.174 0.86393 13.9598 0.776033 13.5371C0.633199 12.8837 0.534315 12.2194 0.413456 11.5605C0.402469 11.4891 0.385987 11.4123 0.375 11.3409C0.375 10.8962 0.375 10.4569 0.375 10.0177Z" fill="white"/>
<path d="M10.1928 9.92439C10.1928 9.83654 10.1928 9.75418 10.1928 9.67731C10.1928 8.38156 10.1928 7.08581 10.1928 5.79005C10.1928 5.35631 10.44 5.04335 10.8136 4.99393C11.2915 4.93354 11.6541 5.26297 11.6541 5.77358C11.6596 6.59715 11.6541 7.42073 11.6541 8.2443C11.6541 8.73295 11.6541 9.21611 11.6541 9.70477C11.6541 9.77614 11.6541 9.85301 11.6541 9.95184C11.753 9.95184 11.8354 9.95184 11.9123 9.95184C13.2143 9.95184 14.5218 9.95184 15.8238 9.95184C16.3072 9.95184 16.6313 10.2648 16.6148 10.704C16.6038 11.1213 16.2852 11.4123 15.8183 11.4123C14.5767 11.4123 13.3352 11.4123 12.0936 11.4123C11.9563 11.4123 11.8189 11.4123 11.6541 11.4123C11.6541 11.5056 11.6541 11.5825 11.6541 11.6649C11.6541 12.9661 11.6541 14.2728 11.6541 15.5741C11.6541 16.0133 11.4069 16.3208 11.0334 16.3702C10.5554 16.4306 10.1928 16.1012 10.1928 15.5906C10.1873 14.3552 10.1928 13.1198 10.1928 11.8845C10.1928 11.7362 10.1928 11.588 10.1928 11.4123C10.0939 11.4123 10.0115 11.4123 9.92914 11.4123C8.62716 11.4123 7.31968 11.4123 6.01771 11.4123C5.54526 11.4123 5.22114 11.1103 5.22663 10.6821C5.22663 10.2593 5.54526 9.95733 6.00672 9.95733C6.61102 9.95184 7.21531 9.95733 7.8196 9.95733C8.58871 9.95733 9.35781 9.95733 10.1269 9.95184C10.1324 9.94086 10.1434 9.93537 10.1928 9.92439Z" fill="white"/>
<path d="M10.9254 21.2185C9.57947 21.213 8.27749 20.9659 7.02495 20.4718C6.62941 20.318 6.44263 19.9172 6.57997 19.5384C6.7228 19.1486 7.12932 18.9564 7.54134 19.1156C8.55766 19.5054 9.60144 19.7306 10.6892 19.758C11.656 19.7855 12.6064 19.6537 13.5348 19.3847C14.1227 19.2144 14.6281 19.6427 14.5127 20.2137C14.4523 20.5102 14.26 20.6859 13.9743 20.7737C12.98 21.0702 11.9637 21.213 10.9254 21.2185Z" fill="white"/>
<path d="M6.1888 18.8519C6.17781 19.1155 6.05695 19.3351 5.80425 19.4723C5.54605 19.6096 5.27687 19.6096 5.04614 19.4284C4.49678 18.9892 3.93643 18.5554 3.42003 18.0778C2.75531 17.4573 2.22792 16.7216 1.77196 15.931C1.53573 15.5192 1.62363 15.0909 1.9917 14.8768C2.35977 14.6572 2.78278 14.7835 3.02449 15.1898C3.72767 16.3977 4.65609 17.4024 5.80974 18.1931C6.04597 18.3468 6.18331 18.5499 6.1888 18.8519Z" fill="white"/>
<path d="M1.52734 5.98243C1.57129 5.86164 1.60425 5.73536 1.66468 5.62006C2.4173 4.24744 3.42812 3.09444 4.69165 2.16655C5.04873 1.90301 5.48272 1.95242 5.73543 2.28185C5.99363 2.61677 5.9277 3.05601 5.56513 3.33053C4.4719 4.14312 3.59293 5.14788 2.9337 6.33932C2.74692 6.67973 2.40632 6.8115 2.06571 6.70718C1.74709 6.61933 1.53284 6.31735 1.52734 5.98243Z" fill="white"/>
</svg>
