<svg width="11" height="9" viewBox="0 0 11 9" fill="none" xmlns="http://www.w3.org/2000/svg">
<path d="M0.95732 3.71698C0.60562 3.63491 0.365292 3.42152 0.255874 3.0563C0.248058 3.02963 0.250012 2.99475 0.21875 2.97628C0.21875 2.86753 0.21875 2.75674 0.21875 2.64799C0.275413 2.56387 0.283228 2.45922 0.332076 2.371C0.529418 2.01398 0.939735 1.81906 1.31488 1.91139C1.70371 2.00783 1.98311 2.36279 1.99483 2.78751C2.0007 2.9968 1.94208 3.18967 1.82094 3.35997C1.8014 3.38664 1.78577 3.41742 1.76818 3.44409C1.53372 3.65543 1.27385 3.77854 0.95732 3.71698Z" fill="#FE9F01"/>
<path d="M10.2031 2.97012C10.1386 3.30867 9.88464 3.60003 9.55443 3.69852C9.53098 3.70467 9.50949 3.71083 9.48604 3.71698C9.30628 3.75597 9.13434 3.72314 8.96826 3.65132C8.85494 3.60208 8.77092 3.51385 8.67127 3.44614C8.60679 3.31893 8.52082 3.20198 8.48174 3.05835C8.30785 2.44076 8.81977 1.8088 9.42547 1.89908C9.61304 1.92781 9.79476 2.00372 9.93544 2.13914C10.0038 2.2048 10.0605 2.28072 10.1054 2.36484C10.1289 2.40998 10.1504 2.45512 10.166 2.50231C10.2227 2.6603 10.2305 2.82034 10.2031 2.97012Z" fill="#FE7817"/>
<path d="M8.66932 3.44614C8.76896 3.51385 8.85494 3.60208 8.96631 3.65132C9.13434 3.72314 9.30433 3.75597 9.48409 3.71698C9.25158 4.55002 9.01906 5.3851 8.78655 6.21814C8.67322 6.62234 8.55794 7.0245 8.44267 7.42665C7.36998 7.42665 6.29534 7.42665 5.22266 7.42665L5.2207 7.4246C5.2207 7.05527 5.2207 6.68595 5.2207 6.31868C5.48448 6.04578 5.74825 5.77289 6.01007 5.49795C6.07846 5.42614 6.19374 5.35433 6.1996 5.27636C6.20546 5.18608 6.08041 5.12042 6.01007 5.04655C5.74825 4.77161 5.48448 4.49872 5.2207 4.22583C5.2207 3.65132 5.2207 3.07682 5.2207 2.50231C5.25197 2.49821 5.28518 2.4941 5.31644 2.4941C5.44735 2.48795 5.56068 2.41819 5.68378 2.3792C5.67596 2.38331 5.7463 2.60901 5.75216 2.62747C5.79124 2.76494 5.83618 2.90036 5.88893 3.03373C6.04134 3.42152 6.21914 3.7929 6.52004 4.08015C6.69784 4.25045 6.90105 4.35715 7.15114 4.35099C7.46181 4.34484 7.74317 4.24225 8.00695 4.08015C8.20234 3.96115 8.36842 3.80316 8.52277 3.63286C8.57553 3.57541 8.62047 3.50975 8.66932 3.44614ZM6.97139 5.46512C6.96357 5.47128 6.95185 5.47949 6.94403 5.48974C6.82875 5.6108 6.71543 5.73186 6.5982 5.85086C6.55716 5.8919 6.58647 5.91447 6.61187 5.94114C6.71738 6.05194 6.82485 6.16274 6.9284 6.27559C6.96748 6.31662 6.99093 6.31868 7.03 6.27559C7.13356 6.16274 7.23907 6.04989 7.34849 5.94114C7.38757 5.90011 7.38952 5.87548 7.34849 5.83445C7.24102 5.7257 7.13551 5.61285 7.03 5.50206C7.01437 5.48769 7.0007 5.46512 6.97139 5.46512Z" fill="#FE9E00"/>
<path d="M5.2207 2.50231C5.2207 3.07682 5.2207 3.65132 5.2207 4.22583L5.22266 4.22993C5.20312 4.24635 5.17967 4.26071 5.16209 4.27918C4.86705 4.58695 4.57397 4.89882 4.27893 5.20454C4.22618 5.25789 4.22618 5.28662 4.27893 5.34201C4.53684 5.6067 4.78889 5.87754 5.04681 6.14427C5.10347 6.20377 5.15232 6.27354 5.22461 6.31662L5.22266 6.32073C5.22266 6.69005 5.22266 7.05938 5.22266 7.42665C4.14997 7.42665 3.07533 7.42665 2.00265 7.42665C1.78772 6.65927 1.57084 5.8919 1.35591 5.12452C1.22305 4.65466 1.09214 4.18479 0.961228 3.71493C1.27385 3.77854 1.53372 3.65543 1.76623 3.44614C1.7506 3.46051 1.96162 3.68005 1.97725 3.69646C2.25079 3.98577 2.57709 4.21147 2.9581 4.31201C3.3606 4.4187 3.71035 4.33663 4.00343 4.00424C4.37076 3.58567 4.59741 3.02963 4.73028 2.48385C4.73419 2.47153 4.75959 2.37715 4.76545 2.3792C4.91394 2.43871 5.05853 2.50642 5.2207 2.50231ZM3.46416 5.45692C3.45048 5.46923 3.4368 5.47743 3.42508 5.48769C3.3098 5.60875 3.19648 5.72981 3.0812 5.84881C3.04016 5.88985 3.06752 5.91242 3.09487 5.93909C3.20038 6.04989 3.30785 6.15863 3.4114 6.27148C3.44657 6.31047 3.47197 6.32073 3.51301 6.27559C3.61852 6.15863 3.72598 6.04784 3.8354 5.93499C3.87057 5.89805 3.87448 5.87343 3.8354 5.8365C3.72598 5.7257 3.61852 5.6108 3.51105 5.49795C3.49737 5.48769 3.48174 5.47538 3.46416 5.45692Z" fill="#FCBE00"/>
<path d="M4.71269 2.53514C4.67948 2.73006 4.60718 2.91267 4.53294 3.09528C4.40007 3.42563 4.2379 3.7375 4.00148 4.00424C3.71035 4.33663 3.35865 4.4187 2.95615 4.31201C2.65916 4.23404 2.38952 4.09862 2.16482 3.87702C2.44814 3.51796 2.79788 3.24301 3.18671 3.02347C3.66541 2.75468 4.17537 2.5967 4.71269 2.53514Z" fill="#FE4C01"/>
<path d="M8.27268 3.86676C8.20234 3.96525 8.10269 4.0227 8.00499 4.0822C7.74122 4.2443 7.45986 4.34689 7.14919 4.35304C6.89909 4.35715 6.69589 4.2525 6.51809 4.0822C6.21719 3.7929 6.04134 3.42152 5.88698 3.03578C5.8225 2.87164 5.76584 2.70544 5.73067 2.53309C6.18983 2.59054 6.63141 2.7116 7.04954 2.91678C7.51848 3.14453 7.93465 3.45025 8.27268 3.86676Z" fill="#CC1F0D"/>
<path d="M5.68378 2.3792C5.56068 2.41819 5.44931 2.48795 5.31644 2.4941C5.28518 2.49616 5.25197 2.50026 5.2207 2.50231C5.2207 1.88882 5.2207 1.27328 5.2207 0.659788C5.78342 0.637218 6.22696 1.24661 6.07064 1.82111C6.00617 2.05912 5.86353 2.23147 5.68378 2.3792Z" fill="#FE7817"/>
<path d="M5.2207 0.659788C5.2207 1.27328 5.2207 1.88882 5.2207 2.50231C5.05853 2.50436 4.91394 2.43871 4.76545 2.3792C4.59741 2.24584 4.45478 2.09195 4.3903 1.87241C4.20664 1.26507 4.61304 0.670047 5.2207 0.659788Z" fill="#FE9F01"/>
<path d="M1.99874 7.4287C3.07143 7.4287 4.14607 7.4287 5.21875 7.4287L5.2207 7.43076C5.2207 7.83906 5.2207 8.24943 5.2207 8.65774C4.89245 8.65979 4.5642 8.65979 4.23399 8.66184C3.51887 8.66184 2.80179 8.66184 2.08667 8.66389C2.01437 8.66389 1.99288 8.64748 1.99483 8.56951C2.0007 8.18582 1.99874 7.80624 1.99874 7.4287Z" fill="#FE9E00"/>
<path d="M5.2207 8.65568C5.2207 8.24738 5.2207 7.83701 5.2207 7.4287C6.29339 7.4287 7.36803 7.4287 8.44071 7.4287C8.44071 7.81444 8.44071 8.20018 8.44462 8.58797C8.44462 8.63517 8.44071 8.66184 8.38405 8.66184C7.32895 8.65774 6.2758 8.65568 5.2207 8.65568Z" fill="#FE7816"/>
<path d="M5.2207 4.22583C5.48448 4.49872 5.74825 4.77161 6.01007 5.04655C6.08041 5.12042 6.20546 5.18608 6.1996 5.27636C6.19374 5.35433 6.08041 5.42614 6.01007 5.49795C5.74825 5.77289 5.48448 6.04578 5.2207 6.31868L5.22266 6.31457C5.22266 5.61901 5.22266 4.92345 5.22266 4.22788L5.2207 4.22583Z" fill="#CC1E0D"/>
<path d="M6.97139 5.46512C7.0007 5.46512 7.01437 5.48769 7.03 5.50411C7.13551 5.6149 7.24102 5.72775 7.34849 5.8365C7.38952 5.87754 7.38757 5.90216 7.34849 5.94319C7.24102 6.05194 7.13356 6.16274 7.03 6.27764C6.99093 6.32073 6.96748 6.31867 6.9284 6.27764C6.82485 6.16479 6.71738 6.05399 6.61187 5.94319C6.58647 5.91652 6.55716 5.89395 6.5982 5.85291C6.71543 5.73391 6.82875 5.6108 6.94403 5.4918C6.95185 5.47949 6.96357 5.47128 6.97139 5.46512Z" fill="#CD210D"/>
<path d="M5.22266 4.22993C5.22266 4.9255 5.22266 5.62106 5.22266 6.31662C5.15232 6.27354 5.10347 6.20377 5.04485 6.14427C4.7889 5.87754 4.53489 5.6067 4.27698 5.34201C4.22422 5.28867 4.22422 5.25994 4.27698 5.20454C4.57397 4.89882 4.86705 4.58695 5.16013 4.27918C5.18163 4.26071 5.20312 4.24635 5.22266 4.22993Z" fill="#FE4C00"/>
<path d="M3.46416 5.45692C3.48174 5.47333 3.49737 5.48564 3.51105 5.5C3.61852 5.61285 3.72598 5.72775 3.8354 5.83855C3.87252 5.87549 3.87057 5.90011 3.8354 5.93704C3.72598 6.04784 3.61656 6.16069 3.51301 6.27764C3.47197 6.32278 3.44657 6.31252 3.4114 6.27354C3.30785 6.16069 3.20038 6.05194 3.09487 5.94114C3.06947 5.91447 3.04212 5.8919 3.0812 5.85086C3.19648 5.73186 3.31176 5.6108 3.42508 5.48974C3.43485 5.47743 3.44853 5.46923 3.46416 5.45692Z" fill="#FE4E00"/>
</svg>
