<svg width="10" height="9" viewBox="0 0 10 9" fill="none" xmlns="http://www.w3.org/2000/svg">
<path d="M4.61038 8.30425C4.45959 8.12329 4.30663 7.94234 4.15802 7.7592C3.83896 7.36675 3.51989 6.9743 3.20083 6.58186C2.8315 6.12836 2.46435 5.67486 2.09503 5.22137C1.72351 4.7657 1.35201 4.31221 0.980493 3.85653C0.897449 3.75406 0.812227 3.65595 0.742267 3.54692C0.742241 3.52509 0.742214 3.50327 0.742188 3.48145C1.11314 3.48099 1.4841 3.48272 1.85724 3.48227C1.87041 3.54772 1.89667 3.60444 1.94037 3.65676C2.09116 3.83772 2.23976 4.02086 2.38837 4.204C2.61347 4.48308 2.84074 4.75997 3.06584 5.03905C3.29312 5.3203 3.5204 5.59937 3.74768 5.88063C3.8198 5.97002 3.89409 6.05505 3.96839 6.14225C3.97493 6.13788 3.98147 6.13569 3.98801 6.13132C3.92008 5.8957 3.85215 5.6579 3.7864 5.42227C3.83419 5.24762 3.9475 5.11654 4.0892 5.00943C4.14371 4.96789 4.15022 4.9417 4.09125 4.9003C3.91653 4.77393 3.80504 4.60821 3.75242 4.39876C3.74803 4.37912 3.74581 4.34857 3.71744 4.35079C3.69126 4.353 3.69348 4.38137 3.68696 4.4032C3.65653 4.49927 3.6261 4.59533 3.56073 4.67398C3.55853 4.6587 3.55632 4.64125 3.55194 4.62597C3.44019 4.24419 3.32625 3.86022 3.2145 3.47843C4.36446 3.47703 5.51661 3.47562 6.66657 3.47422C6.66006 3.50042 6.65791 3.52661 6.64921 3.55281C6.54273 3.91959 6.43408 4.28637 6.3276 4.65533C6.17332 5.18803 6.02122 5.71854 5.86913 6.25124C5.74962 6.66823 5.63011 7.08522 5.50624 7.50221C5.4693 7.62447 5.44545 7.75326 5.38669 7.87773C5.27309 7.7753 5.19439 7.65318 5.10261 7.54417C4.76388 7.1321 4.42951 6.71567 4.09296 6.29923C4.08203 6.28397 4.06891 6.25998 4.04928 6.26873C4.01875 6.28187 4.04496 6.30584 4.04717 6.32548C4.04937 6.33857 4.04938 6.35167 4.05376 6.36475C4.20715 6.89053 4.36272 7.41631 4.51611 7.94208C4.55117 8.06207 4.60586 8.17768 4.61038 8.30425Z" fill="#CA97E6"/>
<path d="M1.85555 3.48261C1.48459 3.48307 1.11363 3.48134 0.740496 3.48179C0.740461 3.45342 0.740429 3.42723 0.740395 3.39886C1.19792 2.81559 1.66419 2.24105 2.13264 1.66432C2.16981 1.7232 2.20697 1.78208 2.24414 1.84314C2.3644 2.04377 2.48685 2.24659 2.60711 2.44723C2.60711 2.45159 2.60712 2.45814 2.60713 2.4625C2.41103 2.70499 2.21276 2.9453 2.02103 3.19215C1.95567 3.27734 1.85102 3.34513 1.86863 3.47605C1.86427 3.47824 1.85991 3.48043 1.85555 3.48261Z" fill="#814AA0"/>
<path d="M4.61047 8.30401C4.60596 8.17743 4.55126 8.06183 4.5162 7.94184C4.365 7.41606 4.20943 6.89029 4.05386 6.36451C4.04948 6.35142 4.04946 6.33833 4.04726 6.32524C4.04506 6.3056 4.01884 6.2838 4.04938 6.26849C4.069 6.25974 4.08213 6.28373 4.09305 6.29899C4.4296 6.71324 4.76179 7.13186 5.1027 7.54392C5.19448 7.65293 5.27319 7.77505 5.38678 7.87749C5.44555 7.75302 5.46939 7.62423 5.50634 7.50197C5.63021 7.08497 5.74753 6.66799 5.86922 6.25099C6.02132 5.7183 6.17342 5.18778 6.3277 4.65508C6.43417 4.28831 6.54283 3.92153 6.6493 3.55257C6.65582 3.52637 6.66015 3.50017 6.66666 3.47398C6.66666 3.46961 6.66665 3.46306 6.66665 3.4587C6.67101 3.45869 6.67756 3.45869 6.68192 3.45868C6.70159 3.48048 6.72776 3.4739 6.74958 3.47388C7.5395 3.47291 8.32724 3.47195 9.11715 3.47099C9.12817 3.55391 9.07586 3.60853 9.03011 3.66533C8.53552 4.27701 8.03874 4.88652 7.54415 5.4982C7.44147 5.39793 7.39985 5.26485 7.36259 5.13177C7.35602 5.10996 7.36034 5.07721 7.32543 5.07726C7.2927 5.07948 7.29492 5.11003 7.2884 5.13186C7.22324 5.38292 7.0882 5.58605 6.87891 5.73908C6.8135 5.78717 6.8157 5.80244 6.87905 5.85256C6.95768 5.91576 7.04285 5.97021 7.08661 6.06619C6.68135 6.56646 6.27609 7.06672 5.86864 7.56481C5.74663 7.71337 5.62243 7.86192 5.50041 8.01048C5.4502 7.9909 5.44357 7.91889 5.38463 7.90586C5.36291 7.98227 5.33899 8.05651 5.31945 8.13291C5.30859 8.17658 5.28028 8.22026 5.29779 8.27043C5.24332 8.33816 5.19322 8.40805 5.13657 8.4736C5.01236 8.61779 4.86616 8.61797 4.7416 8.4719C4.69354 8.41958 4.65419 8.3607 4.61047 8.30401Z" fill="#BC80E0"/>
<path d="M6.66923 3.45677C6.66923 3.46113 6.66924 3.46768 6.66925 3.47204C5.51928 3.47345 4.36714 3.47485 3.21718 3.47625C3.54166 2.94553 3.86833 2.41698 4.19063 1.88626C4.25597 1.77924 4.3344 1.68312 4.37572 1.56304C4.75322 1.56258 5.13072 1.56212 5.50822 1.56166C5.50608 1.59221 5.52574 1.61183 5.54104 1.63364C5.6919 1.8757 5.84058 2.11995 5.99144 2.36202C6.21665 2.72839 6.44184 3.09258 6.66923 3.45677Z" fill="#D8B0ED"/>
<path d="M9.1171 3.4694C8.32718 3.47037 7.53945 3.47133 6.74953 3.47229C6.72552 3.47232 6.69935 3.4789 6.68186 3.4571C6.85824 3.15352 7.03244 2.84995 7.21101 2.54856C7.38303 2.25591 7.55506 1.96325 7.72927 1.67059C7.88878 1.84281 8.02648 2.03252 8.17508 2.21348C8.46574 2.57104 8.75421 2.9286 9.04269 3.28835C9.08639 3.34068 9.12792 3.39519 9.1171 3.4694Z" fill="#9857BD"/>
<path d="M7.72978 1.67132C7.55775 1.96397 7.38354 2.25663 7.21151 2.54929C7.03513 2.85286 6.85875 3.15643 6.68237 3.45782C6.67801 3.45782 6.67146 3.45783 6.6671 3.45784C6.43971 3.09365 6.21451 2.72946 5.98713 2.36527C5.83627 2.12321 5.68759 1.87896 5.53673 1.63689C5.52361 1.6129 5.50395 1.59328 5.50391 1.56491C5.82686 1.56234 6.14981 1.56194 6.47276 1.55937C6.49679 1.58116 6.4881 1.62045 6.51868 1.64224C6.54921 1.62256 6.54043 1.58329 6.56222 1.55926C6.87644 1.55887 7.19285 1.55849 7.50707 1.56029C7.6009 1.56017 7.68167 1.58626 7.72978 1.67132Z" fill="#AF66D9"/>
<path d="M4.37078 1.56523C4.33165 1.68531 4.25103 1.78362 4.1857 1.88845C3.86339 2.41918 3.53672 2.94772 3.21224 3.47845C3.20569 3.47846 3.20133 3.47628 3.19478 3.47629C3.18603 3.45447 3.17945 3.43047 3.16851 3.40866C2.98265 3.09244 2.79461 2.7784 2.60656 2.46436C2.60656 2.45999 2.60655 2.45345 2.60654 2.44908C2.76347 2.29394 2.88107 2.10611 3.02925 1.94224C3.14257 1.81552 3.21875 1.65611 3.37138 1.56645C3.70524 1.56604 4.0391 1.56563 4.37078 1.56523Z" fill="#BC80E0"/>
<path d="M7.088 6.06655C7.04424 5.97058 6.95907 5.91612 6.88044 5.85292C6.81709 5.80281 6.81708 5.78753 6.8803 5.73944C7.08959 5.58641 7.22463 5.3811 7.28979 5.13222C7.29631 5.10821 7.29409 5.07766 7.32682 5.07762C7.36173 5.07539 7.35741 5.11032 7.36398 5.13213C7.40342 5.26521 7.44286 5.39829 7.54554 5.49856C7.59368 5.60544 7.68541 5.66862 7.77277 5.73617C7.84048 5.78846 7.84268 5.80592 7.77292 5.8562C7.5658 6.00486 7.43293 6.20362 7.36777 6.44813C7.36125 6.47215 7.36785 6.51797 7.32421 6.51366C7.28929 6.51152 7.29579 6.47441 7.28703 6.44823C7.24541 6.31079 7.20159 6.17117 7.088 6.06655Z" fill="#FDE87E"/>
<path d="M3.37615 1.5661C3.22352 1.65795 3.14734 1.81736 3.03402 1.94189C2.88802 2.10575 2.77041 2.29359 2.61131 2.44873C2.49105 2.24591 2.3686 2.0431 2.24834 1.84246C2.21117 1.7814 2.17401 1.72252 2.13684 1.66364C2.1804 1.59593 2.24582 1.5653 2.3222 1.5652C2.67351 1.56478 3.02483 1.56435 3.37615 1.5661Z" fill="#9858BD"/>
<path d="M6.56644 1.55824C6.54465 1.58009 6.55343 1.61936 6.5229 1.64122C6.49233 1.61944 6.50101 1.58014 6.47698 1.55835C6.44627 1.4318 6.3676 1.33369 6.26713 1.25525C6.21908 1.2182 6.21032 1.19421 6.26264 1.15704C6.37819 1.07397 6.44788 0.96258 6.48918 0.827219C6.4957 0.807569 6.49566 0.777016 6.52185 0.776984C6.55022 0.776949 6.54807 0.805323 6.55246 0.827142C6.58971 0.95586 6.65967 1.06271 6.76669 1.14551C6.8344 1.19781 6.83223 1.20654 6.76248 1.26555C6.66656 1.34424 6.59467 1.43817 6.56644 1.55824Z" fill="#FDE87F"/>
<path d="M5.29896 8.27071C5.28144 8.22053 5.30976 8.17903 5.32061 8.13319C5.34016 8.05678 5.36407 7.98255 5.3858 7.90614C5.44691 7.91916 5.45136 7.98899 5.50158 8.01075C5.44714 8.10684 5.37086 8.18551 5.29896 8.27071Z" fill="#B069DA"/>
<path d="M3.19746 3.47636C3.20401 3.47635 3.20837 3.47853 3.21492 3.47852C3.32667 3.86031 3.44061 4.24428 3.55236 4.62607C3.55675 4.64134 3.55895 4.65879 3.56115 4.67407C3.50671 4.77016 3.42606 4.84228 3.33886 4.90786C3.29962 4.93846 3.29092 4.96466 3.3346 4.99516C3.51806 5.12807 3.63611 5.3047 3.69093 5.52287C3.69531 5.54033 3.6997 5.5556 3.71933 5.55339C3.73897 5.55119 3.74331 5.53372 3.74766 5.51844C3.75853 5.48569 3.75848 5.44859 3.78463 5.42019C3.85257 5.6558 3.9205 5.89361 3.98625 6.12923C3.97971 6.1336 3.97317 6.13579 3.96663 6.14016C3.89233 6.05296 3.81803 5.96575 3.74591 5.87854C3.51864 5.59947 3.29136 5.31821 3.06407 5.03696C2.83898 4.75788 2.61388 4.48099 2.38661 4.20192C2.238 4.01877 2.08939 3.83563 1.93861 3.65467C1.8949 3.60235 1.86865 3.54564 1.85548 3.48018C1.85984 3.47799 1.8642 3.4758 1.86856 3.47362C2.31371 3.47526 2.75668 3.4769 3.19746 3.47636Z" fill="#E4C9F2"/>
<path d="M3.78461 5.42341C3.76064 5.45181 3.7585 5.48891 3.74763 5.52166C3.74329 5.53694 3.73894 5.55441 3.71931 5.55661C3.69749 5.55882 3.69529 5.54137 3.6909 5.52609C3.63608 5.30792 3.51804 5.13129 3.33458 4.99838C3.2909 4.96788 3.29959 4.9395 3.33884 4.91108C3.42604 4.8455 3.50669 4.77338 3.56112 4.67729C3.62649 4.59864 3.65474 4.50258 3.68736 4.40651C3.69388 4.38686 3.69166 4.35631 3.71784 4.3541C3.74621 4.35188 3.74842 4.38243 3.75281 4.40207C3.80544 4.61152 3.91693 4.77943 4.09165 4.90361C4.14843 4.94501 4.14192 4.97121 4.0896 5.01274C3.94789 5.11767 3.83458 5.24657 3.78461 5.42341Z" fill="#FCE77E"/>
<path d="M3.19839 3.47685C2.75761 3.47738 2.31464 3.47792 1.87386 3.47628C1.85842 3.34535 1.9609 3.27757 2.02626 3.19238C2.21798 2.94553 2.41626 2.70522 2.61235 2.46492C2.8004 2.77896 2.98626 3.09518 3.1743 3.40922C3.18524 3.42885 3.18963 3.45285 3.19839 3.47685Z" fill="#9857BC"/>
</svg>
