<svg width="20" height="19" viewBox="0 0 20 19" fill="none" xmlns="http://www.w3.org/2000/svg">
<path d="M19.0367 6.05273C19.3384 6.82934 19.5462 7.63562 19.6253 8.46168C19.8677 11.019 19.2345 13.3389 17.6417 15.367C16.2765 17.1082 14.5057 18.2261 12.3589 18.7504C11.9236 18.8543 11.4833 18.9384 11.0332 18.9582C11.0035 18.9582 10.9689 18.9582 10.9541 18.9928C10.7809 18.9928 10.6078 18.9928 10.4347 18.9928C10.3803 18.9384 10.3061 18.9582 10.2418 18.9582C9.95487 18.9532 9.66797 18.9137 9.38108 18.8691C8.53522 18.7356 7.71905 18.4833 6.9375 18.1272C6.95729 18.048 7.02159 18.0084 7.07106 17.954C7.49646 17.5187 7.94164 17.1032 8.3522 16.6531C8.38683 16.6581 8.4264 16.663 8.46102 16.6679C8.95073 16.7916 9.45033 16.851 9.94992 16.8658C10.4891 16.8955 11.0233 16.851 11.5476 16.7471C13.3531 16.386 14.8371 15.4907 15.9797 14.0413C16.9294 12.8344 17.4389 11.4543 17.5428 9.92585C17.5923 9.16409 17.5131 8.41222 17.3301 7.67024C17.3796 7.62572 17.434 7.58615 17.4835 7.53669C17.9435 7.08161 18.3986 6.62158 18.8586 6.1665C18.9081 6.12693 18.9476 6.05273 19.0367 6.05273Z" fill="#FEDD50"/>
<path d="M1.97177 14.2883C1.30893 13.1556 0.898374 11.9387 0.745032 10.6328C0.730193 10.5042 0.749979 10.3608 0.675781 10.2421C0.675781 9.73753 0.675781 9.22804 0.675781 8.71855C0.764818 8.5108 0.745032 8.2882 0.779658 8.07056C1.23474 5.30546 2.62965 3.13889 4.94462 1.57085C6.22576 0.710153 7.65036 0.220449 9.18872 0.0522674C9.37669 0.0324813 9.5696 0.0275348 9.76252 0.0126953C9.75757 0.0868929 9.69821 0.0720534 9.6537 0.0819464C8.92161 0.195716 8.20437 0.358951 7.51186 0.626062C6.38405 1.05641 5.37497 1.67472 4.48954 2.48595C3.47551 3.406 2.70385 4.49918 2.15479 5.76054C1.67003 6.87845 1.4326 8.04583 1.38313 9.25277C1.35345 9.95518 1.4326 10.6526 1.56615 11.3451C1.73433 12.2058 2.00639 13.0369 2.43179 13.8135C2.31802 14.0064 2.14489 14.1449 1.97177 14.2883Z" fill="#EFCD03"/>
<path d="M9.43048 18.9994C9.19799 18.9203 8.95067 18.9302 8.71323 18.8906C8.02567 18.7719 7.35294 18.6185 6.71484 18.3366C6.78409 18.2624 6.84345 18.1734 6.94238 18.1338C7.72393 18.4899 8.53516 18.7373 9.38596 18.8758C9.66791 18.9203 9.95481 18.9648 10.2467 18.9648C10.311 18.9648 10.3852 18.945 10.4396 18.9994C10.0983 18.9994 9.76684 18.9994 9.43048 18.9994Z" fill="#F0CE09"/>
<path d="M2.42988 13.8157C2.00942 13.0391 1.73736 12.213 1.56424 11.3474C1.43068 10.6549 1.35154 9.95742 1.38122 9.25501C1.43068 8.04806 1.66317 6.87574 2.15287 5.76278C2.70193 4.50142 3.47359 3.40824 4.48762 2.48819C5.378 1.67696 6.38708 1.06359 7.50994 0.6283C8.20245 0.361188 8.9197 0.197953 9.65178 0.0841836C9.70125 0.079237 9.75566 0.0891301 9.7606 0.0149324C10.7746 -0.0444257 11.7738 0.0742905 12.7532 0.351295C13.5298 0.568941 14.2718 0.875625 14.9643 1.30102C14.9099 1.36038 14.8605 1.42469 14.806 1.4791C14.351 1.93912 13.8959 2.39915 13.4408 2.86412C13.4062 2.85423 13.3716 2.84434 13.3369 2.8295C12.2388 2.30517 11.0863 2.07763 9.87932 2.12709C9.51328 2.1172 9.15218 2.17161 8.80098 2.24581C6.82732 2.64648 5.24444 3.66051 4.0919 5.31759C3.35982 6.3712 2.93937 7.53857 2.82065 8.81972C2.74645 9.62105 2.80581 10.4026 2.97894 11.1841C3.1026 11.7332 3.30541 12.2526 3.53295 12.767C3.26584 13.0292 3.00367 13.2914 2.73161 13.5486C2.63268 13.6426 2.56343 13.7613 2.42988 13.8157Z" fill="#FEDD4F"/>
<path d="M19.0354 6.05361C18.9463 6.05361 18.9117 6.12781 18.8622 6.17727C18.4022 6.63235 17.9471 7.09238 17.4871 7.54745C17.4377 7.59692 17.3882 7.63649 17.3338 7.68101C17.2348 7.32981 17.126 6.9885 16.9875 6.65214C16.7649 6.10802 16.4632 5.61337 16.1367 5.12861C16.4632 4.7972 16.7897 4.46083 17.1211 4.12942C17.2893 3.96124 17.4426 3.77327 17.6405 3.63477C17.9224 3.92661 18.1203 4.27287 18.328 4.61417C18.61 5.0742 18.8474 5.55401 19.0354 6.05361Z" fill="#FEE993"/>
<path d="M13.4375 2.86388C13.8926 2.40385 14.3477 1.94383 14.8027 1.47886C14.8571 1.42444 14.9116 1.36014 14.961 1.30078C15.5744 1.6322 16.1235 2.05265 16.628 2.52752C16.5439 2.53246 16.5043 2.60171 16.4499 2.65118C15.9998 3.09636 15.5497 3.54155 15.0946 3.98179C14.59 3.5465 14.0311 3.17551 13.4375 2.86388Z" fill="#FEE993"/>
<path d="M15.0977 3.9865C15.5478 3.54131 15.9979 3.09613 16.453 2.65589C16.5025 2.60642 16.542 2.53717 16.6311 2.53223C16.9971 2.86364 17.3434 3.23463 17.6402 3.64024C17.4423 3.77875 17.289 3.96671 17.1208 4.1349C16.7894 4.46136 16.4629 4.79773 16.1364 5.13409C15.8149 4.72848 15.4736 4.34265 15.0977 3.9865Z" fill="#FEDD50"/>
<path d="M9.95562 16.8827C9.45107 16.863 8.95642 16.8036 8.46672 16.6849C8.43209 16.675 8.39252 16.675 8.35789 16.67C7.72474 16.487 7.10148 16.2644 6.53263 15.9231C6.27541 15.7698 6.0182 15.6065 5.76592 15.4483C5.74614 15.3938 5.69667 15.3642 5.65215 15.3295C5.41967 15.1416 5.18224 14.9586 4.98438 14.736C4.99427 14.7063 4.99921 14.6717 5.019 14.6519C5.53838 14.1325 6.05777 13.618 6.5821 13.1036C6.94814 13.7813 7.48731 14.271 8.21445 14.5183C8.43704 14.5975 8.50134 14.6865 8.47661 14.9041C8.45188 15.1515 8.48156 15.3938 8.61511 15.6164C8.82781 15.9676 9.42139 16.0369 9.66377 15.7302C9.68851 15.745 9.71324 15.7648 9.74292 15.7797C10.2227 16.1061 10.7965 15.8638 10.8955 15.29C10.9202 15.1317 10.9202 14.9684 10.9103 14.8102C10.9004 14.6667 10.9449 14.5975 11.0884 14.5529C12.7751 13.9989 13.5962 12.144 12.8889 10.4968C12.5476 9.70042 11.8798 9.27007 11.0933 9.00296C10.94 8.94855 10.8806 8.87929 10.9152 8.72595C11.1774 8.49347 11.4297 8.24614 11.6572 7.97903C11.7463 7.92957 11.8353 7.8801 11.9243 7.83064C11.9392 7.83558 11.959 7.84053 11.9738 7.85042C12.2261 8.0285 12.4882 8.04333 12.7553 7.89989C13.0323 7.75149 13.1461 7.49922 13.1313 7.19253C13.1214 6.98478 13.0868 6.77703 13.062 6.57422C13.1115 6.5297 13.1659 6.49013 13.2154 6.44067C13.7397 5.92128 14.2591 5.39695 14.7834 4.87757C14.8329 4.8281 14.8724 4.75885 14.9615 4.75391C15.006 4.79348 15.0604 4.83305 15.095 4.87757C15.5007 5.40685 15.8568 5.9658 16.119 6.57917C16.4405 7.32609 16.6482 8.10269 16.6977 8.90897C16.7373 9.55697 16.7274 10.2099 16.5988 10.8579C16.396 11.8719 16.02 12.8167 15.4314 13.6675C14.9516 14.36 14.3729 14.9635 13.6902 15.4582C12.8592 16.0567 11.9491 16.4722 10.9499 16.6948C10.6135 16.7789 10.2821 16.8036 9.95562 16.8827Z" fill="#F9A200"/>
<path d="M9.95414 16.8801C10.2806 16.8009 10.617 16.7762 10.9434 16.702C11.9426 16.4794 12.8577 16.0639 13.6838 15.4654C14.3664 14.9707 14.9501 14.3673 15.425 13.6747C16.0136 12.8239 16.3846 11.8792 16.5924 10.8651C16.721 10.2171 16.7309 9.5642 16.6913 8.9162C16.6418 8.10992 16.4341 7.33332 16.1125 6.5864C15.8504 5.97303 15.4942 5.40913 15.0886 4.8848C15.054 4.83533 14.9996 4.80071 14.9551 4.76114C14.9551 4.70673 14.9204 4.6721 14.8858 4.63747C14.5494 4.30111 14.2279 3.95486 13.847 3.66796C12.922 2.9705 11.9031 2.49069 10.7604 2.27799C10.4686 2.22358 10.1718 2.18401 9.875 2.13454C11.0819 2.08508 12.2345 2.31261 13.3277 2.83694C13.3623 2.85178 13.3969 2.86168 13.4315 2.87157C14.0251 3.1832 14.5791 3.55914 15.0936 3.99443C15.4695 4.35058 15.8108 4.7364 16.1323 5.14202C16.4588 5.62678 16.7605 6.12637 16.9831 6.66554C17.1216 7.00191 17.2354 7.34322 17.3294 7.69442C17.5124 8.43639 17.5916 9.18826 17.5421 9.95002C17.4382 11.4785 16.9287 12.8586 15.979 14.0655C14.8363 15.5148 13.3474 16.4102 11.5469 16.7713C11.0275 16.8652 10.4884 16.9098 9.95414 16.8801Z" fill="#F58E01"/>
<path d="M5.75896 15.4443C6.01618 15.6026 6.26845 15.7659 6.52567 15.9192C7.09947 16.2556 7.71778 16.4831 8.35093 16.6661C7.94532 17.1212 7.49519 17.5318 7.06979 17.9671C7.02032 18.0215 6.95107 18.061 6.93623 18.1402C6.8373 18.1798 6.77794 18.2688 6.70869 18.343C6.32781 18.249 5.99145 18.0511 5.65014 17.8731C5.20001 17.6406 4.7845 17.3586 4.37889 17.052C4.34921 17.0322 4.32942 16.9975 4.30469 16.9679C4.40362 16.8541 4.50749 16.7403 4.60642 16.6315C4.97741 16.2655 5.3484 15.8994 5.71939 15.5334C5.74412 15.5086 5.74412 15.474 5.75896 15.4443Z" fill="#FEE993"/>
<path d="M2.42878 13.8162C2.56233 13.7667 2.63158 13.643 2.73051 13.554C3.00257 13.2968 3.26474 13.0346 3.53185 12.7725C3.76928 13.183 3.99682 13.5936 4.28866 13.9745C4.41727 14.1426 4.58545 14.2861 4.67944 14.479C4.63986 14.479 4.61019 14.4988 4.58051 14.5235C4.2293 14.8797 3.8781 15.2358 3.5269 15.587C3.41313 15.7008 3.29936 15.8146 3.18559 15.9283C2.80966 15.5771 2.51781 15.1567 2.23091 14.7362C2.13693 14.5928 2.02811 14.4592 1.96875 14.291C2.14188 14.1476 2.31501 14.0091 2.42878 13.8162Z" fill="#FEE993"/>
<path d="M3.1875 15.9272C3.30127 15.8135 3.41504 15.6997 3.52881 15.5859C3.62279 15.5909 3.65742 15.67 3.71183 15.7294C3.99378 16.046 4.29057 16.3477 4.61209 16.6297C4.51316 16.7434 4.40929 16.8572 4.31036 16.966C3.8998 16.6593 3.52386 16.3131 3.1875 15.9272Z" fill="#EFCD04"/>
<path d="M4.68205 14.4736C4.58807 14.2758 4.41989 14.1373 4.29128 13.9691C3.99943 13.5931 3.77189 13.1776 3.53446 12.7671C3.30692 12.2526 3.09917 11.7333 2.98045 11.1842C2.80732 10.4026 2.75291 9.6211 2.82216 8.81977C2.94088 7.53862 3.36133 6.3663 4.09342 5.31764C5.24595 3.66056 6.82884 2.64652 8.80249 2.24586C9.1537 2.17166 9.51479 2.11725 9.88083 2.12714C10.1776 2.1766 10.4695 2.21618 10.7663 2.27059C11.9089 2.48329 12.9279 2.9631 13.8529 3.66056C14.2338 3.94745 14.5553 4.29371 14.8916 4.63007C14.9263 4.6647 14.9609 4.69932 14.9609 4.75374C14.8768 4.75374 14.8372 4.82793 14.7828 4.8774C14.2585 5.39678 13.7391 5.92111 13.2148 6.4405C13.1653 6.48996 13.1158 6.52953 13.0614 6.57405C13.0466 6.53942 13.0318 6.5048 13.0219 6.47017C12.7597 5.59464 12.2156 4.96149 11.3895 4.57071C11.2362 4.49652 11.0086 4.48168 10.9344 4.36791C10.8553 4.2393 10.9147 4.02165 10.9048 3.84358C10.8899 3.59625 10.8157 3.37366 10.5981 3.22032C10.3062 3.01751 10.0193 3.03235 9.65824 3.27473C9.36145 2.92353 8.7184 3.06203 8.53538 3.51711C8.4414 3.74959 8.46613 3.99197 8.47108 4.22941C8.47602 4.36791 8.42161 4.41737 8.29795 4.45694C7.42736 4.7389 6.814 5.30774 6.46279 6.1536C6.25504 6.66309 6.19074 7.19236 6.27483 7.74637C6.34902 8.26576 6.53205 8.73073 6.88325 9.12645C7.27402 9.56174 7.76867 9.82885 8.31279 10.0119C8.42161 10.0514 8.47602 10.096 8.47108 10.2196C8.46118 10.551 8.46613 10.8874 8.46613 11.2188C8.06052 10.9418 7.81319 10.9369 7.43231 11.2089C7.39769 11.1446 7.34327 11.11 7.27897 11.0803C6.79916 10.8627 6.2402 11.2139 6.24515 11.7382C6.24515 12.218 6.35397 12.6731 6.57656 13.0985C6.05718 13.6129 5.53285 14.1323 5.01347 14.6468C4.99368 14.6665 4.98873 14.7012 4.97884 14.7308C4.87991 14.6468 4.78098 14.5627 4.68205 14.4736Z" fill="#FEBC00"/>
<path d="M7.42729 11.2084C7.80817 10.9363 8.05055 10.9413 8.46111 11.2183C8.58477 11.3864 8.65402 11.5645 8.66392 11.7822C8.6837 12.257 8.88651 12.6478 9.26739 12.9397C9.30696 12.9693 9.35148 13.0336 9.41084 13.0089C9.4702 12.9842 9.44052 12.91 9.44052 12.8605C9.44052 11.9899 9.43557 11.1193 9.44547 10.2488C9.44547 10.1053 9.396 10.0459 9.26245 10.0064C8.81726 9.86292 8.4067 9.65517 8.06044 9.33365C7.3432 8.67576 7.12555 7.8398 7.24922 6.90986C7.4075 5.70786 8.09012 4.90652 9.20803 4.48112C9.40589 4.40692 9.46031 4.32778 9.44547 4.13487C9.42073 3.82818 9.44052 3.52644 9.66311 3.28407C10.0242 3.04169 10.3111 3.0219 10.6029 3.22965C10.8206 3.383 10.8997 3.60064 10.9096 3.85291C10.9195 4.03099 10.8552 4.24863 10.9393 4.37724C11.0135 4.49596 11.241 4.5108 11.3944 4.58005C12.2205 4.97083 12.7646 5.60398 13.0267 6.47951C13.0366 6.51414 13.0515 6.54876 13.0663 6.58339C13.091 6.79114 13.1257 6.99395 13.1356 7.2017C13.1504 7.50838 13.0366 7.76066 12.7596 7.90905C12.4925 8.0525 12.2304 8.03766 11.9781 7.85959C11.9632 7.84969 11.9435 7.84475 11.9286 7.8398C11.7753 7.66667 11.6961 7.47871 11.6862 7.23633C11.6664 6.74662 11.4587 6.34595 11.0531 6.05411C11.0185 6.02938 10.9888 5.98486 10.9393 6.00465C10.8849 6.02443 10.9096 6.07884 10.9096 6.11842C10.9096 6.68232 10.9146 7.24127 10.9146 7.80518C10.9146 8.11681 10.9146 8.42349 10.9146 8.73512C10.88 8.88846 10.9393 8.96266 11.0927 9.01212C11.8791 9.27923 12.5469 9.70958 12.8882 10.506C13.5956 12.1482 12.7695 14.0081 11.0877 14.5621C10.9393 14.6116 10.8997 14.6759 10.9096 14.8193C10.9195 14.9776 10.9245 15.1408 10.8948 15.2991C10.7959 15.8729 10.2221 16.1104 9.74226 15.7888C9.71752 15.774 9.69279 15.7542 9.66311 15.7394C9.49988 15.5465 9.43063 15.3239 9.44052 15.0716C9.44547 14.9677 9.43557 14.8589 9.44547 14.755C9.45536 14.6462 9.40589 14.6066 9.31191 14.572C8.18905 14.1961 7.51138 13.4195 7.26406 12.2719C7.18491 11.8959 7.13545 11.52 7.42729 11.2084ZM10.9047 11.7723C10.9047 12.1482 10.9047 12.5241 10.9047 12.9001C10.9047 13.0237 10.9344 13.0435 11.0382 12.9693C11.2608 12.8061 11.434 12.6033 11.5477 12.3461C11.8099 11.7574 11.711 10.9116 11.0927 10.5802C11.0382 10.5505 10.9888 10.4862 10.9294 10.5208C10.88 10.5505 10.9047 10.6247 10.9047 10.6742C10.9047 11.0451 10.9047 11.4062 10.9047 11.7723ZM9.44052 7.25117C9.44052 6.87523 9.44052 6.4993 9.44052 6.11842C9.44052 6.07884 9.46031 6.01949 9.42073 5.9997C9.36632 5.96507 9.3317 6.02443 9.29212 6.04916C8.8964 6.33606 8.68865 6.73178 8.66392 7.21159C8.63918 7.73098 8.79253 8.17616 9.29212 8.43338C9.42073 8.50263 9.44052 8.46801 9.44052 8.3394C9.43557 7.9783 9.44052 7.61226 9.44052 7.25117Z" fill="#FEE892"/>
<path d="M7.42831 11.2093C7.13647 11.5209 7.18098 11.8969 7.26013 12.258C7.50251 13.4105 8.18513 14.1871 9.30798 14.5581C9.40691 14.5927 9.45143 14.6323 9.44154 14.7411C9.43165 14.845 9.44154 14.9489 9.43659 15.0577C9.4267 15.31 9.49595 15.5326 9.65919 15.7255C9.41681 16.0322 8.82322 15.9678 8.61052 15.6117C8.47697 15.3891 8.44729 15.1467 8.47202 14.8994C8.49676 14.6867 8.43245 14.5927 8.20986 14.5136C7.48272 14.2613 6.94355 13.7765 6.57751 13.0989C6.35492 12.6735 6.24609 12.2134 6.24609 11.7386C6.24609 11.2093 6.8001 10.8631 7.27991 11.0807C7.34422 11.1104 7.39863 11.145 7.42831 11.2093Z" fill="#F58E01"/>
<path d="M4.67988 14.4727C4.77881 14.5617 4.87774 14.6458 4.97667 14.7348C5.17453 14.9574 5.41196 15.1404 5.64445 15.3284C5.68897 15.363 5.73843 15.3878 5.75822 15.4471C5.74833 15.4768 5.74338 15.5114 5.72359 15.5263C5.35261 15.8923 4.98162 16.2583 4.61063 16.6244C4.28911 16.3474 3.99232 16.0456 3.71036 15.7241C3.65595 15.6648 3.62133 15.5906 3.52734 15.5807C3.87855 15.2245 4.22975 14.8733 4.58095 14.5172C4.60568 14.4924 4.64031 14.4727 4.67988 14.4727Z" fill="#FEDD50"/>
<path d="M10.9168 7.79596C10.9168 7.23205 10.9119 6.6731 10.9119 6.1092C10.9119 6.06962 10.8871 6.01521 10.9415 5.99543C10.9861 5.98059 11.0207 6.02016 11.0553 6.04489C11.456 6.33674 11.6637 6.7374 11.6885 7.22711C11.6984 7.46454 11.7775 7.65745 11.9308 7.83058C11.8418 7.88005 11.7528 7.92951 11.6637 7.97898C11.3867 8.00866 11.1345 7.97898 10.9168 7.79596Z" fill="#F58E02"/>
<path d="M10.9141 7.79492C11.1317 7.97794 11.3889 8.00762 11.656 7.97794C11.4285 8.24505 11.1762 8.49238 10.9141 8.72486C10.9141 8.41323 10.9141 8.10655 10.9141 7.79492Z" fill="#FEBC00"/>
<path d="M9.66528 3.27861C9.43774 3.52099 9.4229 3.82273 9.44763 4.12941C9.46247 4.32232 9.40806 4.40147 9.2102 4.47567C8.09229 4.90107 7.40472 5.7024 7.25138 6.9044C7.12772 7.83435 7.34537 8.67031 8.06261 9.32819C8.40886 9.64477 8.82437 9.85252 9.26461 10.0009C9.39817 10.0454 9.44763 10.0998 9.44763 10.2433C9.44269 11.1139 9.44269 11.9845 9.44269 12.8551C9.44269 12.9045 9.47236 12.9787 9.41301 13.0034C9.35859 13.0282 9.31408 12.9639 9.26956 12.9342C8.88868 12.6424 8.68587 12.2516 8.66608 11.7767C8.65619 11.5591 8.59189 11.381 8.46328 11.2128C8.46328 10.8814 8.46328 10.545 8.46822 10.2136C8.47317 10.09 8.41876 10.0454 8.30993 10.0059C7.76582 9.82284 7.27117 9.55078 6.88039 9.12044C6.52919 8.72472 6.34617 8.25975 6.27197 7.74036C6.19283 7.1913 6.25219 6.65708 6.45994 6.14759C6.8062 5.30173 7.42451 4.73288 8.29509 4.45093C8.41876 4.41136 8.47317 4.3619 8.46822 4.22339C8.46328 3.98596 8.43854 3.74358 8.53253 3.5111C8.72544 3.06591 9.36849 2.92246 9.66528 3.27861Z" fill="#F58E01"/>
<path d="M10.9046 11.7736C10.9046 11.4076 10.9046 11.0465 10.9046 10.6804C10.9046 10.626 10.8799 10.5518 10.9294 10.5271C10.9887 10.4925 11.0382 10.5617 11.0926 10.5864C11.7109 10.9179 11.8098 11.7637 11.5477 12.3523C11.4339 12.6046 11.2608 12.8074 11.0382 12.9756C10.9392 13.0498 10.9046 13.03 10.9046 12.9064C10.9096 12.5255 10.9046 12.1495 10.9046 11.7736Z" fill="#F58E02"/>
<path d="M9.43928 7.25124C9.43928 7.61728 9.43433 7.97838 9.43928 8.34442C9.43928 8.47303 9.41949 8.50765 9.29089 8.4384C8.79129 8.17624 8.63795 7.73105 8.66268 7.21661C8.68246 6.7368 8.89516 6.34108 9.29089 6.05418C9.32551 6.02945 9.36508 5.97009 9.41949 6.00472C9.45907 6.02945 9.43928 6.08386 9.43928 6.12344C9.43928 6.49442 9.43928 6.87531 9.43928 7.25124Z" fill="#F58E02"/>
</svg>
