<svg width="15" height="9" viewBox="0 0 15 9" fill="none" xmlns="http://www.w3.org/2000/svg">
<path d="M0.00585937 1.56206C0.0678687 1.3131 0.17251 1.09138 0.377915 0.928006C0.726718 0.651822 1.23054 0.644043 1.57935 0.924117C1.64523 0.978576 1.71112 1.03692 1.77312 1.09916C3.47451 2.80684 5.17588 4.51451 6.88114 6.22607C6.9199 6.26497 6.9509 6.31165 7.04392 6.38166C7.07104 6.33499 7.08655 6.27664 7.1253 6.23774C8.84219 4.51062 10.5629 2.78739 12.2798 1.06026C12.5821 0.756851 12.9348 0.636262 13.3495 0.772409C13.9657 0.970795 14.2099 1.76433 13.8146 2.28169C13.7719 2.34004 13.7215 2.3945 13.6712 2.44507C11.6985 4.42504 9.72582 6.405 7.75315 8.38497C7.38497 8.75451 6.92765 8.83231 6.50909 8.58335C6.40832 8.52501 6.31918 8.43943 6.2378 8.35774C4.31551 6.43224 2.39322 4.49894 0.470929 2.57344C0.257772 2.35949 0.0678687 2.13777 0.00585937 1.83435C0.00585937 1.74489 0.00585937 1.65153 0.00585937 1.56206Z" fill="white"/>
</svg>
