<svg width="27" height="27" viewBox="0 0 27 27" fill="none" xmlns="http://www.w3.org/2000/svg">
<path d="M0.0703125 26.1819C0.247295 25.6117 0.424278 25.0415 0.594706 24.4648C1.15187 22.5183 1.70904 20.5718 2.26621 18.6319C2.28587 18.5664 2.30554 18.5008 2.31865 18.4746C4.39656 20.5522 6.48102 22.6297 8.56548 24.7138C8.54582 24.7204 8.46716 24.7532 8.39505 24.7728C5.93696 25.4741 3.47887 26.1753 1.02077 26.8766C0.522602 27.0208 0.345619 26.9553 0.0768678 26.5489C0.0703129 26.4244 0.0703125 26.3064 0.0703125 26.1819Z" fill="white"/>
<path d="M21.2064 0.124023C21.7898 0.222331 22.2028 0.576236 22.6026 0.982572C23.835 2.23435 25.0869 3.46647 26.3258 4.7117C27.0141 5.39985 27.1386 6.35671 26.5946 7.03175C26.2406 7.47086 25.8211 7.85753 25.4475 8.25076C23.2253 6.02246 21.0229 3.82038 18.8008 1.59863C19.4104 1.06122 19.8692 0.287869 20.7935 0.124023C20.9246 0.124023 21.0622 0.124023 21.2064 0.124023Z" fill="white"/>
<path d="M9.62801 23.9928C7.43211 21.7973 5.22966 19.5952 3.04688 17.4127C8.00894 12.4515 12.9841 7.47715 17.9396 2.52246C20.1224 4.70488 22.3249 6.90697 24.5142 9.1025C19.5653 14.0572 14.5966 19.025 9.62801 23.9928Z" fill="white"/>
</svg>
