<svg width="18" height="13" viewBox="0 0 18 13" fill="none" xmlns="http://www.w3.org/2000/svg">
<path d="M0 11.6163C0 8.95953 0 6.30731 0 3.65057C0.0271096 3.65961 0.0542191 3.66865 0.0768105 3.6822C2.42631 5.24552 4.77129 6.81336 7.12078 8.37667C8.14191 9.05893 9.2037 9.06345 10.2248 8.38571C12.5427 6.84047 14.8651 5.29522 17.1829 3.74546C17.2327 3.71383 17.2824 3.6822 17.3546 3.63702C17.3546 3.70027 17.3546 3.73642 17.3546 3.77708C17.3546 6.30731 17.3546 8.83754 17.3546 11.3678C17.3546 11.5078 17.3366 11.6524 17.3049 11.788C17.1152 12.5335 16.4871 12.9943 15.6739 12.9989C13.365 12.9989 11.0562 12.9989 8.74284 12.9989C6.39334 12.9989 4.04384 12.9989 1.69435 12.9989C1.23349 12.9989 0.83136 12.8633 0.492491 12.5425C0.216877 12.294 0.0813287 11.9687 0 11.6163Z" fill="white"/>
<path d="M0 1.38372C0.0271096 1.28883 0.0542191 1.18943 0.085847 1.09455C0.307242 0.439401 0.899134 0.0146844 1.62206 0.00564783C1.95189 -0.0033887 2.28624 0.00112957 2.62059 0.00112957C6.96264 0.00112957 11.3047 0.00112957 15.6467 0.00112957C16.1528 0.00112957 16.5911 0.150232 16.9344 0.534284C17.5806 1.25269 17.4676 2.32803 16.6679 2.87023C15.6151 3.58863 14.5488 4.28896 13.487 4.99381C12.2219 5.83421 10.9613 6.67912 9.69619 7.51952C8.96875 8.00297 8.38138 8.00297 7.65845 7.51952C5.43095 6.03753 3.20797 4.55102 0.975945 3.07807C0.501527 2.76179 0.117475 2.40936 0 1.82651C0 1.6774 0 1.53282 0 1.38372Z" fill="white"/>
</svg>
