<svg width="26" height="24" viewBox="0 0 26 24" fill="none" xmlns="http://www.w3.org/2000/svg">
<path d="M25.8073 22.8774C25.734 22.8774 25.7279 22.9327 25.7035 22.988C25.5264 23.5412 25.1049 23.8608 24.5368 23.8608C23.9077 23.8608 23.2724 23.8608 22.6433 23.8608C22.5578 23.8608 22.4661 23.8915 22.3867 23.8178C22.9426 23.5043 23.0892 23.0249 23.0831 22.398C23.0647 18.4952 23.0708 14.5984 23.0708 10.6956C23.0708 10.5911 23.0769 10.4805 23.0831 10.376C23.248 10.5972 23.2419 10.8738 23.2968 11.1258C23.5595 12.3182 23.8099 13.5106 24.0665 14.7029C24.549 16.9586 25.0316 19.2204 25.5141 21.4761C25.5752 21.7649 25.6424 22.0477 25.7035 22.3365C25.7157 22.3919 25.7462 22.4226 25.8012 22.4287C25.8073 22.5824 25.8073 22.7299 25.8073 22.8774Z" fill="#E1E1E1"/>
<path d="M2.59519 23.8609C2.39972 23.8609 2.20426 23.8486 2.0149 23.867C1.48349 23.91 1.09867 23.6888 0.836013 23.234C0.811581 23.1909 0.781039 23.1786 0.738281 23.1786C0.738281 18.2801 0.738281 13.3754 0.738281 8.47685C1.08034 8.47685 1.42241 8.4707 1.76447 8.4707V8.48914C1.76447 13.2402 1.76447 17.9851 1.76447 22.7361C1.76447 22.982 1.84387 23.1971 1.95993 23.4061C2.10653 23.6519 2.36918 23.7257 2.59519 23.8609Z" fill="#E1E1E1"/>
<path d="M1.76447 8.45715C1.42241 8.45715 1.08034 8.4633 0.738281 8.4633C0.738281 7.28322 0.738281 6.10314 0.738281 4.92306C0.988719 4.24083 1.4957 3.99498 2.18593 4.04415C2.3081 4.0503 2.43026 4.0503 2.55243 4.05645C2.54021 4.09947 2.52189 4.12405 2.47913 4.14249C1.99047 4.34532 1.76447 4.72024 1.77058 5.24881C1.76447 6.31826 1.76447 7.3877 1.76447 8.45715Z" fill="#C83741"/>
<path d="M1.76562 8.45694C1.76562 7.3875 1.77173 6.31805 1.76562 5.24861C1.76562 4.72003 1.98552 4.34511 2.47418 4.14228C2.51694 4.12385 2.54137 4.09926 2.54748 4.05624C2.60245 4.05624 2.65132 4.05624 2.70629 4.05624C2.73073 4.08697 2.74905 4.09312 2.77959 4.06238C3.09111 4.06238 3.40263 4.06238 3.72026 4.05624C3.72026 4.57252 3.72637 5.08881 3.72026 5.60509C3.72026 5.90011 3.84243 6.12752 4.11119 6.21971C4.44103 6.33649 4.79531 6.33034 5.13737 6.25659C5.18624 6.25659 5.23511 6.25659 5.28397 6.25659C6.0475 6.31805 6.16967 5.90625 6.15745 5.37768C6.15134 4.93515 6.15745 4.49877 6.16356 4.05624C7.50126 4.05624 8.83286 4.05624 10.1706 4.05624C10.1706 4.54179 10.1706 5.03349 10.1767 5.51904C10.1828 5.82021 10.2622 6.10293 10.5676 6.21357C10.8974 6.33034 11.2456 6.3242 11.5877 6.25044C11.6854 6.25044 11.7831 6.25044 11.8809 6.25044C12.4062 6.2443 12.6139 6.04147 12.6139 5.5129C12.6139 5.02734 12.6139 4.53564 12.62 4.05009C13.9699 4.05009 15.3198 4.05009 16.6697 4.05009C16.6697 4.59096 16.6697 5.12568 16.6758 5.66655C16.6758 5.9124 16.8469 6.18283 17.0668 6.232C17.4027 6.31191 17.7509 6.33649 18.0929 6.25044C18.1968 6.25044 18.3067 6.25044 18.4106 6.25044C18.8626 6.2443 19.0703 6.03533 19.0764 5.56821C19.0764 5.05807 19.0764 4.55408 19.0764 4.04395C19.6505 4.04395 20.2247 4.04395 20.805 4.05009C21.6235 4.05624 22.0694 4.49877 22.0877 5.31007C22.0877 5.40841 22.0938 5.50675 22.1 5.60509C22.1 6.55161 22.1 7.49813 22.0938 8.44465C21.99 8.45079 21.8801 8.45694 21.7762 8.45694C15.2099 8.45694 8.64961 8.45694 2.08325 8.45694C1.97941 8.45694 1.86947 8.46309 1.76562 8.46923V8.45694Z" fill="#FE4B4B"/>
<path d="M22.0834 8.45772C22.0834 7.5112 22.0834 6.56468 22.0895 5.61816C22.2606 6.07913 22.3155 6.56468 22.4255 7.03794C22.6393 7.97832 22.8286 8.93098 23.0363 9.8775C23.073 10.0496 23.0607 10.2155 23.0852 10.3876C23.0791 10.4921 23.073 10.6028 23.073 10.7072C23.073 14.6101 23.0607 18.5068 23.0852 22.4097C23.0913 23.0304 22.9447 23.516 22.3888 23.8295C22.1079 23.9032 21.8269 23.8663 21.5459 23.8786C21.4421 23.8848 21.3382 23.9032 21.2344 23.9094C21.2344 23.8725 21.2405 23.8417 21.2771 23.8295C21.888 23.6389 22.0956 23.1657 22.0956 22.5879C22.0895 17.8676 22.0834 13.1596 22.0834 8.45772Z" fill="#B9B9B9"/>
<path d="M12.6207 4.0568C12.6207 4.54235 12.6207 5.03405 12.6146 5.5196C12.6146 6.04818 12.4069 6.251 11.8816 6.25715C11.7839 6.25715 11.6862 6.25715 11.5884 6.25715C11.3991 6.07276 11.1914 5.91296 11.1914 5.5995C11.1975 4.19816 11.1975 2.80296 11.1914 1.40162C11.1914 1.16807 11.283 0.989825 11.4663 0.860754C11.5151 0.823877 11.564 0.805438 11.5823 0.743975C11.7839 0.719391 11.9855 0.731683 12.1809 0.774707C12.4558 0.836169 12.6085 1.08816 12.6085 1.4385C12.6146 2.30512 12.6146 3.18403 12.6207 4.0568Z" fill="#FECD66"/>
<path d="M6.16012 4.06294C6.16012 4.50547 6.1479 4.94185 6.15401 5.38438C6.16622 5.91296 6.04406 6.3309 5.28053 6.26329C5.23166 6.25715 5.1828 6.26329 5.13393 6.26329C4.83463 6.06047 4.72468 5.79003 4.73079 5.41511C4.75522 4.16128 4.75522 2.9013 4.73079 1.64133C4.72468 1.25411 4.80409 0.959094 5.12782 0.743975C5.3294 0.719391 5.53097 0.731683 5.72032 0.774707C5.98909 0.836169 6.14179 1.11275 6.14179 1.49382C6.14179 2.2498 6.14179 3.01194 6.14179 3.76792C6.15401 3.86626 6.15401 3.9646 6.16012 4.06294Z" fill="#FECD68"/>
<path d="M19.0705 4.05696C19.0705 4.5671 19.0705 5.07109 19.0705 5.58123C19.0705 6.04219 18.8628 6.25731 18.4047 6.26346C18.3009 6.26346 18.1909 6.26346 18.0871 6.26346C17.7695 6.06678 17.6778 5.7902 17.6839 5.41528C17.7023 4.14915 17.7023 2.88303 17.6839 1.61691C17.6778 1.24199 17.7511 0.946966 18.081 0.744141C18.2581 0.750287 18.4352 0.731848 18.6063 0.762579C18.8934 0.805603 19.0644 1.03916 19.0644 1.36491C19.0766 2.25611 19.0705 3.15346 19.0705 4.05696Z" fill="#FECE66"/>
<path d="M18.0851 0.738083C17.7552 0.940909 17.6819 1.23593 17.688 1.61085C17.7064 2.87697 17.7064 4.1431 17.688 5.40922C17.6819 5.78414 17.7736 6.06072 18.0912 6.2574C17.7491 6.3373 17.401 6.31272 17.065 6.23896C16.8512 6.18979 16.6802 5.91936 16.6741 5.67351C16.668 5.13264 16.6741 4.59792 16.668 4.05705C16.668 3.18428 16.668 2.30537 16.668 1.43261C16.668 0.97164 16.894 0.744229 17.3521 0.738083C17.5964 0.731937 17.8408 0.738083 18.0851 0.738083Z" fill="#FEB351"/>
<path d="M5.13756 0.738083C4.81383 0.953201 4.73442 1.25437 4.74053 1.63543C4.76496 2.88926 4.76496 4.14924 4.74053 5.40922C4.73442 5.78414 4.83826 6.05458 5.14367 6.2574C4.7955 6.33116 4.44733 6.3373 4.11749 6.22052C3.84873 6.12833 3.72656 5.89477 3.72656 5.6059C3.72656 5.08962 3.72656 4.57333 3.72656 4.05705C3.72656 3.19043 3.72656 2.32381 3.73267 1.46334C3.73267 0.977786 3.95867 0.744229 4.44123 0.738083C4.66723 0.731937 4.89934 0.738083 5.13756 0.738083Z" fill="#FEB351"/>
<path d="M11.5868 0.738083C11.5685 0.799546 11.5196 0.82413 11.4707 0.854862C11.2875 0.990079 11.1959 1.16832 11.1959 1.39573C11.1959 2.79707 11.202 4.19227 11.1959 5.59361C11.1959 5.90707 11.3974 6.07301 11.5929 6.25125C11.2508 6.33116 10.9027 6.3373 10.5728 6.21438C10.2674 6.10375 10.1819 5.82102 10.1819 5.51985C10.1758 5.0343 10.1758 4.5426 10.1758 4.05705C10.1819 3.2396 10.1819 2.42215 10.188 1.6047C10.188 1.48178 10.2002 1.35885 10.2185 1.24207C10.2674 0.940909 10.4751 0.750376 10.7866 0.738083C11.0493 0.731937 11.318 0.738083 11.5868 0.738083Z" fill="#FEB250"/>
<path d="M2.77642 4.06279C2.75199 4.09352 2.72756 4.08737 2.70312 4.05664C2.72756 4.05664 2.75199 4.05664 2.77642 4.06279Z" fill="#FEB351"/>
<path d="M22.0877 8.45801C22.0877 13.166 22.0938 17.8679 22.0877 22.5759C22.0877 23.1598 21.8801 23.6331 21.2692 23.8174C21.2326 23.8297 21.2265 23.8605 21.2265 23.8973C21.0188 23.9465 20.8294 23.8543 20.6218 23.8543C14.7762 23.8605 8.93059 23.8605 3.08501 23.8482C2.92008 23.8482 2.75516 23.9711 2.59635 23.8543C2.37034 23.7191 2.10769 23.6453 1.96109 23.3934C1.83892 23.1844 1.76562 22.9754 1.76562 22.7234C1.76562 17.9724 1.76562 13.2275 1.76562 8.47645C1.86947 8.4703 1.97941 8.46415 2.08325 8.46415C8.64961 8.46415 15.2099 8.46415 21.7762 8.46415C21.8739 8.4703 21.9839 8.45801 22.0877 8.45801ZM15.9917 12.1949C15.9673 12.1703 15.949 12.1457 15.9245 12.1273C15.4664 11.7831 14.9533 11.8507 14.4341 12.3178C14.2509 12.1949 14.0737 12.0658 13.8905 11.9491C13.243 11.5496 12.5406 11.316 11.7831 11.2791C11.5388 11.2545 11.3006 11.2484 11.0563 11.2668C9.65136 11.3836 8.50301 11.9921 7.62953 13.0923C6.68276 14.2785 6.36513 15.6491 6.67665 17.1242C7.17752 19.5089 9.33984 21.1684 11.7831 20.9533C11.8931 20.9779 11.9908 20.9287 12.0947 20.9164C13.0781 20.7874 13.9393 20.3878 14.654 19.7118C16.2422 18.2244 16.6636 16.0855 15.7901 14.0818C15.9001 13.9404 16.0161 13.8052 16.1261 13.6639C16.4926 13.1722 16.4376 12.5698 15.9917 12.1949Z" fill="#EEEEEE"/>
<path d="M11.775 11.2725C12.5385 11.3093 13.2409 11.5429 13.8823 11.9424C14.0655 12.0592 14.2427 12.1882 14.4259 12.3112C14.3221 12.4402 14.2244 12.5693 14.1205 12.6922C13.3081 13.6511 12.4896 14.6037 11.6833 15.5687C11.5489 15.7346 11.4756 15.71 11.3657 15.5502C11.2313 15.3536 11.0847 15.1692 10.9381 14.9848C10.48 14.407 9.83253 14.364 9.2889 14.8557C8.90408 15.2737 8.87354 15.8022 9.23393 16.2816C9.67372 16.8717 10.1196 17.4556 10.5716 18.0333C11.0786 18.6787 11.7994 18.7033 12.343 18.0948C12.6973 17.7014 13.0333 17.2896 13.3753 16.884C14.1755 15.9497 14.9757 15.0094 15.782 14.0751C16.6554 16.0788 16.234 18.2177 14.6458 19.7051C13.9251 20.3812 13.0638 20.7807 12.0865 20.9098C11.9826 20.922 11.8849 20.9774 11.775 20.9466C11.7627 20.9343 11.7505 20.922 11.7383 20.9159C10.5289 20.7254 9.52101 20.1784 8.72694 19.2318C7.99395 18.3529 7.62135 17.3326 7.5847 16.2017C7.55416 15.2982 7.78627 14.4439 8.24439 13.6572C8.843 12.6431 9.68594 11.9301 10.7976 11.5367C11.1214 11.4261 11.4512 11.3647 11.775 11.2725Z" fill="#85C1EE"/>
<path d="M15.7892 14.0751C14.989 15.0093 14.1888 15.9497 13.3826 16.8839C13.0405 17.2896 12.6984 17.7014 12.3503 18.0947C11.8066 18.7093 11.0859 18.6848 10.5789 18.0333C10.1269 17.4555 9.68096 16.8716 9.24117 16.2816C8.88078 15.8022 8.91132 15.2736 9.29614 14.8557C9.35722 14.8557 9.39998 14.8925 9.43663 14.9417C9.81534 15.4457 10.2124 15.9435 10.5789 16.4598C11.0309 17.0929 11.9166 17.0499 12.3136 16.5705C12.6251 16.1894 12.955 15.8206 13.2787 15.4395C13.8346 14.7819 14.3965 14.1304 14.9463 13.4728C15.2944 13.0487 15.6915 12.6553 15.9969 12.1943C16.4428 12.5693 16.4978 13.1777 16.1313 13.6571C16.0152 13.7985 15.8991 13.9399 15.7892 14.0751Z" fill="#F1961E"/>
<path d="M11.7769 11.272C11.4531 11.3642 11.1172 11.4257 10.7995 11.5363C9.68784 11.9297 8.84491 12.6426 8.2463 13.6568C7.78818 14.4435 7.55607 15.2978 7.58661 16.2013C7.62326 17.3322 7.98975 18.3525 8.72885 19.2314C9.52292 20.1779 10.5369 20.7249 11.7402 20.9155C11.7524 20.9155 11.7646 20.9339 11.7769 20.9462C9.33357 21.1613 7.17736 19.4957 6.67037 17.1171C6.35885 15.642 6.67648 14.2714 7.62326 13.0852C8.50285 11.985 9.64509 11.3765 11.05 11.2597C11.3004 11.2413 11.5386 11.2475 11.7769 11.272Z" fill="#6AAFEA"/>
<path d="M15.9898 12.1947C15.6844 12.6557 15.2935 13.049 14.9392 13.4731C14.3894 14.1369 13.8275 14.7884 13.2716 15.4399C12.9479 15.8148 12.6181 16.1898 12.3065 16.5708C11.9095 17.0502 11.0238 17.0933 10.5718 16.4602C10.2053 15.9439 9.80826 15.4461 9.42955 14.9421C9.3929 14.8929 9.35625 14.856 9.28906 14.856C9.8327 14.3582 10.4863 14.4074 10.9383 14.9851C11.0849 15.1695 11.2315 15.3539 11.3659 15.5506C11.4758 15.7104 11.5491 15.7288 11.6835 15.569C12.4898 14.604 13.3083 13.6514 14.1207 12.6926C14.2245 12.5696 14.3223 12.4406 14.4261 12.3115C14.9453 11.8444 15.4584 11.7768 15.9165 12.121C15.947 12.1394 15.9654 12.1701 15.9898 12.1947Z" fill="#FDA82D"/>
</svg>
