<svg width="26" height="26" viewBox="0 0 26 26" fill="none" xmlns="http://www.w3.org/2000/svg">
<path d="M12.9691 7.65835e-06C20.1732 -0.00768002 25.9923 5.77345 26 12.923C26.0077 20.0802 20.1655 25.8614 12.8839 25.8152C5.74943 25.7768 0.0232451 20.0418 3.08395e-05 12.9537C-0.0154453 5.79652 5.79586 0.00769534 12.9691 7.65835e-06ZM12.9458 23.9856C19.1131 24.0086 24.1119 19.0731 24.1429 12.9384C24.1738 6.88048 19.1827 1.86811 13.1083 1.84505C6.91014 1.82199 1.87265 6.74211 1.85717 12.8307C1.84169 18.9886 6.79407 23.9702 12.9458 23.9856Z" fill="#727272"/>
<path d="M19.8396 7.12657C19.8087 7.20345 19.77 7.37258 19.6926 7.52634C18.4158 10.0786 17.139 12.631 15.839 15.1679C15.723 15.3908 15.5063 15.6138 15.2819 15.7214C12.7206 17.0206 10.1438 18.2968 7.56703 19.5729C7.14144 19.7882 6.71584 19.7267 6.42179 19.4269C6.12775 19.1347 6.07358 18.7273 6.29025 18.3122C7.57477 15.7598 8.85155 13.2152 10.1516 10.6706C10.2676 10.44 10.4998 10.217 10.7319 10.1017C13.2932 8.80249 15.87 7.52633 18.439 6.25018C19.12 5.91192 19.8396 6.32705 19.8396 7.12657ZM16.8063 9.16381C16.7212 9.17919 16.6902 9.17919 16.667 9.18688C15.0575 9.97871 13.4557 10.7782 11.8539 11.5777C11.7611 11.6239 11.676 11.7238 11.6295 11.8237C10.848 13.369 10.0742 14.9065 9.30036 16.4517C9.26941 16.5132 9.25393 16.5824 9.21524 16.6901C9.37001 16.6132 9.47834 16.567 9.57893 16.5132C10.7938 15.9059 11.9932 15.2601 13.239 14.7143C13.9974 14.3761 14.5545 13.9225 14.8099 13.1307C14.8563 12.9846 14.9492 12.8539 15.0188 12.7155C15.6069 11.5624 16.195 10.3862 16.8063 9.16381Z" fill="#727272"/>
</svg>
