<svg width="29" height="29" viewBox="0 0 29 29" fill="none" xmlns="http://www.w3.org/2000/svg">
<path d="M28.6703 25.612C28.4516 26.0881 28.0742 26.2304 27.5711 26.2194C25.9688 26.1975 24.361 26.214 22.7587 26.214C22.6602 26.214 22.5618 26.214 22.4415 26.214C22.4579 26.5314 22.4852 26.8324 22.4907 27.1279C22.4962 27.6752 22.1571 28.0199 21.6102 28.0199C16.9892 28.0199 12.3681 28.0199 7.74708 28.0199C7.18381 28.0199 6.84475 27.6752 6.85569 27.1115C6.86115 26.8214 6.8885 26.5314 6.9049 26.214C6.79553 26.214 6.69709 26.214 6.59866 26.214C4.94711 26.214 3.30103 26.214 1.64949 26.214C0.976838 26.214 0.665122 25.8965 0.676059 25.2234C0.71434 22.4925 2.44792 19.9915 5.02914 18.9408C5.11117 18.908 5.1932 18.8751 5.31351 18.8259C4.04478 17.5398 3.53619 16.0348 3.91353 14.2781C4.17056 13.0796 4.83227 12.1273 5.83304 11.4213C7.89474 9.96015 10.9572 10.3432 12.5923 12.7895C13.9705 12.1602 15.365 12.1547 16.7486 12.7895C18.411 10.2393 21.7196 9.9492 23.7922 11.6238C25.8375 13.2766 26.3297 16.6477 24.0493 18.8368C24.2133 18.908 24.3719 18.9682 24.525 19.0393C26.8875 20.1612 28.2656 22.011 28.6266 24.6105C28.6375 24.6707 28.6594 24.7309 28.6758 24.7911C28.6703 25.0647 28.6703 25.3383 28.6703 25.612ZM8.56739 26.3672C12.647 26.3672 16.7048 26.3672 20.768 26.3672C20.5602 24.3806 18.8759 22.5035 16.8196 22.011C15.5837 21.7154 14.315 21.7756 13.0681 21.907C10.826 22.1423 8.87363 24.107 8.56739 26.3672ZM17.7876 17.0691C17.7876 15.3562 16.3822 13.9552 14.6705 13.9552C12.9588 13.9552 11.5588 15.3507 11.5533 17.0637C11.5478 18.7876 12.9588 20.194 14.6814 20.194C16.3876 20.1886 17.7876 18.7821 17.7876 17.0691ZM18.1157 13.7636C18.1212 13.7801 18.1267 13.7965 18.1376 13.8129C18.1595 13.8403 18.1814 13.8676 18.2087 13.895C19.1876 15.0169 19.5868 16.3194 19.3626 17.797C19.3243 18.0487 19.4063 18.1308 19.6087 18.2129C21.0852 18.8149 22.7969 18.202 23.5461 16.7846C24.3008 15.3671 23.8524 13.6104 22.518 12.7293C21.0196 11.7333 18.8923 12.2313 18.1157 13.7636ZM11.2252 13.7636C10.6947 12.6855 9.34941 12.0288 8.03692 12.2587C6.77366 12.4776 5.92054 13.2328 5.56507 14.4532C5.19867 15.7119 5.53773 16.8338 6.53303 17.6875C7.51193 18.5249 8.63848 18.6617 9.83066 18.1691C9.96737 18.1144 10.0111 18.0487 9.98378 17.8846C9.78144 16.6751 10.0057 15.5477 10.6674 14.5134C10.8369 14.2507 11.0392 14.0099 11.2252 13.7636ZM11.5095 20.5935C11.3619 20.5005 11.2744 20.4075 11.1705 20.3801C10.8369 20.2871 10.5033 20.1612 10.1642 20.1448C9.30019 20.0955 8.43614 20.0791 7.57208 20.0846C5.32992 20.0955 3.32291 21.5403 2.60651 23.6637C2.50807 23.9483 2.45339 24.2493 2.37135 24.5557C2.45339 24.5612 2.49167 24.5667 2.52995 24.5667C4.07759 24.5667 5.6307 24.5667 7.17834 24.5722C7.33693 24.5722 7.40256 24.512 7.45724 24.3806C7.74161 23.7129 8.12989 23.111 8.61114 22.5692C9.38222 21.6881 10.3283 21.0423 11.5095 20.5935ZM26.9477 24.5557C26.6852 22.3612 24.7 20.3746 22.4797 20.1502C21.4954 20.0517 20.4946 20.0791 19.5048 20.1065C19.0673 20.1174 18.6298 20.2652 18.1978 20.3746C18.0829 20.402 17.9845 20.5005 17.8532 20.5881C17.9353 20.6264 17.9571 20.6428 17.979 20.6483C19.7892 21.3761 21.1016 22.6184 21.8946 24.4025C21.9602 24.5503 22.0532 24.5667 22.1899 24.5667C23.7047 24.5612 25.2141 24.5667 26.7289 24.5612C26.8055 24.5722 26.8766 24.5612 26.9477 24.5557Z" fill="#DF3731"/>
<path d="M17.6238 0C17.7988 0.0437813 17.9738 0.0875626 18.1434 0.142289C19.8605 0.640302 20.916 2.2821 20.7191 4.09902C20.4894 6.19505 19.3848 7.78213 17.8535 9.1284C17.0113 9.87268 16.0051 10.3543 14.9934 10.814C14.8184 10.8961 14.5395 10.9015 14.3645 10.8249C12.9153 10.1792 11.5481 9.40751 10.4981 8.17068C9.50282 7.00501 8.79189 5.71346 8.61689 4.15375C8.39267 2.12887 9.60672 0.437813 11.6137 0.049254C11.6465 0.0437813 11.6794 0.0218907 11.7067 0.00547266C11.9965 0.00547266 12.2919 0.00547266 12.5817 0.00547266C12.9754 0.131344 13.3856 0.229852 13.7629 0.399504C14.0856 0.547266 14.3754 0.777118 14.6707 0.968661C14.8895 0.815427 15.0918 0.618411 15.3379 0.51443C15.7918 0.317414 16.2676 0.175125 16.7379 0.00547266C17.0387 0 17.334 0 17.6238 0ZM19.1004 3.66121C19.1113 2.81842 18.6574 2.10697 17.9191 1.79503C17.1699 1.47762 16.3606 1.64727 15.759 2.24379C15.6387 2.36419 15.5184 2.49553 15.3981 2.61593C14.895 3.13584 14.4465 3.13584 13.9543 2.62141C13.8012 2.4627 13.659 2.29852 13.495 2.15076C12.9372 1.66369 12.2973 1.50498 11.5919 1.73483C10.8755 1.97016 10.4216 2.47364 10.2903 3.21245C10.1481 4.03335 10.3505 4.81047 10.7114 5.53833C11.5426 7.21297 12.8825 8.34034 14.5723 9.08462C14.6325 9.11198 14.7309 9.10651 14.7965 9.07915C15.9559 8.55924 16.9949 7.86422 17.7934 6.85177C18.5371 5.92142 19.0785 4.89803 19.1004 3.66121Z" fill="#DF3731"/>
</svg>
