<svg width="12" height="16" viewBox="0 0 12 16" fill="none" xmlns="http://www.w3.org/2000/svg">
<path d="M5.48621 15.4413C5.4776 15.4413 5.46611 15.4413 5.45749 15.4413C5.44026 15.3981 5.40004 15.4125 5.37132 15.4096C4.58429 15.3202 3.83173 15.1012 3.14237 14.7092C1.4448 13.7378 0.416493 12.2879 0.0775542 10.3509C0.0488305 10.1924 0.063192 10.0281 0 9.87819C0 9.84937 0 9.82054 0 9.79172C0.0488302 9.5813 0.0459578 9.368 0 9.15758C0 9.09993 0 9.04228 0 8.98464C0.0574473 8.88663 0.0402138 8.77422 0.0545756 8.66757C0.0947887 8.41103 0.129257 8.15449 0.212556 7.89507C0.712347 8.53497 1.30693 9.0394 1.99629 9.45159C1.99916 9.417 2.00204 9.39971 1.99916 9.38241C1.88427 8.03343 1.98767 6.69886 2.32949 5.38735C2.66555 4.09313 3.24577 2.92862 4.2511 2.01489C4.76238 1.54793 5.3426 1.19339 5.99462 0.957031C5.99749 1.02909 6.00324 1.10115 6.00324 1.17321C6.00324 3.67229 6.00611 6.17425 6.00611 8.67333C6.00611 8.68198 6.00611 8.69063 6.00324 8.69927C4.9261 9.04228 4.17642 9.74848 3.73694 10.7862C3.44109 11.4866 3.35779 12.2274 3.38939 12.9826C3.41237 13.5706 3.63641 14.0808 4.01269 14.5247C4.38323 14.9628 4.86291 15.2309 5.40866 15.3837C5.446 15.3894 5.48621 15.3865 5.48621 15.4413Z" fill="#FE6536"/>
<path d="M6.86539 0.683594C6.79358 1.02084 6.71028 1.35232 6.64996 1.69245C6.48336 2.65807 6.42304 3.62369 6.69017 4.58642C6.81081 5.01591 6.99177 5.41368 7.3106 5.73364C7.89657 6.32454 8.6836 6.33318 9.28967 5.76246C9.52807 5.53475 9.71478 5.26956 9.86127 4.97555C9.89286 4.91214 9.92446 4.84872 9.96754 4.76225C11.1136 6.3793 11.3779 8.06265 10.4874 9.86418C10.8982 9.95353 11.2802 9.76329 11.9753 9.11474C12.2482 11.6282 10.2979 15.0699 6.5207 15.4244C6.55517 15.3668 6.62124 15.3783 6.67294 15.3639C7.27614 15.2025 7.76444 14.8681 8.12923 14.3608C8.51413 13.8247 8.68072 13.228 8.6204 12.5621C8.56296 11.9453 8.31019 11.4236 7.90231 10.971C7.77593 10.8298 7.77018 10.8356 7.64093 10.9653C7.59784 11.0085 7.55476 11.0546 7.50592 11.095C7.31635 11.2506 7.10667 11.3285 6.85677 11.2593C6.58677 11.1815 6.41155 10.9941 6.26794 10.7635C6.1473 10.5704 6.09559 10.3542 6.0324 10.138C6.0324 9.92759 6.02953 9.71429 6.02953 9.50387C6.10996 9.1868 6.22198 8.88126 6.43166 8.57861C6.25932 8.61608 6.13006 8.6449 6.00368 8.67085C6.00368 6.17177 6.00368 3.66981 6.00081 1.17073C6.00081 1.09867 5.99506 1.0266 5.99219 0.954544C6.02091 0.940131 6.04964 0.922837 6.08123 0.914189C6.32251 0.836363 6.56379 0.76142 6.80507 0.683594C6.82805 0.683594 6.84528 0.683594 6.86539 0.683594Z" fill="#FE421D"/>
<path d="M6.0327 9.50435C6.0327 9.71477 6.03557 9.92807 6.03557 10.1385C5.98099 10.1904 6.00685 10.2567 6.00685 10.3143C6.00397 12.0236 6.00685 13.7329 6.00685 15.4422C5.8345 15.4422 5.66216 15.4422 5.48982 15.4422C5.48982 15.3874 5.44961 15.3903 5.41227 15.3817C4.86652 15.2289 4.38684 14.9608 4.0163 14.5227C3.64002 14.0788 3.41885 13.5686 3.393 12.9806C3.36141 12.2254 3.4447 11.4846 3.74056 10.7842C4.18003 9.74648 4.92971 9.04028 6.00685 8.69727C6.00685 8.87309 6.00397 9.04892 6.00972 9.22475C6.00972 9.31987 5.97525 9.41499 6.0327 9.50435Z" fill="#FABE00"/>
<path d="M6.00221 15.4424C6.00221 13.7331 6.00221 12.0238 6.00221 10.3145C6.00221 10.254 5.97636 10.1877 6.03094 10.1387C6.09413 10.352 6.14583 10.571 6.26647 10.7642C6.40722 10.9948 6.58243 11.1821 6.8553 11.2599C7.1052 11.332 7.31488 11.2542 7.50446 11.0956C7.55329 11.0553 7.5935 11.0092 7.63946 10.9659C7.76872 10.8333 7.77446 10.8276 7.90084 10.9717C8.30872 11.4242 8.56436 11.9431 8.61894 12.5628C8.67926 13.2286 8.51266 13.8253 8.12776 14.3614C7.76297 14.8688 7.27467 15.2031 6.67147 15.3645C6.61977 15.379 6.55371 15.3674 6.51924 15.4251C6.52211 15.4308 6.52211 15.4395 6.51924 15.4452C6.3469 15.4424 6.17455 15.4424 6.00221 15.4424Z" fill="#FEA800"/>
<path d="M0 9.1582C0.0459553 9.36862 0.0488275 9.58192 0 9.79234C0 9.58192 0 9.36862 0 9.1582Z" fill="#FEA488"/>
<path d="M6.03351 9.50441C5.97607 9.41794 6.01053 9.31994 6.00766 9.2277C6.00192 9.05187 6.00479 8.87604 6.00479 8.70021C6.00479 8.69156 6.00766 8.68292 6.00766 8.67427C6.13692 8.64545 6.2633 8.6195 6.43564 8.58203C6.22596 8.88181 6.11394 9.18734 6.03351 9.50441Z" fill="#FEA800"/>
</svg>
