<svg width="28" height="29" viewBox="0 0 28 29" fill="none" xmlns="http://www.w3.org/2000/svg">
<path d="M19.8267 28.081C18.9497 27.9647 18.3158 27.4307 17.7135 26.8333C16.8049 25.9346 15.8751 25.0622 14.9558 24.1741C14.6283 23.8569 14.4645 23.4921 14.5966 23.0321C14.7973 22.3501 15.6056 22.0541 16.192 22.4612C16.2977 22.5352 16.3981 22.6303 16.4932 22.7202C17.5286 23.7141 18.5641 24.708 19.5995 25.7019C19.9957 26.0826 20.355 26.0509 20.6772 25.6015C22.3414 23.2753 24.0055 20.9491 25.6696 18.6177C25.9549 18.2212 26.3036 17.9833 26.8054 18.0731C27.4975 18.1947 27.8779 18.9455 27.5609 19.5746C27.5081 19.6856 27.4341 19.7861 27.3602 19.8865C25.7119 22.1915 24.0583 24.4913 22.4153 26.8069C21.9451 27.473 21.3376 27.9065 20.5293 28.044C20.5029 28.0493 20.4818 28.0704 20.4606 28.081C20.2493 28.081 20.038 28.081 19.8267 28.081Z" fill="#E4332B"/>
<path d="M14.2575 17.5499C14.9337 17.9359 15.6047 18.3006 16.2598 18.6971C16.6348 18.9245 16.8092 19.2945 16.7405 19.7333C16.6718 20.1721 16.4183 20.4682 15.9851 20.5951C15.6417 20.6955 15.3405 20.5845 15.0341 20.4153C14.4002 20.0717 13.7768 19.6858 13.1006 19.4637C10.4327 18.5808 7.93915 19.0302 5.66749 20.6532C4.35204 21.5943 3.43281 22.8525 2.88867 24.3857C2.59283 25.221 3.05772 25.9083 3.95054 25.9083C6.92483 25.9083 9.9044 25.9083 12.8787 25.9083C13.4704 25.9083 13.8719 26.1779 14.0198 26.659C14.2153 27.2987 13.7715 27.9543 13.1059 28.0124C13.0372 28.0177 12.9632 28.0177 12.8945 28.0177C9.89912 28.0177 6.90898 28.023 3.91356 28.0177C2.30227 28.0124 1.05549 27.0026 0.733233 25.4325C0.574745 24.6765 0.764931 23.968 1.05021 23.2702C2.14906 20.6321 4.04563 18.7976 6.66068 17.6874C6.73993 17.6557 6.82445 17.6186 6.93011 17.5711C5.3875 15.9903 4.83807 14.1347 5.46145 12.0041C5.87352 10.5978 6.7769 9.54576 8.07122 8.8532C10.7655 7.4152 14.247 8.48313 15.5677 11.5389C16.3179 11.1318 17.068 10.7194 17.8288 10.3071C16.5979 9.10696 16.0009 7.62139 16.1541 5.87676C16.2809 4.42818 16.936 3.22809 18.0348 2.27119C20.1004 0.473689 23.2385 0.589998 25.2672 2.53552C27.1901 4.37532 27.6656 7.9333 25.1404 10.3599C25.2619 10.4128 25.3728 10.4551 25.4785 10.508C26.049 10.8199 26.6301 11.1159 27.1796 11.4596C27.7026 11.7873 27.8188 12.4218 27.4965 12.9187C27.1796 13.4104 26.5562 13.5584 26.0385 13.2148C25.0558 12.5698 24.0045 12.0993 22.8423 11.9089C20.745 11.5706 18.8008 11.9724 17.0311 13.1619C16.6982 13.3892 16.3918 13.6589 16.0854 13.9232C16.0062 13.9919 15.9428 14.1082 15.9322 14.2087C15.779 15.4828 15.2349 16.5613 14.3315 17.46C14.2945 17.5076 14.2681 17.5446 14.2575 17.5499ZM18.2409 6.39486C18.2409 8.19235 19.6937 9.6515 21.4951 9.66736C23.2808 9.68322 24.7811 8.19235 24.7811 6.39486C24.7811 4.60265 23.3125 3.13293 21.5216 3.12764C19.7095 3.12236 18.2409 4.58679 18.2409 6.39486ZM10.5753 16.8838C12.3768 16.8891 13.8455 15.4405 13.856 13.643C13.8666 11.8296 12.4191 10.3652 10.6017 10.3494C8.80027 10.3388 7.31576 11.8138 7.31576 13.6166C7.31576 15.4141 8.77913 16.8785 10.5753 16.8838Z" fill="#E4332B"/>
</svg>
