<svg width="10" height="15" viewBox="0 0 10 15" fill="none" xmlns="http://www.w3.org/2000/svg">
<path d="M1.76106 15C1.49434 14.9336 1.25679 14.8215 1.08175 14.6014C0.785857 14.2277 0.777522 13.6879 1.07759 13.3142C1.13593 13.2436 1.19844 13.173 1.26512 13.1066C3.09467 11.2838 4.92422 9.46099 6.75794 7.63402C6.79962 7.5925 6.84963 7.55928 6.92464 7.45963C6.87463 7.43057 6.81212 7.41396 6.77044 7.37244C4.92006 5.53302 3.07384 3.68945 1.22345 1.85003C0.898381 1.52616 0.769186 1.14831 0.91505 0.704028C1.12759 0.0438309 1.97777 -0.217756 2.53205 0.205767C2.59457 0.25144 2.65291 0.305419 2.70709 0.359398C4.82837 2.47286 6.94965 4.58632 9.07092 6.69978C9.46684 7.09424 9.55019 7.5842 9.28347 8.03263C9.22095 8.14059 9.12927 8.23609 9.04175 8.32329C6.97882 10.3828 4.90755 12.4423 2.84462 14.5017C2.6154 14.7301 2.37785 14.9336 2.05279 15C1.95693 15 1.85691 15 1.76106 15Z" fill="#9293B0"/>
</svg>
