<svg width="28" height="26" viewBox="0 0 28 26" fill="none" xmlns="http://www.w3.org/2000/svg">
<path d="M26.6293 25.3363C26.0892 25.1449 25.9148 24.7564 25.881 24.1934C25.7629 22.144 24.9133 20.4999 22.9948 19.5766C21.7852 18.991 20.5587 19.0867 19.3716 19.7004C19.3153 19.7286 19.259 19.768 19.2028 19.8018C19.1803 19.8187 19.1634 19.8356 19.1578 19.8412C19.349 20.4774 19.5853 21.0967 19.7035 21.733C19.861 22.5606 19.9454 23.3995 20.0129 24.2384C20.0636 24.8071 19.6754 25.2237 19.1521 25.2462C18.6345 25.2688 18.2351 24.8746 18.2238 24.3004C18.1901 22.4311 17.7287 20.6801 16.6991 19.1093C15.4895 17.2682 13.8579 16.0014 11.6581 15.5904C9.4076 15.1681 7.39906 15.7536 5.66057 17.2231C3.78143 18.8165 2.8081 20.8941 2.53804 23.3263C2.50429 23.6416 2.49303 23.9625 2.48178 24.2835C2.4649 24.7789 2.18922 25.1505 1.76163 25.2293C1.30591 25.3138 0.934585 25.1055 0.726417 24.6494C0.709538 24.6157 0.69266 24.5819 0.675781 24.5481C0.675781 24.2272 0.675781 23.9119 0.675781 23.5909C0.771426 22.9941 0.822062 22.3804 0.962716 21.7949C1.74475 18.5181 3.50575 15.9394 6.60577 14.5093C9.99835 12.9441 13.194 13.5353 16.1196 15.7762C16.9917 16.4405 17.6781 17.2851 18.2576 18.2366C18.5333 18.1071 18.7921 17.9663 19.0677 17.8537C21.6895 16.7896 24.5589 17.6679 26.2805 20.0495C27.0456 21.108 27.4845 22.2847 27.6251 23.5797C27.6308 23.6416 27.6589 23.7035 27.6758 23.7655C27.6758 24.0639 27.6758 24.3679 27.6758 24.6663C27.5239 24.9929 27.2876 25.2237 26.9444 25.342C26.8544 25.3363 26.7418 25.3363 26.6293 25.3363Z" fill="#E83026"/>
<path d="M10.5374 0C10.9931 0.0957143 11.4601 0.152017 11.9046 0.292774C14.3463 1.06412 15.8823 3.38941 15.7135 6.01874C15.5559 8.44538 13.6374 10.5511 11.1844 10.9846C7.60616 11.6208 4.42175 8.73252 4.6918 5.09538C4.88872 2.45479 7.02667 0.287142 9.67097 0.0450413C9.75536 0.0394111 9.83413 0.0168908 9.91852 0C10.1267 0 10.3292 0 10.5374 0ZM13.9244 5.5458C13.9244 3.4795 12.2534 1.81294 10.1829 1.81857C8.1519 1.8242 6.48093 3.50202 6.48655 5.54017C6.48655 7.61773 8.15753 9.28992 10.2167 9.28429C12.2646 9.27303 13.9244 7.60647 13.9244 5.5458Z" fill="#E83026"/>
<path d="M21.1718 6.11446C23.5292 6.13698 25.3633 8.01186 25.3408 10.3709C25.3183 12.6624 23.4335 14.5035 21.1212 14.4866C18.8257 14.4698 16.9409 12.5611 16.9691 10.2921C17.0028 7.94992 18.8763 6.09194 21.1718 6.11446ZM23.5404 10.3034C23.5404 8.969 22.4883 7.92177 21.1437 7.91614C19.844 7.91051 18.7807 8.98589 18.7694 10.3034C18.7638 11.6208 19.844 12.6906 21.1718 12.685C22.494 12.6793 23.5461 11.6208 23.5404 10.3034Z" fill="#E83026"/>
</svg>
