<svg width="27" height="25" viewBox="0 0 27 25" fill="none" xmlns="http://www.w3.org/2000/svg">
<path d="M26.9989 2.45401C26.9989 6.87122 26.9989 11.2938 26.9989 15.711C26.983 15.7323 26.9672 15.7537 26.9619 15.7803C26.6396 17.3168 25.5882 18.1757 24.0295 18.1757C18.5082 18.1757 12.9921 18.1757 7.47075 18.1757C7.25941 18.1757 7.04806 18.1703 6.842 18.133C5.42072 17.8716 4.49609 16.7139 4.49609 15.1935C4.49609 11.1284 4.49609 7.06328 4.49609 2.99816C4.49609 1.22167 5.70075 0 7.4549 0C9.51021 0 11.5655 0 13.6261 0C17.1239 0 20.6216 0 24.1193 0C25.4138 0 26.4758 0.768213 26.8615 1.96854C26.909 2.13392 26.9513 2.29396 26.9989 2.45401ZM6.7469 13.5504C6.85785 13.449 6.92654 13.385 6.98994 13.321C7.904 12.3981 8.81806 11.4752 9.73212 10.5576C10.6673 9.61331 11.8191 9.60798 12.7543 10.5522C13.1665 10.963 13.5627 11.3898 13.9907 11.8273C14.4609 11.2564 14.9047 10.723 15.3486 10.1841C16.2785 9.05849 17.2031 7.93285 18.133 6.81254C18.6508 6.18837 19.2954 5.92163 20.0985 6.08167C20.574 6.1777 20.9492 6.43377 21.2609 6.80721C22.3546 8.10357 23.4589 9.39459 24.5526 10.6909C24.6001 10.7496 24.6213 10.8243 24.6582 10.8937C24.6847 10.867 24.7164 10.8457 24.7428 10.819C24.7428 10.7336 24.7428 10.6429 24.7428 10.5576C24.7428 8.05555 24.7428 5.55353 24.7428 3.05151C24.7428 2.45934 24.579 2.28863 23.9925 2.28863C18.4923 2.28863 12.9921 2.28863 7.49188 2.28863C6.92126 2.28863 6.7469 2.46468 6.7469 3.03017C6.7469 6.4391 6.7469 9.84271 6.7469 13.2516C6.7469 13.3263 6.7469 13.4117 6.7469 13.5504Z" fill="#46BD63"/>
<path d="M23.3596 19.8769C23.0109 21.0079 22.678 22.0908 22.3399 23.1685C22.0334 24.1554 21.3624 24.7636 20.3638 24.9396C19.9887 25.0036 19.566 24.977 19.1962 24.8809C13.4476 23.3392 7.69908 21.7814 1.95583 20.229C0.486991 19.8289 -0.316114 18.4045 0.11714 16.9481C0.97308 14.0513 1.8343 11.1598 2.69024 8.26837C2.7061 8.20969 2.72723 8.15634 2.79063 8.09766C2.79592 8.18835 2.8012 8.2737 2.8012 8.3644C2.8012 10.7491 2.79592 13.139 2.8012 15.5237C2.80648 17.6149 4.16436 19.3434 6.14042 19.7755C6.49971 19.8556 6.87484 19.8716 7.23941 19.8716C12.486 19.8769 17.7326 19.8769 22.9739 19.8769C23.0902 19.8769 23.2064 19.8769 23.3596 19.8769Z" fill="#46BD63"/>
<path d="M10.1234 7.94812C8.887 7.94812 7.87784 6.93984 7.86727 5.6915C7.8567 4.44315 8.887 3.4082 10.1286 3.4082C11.3597 3.41354 12.3742 4.43782 12.3689 5.68083C12.3689 6.92917 11.365 7.94278 10.1234 7.94812Z" fill="#46BD63"/>
</svg>
