<svg width="40" height="40" viewBox="0 0 40 40" fill="none" xmlns="http://www.w3.org/2000/svg">
<circle cx="20" cy="20" r="20" fill="url(#paint0_linear_2097_380)"/>
<circle cx="35.5" cy="7.5" r="4.5" fill="#FF180F"/>
<path d="M11.2131 29.9984C11.1844 29.9984 11.1598 29.9984 11.131 29.9984C10.5896 29.7811 10.5117 29.3423 10.5117 28.8174C10.524 25.7296 10.5199 22.6459 10.5199 19.558C10.5199 19.4678 10.524 19.3817 10.5281 19.2915C11.2008 19.2915 11.8693 19.2915 12.542 19.2956C12.5338 19.3366 12.5338 19.3776 12.5174 19.4145C12.181 20.3372 11.9308 21.2844 11.7299 22.244C11.6437 22.6459 11.574 23.0477 11.5207 23.4537C11.5863 23.4578 11.6109 23.4168 11.6396 23.3922C12.2549 22.8427 12.9152 22.3465 13.596 21.879C13.756 21.7683 13.8339 21.7847 13.9201 21.9529C14.1826 22.4613 14.4943 22.9452 14.8183 23.4168C14.9536 23.6136 15.0808 23.8228 15.2613 24.0073C15.2818 23.9622 15.3023 23.9417 15.3064 23.9171C15.3679 23.466 15.4581 23.019 15.5648 22.5762C15.8314 21.4485 16.1882 20.3454 16.6763 19.2915C17.0577 19.2915 17.435 19.2915 17.8165 19.2915C17.8206 19.3817 17.8247 19.4678 17.8247 19.558C17.8247 22.937 17.8247 26.3119 17.8247 29.6909C17.8247 29.7811 17.8329 29.8672 17.837 29.9574H17.8206C15.696 29.9574 13.5755 29.9574 11.451 29.9615C11.3689 29.9574 11.2787 29.9246 11.2131 29.9984Z" fill="#FEC63B"/>
<path d="M27.8249 29.9998C27.7962 29.9998 27.7716 29.9998 27.7429 29.9998C27.6772 29.926 27.587 29.9588 27.5132 29.9588C25.405 29.9547 23.2968 29.9547 21.1846 29.9547H21.1641C21.1682 29.8727 21.1764 29.7907 21.1764 29.7086C21.1764 27.6542 21.1764 25.5997 21.1764 23.5494C21.1764 22.1306 21.1805 20.7117 21.1805 19.2929C21.5619 19.2929 21.9433 19.2929 22.3248 19.2929C22.8662 20.4657 23.2476 21.6918 23.5183 22.9548C23.5921 23.2992 23.6496 23.6437 23.7152 23.9882C23.7972 23.98 23.8177 23.9267 23.8464 23.8815C24.2935 23.2787 24.6996 22.6472 25.0605 21.9911C25.1958 21.7492 25.1958 21.7492 25.4337 21.905C26.0161 22.2987 26.578 22.717 27.1112 23.1762C27.222 23.2746 27.3204 23.3977 27.4845 23.4633C27.3573 22.5816 27.181 21.7287 26.9431 20.8921C26.7913 20.3549 26.6191 19.826 26.455 19.2888C27.1276 19.2888 27.7962 19.2847 28.4688 19.2847C28.4688 19.297 28.4729 19.3134 28.4729 19.3257C28.4729 22.6021 28.477 25.8786 28.4729 29.155C28.4729 29.561 28.2761 29.8112 27.8864 29.9465C27.8618 29.967 27.8331 29.9711 27.8249 29.9998Z" fill="#FEC63B"/>
<path d="M27.2988 13.3203C27.7253 13.3613 28.1519 13.3285 28.5784 13.3367C28.7876 13.3408 29.0009 13.3531 29.2101 13.3326C29.5915 13.2998 29.8499 13.4474 30.0017 13.796C30.0017 14.9729 30.0017 16.1457 30.0017 17.3226C29.8581 17.6917 29.5874 17.8393 29.2019 17.8147C28.964 17.8024 28.7261 17.8147 28.4841 17.8147C27.6105 17.8147 26.7369 17.8147 25.8633 17.8147C25.8181 17.7245 25.773 17.6301 25.732 17.5399C25.5146 17.0807 25.3013 16.6132 25.0388 16.1785C24.7148 15.5142 24.317 14.895 23.8945 14.2922C24.0668 14.2061 24.2555 14.1774 24.4359 14.1281C25.3875 13.8575 26.3431 13.591 27.2988 13.3203Z" fill="#FEC63B"/>
<path d="M9 13.8001C9.15176 13.4515 9.41015 13.3203 9.79159 13.3326C10.3535 13.3531 10.9195 13.3408 11.4814 13.3367C11.5552 13.3367 11.6291 13.3244 11.7029 13.3203C12.0597 13.4269 12.4165 13.5294 12.7775 13.6361C13.3517 13.8042 13.9341 13.9272 14.5001 14.1281C13.7495 15.2435 13.0687 16.3958 12.5273 17.6301C12.4658 17.7737 12.3837 17.8311 12.2197 17.827C11.6537 17.8147 11.0877 17.8229 10.5217 17.8229C10.2838 17.8229 10.0418 17.8065 9.80389 17.8229C9.41835 17.8475 9.14355 17.6999 9.0041 17.3308C9 16.1498 9 14.977 9 13.8001Z" fill="#FEC63B"/>
<path d="M11.2148 29.9985C11.2805 29.9247 11.3707 29.9575 11.4445 29.9575C13.5691 29.9534 15.6896 29.9534 17.8142 29.9534C17.8142 29.9657 17.8183 29.9821 17.8183 29.9944C15.6158 29.9985 13.4173 29.9985 11.2148 29.9985Z" fill="#FED97E"/>
<path d="M21.1838 29.9568C23.292 29.9568 25.4001 29.9568 27.5124 29.9609C27.5903 29.9609 27.6765 29.9281 27.7421 30.0019C25.556 30.0019 23.3658 30.0019 21.1797 30.0019C21.1797 29.9855 21.1838 29.9691 21.1838 29.9568Z" fill="#FED97E"/>
<path d="M21.1839 29.957C21.1839 29.9693 21.1798 29.9857 21.1798 29.998C20.0601 29.998 18.9363 29.998 17.8166 29.998C17.8166 29.9857 17.8125 29.9693 17.8125 29.957H17.8289C18.9404 29.957 20.0519 29.957 21.1634 29.957H21.1839Z" fill="#FE6844"/>
<path d="M21.1636 29.9574C20.0521 29.9574 18.9406 29.9574 17.8291 29.9574C17.825 29.8672 17.8168 29.7811 17.8168 29.6909C17.8168 26.3119 17.8168 22.937 17.8168 19.558C17.8168 19.4678 17.8127 19.3817 17.8086 19.2915H17.825C18.9283 19.2915 20.0275 19.2915 21.1308 19.2915C21.1431 19.2915 21.1554 19.2915 21.1677 19.2956L21.1759 19.2915C21.1759 20.7103 21.1718 22.1292 21.1718 23.548C21.1718 25.6025 21.1718 27.6569 21.1718 29.7073C21.1759 29.7934 21.1677 29.8754 21.1636 29.9574Z" fill="#FE4440"/>
<path d="M16.6751 19.295C16.187 20.3489 15.8343 21.452 15.5636 22.5797C15.457 23.0226 15.3708 23.4696 15.3052 23.9206C15.3011 23.9452 15.2847 23.9698 15.2601 24.0108C15.0796 23.8263 14.9525 23.6172 14.8171 23.4203C14.4931 22.9488 14.1814 22.469 13.9189 21.9564C13.8328 21.7883 13.7548 21.7719 13.5949 21.8826C12.914 22.3501 12.2537 22.8462 11.6385 23.3957C11.6098 23.4203 11.5852 23.4614 11.5195 23.4573C11.5729 23.0472 11.6426 22.6453 11.7287 22.2475C11.9338 21.288 12.184 20.3407 12.5162 19.4181C12.5285 19.3812 12.5326 19.3361 12.5408 19.2991C12.7254 18.8399 12.9058 18.3724 13.1027 17.9213C13.3611 17.3308 13.6318 16.7403 13.964 16.1826C14.0255 16.1908 14.0871 16.1949 14.1445 16.2113C14.8376 16.4 15.5308 16.5886 16.2198 16.7813C16.7284 16.9207 17.237 17.0684 17.7456 17.216C17.6349 17.421 17.5241 17.622 17.4175 17.827C17.1345 18.2945 16.8925 18.7866 16.6751 19.295Z" fill="#FE4440"/>
<path d="M13.9611 16.1788C13.6289 16.7365 13.3623 17.327 13.0998 17.9175C12.8988 18.3726 12.7224 18.836 12.5379 19.2953C11.8652 19.2953 11.1967 19.2912 10.524 19.2912C10.5199 18.7991 10.5158 18.307 10.5117 17.819C11.0777 17.819 11.6437 17.8108 12.2097 17.8231C12.3738 17.8272 12.4558 17.7698 12.5174 17.6263C13.0587 16.3961 13.7396 15.2397 14.4902 14.1284C14.6952 14.153 14.8921 14.2022 15.0767 14.2965C14.888 14.5959 14.6952 14.887 14.5148 15.1905C14.3261 15.5145 14.1128 15.8302 13.9611 16.1788Z" fill="#EEAF25"/>
<path d="M16.6758 19.2968C16.8891 18.7883 17.1351 18.2962 17.4182 17.8164C17.5535 17.8164 17.6847 17.8164 17.8201 17.8164C17.8242 18.3085 17.8324 18.8006 17.8365 19.2927H17.8201C17.4346 19.2968 17.0572 19.2968 16.6758 19.2968Z" fill="#EEAF25"/>
<path d="M25.0353 16.1792C25.2978 16.618 25.5111 17.0814 25.7284 17.5406C25.7736 17.6308 25.8146 17.7252 25.8597 17.8154C26.0566 18.3075 26.2575 18.7995 26.4544 19.2957C26.6185 19.8288 26.7866 20.3619 26.9425 20.8991C27.1804 21.7356 27.3567 22.5886 27.4839 23.4702C27.3239 23.4046 27.2255 23.2816 27.1107 23.1832C26.5775 22.7239 26.0156 22.3056 25.4331 21.912C25.1953 21.752 25.1953 21.752 25.0599 21.9981C24.699 22.6542 24.2929 23.2857 23.8459 23.8885C23.813 23.9295 23.7966 23.9869 23.7146 23.9951C23.649 23.6507 23.5916 23.3062 23.5177 22.9618C23.2511 21.6987 22.8656 20.4726 22.3242 19.2998C22.2053 19.0456 22.0863 18.7954 21.9715 18.5412C21.7623 18.0819 21.4793 17.6637 21.2578 17.2126C21.3152 17.1921 21.3686 17.1634 21.4301 17.147C22.2463 16.9214 23.0584 16.6877 23.8787 16.4744C24.2601 16.3719 24.6333 16.2284 25.0353 16.1792Z" fill="#FE4440"/>
<path d="M26.458 19.2968C26.2611 18.8047 26.0602 18.3126 25.8633 17.8164C26.7369 17.8164 27.6105 17.8164 28.4841 17.8164C28.48 18.3085 28.4759 18.8006 28.4718 19.2886C27.7992 19.2968 27.1306 19.2968 26.458 19.2968Z" fill="#EEAF25"/>
<path d="M21.2541 17.2094C21.4756 17.6604 21.7627 18.0787 21.9678 18.538C22.0826 18.7922 22.2015 19.0424 22.3205 19.2966C21.939 19.2966 21.5576 19.2966 21.1762 19.2966L21.168 19.3007C21.168 19.2843 21.1721 19.2679 21.1721 19.2556C21.1721 18.7799 21.168 18.3001 21.168 17.8245C21.1721 17.603 21.1721 17.3816 21.1762 17.1602C21.2049 17.1766 21.2295 17.193 21.2541 17.2094Z" fill="#EEAF25"/>
<path d="M21.2557 17.209C21.2311 17.1926 21.2065 17.1762 21.1777 17.1598C20.8947 16.6226 20.5297 16.1428 20.1606 15.663C20.1155 15.6015 20.058 15.6056 19.9965 15.6056C19.6643 15.6056 19.328 15.6056 18.9957 15.6056C18.9342 15.6056 18.8768 15.6015 18.8317 15.663C18.4625 16.1428 18.0975 16.6226 17.8145 17.1598C17.7899 17.1762 17.7653 17.1926 17.7407 17.209C17.2321 17.0655 16.7276 16.9178 16.2149 16.7743C15.5218 16.5816 14.8286 16.3929 14.1396 16.2043C14.0821 16.1879 14.0206 16.1838 13.9591 16.1756C14.1109 15.827 14.32 15.5113 14.5128 15.1873C14.6933 14.8839 14.886 14.5886 15.0747 14.2934C15.3618 14.318 15.6284 14.4246 15.9032 14.4984C16.4282 14.6378 16.9532 14.7855 17.4782 14.9249C17.5397 14.9413 17.634 15.0028 17.6217 14.8552C17.5848 14.3303 17.6135 13.8054 17.6094 13.2805C17.6094 13.1493 17.5643 13.0714 17.4495 13.0017C16.9655 12.7187 16.4692 12.4686 15.9565 12.243C15.4603 12.0216 14.9558 11.8084 14.4226 11.6935C14.115 11.6279 13.8073 11.5664 13.4956 11.5869C13.1921 11.6074 12.9378 11.7346 12.7287 11.9642C12.5974 12.1118 12.4005 12.1118 12.2693 12.0011C12.1462 11.8986 12.1093 11.6812 12.2119 11.5541C12.421 11.2999 12.663 11.0866 12.9994 11.0005C13.5202 10.8693 14.037 10.9144 14.5538 11.0333C15.5382 11.263 16.4364 11.7017 17.3305 12.1569C17.4167 12.202 17.4864 12.2881 17.6176 12.2799C17.5643 11.9068 17.6176 11.5582 17.8145 11.2384C18.1549 10.9431 18.5651 10.9308 18.9875 10.9472C19.328 10.9595 19.6684 10.9595 20.0088 10.9472C20.4272 10.9308 20.8332 10.9554 21.1736 11.2384C21.3213 11.5049 21.4238 11.7797 21.3828 12.0913C21.3582 12.2799 21.432 12.284 21.5756 12.202C22.1744 11.8576 22.7978 11.5705 23.4459 11.3327C24.2046 11.0538 24.9716 10.8201 25.796 10.9677C26.1939 11.0374 26.5302 11.2138 26.7517 11.5664C26.846 11.7181 26.8255 11.874 26.6902 11.9929C26.5548 12.1118 26.403 12.1036 26.2595 11.997C26.2144 11.9642 26.1775 11.9232 26.1406 11.8822C25.9478 11.6771 25.7017 11.5869 25.4269 11.5828C25.0003 11.5705 24.5861 11.6525 24.1841 11.7838C23.2367 12.0831 22.3549 12.526 21.4895 13.0058C21.391 13.0591 21.3869 13.137 21.3869 13.2272C21.3869 13.7521 21.3951 14.2811 21.3787 14.806C21.3746 14.9413 21.391 14.9618 21.51 14.929C21.793 14.8511 22.076 14.7773 22.3549 14.6994C22.8676 14.5599 23.3679 14.3918 23.8888 14.2893C24.3113 14.8921 24.705 15.5113 25.0331 16.1756C24.6353 16.2248 24.258 16.3683 23.8724 16.4668C23.0521 16.68 22.24 16.9137 21.4238 17.1393C21.3705 17.1598 21.3131 17.1885 21.2557 17.209Z" fill="#E92F2F"/>
<path d="M23.891 14.294C23.3701 14.3965 22.8656 14.5646 22.357 14.7041C22.074 14.782 21.791 14.8517 21.5121 14.9337C21.3891 14.9665 21.3768 14.9501 21.3809 14.8107C21.3973 14.2858 21.3891 13.7609 21.3891 13.2319C21.3891 13.1417 21.3932 13.0638 21.4916 13.0105C22.357 12.5307 23.2388 12.0878 24.1863 11.7885C24.5882 11.6613 25.0025 11.5793 25.429 11.5875C25.7038 11.5957 25.9499 11.6818 26.1427 11.8869C26.1796 11.9279 26.2165 11.9689 26.2616 12.0017C26.4052 12.1083 26.5569 12.1165 26.6923 11.9976C26.8276 11.8787 26.8482 11.7228 26.7538 11.5711C26.5364 11.2185 26.196 11.0421 25.7982 10.9724C24.9738 10.8248 24.2068 11.0585 23.448 11.3374C22.8 11.5752 22.1765 11.8623 21.5777 12.2067C21.4383 12.2887 21.3603 12.2846 21.385 12.096C21.426 11.7844 21.3234 11.5096 21.1758 11.2431C21.8279 10.9314 22.476 10.6157 23.1281 10.304C23.9156 9.92674 24.7031 9.54948 25.4906 9.18042C26.3396 8.78675 27.2009 9.082 27.5782 9.92674C27.812 10.4475 28.013 10.9847 28.1729 11.5342C28.3903 12.2887 28.0253 13.0064 27.2952 13.3221C26.3396 13.5928 25.3839 13.8593 24.4324 14.13C24.2478 14.1792 24.0591 14.2079 23.891 14.294Z" fill="#FE4440"/>
<path d="M17.8231 11.2464C17.6262 11.5662 17.5729 11.9148 17.6262 12.288C17.495 12.2962 17.4253 12.2101 17.3391 12.1649C16.445 11.7098 15.5468 11.271 14.5624 11.0414C14.0456 10.9224 13.5329 10.8773 13.008 11.0085C12.6716 11.0906 12.4296 11.3079 12.2205 11.5621C12.1179 11.6893 12.1548 11.9066 12.2779 12.0091C12.405 12.1157 12.606 12.1157 12.7332 11.9681C12.9423 11.7344 13.1966 11.6113 13.5001 11.5908C13.8159 11.5662 14.1236 11.6319 14.4271 11.6975C14.9644 11.8123 15.4647 12.0255 15.961 12.247C16.4737 12.4725 16.97 12.7226 17.454 13.0056C17.5688 13.0753 17.6139 13.1532 17.6139 13.2844C17.618 13.8093 17.5893 14.3342 17.6262 14.8591C17.6344 15.0067 17.5442 14.9452 17.4827 14.9288C16.9577 14.7894 16.4327 14.6418 15.9077 14.5023C15.6329 14.4285 15.3663 14.3219 15.0792 14.2973C14.8946 14.2071 14.6978 14.1538 14.4927 14.1292C13.9308 13.9282 13.3443 13.8052 12.7701 13.6371C12.4132 13.5346 12.0564 13.428 11.6955 13.3213C10.9203 12.981 10.584 12.2018 10.8711 11.3776C11.031 10.9224 11.1992 10.4673 11.3756 10.0162C11.716 9.16323 12.5609 8.76547 13.3935 9.14273C14.8823 9.81524 16.3466 10.5411 17.8231 11.2464Z" fill="#FE4440"/>
<path d="M21.1714 17.8205C21.1714 18.2962 21.1755 18.776 21.1755 19.2517C21.1632 19.264 21.1509 19.2804 21.1386 19.2927C20.0353 19.2927 18.9361 19.2927 17.8328 19.2927C17.8287 18.8006 17.8205 18.3085 17.8164 17.8164L17.8287 17.8205C18.9402 17.8246 20.0558 17.8205 21.1714 17.8205Z" fill="#E92F2F"/>
<path d="M21.1367 19.2964C21.149 19.2841 21.1613 19.2677 21.1736 19.2554C21.1736 19.2718 21.1695 19.2882 21.1695 19.3005C21.1613 19.2964 21.149 19.2964 21.1367 19.2964Z" fill="#FE6844"/>
<path d="M17.7463 17.2094C17.7709 17.193 17.7955 17.1766 17.8201 17.1602C17.8242 17.3816 17.8242 17.603 17.8283 17.8245L17.816 17.8204C17.6807 17.8204 17.5494 17.8204 17.4141 17.8204C17.5248 17.6153 17.6355 17.4103 17.7463 17.2094Z" fill="#FEC63B"/>
<path d="M17.8246 17.8235C17.8205 17.6021 17.8205 17.3806 17.8164 17.1592C18.0994 16.622 18.4644 16.1422 18.8336 15.6624C18.8787 15.6009 18.9361 15.605 18.9976 15.605C19.3299 15.605 19.6662 15.605 19.9984 15.605C20.0599 15.605 20.1173 15.6009 20.1625 15.6624C20.5316 16.1422 20.8966 16.622 21.1796 17.1592C21.1755 17.3806 21.1755 17.6021 21.1714 17.8235C20.0558 17.8194 18.9402 17.8235 17.8246 17.8235Z" fill="#FE4440"/>
<defs>
<linearGradient id="paint0_linear_2097_380" x1="20" y1="0" x2="20" y2="40" gradientUnits="userSpaceOnUse">
<stop stop-color="#B53EE9"/>
<stop offset="0.534722" stop-color="#7935D9"/>
<stop offset="1" stop-color="#57A2FB"/>
</linearGradient>
</defs>
</svg>
