<svg width="25" height="16" viewBox="0 0 25 16" fill="none" xmlns="http://www.w3.org/2000/svg">
<path d="M23.858 2.91571C23.8629 3.95437 23.8613 4.99552 23.8596 6.03668C23.8588 6.55746 23.858 7.07825 23.858 7.59873V7.6101V7.62148V7.63286V7.64423V7.65561V7.66698V7.67836V7.68973V7.70111V7.71248V7.72386V7.73523V7.74661V7.75798V7.76936V7.78073V7.7921V7.80348V7.81485V7.82622V7.8376V7.84897V7.86034V7.87172V7.88309V7.89446V7.90583V7.9172V7.92858V7.93995V7.95132V7.96269V7.97406V7.98543V7.99681V8.00818V8.01955V8.03092V8.04229V8.05366V8.06503V8.0764V8.08777V8.09914V8.11051V8.12188V8.13325V8.14462V8.15599V8.16735V8.17872V8.19009V8.20146V8.21283V8.2242V8.23557V8.24693V8.2583V8.26967V8.28104V8.2924V8.30377V8.31514V8.32651V8.33787V8.34924V8.36061V8.37197V8.38334V8.39471V8.40607V8.41744V8.4288V8.44017V8.45154V8.4629V8.47427V8.48563V8.497V8.50836V8.51973V8.53109V8.54246V8.55382V8.56519V8.57655V8.58792V8.59928V8.61065V8.62201V8.63337V8.64474V8.6561V8.66746V8.67883V8.69019V8.70155V8.71292V8.72428V8.73564V8.74701V8.75837V8.76973V8.78109V8.79246V8.80382V8.81518V8.82654V8.83791V8.84927V8.86063V8.87199V8.88335V8.89472V8.90608V8.91744V8.9288V8.94016V8.95152V8.96288V8.97424V8.98561V8.99697V9.00833V9.01969V9.03105V9.04241V9.05377V9.06513V9.07649V9.08785V9.09921V9.11057V9.12193V9.13329V9.14465V9.15601V9.16737V9.17873V9.19009V9.20145V9.2128V9.22416V9.23552V9.24688V9.25824V9.2696V9.28096V9.29232V9.30368V9.31503V9.32639V9.33775V9.34911V9.36047V9.37183V9.38319V9.39454V9.4059V9.41726V9.42862V9.43997V9.45133V9.46269V9.47405V9.48541V9.49676V9.50812V9.51948V9.53084V9.54219V9.55355V9.56491V9.57627V9.58762V9.59898V9.61034V9.62169V9.63305V9.64441V9.65576V9.66712V9.67848V9.68983V9.70119V9.71255V9.7239V9.73526V9.74662V9.75797V9.76933V9.78069V9.79204V9.8034V9.81475V9.82611V9.83747V9.84882V9.86018V9.87153V9.88289V9.89425V9.9056V9.91696V9.92831V9.93967V9.95103V9.96238V9.97374V9.98509V9.99645V10.0078V10.0192V10.0305V10.0419V10.0532V10.0646V10.0759V10.0873V10.0986V10.11V10.1214V10.1327V10.1441V10.1554V10.1668V10.1781V10.1895V10.2008V10.2122V10.2236V10.2349V10.2463V10.2576V10.269V10.2803V10.2917V10.303V10.3144V10.3258V10.3371V10.3485V10.3598V10.3712V10.3825V10.3939V10.4052V10.4166V10.4279V10.4393V10.4507V10.462V10.4734V10.4847V10.4961V10.5074V10.5188V10.5301V10.5415V10.5529V10.5642V10.5756V10.5869V10.5983V10.6096V10.621V10.6323V10.6437V10.655V10.6664V10.6778V10.6891V10.7005V10.7118V10.7232V10.7345V10.7459V10.7572V10.7686V10.78V10.7913V10.8027V10.814V10.8254V10.8367V10.8481V10.8594V10.8708V10.8821V10.8935V10.9049V10.9162V10.9276V10.9389V10.9503V10.9616V10.973V10.9843V10.9957V11.0071V11.0184V11.0298V11.0411V11.0525V11.0638V11.0752V11.0865V11.0979V11.1093V11.1206V11.132V11.1433V11.1547V11.166V11.1774V11.1888V11.2001V11.2115V11.2228V11.2342V11.2455V11.2569V11.2682V11.2796V11.291V11.3023V11.3137V11.325V11.3364V11.3477V11.3591V11.3705V11.3818V11.3932V11.4045V11.4159V11.4272V11.4386V11.45V11.4613V11.4727V11.484V11.4954V11.5067V11.5181V11.5295V11.5408V11.5522V11.5635V11.5749V11.5862V11.5976V11.609V11.6203V11.6317V11.643V11.6544V11.6658V11.6771V11.6885V11.6998V11.7112V11.7225V11.7339V11.7453V11.7566V11.768V11.7793V11.7907V11.8021V11.8134V11.8248V11.8361V11.8475V11.8589V11.8702V11.8816V11.8929V11.9043V11.9157V11.927V11.9384V11.9497V11.9611V11.9725V11.9838V11.9952V12.0065V12.0179V12.0293V12.0406V12.052V12.0633V12.0747V12.0861V12.0974V12.1088V12.1201V12.1315V12.1429V12.1542V12.1656V12.177V12.1883V12.1997V12.211V12.2224V12.2338V12.2451V12.2565V12.2679V12.2792V12.2906V12.3019V12.3133V12.3247V12.336V12.3474V12.3588V12.3701V12.3815V12.3929V12.4042V12.4156V12.4269V12.4383V12.4497V12.461V12.4724V12.4838V12.4951V12.5065V12.5179V12.5292V12.5406V12.552V12.5633V12.5747V12.5861V12.5974V12.6088V12.6202V12.6315V12.6429V12.6543V12.6656V12.677V12.6884V12.6997V12.7111V12.7225V12.7338V12.7452V12.7566V12.7679V12.7793V12.7907V12.802V12.8134V12.8248V12.8361V12.8475V12.8589V12.8702V12.8816V12.893V12.9044V12.9157V12.9271V12.9385V12.9498V12.9612V12.9726V12.9839V12.9953V13.0067V13.0181V13.0294V13.0408V13.0522V13.0635V13.0749V13.0863V13.0977V13.109V13.1204V13.1318V13.1431V13.1545V13.1659V13.1773V13.1886V13.2V13.2114V13.2228V13.2341V13.2455V13.2569V13.2683V13.2796V13.291V13.3024V13.3138V13.3251V13.3365V13.3479V13.3593V13.3706V13.382V13.3934V13.4048V13.4161C23.858 14.0093 23.4383 14.3878 22.9326 14.3454C22.8106 14.3348 22.6762 14.2907 22.5202 14.2269L22.5202 14.2269L22.5172 14.2257C21.2018 13.7043 19.8941 13.183 18.5866 12.6544C18.5087 12.6201 18.4319 12.5945 18.3509 12.5676L18.3438 12.5652L18.0593 12.4704L17.9644 12.7549C17.9606 12.7662 17.9563 12.7788 17.9516 12.7924C17.9348 12.8413 17.9135 12.9032 17.8991 12.9609L17.8989 12.9609L17.8968 12.9706C17.5861 14.4155 16.3386 15.4863 14.8747 15.5064L22.0311 2.32515C22.1171 2.29137 22.1958 2.25894 22.2716 2.22773C22.3935 2.17753 22.5078 2.13046 22.6326 2.08592L22.6326 2.08594L22.6362 2.0846C22.9676 1.96148 23.2696 2.01068 23.4853 2.15724C23.7002 2.30327 23.8549 2.56315 23.858 2.91571ZM23.858 2.91571C23.858 2.91558 23.858 2.91545 23.858 2.91533L24.158 2.91391L23.858 2.91639C23.858 2.91616 23.858 2.91594 23.858 2.91571ZM18.4723 12.9243L18.2787 12.8597C18.3526 12.8844 18.4112 12.9047 18.4697 12.9307C18.4899 12.9389 18.51 12.947 18.5301 12.9551C18.5312 12.9518 18.5324 12.9483 18.5336 12.9448L18.4726 12.9244M18.4723 12.9243L18.4698 12.9307L18.4726 12.9244M18.4723 12.9243L18.4726 12.9244M18.4723 12.9243L18.4726 12.9244M21.8106 4.65693H22.1106V4.29103L21.7518 4.36275L21.8106 4.65693ZM21.8106 4.65693C21.8106 7.01772 21.8106 9.3491 21.8032 11.7172M21.8106 4.65693C21.77 4.66503 21.7406 4.66867 21.7175 4.67154C21.6987 4.67387 21.684 4.67569 21.6708 4.67899M21.8032 11.7172C21.7076 11.6805 21.6266 11.6511 21.5457 11.6216M21.8032 11.7172L22.1032 11.7182L22.1019 12.1534L21.6956 11.9973L21.8032 11.7172ZM21.6708 4.67899L21.598 4.38794L21.5786 4.39278L21.5601 4.40016L21.6708 4.67899ZM21.6708 4.67899C21.1336 4.89227 20.5964 5.10739 20.0592 5.32251C19.522 5.53763 18.9849 5.75275 18.4477 5.96603C18.2852 6.02956 18.2855 6.13373 18.2858 6.25255C18.2858 6.25753 18.2858 6.26253 18.2858 6.26756C18.2858 6.58357 18.2862 6.90005 18.2867 7.21675C18.2881 8.16778 18.2895 9.12088 18.2784 10.0698M18.2784 10.0698L17.9784 10.0663V10.0698H18.2784ZM18.2784 10.0698C18.2784 10.2684 18.352 10.3493 18.5286 10.4229M18.5286 10.4229L18.4132 10.6999L18.4204 10.7027L18.5286 10.4229ZM18.5286 10.4229C19.1863 10.6771 19.8439 10.9408 20.4995 11.2036C20.8489 11.3437 21.1977 11.4836 21.5457 11.6216M21.5457 11.6216L21.435 11.9006L21.4432 11.9036L21.5457 11.6216ZM9.45266 2.59185H9.46275H9.45266ZM9.45266 2.59185H9.44257M9.45266 2.59185H9.44257M9.44257 2.59185H9.43248M9.44257 2.59185H9.43248M9.43248 2.59185H9.42239M9.43248 2.59185H9.42239M9.42239 2.59185H9.4123M9.42239 2.59185H9.4123M9.4123 2.59185H9.40222M9.4123 2.59185H9.40222M9.40222 2.59185H9.39213M9.40222 2.59185H9.39213M9.39213 2.59185H9.38204M9.39213 2.59185H9.38204M9.38204 2.59185H9.37195M9.38204 2.59185H9.37195M9.37195 2.59185H9.36186M9.37195 2.59185H9.36186M9.36186 2.59185H9.35178M9.36186 2.59185H9.35178M9.35178 2.59185H9.34169M9.35178 2.59185H9.34169M9.34169 2.59185H9.3316M9.34169 2.59185H9.3316M9.3316 2.59185H9.32151M9.3316 2.59185H9.32151M9.32151 2.59185H9.31143M9.32151 2.59185H9.31143M9.31143 2.59185H9.30134M9.31143 2.59185H9.30134M9.30134 2.59185H9.29125M9.30134 2.59185H9.29125M9.29125 2.59185H9.28117M9.29125 2.59185H9.28117M9.28117 2.59185H9.27108M9.28117 2.59185H9.27108M9.27108 2.59185H9.26099M9.27108 2.59185H9.26099M9.26099 2.59185H9.25091M9.26099 2.59185H9.25091M9.25091 2.59185H9.24082M9.25091 2.59185H9.24082M9.24082 2.59185H9.23074M9.24082 2.59185H9.23074M9.23074 2.59185H9.22065M9.23074 2.59185H9.22065M9.22065 2.59185H9.21056M9.22065 2.59185H9.21056M9.21056 2.59185H9.20048M9.21056 2.59185H9.20048M9.20048 2.59185H9.19039M9.20048 2.59185H9.19039M9.19039 2.59185H9.18031M9.19039 2.59185H9.18031M9.18031 2.59185H9.17022M9.18031 2.59185H9.17022M9.17022 2.59185H9.16014M9.17022 2.59185H9.16014M9.16014 2.59185H9.15005M9.16014 2.59185H9.15005M9.15005 2.59185H9.13997M9.15005 2.59185H9.13997M9.13997 2.59185H9.12989M9.13997 2.59185H9.12989M9.12989 2.59185H9.1198M9.12989 2.59185H9.1198M9.1198 2.59185H9.10972M9.1198 2.59185H9.10972M9.10972 2.59185H9.09963M9.10972 2.59185H9.09963M9.09963 2.59185H9.08955M9.09963 2.59185H9.08955M9.08955 2.59185H9.07947M9.08955 2.59185H9.07947M9.07947 2.59185H9.06938M9.07947 2.59185H9.06938M9.06938 2.59185H9.0593M9.06938 2.59185H9.0593M9.0593 2.59185H9.04922M9.0593 2.59185H9.04922M9.04922 2.59185H9.03913M9.04922 2.59185H9.03913M9.03913 2.59185H9.02905M9.03913 2.59185H9.02905M9.02905 2.59185H9.01897M9.02905 2.59185H9.01897M9.01897 2.59185H9.00889M9.01897 2.59185H9.00889M9.00889 2.59185H8.9988M9.00889 2.59185H8.9988M8.9988 2.59185H8.98872M8.9988 2.59185H8.98872M8.98872 2.59185H8.97864M8.98872 2.59185H8.97864M8.97864 2.59185H8.96856M8.97864 2.59185H8.96856M8.96856 2.59185H8.95848M8.96856 2.59185H8.95848M8.95848 2.59185H8.94839M8.95848 2.59185H8.94839M8.94839 2.59185H8.93831M8.94839 2.59185H8.93831M8.93831 2.59185H8.92823M8.93831 2.59185H8.92823M8.92823 2.59185H8.91815M8.92823 2.59185H8.91815M8.91815 2.59185H8.90807M8.91815 2.59185H8.90807M8.90807 2.59185H8.89799M8.90807 2.59185H8.89799M8.89799 2.59185H8.88791M8.89799 2.59185H8.88791M8.88791 2.59185H8.87783M8.88791 2.59185H8.87783M8.87783 2.59185H8.86774M8.87783 2.59185H8.86774M8.86774 2.59185H8.85766M8.86774 2.59185H8.85766M8.85766 2.59185H8.84758M8.85766 2.59185H8.84758M8.84758 2.59185H8.8375M8.84758 2.59185H8.8375M8.8375 2.59185H8.82742M8.8375 2.59185H8.82742M8.82742 2.59185H8.81734M8.82742 2.59185H8.81734M8.81734 2.59185H8.80726M8.81734 2.59185H8.80726M8.80726 2.59185H8.79718M8.80726 2.59185H8.79718M8.79718 2.59185H8.7871M8.79718 2.59185H8.7871M8.7871 2.59185H8.77702M8.7871 2.59185H8.77702M8.77702 2.59185H8.76694M8.77702 2.59185H8.76694M8.76694 2.59185H8.75687M8.76694 2.59185H8.75687M8.75687 2.59185H8.74679M8.75687 2.59185H8.74679M8.74679 2.59185H8.73671M8.74679 2.59185H8.73671M8.73671 2.59185H8.72663M8.73671 2.59185H8.72663M8.72663 2.59185H8.71655M8.72663 2.59185H8.71655M8.71655 2.59185H8.70647M8.71655 2.59185H8.70647M8.70647 2.59185H8.69639M8.70647 2.59185H8.69639M8.69639 2.59185H8.68631M8.69639 2.59185H8.68631M8.68631 2.59185H8.67624M8.68631 2.59185H8.67624M8.67624 2.59185H8.66616M8.67624 2.59185H8.66616M8.66616 2.59185H8.65608M8.66616 2.59185H8.65608M8.65608 2.59185H8.646M8.65608 2.59185H8.646M8.646 2.59185H8.63592M8.646 2.59185H8.63592M8.63592 2.59185H8.62585M8.63592 2.59185H8.62585M8.62585 2.59185H8.61577M8.62585 2.59185H8.61577M8.61577 2.59185H8.60569M8.61577 2.59185H8.60569M8.60569 2.59185H8.59561M8.60569 2.59185H8.59561M8.59561 2.59185H8.58554M8.59561 2.59185H8.58554M8.58554 2.59185H8.57546M8.58554 2.59185H8.57546M8.57546 2.59185H8.56538M8.57546 2.59185H8.56538M8.56538 2.59185H8.5553M8.56538 2.59185H8.5553M8.5553 2.59185H8.54523M8.5553 2.59185H8.54523M8.54523 2.59185H8.53515M8.54523 2.59185H8.53515M8.53515 2.59185H8.52507M8.53515 2.59185H8.52507M8.52507 2.59185H8.515M8.52507 2.59185H8.515M8.515 2.59185H8.50492M8.515 2.59185H8.50492M8.50492 2.59185H8.49484M8.50492 2.59185H8.49484M8.49484 2.59185H8.48477M8.49484 2.59185H8.48477M8.48477 2.59185H8.47469M8.48477 2.59185H8.47469M8.47469 2.59185H8.46462M8.47469 2.59185H8.46462M8.46462 2.59185H8.45454M8.46462 2.59185H8.45454M8.45454 2.59185H8.44447M8.45454 2.59185H8.44447M8.44447 2.59185H8.43439M8.44447 2.59185H8.43439M8.43439 2.59185H8.42431M8.43439 2.59185H8.42431M8.42431 2.59185H8.41424M8.42431 2.59185H8.41424M8.41424 2.59185H8.40416M8.41424 2.59185H8.40416M8.40416 2.59185H8.39409M8.40416 2.59185H8.39409M8.39409 2.59185H8.38401M8.39409 2.59185H8.38401M8.38401 2.59185H8.37394M8.38401 2.59185H8.37394M8.37394 2.59185H8.36386M8.37394 2.59185H8.36386M8.36386 2.59185H8.35379M8.36386 2.59185H8.35379M8.35379 2.59185H8.34371M8.35379 2.59185H8.34371M8.34371 2.59185H8.33364M8.34371 2.59185H8.33364M8.33364 2.59185H8.32356M8.33364 2.59185H8.32356M8.32356 2.59185H8.31349M8.32356 2.59185H8.31349M8.31349 2.59185H8.30341M8.31349 2.59185H8.30341M8.30341 2.59185H8.29334M8.30341 2.59185H8.29334M8.29334 2.59185H8.28327M8.29334 2.59185H8.28327M8.28327 2.59185H8.27319M8.28327 2.59185H8.27319M8.27319 2.59185H8.26312M8.27319 2.59185H8.26312M8.26312 2.59185H8.25304M8.26312 2.59185H8.25304M8.25304 2.59185H8.24297M8.25304 2.59185H8.24297M8.24297 2.59185H8.2329M8.24297 2.59185H8.2329M8.2329 2.59185H8.22282M8.2329 2.59185H8.22282M8.22282 2.59185H8.21275M8.22282 2.59185H8.21275M8.21275 2.59185H8.20267M8.21275 2.59185H8.20267M8.20267 2.59185H8.1926M8.20267 2.59185H8.1926M8.1926 2.59185H8.18253M8.1926 2.59185H8.18253M8.18253 2.59185H8.17245M8.18253 2.59185H8.17245M8.17245 2.59185H8.16238M8.17245 2.59185H8.16238M8.16238 2.59185H8.15231M8.16238 2.59185H8.15231M8.15231 2.59185H8.14224M8.15231 2.59185H8.14224M8.14224 2.59185H8.13216M8.14224 2.59185H8.13216M8.13216 2.59185H8.12209M8.13216 2.59185H8.12209M8.12209 2.59185H8.11202M8.12209 2.59185H8.11202M8.11202 2.59185H8.10194M8.11202 2.59185H8.10194M8.10194 2.59185H8.09187M8.10194 2.59185H8.09187M8.09187 2.59185H8.0818M8.09187 2.59185H8.0818M8.0818 2.59185H8.07173M8.0818 2.59185H8.07173M8.07173 2.59185H8.06165M8.07173 2.59185H8.06165M8.06165 2.59185H8.05158M8.06165 2.59185H8.05158M8.05158 2.59185H8.04151M8.05158 2.59185H8.04151M8.04151 2.59185H8.03144M8.04151 2.59185H8.03144M8.03144 2.59185H8.02137M8.03144 2.59185H8.02137M8.02137 2.59185H8.01129M8.02137 2.59185H8.01129M8.01129 2.59185H8.00122M8.01129 2.59185H8.00122M8.00122 2.59185H7.99115M8.00122 2.59185H7.99115M7.99115 2.59185H7.98108M7.99115 2.59185H7.98108M7.98108 2.59185H7.97101M7.98108 2.59185H7.97101M7.97101 2.59185H7.96093M7.97101 2.59185H7.96093M7.96093 2.59185H7.95086M7.96093 2.59185H7.95086M7.95086 2.59185H7.94079M7.95086 2.59185H7.94079M7.94079 2.59185H7.93072M7.94079 2.59185H7.93072M7.93072 2.59185H7.92065M7.93072 2.59185H7.92065M7.92065 2.59185H7.91058M7.92065 2.59185H7.91058M7.91058 2.59185H7.90051M7.91058 2.59185H7.90051M7.90051 2.59185H7.89043M7.90051 2.59185H7.89043M7.89043 2.59185H7.88036M7.89043 2.59185H7.88036M7.88036 2.59185H7.87029M7.88036 2.59185H7.87029M7.87029 2.59185H7.86022M7.87029 2.59185H7.86022M7.86022 2.59185H7.85015M7.86022 2.59185H7.85015M7.85015 2.59185H7.84008M7.85015 2.59185H7.84008M7.84008 2.59185H7.83001M7.84008 2.59185H7.83001M7.83001 2.59185H7.81994M7.83001 2.59185H7.81994M7.81994 2.59185H7.80987M7.81994 2.59185H7.80987M7.80987 2.59185H7.7998M7.80987 2.59185H7.7998M7.7998 2.59185H7.78973M7.7998 2.59185H7.78973M7.78973 2.59185H7.77966M7.78973 2.59185H7.77966M7.77966 2.59185H7.76959M7.77966 2.59185H7.76959M7.76959 2.59185H7.75951M7.76959 2.59185H7.75951M7.75951 2.59185H7.74944M7.75951 2.59185H7.74944M7.74944 2.59185H7.73937M7.74944 2.59185H7.73937M7.73937 2.59185H7.7293M7.73937 2.59185H7.7293M7.7293 2.59185H7.71923M7.7293 2.59185H7.71923M7.71923 2.59185H7.70916M7.71923 2.59185H7.70916M7.70916 2.59185H7.69909M7.70916 2.59185H7.69909M7.69909 2.59185H7.68902M7.69909 2.59185H7.68902M7.68902 2.59185H7.67895M7.68902 2.59185H7.67895M7.67895 2.59185H7.66888M7.67895 2.59185H7.66888M7.66888 2.59185H7.65881M7.66888 2.59185H7.65881M7.65881 2.59185H7.64874M7.65881 2.59185H7.64874M7.64874 2.59185H7.63867M7.64874 2.59185H7.63867M7.63867 2.59185H7.6286M7.63867 2.59185H7.6286M7.6286 2.59185H7.61854M7.6286 2.59185H7.61854M7.61854 2.59185H7.60847M7.61854 2.59185H7.60847M7.60847 2.59185H7.5984M7.60847 2.59185H7.5984M7.5984 2.59185H7.58833M7.5984 2.59185H7.58833M7.58833 2.59185H7.57826M7.58833 2.59185H7.57826M7.57826 2.59185H7.56819M7.57826 2.59185H7.56819M7.56819 2.59185H7.55812M7.56819 2.59185H7.55812M7.55812 2.59185H7.54805M7.55812 2.59185H7.54805M7.54805 2.59185H7.53798M7.54805 2.59185H7.53798M7.53798 2.59185H7.52791M7.53798 2.59185H7.52791M7.52791 2.59185H7.51784M7.52791 2.59185H7.51784M7.51784 2.59185H7.50777M7.51784 2.59185H7.50777M7.50777 2.59185H7.4977M7.50777 2.59185H7.4977M7.4977 2.59185H7.48763M7.4977 2.59185H7.48763M7.48763 2.59185H7.47757M7.48763 2.59185H7.47757M7.47757 2.59185H7.4675M7.47757 2.59185H7.4675M7.4675 2.59185H7.45743M7.4675 2.59185H7.45743M7.45743 2.59185H7.44736M7.45743 2.59185H7.44736M7.44736 2.59185H7.43729M7.44736 2.59185H7.43729M7.43729 2.59185H7.42722M7.43729 2.59185H7.42722M7.42722 2.59185H7.41715M7.42722 2.59185H7.41715M7.41715 2.59185H7.40708M7.41715 2.59185H7.40708M7.40708 2.59185H7.39701M7.40708 2.59185H7.39701M7.39701 2.59185H7.38695M7.39701 2.59185H7.38695M7.38695 2.59185H7.37688M7.38695 2.59185H7.37688M7.37688 2.59185H7.36681M7.37688 2.59185H7.36681M7.36681 2.59185H7.35674M7.36681 2.59185H7.35674M7.35674 2.59185H7.34667M7.35674 2.59185H7.34667M7.34667 2.59185H7.3366M7.34667 2.59185H7.3366M7.3366 2.59185H7.32653M7.3366 2.59185H7.32653M7.32653 2.59185H7.31647M7.32653 2.59185H7.31647M7.31647 2.59185H7.3064M7.31647 2.59185H7.3064M7.3064 2.59185H7.29633M7.3064 2.59185H7.29633M7.29633 2.59185H7.28626M7.29633 2.59185H7.28626M7.28626 2.59185H7.27619M7.28626 2.59185H7.27619M7.27619 2.59185H7.26612M7.27619 2.59185H7.26612M7.26612 2.59185H7.25606M7.26612 2.59185H7.25606M7.25606 2.59185H7.24599M7.25606 2.59185H7.24599M7.24599 2.59185H7.23592M7.24599 2.59185H7.23592M7.23592 2.59185H7.22585M7.23592 2.59185H7.22585M7.22585 2.59185H7.21578M7.22585 2.59185H7.21578M7.21578 2.59185H7.20571M7.21578 2.59185H7.20571M7.20571 2.59185H7.19565M7.20571 2.59185H7.19565M7.19565 2.59185H7.18558M7.19565 2.59185H7.18558M7.18558 2.59185H7.17551M7.18558 2.59185H7.17551M7.17551 2.59185H7.16544M7.17551 2.59185H7.16544M7.16544 2.59185H7.15537M7.16544 2.59185H7.15537M7.15537 2.59185H7.14531M7.15537 2.59185H7.14531M7.14531 2.59185H7.13524M7.14531 2.59185H7.13524M7.13524 2.59185H7.12517M7.13524 2.59185H7.12517M7.12517 2.59185H7.1151M7.12517 2.59185H7.1151M7.1151 2.59185H7.10503M7.1151 2.59185H7.10503M7.10503 2.59185H7.09497M7.10503 2.59185H7.09497M7.09497 2.59185H7.0849M7.09497 2.59185H7.0849M7.0849 2.59185H7.07483M7.0849 2.59185H7.07483M7.07483 2.59185H7.06476M7.07483 2.59185H7.06476M7.06476 2.59185H7.05469M7.06476 2.59185H7.05469M7.05469 2.59185H7.04463M7.05469 2.59185H7.04463M7.04463 2.59185H7.03456M7.04463 2.59185H7.03456M7.03456 2.59185H7.02449M7.03456 2.59185H7.02449M7.02449 2.59185H7.01442M7.02449 2.59185H7.01442M7.01442 2.59185H7.00435M7.01442 2.59185H7.00435M7.00435 2.59185H6.99429M7.00435 2.59185H6.99429M6.99429 2.59185H6.98422M6.99429 2.59185H6.98422M6.98422 2.59185H6.97415M6.98422 2.59185H6.97415M6.97415 2.59185H6.96408M6.97415 2.59185H6.96408M6.96408 2.59185H6.95401M6.96408 2.59185H6.95401M6.95401 2.59185H6.94395M6.95401 2.59185H6.94395M6.94395 2.59185H6.93388M6.94395 2.59185H6.93388M6.93388 2.59185H6.92381M6.93388 2.59185H6.92381M6.92381 2.59185H6.91374M6.92381 2.59185H6.91374M6.91374 2.59185H6.90368M6.91374 2.59185H6.90368M6.90368 2.59185H6.89361M6.90368 2.59185H6.89361M6.89361 2.59185H6.88354M6.89361 2.59185H6.88354M6.88354 2.59185H6.87347M6.88354 2.59185H6.87347M6.87347 2.59185H6.8634M6.87347 2.59185H6.8634M6.8634 2.59185H6.85334M6.8634 2.59185H6.85334M6.85334 2.59185H6.84327M6.85334 2.59185H6.84327M6.84327 2.59185H6.8332M6.84327 2.59185H6.8332M6.8332 2.59185H6.82313M6.8332 2.59185H6.82313M6.82313 2.59185H6.81306M6.82313 2.59185H6.81306M6.81306 2.59185H6.803M6.81306 2.59185H6.803M6.803 2.59185H6.79293M6.803 2.59185H6.79293M6.79293 2.59185H6.78286M6.79293 2.59185H6.78286M6.78286 2.59185H6.77279M6.78286 2.59185H6.77279M6.77279 2.59185H6.76272M6.77279 2.59185H6.76272M6.76272 2.59185H6.75266M6.76272 2.59185H6.75266M6.75266 2.59185H6.74259M6.75266 2.59185H6.74259M6.74259 2.59185H6.73252M6.74259 2.59185H6.73252M6.73252 2.59185H6.72245M6.73252 2.59185H6.72245M6.72245 2.59185H6.71239M6.72245 2.59185H6.71239M6.71239 2.59185H6.70232M6.71239 2.59185H6.70232M6.70232 2.59185H6.69225M6.70232 2.59185H6.69225M6.69225 2.59185H6.68218M6.69225 2.59185H6.68218M6.68218 2.59185H6.67211M6.68218 2.59185H6.67211M6.67211 2.59185H6.66205M6.67211 2.59185H6.66205M6.66205 2.59185H6.65198M6.66205 2.59185H6.65198M6.65198 2.59185H6.64191M6.65198 2.59185H6.64191M6.64191 2.59185H6.63184M6.64191 2.59185H6.63184M6.63184 2.59185H6.62177M6.63184 2.59185H6.62177M6.62177 2.59185H6.61171M6.62177 2.59185H6.61171M6.61171 2.59185H6.60164M6.61171 2.59185H6.60164M6.60164 2.59185H6.59157M6.60164 2.59185H6.59157M6.59157 2.59185H6.5815M6.59157 2.59185H6.5815M6.5815 2.59185H6.57143M6.5815 2.59185H6.57143M6.57143 2.59185H6.56136M6.57143 2.59185H6.56136M6.56136 2.59185H6.5513M6.56136 2.59185H6.5513M6.5513 2.59185H6.54123M6.5513 2.59185H6.54123M6.54123 2.59185H6.53116M6.54123 2.59185H6.53116M6.53116 2.59185H6.52109M6.53116 2.59185H6.52109M6.52109 2.59185H6.51102M6.52109 2.59185H6.51102M6.51102 2.59185H6.50096M6.51102 2.59185H6.50096M6.50096 2.59185H6.49089M6.50096 2.59185H6.49089M6.49089 2.59185H6.48082M6.49089 2.59185H6.48082M6.48082 2.59185H6.47075M6.48082 2.59185H6.47075M6.47075 2.59185H6.46068M6.47075 2.59185H6.46068M6.46068 2.59185H6.45061M6.46068 2.59185H6.45061M6.45061 2.59185H6.44054M6.45061 2.59185H6.44054M6.44054 2.59185H6.43048M6.44054 2.59185H6.43048M6.43048 2.59185H6.42041M6.43048 2.59185H6.42041M6.42041 2.59185H6.41034M6.42041 2.59185H6.41034M6.41034 2.59185H6.40027M6.41034 2.59185H6.40027M6.40027 2.59185H6.3902M6.40027 2.59185H6.3902M6.3902 2.59185H6.38013M6.3902 2.59185H6.38013M6.38013 2.59185H6.37006M6.38013 2.59185H6.37006M6.37006 2.59185H6.36M6.37006 2.59185H6.36M6.36 2.59185H6.34993M6.36 2.59185H6.34993M6.34993 2.59185H6.33986M6.34993 2.59185H6.33986M6.33986 2.59185H6.32979M6.33986 2.59185H6.32979M6.32979 2.59185H6.31972M6.32979 2.59185H6.31972M6.31972 2.59185H6.30965M6.31972 2.59185H6.30965M6.30965 2.59185H6.29958M6.30965 2.59185H6.29958M6.29958 2.59185H6.28951M6.29958 2.59185H6.28951M6.28951 2.59185H6.27944M6.28951 2.59185H6.27944M6.27944 2.59185H6.26938M6.27944 2.59185H6.26938M6.26938 2.59185H6.25931M6.26938 2.59185H6.25931M6.25931 2.59185H6.24924M6.25931 2.59185H6.24924M6.24924 2.59185H6.23917M6.24924 2.59185H6.23917M6.23917 2.59185H6.2291M6.23917 2.59185H6.2291M6.2291 2.59185H6.21903M6.2291 2.59185H6.21903M6.21903 2.59185H6.20896M6.21903 2.59185H6.20896M6.20896 2.59185H6.19889M6.20896 2.59185H6.19889M6.19889 2.59185H6.18882M6.19889 2.59185H6.18882M6.18882 2.59185H6.17875M6.18882 2.59185H6.17875M6.17875 2.59185H6.16868M6.17875 2.59185H6.16868M6.16868 2.59185H6.15861M6.16868 2.59185H6.15861M6.15861 2.59185H6.14854M6.15861 2.59185H6.14854M6.14854 2.59185H6.13847M6.14854 2.59185H6.13847M6.13847 2.59185H6.1284M6.13847 2.59185H6.1284M6.1284 2.59185H6.11833M6.1284 2.59185H6.11833M6.11833 2.59185H6.10826M6.11833 2.59185H6.10826M6.10826 2.59185H6.0982M6.10826 2.59185H6.0982M6.0982 2.59185H6.08813M6.0982 2.59185H6.08813M6.08813 2.59185H6.07805M6.08813 2.59185H6.07805M6.07805 2.59185H6.06799M6.07805 2.59185H6.06799M6.06799 2.59185H6.05792M6.06799 2.59185H6.05792M6.05792 2.59185H6.04784M6.05792 2.59185H6.04784M6.04784 2.59185H6.03778M6.04784 2.59185H6.03778M6.03778 2.59185H6.0277M6.03778 2.59185H6.0277M6.0277 2.59185H6.01763M6.0277 2.59185H6.01763M6.01763 2.59185H6.00756M6.01763 2.59185H6.00756M6.00756 2.59185H5.99749M6.00756 2.59185H5.99749M5.99749 2.59185H5.98742M5.99749 2.59185H5.98742M5.98742 2.59185H5.97735M5.98742 2.59185H5.97735M5.97735 2.59185H5.96728M5.97735 2.59185H5.96728M5.96728 2.59185H5.95721M5.96728 2.59185H5.95721M5.95721 2.59185H5.94714M5.95721 2.59185H5.94714M5.94714 2.59185H5.93707M5.94714 2.59185H5.93707M5.93707 2.59185H5.927M5.93707 2.59185H5.927M5.927 2.59185H5.91693M5.927 2.59185H5.91693M5.91693 2.59185H5.90686M5.91693 2.59185H5.90686M5.90686 2.59185H5.89679M5.90686 2.59185H5.89679M5.89679 2.59185H5.88672M5.89679 2.59185H5.88672M5.88672 2.59185H5.87664M5.88672 2.59185H5.87664M5.87664 2.59185H5.86657M5.87664 2.59185H5.86657M5.86657 2.59185H5.8565M5.86657 2.59185H5.8565M5.8565 2.59185H5.84643M5.8565 2.59185H5.84643M5.84643 2.59185H5.83636M5.84643 2.59185H5.83636M5.83636 2.59185H5.82629M5.83636 2.59185H5.82629M5.82629 2.59185H5.81622M5.82629 2.59185H5.81622M5.81622 2.59185H5.80614M5.81622 2.59185H5.80614M5.80614 2.59185H5.79607M5.80614 2.59185H5.79607M5.79607 2.59185H5.786M5.79607 2.59185H5.786M5.786 2.59185H5.77593M5.786 2.59185H5.77593M5.77593 2.59185H5.76586M5.77593 2.59185H5.76586M5.76586 2.59185H5.75579M5.76586 2.59185H5.75579M5.75579 2.59185H5.74571M5.75579 2.59185H5.74571M5.74571 2.59185H5.73564M5.74571 2.59185H5.73564M5.73564 2.59185H5.72557M5.73564 2.59185H5.72557M5.72557 2.59185H5.7155M5.72557 2.59185H5.7155M5.7155 2.59185H5.70543M5.7155 2.59185H5.70543M5.70543 2.59185H5.69535M5.70543 2.59185H5.69535M5.69535 2.59185H5.68528M5.69535 2.59185H5.68528M5.68528 2.59185H5.67521M5.68528 2.59185H5.67521M5.67521 2.59185H5.66513M5.67521 2.59185H5.66513M5.66513 2.59185H5.65506M5.66513 2.59185H5.65506M5.65506 2.59185H5.64499M5.65506 2.59185H5.64499M5.64499 2.59185H5.63492M5.64499 2.59185H5.63492M5.63492 2.59185H5.62484M5.63492 2.59185H5.62484M5.62484 2.59185H5.61477M5.62484 2.59185H5.61477M5.61477 2.59185H5.6047M5.61477 2.59185H5.6047M5.6047 2.59185H5.59462M5.6047 2.59185H5.59462M5.59462 2.59185H5.58455M5.59462 2.59185H5.58455M5.58455 2.59185H5.57448M5.58455 2.59185H5.57448M5.57448 2.59185H5.5644M5.57448 2.59185H5.5644M5.5644 2.59185H5.55433M5.5644 2.59185H5.55433M5.55433 2.59185H5.54426M5.55433 2.59185H5.54426M5.54426 2.59185H5.53418M5.54426 2.59185H5.53418M5.53418 2.59185H5.52411M5.53418 2.59185H5.52411M5.52411 2.59185H5.51404M5.52411 2.59185H5.51404M5.51404 2.59185H5.50396M5.51404 2.59185H5.50396M5.50396 2.59185H5.49389M5.50396 2.59185H5.49389M5.49389 2.59185H5.48381M5.49389 2.59185H5.48381M5.48381 2.59185H5.47374M5.48381 2.59185H5.47374M5.47374 2.59185H5.46367M5.47374 2.59185H5.46367M5.46367 2.59185H5.45359M5.46367 2.59185H5.45359M5.45359 2.59185H5.44352M5.45359 2.59185H5.44352M5.44352 2.59185H5.43344M5.44352 2.59185H5.43344M5.43344 2.59185H5.42337M5.43344 2.59185H5.42337M5.42337 2.59185H5.41329M5.42337 2.59185H5.41329M5.41329 2.59185H5.40322M5.41329 2.59185H5.40322M5.40322 2.59185H5.39314M5.40322 2.59185H5.39314M5.39314 2.59185H5.38307M5.39314 2.59185H5.38307M5.38307 2.59185H5.37299M5.38307 2.59185H5.37299M5.37299 2.59185H5.36292M5.37299 2.59185H5.36292M5.36292 2.59185H5.35284M5.36292 2.59185H5.35284M5.35284 2.59185H5.34277M5.35284 2.59185H5.34277M5.34277 2.59185H5.33269M5.34277 2.59185H5.33269M5.33269 2.59185H5.32261M5.33269 2.59185H5.32261M5.32261 2.59185H5.31254M5.32261 2.59185H5.31254M5.31254 2.59185H5.30246M5.31254 2.59185H5.30246M5.30246 2.59185H5.29239M5.30246 2.59185H5.29239M5.29239 2.59185H5.28231M5.29239 2.59185H5.28231M5.28231 2.59185H5.27223M5.28231 2.59185H5.27223M5.27223 2.59185H5.26216M5.27223 2.59185H5.26216M5.26216 2.59185H5.25208M5.26216 2.59185H5.25208M5.25208 2.59185H5.242M5.25208 2.59185H5.242M5.242 2.59185H5.23193M5.242 2.59185H5.23193M5.23193 2.59185H5.22185M5.23193 2.59185H5.22185M5.22185 2.59185H5.21177M5.22185 2.59185H5.21177M5.21177 2.59185H5.2017M5.21177 2.59185H5.2017M5.2017 2.59185H5.19162M5.2017 2.59185H5.19162M5.19162 2.59185H5.18154M5.19162 2.59185H5.18154M5.18154 2.59185H5.17147M5.18154 2.59185H5.17147M5.17147 2.59185H5.16139M5.17147 2.59185H5.16139M5.16139 2.59185H5.15131M5.16139 2.59185H5.15131M5.15131 2.59185H5.14123M5.15131 2.59185H5.14123M5.14123 2.59185H5.13116M5.14123 2.59185H5.13116M5.13116 2.59185H5.12108M5.13116 2.59185H5.12108M5.12108 2.59185H5.111M5.12108 2.59185H5.111M5.111 2.59185H5.10092M5.111 2.59185H5.10092M5.10092 2.59185H5.09084M5.10092 2.59185H5.09084M5.09084 2.59185H5.08076M5.09084 2.59185H5.08076M5.08076 2.59185H5.07069M5.08076 2.59185H5.07069M5.07069 2.59185H5.06061M5.07069 2.59185H5.06061M5.06061 2.59185H5.05053M5.06061 2.59185H5.05053M5.05053 2.59185H5.04045M5.05053 2.59185H5.04045M5.04045 2.59185H5.03037M5.04045 2.59185H5.03037M5.03037 2.59185H5.02029M5.03037 2.59185H5.02029M5.02029 2.59185H5.01021M5.02029 2.59185H5.01021M5.01021 2.59185H5.00013M5.01021 2.59185H5.00013M5.00013 2.59185H4.99005M5.00013 2.59185H4.99005M4.99005 2.59185H4.97998M4.99005 2.59185H4.97998M4.97998 2.59185H4.9699M4.97998 2.59185H4.9699M4.9699 2.59185H4.95982M4.9699 2.59185H4.95982M4.95982 2.59185H4.94974M4.95982 2.59185H4.94974M4.94974 2.59185H4.93966M4.94974 2.59185H4.93966M4.93966 2.59185H4.92958M4.93966 2.59185H4.92958M4.92958 2.59185H4.9195M4.92958 2.59185H4.9195M4.9195 2.59185H4.90941M4.9195 2.59185H4.90941M4.90941 2.59185H4.89933M4.90941 2.59185H4.89933M4.89933 2.59185H4.88925M4.89933 2.59185H4.88925M4.88925 2.59185H4.87917M4.88925 2.59185H4.87917M4.87917 2.59185H4.86909M4.87917 2.59185H4.86909M4.86909 2.59185H4.85901M4.86909 2.59185H4.85901M4.85901 2.59185H4.84893M4.85901 2.59185H4.84893M4.84893 2.59185H4.83885M4.84893 2.59185H4.83885M4.83885 2.59185H4.82877M4.83885 2.59185H4.82877M4.82877 2.59185H4.81869M4.82877 2.59185H4.81869M4.81869 2.59185H4.8086M4.81869 2.59185H4.8086M4.8086 2.59185H4.79852M4.8086 2.59185H4.79852M4.79852 2.59185H4.78844M4.79852 2.59185H4.78844M4.78844 2.59185H4.77836M4.78844 2.59185H4.77836M4.77836 2.59185H4.76827M4.77836 2.59185H4.76827M4.76827 2.59185H4.75819M4.76827 2.59185H4.75819M4.75819 2.59185H4.74811M4.75819 2.59185H4.74811M4.74811 2.59185H4.73803M4.74811 2.59185H4.73803M4.73803 2.59185H4.72794M4.73803 2.59185H4.72794M4.72794 2.59185H4.71786M4.72794 2.59185H4.71786M4.71786 2.59185H4.70778M4.71786 2.59185H4.70778M4.70778 2.59185H4.69769M4.70778 2.59185H4.69769M4.69769 2.59185H4.68761M4.69769 2.59185H4.68761M4.68761 2.59185H4.67753M4.68761 2.59185H4.67753M4.67753 2.59185H4.66744M4.67753 2.59185H4.66744M4.66744 2.59185H4.65736M4.66744 2.59185H4.65736M4.65736 2.59185H4.64728M4.65736 2.59185H4.64728M4.64728 2.59185H4.63719M4.64728 2.59185H4.63719M4.63719 2.59185H4.62711M4.63719 2.59185H4.62711M4.62711 2.59185H4.61702M4.62711 2.59185H4.61702M4.61702 2.59185H4.60694M4.61702 2.59185H4.60694M4.60694 2.59185H4.59685M4.60694 2.59185H4.59685M4.59685 2.59185H4.58677M4.59685 2.59185H4.58677M4.58677 2.59185H4.57668M4.58677 2.59185H4.57668M4.57668 2.59185H4.5666M4.57668 2.59185H4.5666M4.5666 2.59185H4.55651M4.5666 2.59185H4.55651M4.55651 2.59185H4.54643M4.55651 2.59185H4.54643M4.54643 2.59185H4.53634M4.54643 2.59185H4.53634M4.53634 2.59185H4.52626M4.53634 2.59185H4.52626M4.52626 2.59185H4.51617M4.52626 2.59185H4.51617M4.51617 2.59185H4.50608M4.51617 2.59185H4.50608M4.50608 2.59185H4.496M4.50608 2.59185H4.496M4.496 2.59185H4.48591M4.496 2.59185H4.48591M4.48591 2.59185H4.47583M4.48591 2.59185H4.47583M4.47583 2.59185H4.46574M4.47583 2.59185H4.46574M4.46574 2.59185H4.45565M4.46574 2.59185H4.45565M4.45565 2.59185H4.44556M4.45565 2.59185H4.44556M4.44556 2.59185H4.43548M4.44556 2.59185H4.43548M4.43548 2.59185H4.42539M4.43548 2.59185H4.42539M4.42539 2.59185H4.4153M4.42539 2.59185H4.4153M4.4153 2.59185H4.40522M4.4153 2.59185H4.40522M4.40522 2.59185H4.39513M4.40522 2.59185H4.39513M4.39513 2.59185H4.38504M4.39513 2.59185H4.38504M4.38504 2.59185H4.37495M4.38504 2.59185H4.37495M4.37495 2.59185H4.36486M4.37495 2.59185H4.36486M4.36486 2.59185H4.35477M4.36486 2.59185H4.35477M4.35477 2.59185H4.34469M4.35477 2.59185H4.34469M4.34469 2.59185H4.3346M4.34469 2.59185H4.3346M4.3346 2.59185H4.32451M4.3346 2.59185H4.32451M4.32451 2.59185H4.31442M4.32451 2.59185H4.31442M4.31442 2.59185H4.30433M4.31442 2.59185H4.30433M4.30433 2.59185C3.82205 2.59185 3.40265 2.72227 3.10431 3.01801M4.30433 2.59185L3.10431 3.01801M3.10431 3.01801C2.80554 3.31418 2.67241 3.73224 2.67241 4.21566M3.10431 3.01801L2.67241 4.21566M2.67241 4.21566V4.23117M2.67241 4.21566V4.23117M2.67241 4.23117V4.24668M2.67241 4.23117V4.24668M2.67241 4.24668V4.2622M2.67241 4.24668V4.2622M2.67241 4.2622V4.27771M2.67241 4.2622V4.27771M2.67241 4.27771V4.29322M2.67241 4.27771V4.29322M2.67241 4.29322V4.30874M2.67241 4.29322V4.30874M2.67241 4.30874V4.32425M2.67241 4.30874V4.32425M2.67241 4.32425V4.33976M2.67241 4.32425V4.33976M2.67241 4.33976V4.35528M2.67241 4.33976V4.35528M2.67241 4.35528V4.37079M2.67241 4.35528V4.37079M2.67241 4.37079V4.3863M2.67241 4.37079V4.3863M2.67241 4.3863V4.40182M2.67241 4.3863V4.40182M2.67241 4.40182V4.41733M2.67241 4.40182V4.41733M2.67241 4.41733V4.43284M2.67241 4.41733V4.43284M2.67241 4.43284V4.44836M2.67241 4.43284V4.44836M2.67241 4.44836V4.46387M2.67241 4.44836V4.46387M2.67241 4.46387V4.47938M2.67241 4.46387V4.47938M2.67241 4.47938V4.4949M2.67241 4.47938V4.4949M2.67241 4.4949V4.51041M2.67241 4.4949V4.51041M2.67241 4.51041V4.52592M2.67241 4.51041V4.52592M2.67241 4.52592V4.54144M2.67241 4.52592V4.54144M2.67241 4.54144V4.55695M2.67241 4.54144V4.55695M2.67241 4.55695V4.57246M2.67241 4.55695V4.57246M2.67241 4.57246V4.58798M2.67241 4.57246V4.58798M2.67241 4.58798V4.60349M2.67241 4.58798V4.60349M2.67241 4.60349V4.61901M2.67241 4.60349V4.61901M2.67241 4.61901V4.63452M2.67241 4.61901V4.63452M2.67241 4.63452V4.65003M2.67241 4.63452V4.65003M2.67241 4.65003V4.66555M2.67241 4.65003V4.66555M2.67241 4.66555V4.68106M2.67241 4.66555V4.68106M2.67241 4.68106V4.69657M2.67241 4.68106V4.69657M2.67241 4.69657V4.71209M2.67241 4.69657V4.71209M2.67241 4.71209V4.7276M2.67241 4.71209V4.7276M2.67241 4.7276V4.74311M2.67241 4.7276V4.74311M2.67241 4.74311V4.75863M2.67241 4.74311V4.75863M2.67241 4.75863V4.77414M2.67241 4.75863V4.77414M2.67241 4.77414V4.78965M2.67241 4.77414V4.78965M2.67241 4.78965V4.80517M2.67241 4.78965V4.80517M2.67241 4.80517V4.82068M2.67241 4.80517V4.82068M2.67241 4.82068V4.83619M2.67241 4.82068V4.83619M2.67241 4.83619V4.85171M2.67241 4.83619V4.85171M2.67241 4.85171V4.86722M2.67241 4.85171V4.86722M2.67241 4.86722V4.88273M2.67241 4.86722V4.88273M2.67241 4.88273V4.89825M2.67241 4.88273V4.89825M2.67241 4.89825V4.91376M2.67241 4.89825V4.91376M2.67241 4.91376V4.92927M2.67241 4.91376V4.92927M2.67241 4.92927V4.94479M2.67241 4.92927V4.94479M2.67241 4.94479V4.9603M2.67241 4.94479V4.9603M2.67241 4.9603V4.97581M2.67241 4.9603V4.97581M2.67241 4.97581V4.99133M2.67241 4.97581V4.99133M2.67241 4.99133V5.00684M2.67241 4.99133V5.00684M2.67241 5.00684V5.02235M2.67241 5.00684V5.02235M2.67241 5.02235V5.03787M2.67241 5.02235V5.03787M2.67241 5.03787V5.05338M2.67241 5.03787V5.05338M2.67241 5.05338V5.06889M2.67241 5.05338V5.06889M2.67241 5.06889V5.08441M2.67241 5.06889V5.08441M2.67241 5.08441V5.09992M2.67241 5.08441V5.09992M2.67241 5.09992V5.11543M2.67241 5.09992V5.11543M2.67241 5.11543V5.13095M2.67241 5.11543V5.13095M2.67241 5.13095V5.14646M2.67241 5.13095V5.14646M2.67241 5.14646V5.16197M2.67241 5.14646V5.16197M2.67241 5.16197V5.17749M2.67241 5.16197V5.17749M2.67241 5.17749V5.193M2.67241 5.17749V5.193M2.67241 5.193V5.20851M2.67241 5.193V5.20851M2.67241 5.20851V5.22403M2.67241 5.20851V5.22403M2.67241 5.22403V5.23954M2.67241 5.22403V5.23954M2.67241 5.23954V5.25505M2.67241 5.23954V5.25505M2.67241 5.25505V5.27057M2.67241 5.25505V5.27057M2.67241 5.27057V5.28608M2.67241 5.27057V5.28608M2.67241 5.28608V5.30159M2.67241 5.28608V5.30159M2.67241 5.30159V5.31711M2.67241 5.30159V5.31711M2.67241 5.31711V5.33262M2.67241 5.31711V5.33262M2.67241 5.33262V5.34813M2.67241 5.33262V5.34813M2.67241 5.34813V5.36365M2.67241 5.34813V5.36365M2.67241 5.36365V5.37916M2.67241 5.36365V5.37916M2.67241 5.37916V5.39467M2.67241 5.37916V5.39467M2.67241 5.39467V5.41019M2.67241 5.39467V5.41019M2.67241 5.41019V5.4257M2.67241 5.41019V5.4257M2.67241 5.4257V5.44122M2.67241 5.4257V5.44122M2.67241 5.44122V5.45673M2.67241 5.44122V5.45673M2.67241 5.45673V5.47224M2.67241 5.45673V5.47224M2.67241 5.47224V5.48776M2.67241 5.47224V5.48776M2.67241 5.48776V5.50327M2.67241 5.48776V5.50327M2.67241 5.50327V5.51878M2.67241 5.50327V5.51878M2.67241 5.51878V5.5343M2.67241 5.51878V5.5343M2.67241 5.5343V5.54981M2.67241 5.5343V5.54981M2.67241 5.54981V5.56532M2.67241 5.54981V5.56532M2.67241 5.56532V5.58084M2.67241 5.56532V5.58084M2.67241 5.58084V5.59635M2.67241 5.58084V5.59635M2.67241 5.59635V5.61186M2.67241 5.59635V5.61186M2.67241 5.61186V5.62738M2.67241 5.61186V5.62738M2.67241 5.62738V5.64289M2.67241 5.62738V5.64289M2.67241 5.64289V5.6584M2.67241 5.64289V5.6584M2.67241 5.6584V5.67392M2.67241 5.6584V5.67392M2.67241 5.67392V5.68943M2.67241 5.67392V5.68943M2.67241 5.68943V5.70494M2.67241 5.68943V5.70494M2.67241 5.70494V5.72046M2.67241 5.70494V5.72046M2.67241 5.72046V5.73597M2.67241 5.72046V5.73597M2.67241 5.73597V5.75148M2.67241 5.73597V5.75148M2.67241 5.75148V5.767M2.67241 5.75148V5.767M2.67241 5.767V5.78251M2.67241 5.767V5.78251M2.67241 5.78251V5.79802M2.67241 5.78251V5.79802M2.67241 5.79802V5.81354M2.67241 5.79802V5.81354M2.67241 5.81354V5.82905M2.67241 5.81354V5.82905M2.67241 5.82905V5.84456M2.67241 5.82905V5.84456M2.67241 5.84456V5.86008M2.67241 5.84456V5.86008M2.67241 5.86008V5.87559M2.67241 5.86008V5.87559M2.67241 5.87559V5.8911M2.67241 5.87559V5.8911M2.67241 5.8911V5.90662M2.67241 5.8911V5.90662M2.67241 5.90662V5.92213M2.67241 5.90662V5.92213M2.67241 5.92213V5.93764M2.67241 5.92213V5.93764M2.67241 5.93764V5.95316M2.67241 5.93764V5.95316M2.67241 5.95316V5.96867M2.67241 5.95316V5.96867M2.67241 5.96867V5.98418M2.67241 5.96867V5.98418M2.67241 5.98418V5.9997M2.67241 5.98418V5.9997M2.67241 5.9997V6.01521M2.67241 5.9997V6.01521M2.67241 6.01521V6.03072M2.67241 6.01521V6.03072M2.67241 6.03072V6.04624M2.67241 6.03072V6.04624M2.67241 6.04624V6.06175M2.67241 6.04624V6.06175M2.67241 6.06175V6.07726M2.67241 6.06175V6.07726M2.67241 6.07726V6.09278M2.67241 6.07726V6.09278M2.67241 6.09278V6.10829M2.67241 6.09278V6.10829M2.67241 6.10829V6.1238M2.67241 6.10829V6.1238M2.67241 6.1238V6.13932M2.67241 6.1238V6.13932M2.67241 6.13932V6.15483M2.67241 6.13932V6.15483M2.67241 6.15483V6.17034M2.67241 6.15483V6.17034M2.67241 6.17034V6.18586M2.67241 6.17034V6.18586M2.67241 6.18586V6.20137M2.67241 6.18586V6.20137M2.67241 6.20137V6.21689M2.67241 6.20137V6.21689M2.67241 6.21689V6.2324M2.67241 6.21689V6.2324M2.67241 6.2324V6.24791M2.67241 6.2324V6.24791M2.67241 6.24791V6.26343M2.67241 6.24791V6.26343M2.67241 6.26343V6.27894M2.67241 6.26343V6.27894M2.67241 6.27894V6.29445M2.67241 6.27894V6.29445M2.67241 6.29445V6.30997M2.67241 6.29445V6.30997M2.67241 6.30997V6.32548M2.67241 6.30997V6.32548M2.67241 6.32548V6.34099M2.67241 6.32548V6.34099M2.67241 6.34099V6.35651M2.67241 6.34099V6.35651M2.67241 6.35651V6.37202M2.67241 6.35651V6.37202M2.67241 6.37202V6.38753M2.67241 6.37202V6.38753M2.67241 6.38753V6.40305M2.67241 6.38753V6.40305M2.67241 6.40305V6.41856M2.67241 6.40305V6.41856M2.67241 6.41856V6.43407M2.67241 6.41856V6.43407M2.67241 6.43407V6.44959M2.67241 6.43407V6.44959M2.67241 6.44959V6.4651M2.67241 6.44959V6.4651M2.67241 6.4651V6.48061M2.67241 6.4651V6.48061M2.67241 6.48061V6.49613M2.67241 6.48061V6.49613M2.67241 6.49613V6.51164M2.67241 6.49613V6.51164M2.67241 6.51164V6.52715M2.67241 6.51164V6.52715M2.67241 6.52715V6.54267M2.67241 6.52715V6.54267M2.67241 6.54267V6.55818M2.67241 6.54267V6.55818M2.67241 6.55818V6.57369M2.67241 6.55818V6.57369M2.67241 6.57369V6.58921M2.67241 6.57369V6.58921M2.67241 6.58921V6.60472M2.67241 6.58921V6.60472M2.67241 6.60472V6.62023M2.67241 6.60472V6.62023M2.67241 6.62023V6.63575M2.67241 6.62023V6.63575M2.67241 6.63575V6.65126M2.67241 6.63575V6.65126M2.67241 6.65126V6.66677M2.67241 6.65126V6.66677M2.67241 6.66677V6.68229M2.67241 6.66677V6.68229M2.67241 6.68229V6.6978M2.67241 6.68229V6.6978M2.67241 6.6978V6.71331M2.67241 6.6978V6.71331M2.67241 6.71331V6.72883M2.67241 6.71331V6.72883M2.67241 6.72883V6.74434M2.67241 6.72883V6.74434M2.67241 6.74434V6.75985M2.67241 6.74434V6.75985M2.67241 6.75985V6.77537M2.67241 6.75985V6.77537M2.67241 6.77537V6.79088M2.67241 6.77537V6.79088M2.67241 6.79088V6.80639M2.67241 6.79088V6.80639M2.67241 6.80639V6.82191M2.67241 6.80639V6.82191M2.67241 6.82191V6.83742M2.67241 6.82191V6.83742M2.67241 6.83742V6.85293M2.67241 6.83742V6.85293M2.67241 6.85293V6.86845M2.67241 6.85293V6.86845M2.67241 6.86845V6.88396M2.67241 6.86845V6.88396M2.67241 6.88396V6.89947M2.67241 6.88396V6.89947M2.67241 6.89947V6.91499M2.67241 6.89947V6.91499M2.67241 6.91499V6.9305M2.67241 6.91499V6.9305M2.67241 6.9305V6.94601M2.67241 6.9305V6.94601M2.67241 6.94601V6.96153M2.67241 6.94601V6.96153M2.67241 6.96153V6.97704M2.67241 6.96153V6.97704M2.67241 6.97704V6.99256M2.67241 6.97704V6.99256M2.67241 6.99256V7.00807M2.67241 6.99256V7.00807M2.67241 7.00807V7.02358M2.67241 7.00807V7.02358M2.67241 7.02358V7.0391M2.67241 7.02358V7.0391M2.67241 7.0391V7.05461M2.67241 7.0391V7.05461M2.67241 7.05461V7.07012M2.67241 7.05461V7.07012M2.67241 7.07012V7.08564M2.67241 7.07012V7.08564M2.67241 7.08564V7.10115M2.67241 7.08564V7.10115M2.67241 7.10115V7.11666M2.67241 7.10115V7.11666M2.67241 7.11666V7.13218M2.67241 7.11666V7.13218M2.67241 7.13218V7.14769M2.67241 7.13218V7.14769M2.67241 7.14769V7.1632M2.67241 7.14769V7.1632M2.67241 7.1632V7.17872M2.67241 7.1632V7.17872M2.67241 7.17872V7.19423M2.67241 7.17872V7.19423M2.67241 7.19423V7.20974M2.67241 7.19423V7.20974M2.67241 7.20974V7.22526M2.67241 7.20974V7.22526M2.67241 7.22526V7.24077M2.67241 7.22526V7.24077M2.67241 7.24077V7.25628M2.67241 7.24077V7.25628M2.67241 7.25628V7.2718M2.67241 7.25628V7.2718M2.67241 7.2718V7.28731M2.67241 7.2718V7.28731M2.67241 7.28731V7.30282M2.67241 7.28731V7.30282M2.67241 7.30282V7.31834M2.67241 7.30282V7.31834M2.67241 7.31834V7.33385M2.67241 7.31834V7.33385M2.67241 7.33385V7.34936M2.67241 7.33385V7.34936M2.67241 7.34936V7.36488M2.67241 7.34936V7.36488M2.67241 7.36488V7.38039M2.67241 7.36488V7.38039M2.67241 7.38039V7.3959M2.67241 7.38039V7.3959M2.67241 7.3959V7.41142M2.67241 7.3959V7.41142M2.67241 7.41142V7.42693M2.67241 7.41142V7.42693M2.67241 7.42693V7.44244M2.67241 7.42693V7.44244M2.67241 7.44244V7.45796M2.67241 7.44244V7.45796M2.67241 7.45796V7.47347M2.67241 7.45796V7.47347M2.67241 7.47347V7.48898M2.67241 7.47347V7.48898M2.67241 7.48898V7.5045M2.67241 7.48898V7.5045M2.67241 7.5045V7.52001M2.67241 7.5045V7.52001M2.67241 7.52001V7.53552M2.67241 7.52001V7.53552M2.67241 7.53552V7.55104M2.67241 7.53552V7.55104M2.67241 7.55104V7.56655M2.67241 7.55104V7.56655M2.67241 7.56655V7.58206M2.67241 7.56655V7.58206M2.67241 7.58206V7.59758M2.67241 7.58206V7.59758M2.67241 7.59758V7.61309M2.67241 7.59758V7.61309M2.67241 7.61309V7.6286M2.67241 7.61309V7.6286M2.67241 7.6286V7.64412M2.67241 7.6286V7.64412M2.67241 7.64412V7.65963M2.67241 7.64412V7.65963M2.67241 7.65963V7.67514M2.67241 7.65963V7.67514M2.67241 7.67514V7.69066M2.67241 7.67514V7.69066M2.67241 7.69066V7.70617M2.67241 7.69066V7.70617M2.67241 7.70617V7.72168M2.67241 7.70617V7.72168M2.67241 7.72168V7.7372M2.67241 7.72168V7.7372M2.67241 7.7372V7.75271M2.67241 7.7372V7.75271M2.67241 7.75271V7.76823M2.67241 7.75271V7.76823M2.67241 7.76823V7.78374M2.67241 7.76823V7.78374M2.67241 7.78374V7.79925M2.67241 7.78374V7.79925M2.67241 7.79925V7.81476M2.67241 7.79925V7.81476M2.67241 7.81476V7.83028M2.67241 7.81476V7.83028M2.67241 7.83028V7.84579M2.67241 7.83028V7.84579M2.67241 7.84579V7.86131M2.67241 7.84579V7.86131M2.67241 7.86131V7.87682M2.67241 7.86131V7.87682M2.67241 7.87682V7.89233M2.67241 7.87682V7.89233M2.67241 7.89233V7.90785M2.67241 7.89233V7.90785M2.67241 7.90785V7.92336M2.67241 7.90785V7.92336M2.67241 7.92336V7.93887M2.67241 7.92336V7.93887M2.67241 7.93887V7.95439M2.67241 7.93887V7.95439M2.67241 7.95439V7.9699M2.67241 7.95439V7.9699M2.67241 7.9699V7.98541M2.67241 7.9699V7.98541M2.67241 7.98541V8.00093M2.67241 7.98541V8.00093M2.67241 8.00093V8.01644M2.67241 8.00093V8.01644M2.67241 8.01644V8.03195M2.67241 8.01644V8.03195M2.67241 8.03195V8.04747M2.67241 8.03195V8.04747M2.67241 8.04747V8.06298M2.67241 8.04747V8.06298M2.67241 8.06298V8.07849M2.67241 8.06298V8.07849M2.67241 8.07849V8.09401M2.67241 8.07849V8.09401M2.67241 8.09401V8.10952M2.67241 8.09401V8.10952M2.67241 8.10952V8.12503M2.67241 8.10952V8.12503M2.67241 8.12503V8.14055M2.67241 8.12503V8.14055M2.67241 8.14055V8.15606M2.67241 8.14055V8.15606M2.67241 8.15606V8.17157M2.67241 8.15606V8.17157M2.67241 8.17157V8.18709M2.67241 8.17157V8.18709M2.67241 8.18709V8.2026M2.67241 8.18709V8.2026M2.67241 8.2026V8.21811M2.67241 8.2026V8.21811M2.67241 8.21811V8.23363M2.67241 8.21811V8.23363M2.67241 8.23363V8.24914M2.67241 8.23363V8.24914M2.67241 8.24914V8.26465M2.67241 8.24914V8.26465M2.67241 8.26465V8.28017M2.67241 8.26465V8.28017M2.67241 8.28017V8.29568M2.67241 8.28017V8.29568M2.67241 8.29568V8.31119M2.67241 8.29568V8.31119M2.67241 8.31119V8.32671M2.67241 8.31119V8.32671M2.67241 8.32671V8.34222M2.67241 8.32671V8.34222M2.67241 8.34222V8.35773M2.67241 8.34222V8.35773M2.67241 8.35773V8.37325M2.67241 8.35773V8.37325M2.67241 8.37325V8.38876M2.67241 8.37325V8.38876M2.67241 8.38876V8.40427M2.67241 8.38876V8.40427M2.67241 8.40427V8.41979M2.67241 8.40427V8.41979M2.67241 8.41979V8.4353M2.67241 8.41979V8.4353M2.67241 8.4353V8.45081M2.67241 8.4353V8.45081M2.67241 8.45081V8.46633M2.67241 8.45081V8.46633M2.67241 8.46633V8.48184M2.67241 8.46633V8.48184M2.67241 8.48184V8.49735M2.67241 8.48184V8.49735M2.67241 8.49735V8.51287M2.67241 8.49735V8.51287M2.67241 8.51287V8.52838M2.67241 8.51287V8.52838M2.67241 8.52838V8.54389M2.67241 8.52838V8.54389M2.67241 8.54389V8.55941M2.67241 8.54389V8.55941M2.67241 8.55941V8.57492M2.67241 8.55941V8.57492M2.67241 8.57492V8.59044M2.67241 8.57492V8.59044M2.67241 8.59044V8.60595M2.67241 8.59044V8.60595M2.67241 8.60595V8.62146M2.67241 8.60595V8.62146M2.67241 8.62146V8.63698M2.67241 8.62146V8.63698M2.67241 8.63698V8.65249M2.67241 8.63698V8.65249M2.67241 8.65249V8.668M2.67241 8.65249V8.668M2.67241 8.668V8.68352M2.67241 8.668V8.68352M2.67241 8.68352V8.69903M2.67241 8.68352V8.69903M2.67241 8.69903V8.71454M2.67241 8.69903V8.71454M2.67241 8.71454V8.73006M2.67241 8.71454V8.73006M2.67241 8.73006V8.74557M2.67241 8.73006V8.74557M2.67241 8.74557V8.76108M2.67241 8.74557V8.76108M2.67241 8.76108V8.7766M2.67241 8.76108V8.7766M2.67241 8.7766V8.79211M2.67241 8.7766V8.79211M2.67241 8.79211V8.80762M2.67241 8.79211V8.80762M2.67241 8.80762V8.82314M2.67241 8.80762V8.82314M2.67241 8.82314V8.83865M2.67241 8.82314V8.83865M2.67241 8.83865V8.85416M2.67241 8.83865V8.85416M2.67241 8.85416V8.86968M2.67241 8.85416V8.86968M2.67241 8.86968V8.88519M2.67241 8.86968V8.88519M2.67241 8.88519V8.9007M2.67241 8.88519V8.9007M2.67241 8.9007V8.91622M2.67241 8.9007V8.91622M2.67241 8.91622V8.93173M2.67241 8.91622V8.93173M2.67241 8.93173V8.94724M2.67241 8.93173V8.94724M2.67241 8.94724V8.96276M2.67241 8.94724V8.96276M2.67241 8.96276V8.97827M2.67241 8.96276V8.97827M2.67241 8.97827V8.99378M2.67241 8.97827V8.99378M2.67241 8.99378V9.0093M2.67241 8.99378V9.0093M2.67241 9.0093V9.02481M2.67241 9.0093V9.02481M2.67241 9.02481V9.04032M2.67241 9.02481V9.04032M2.67241 9.04032V9.05584M2.67241 9.04032V9.05584M2.67241 9.05584V9.07135M2.67241 9.05584V9.07135M2.67241 9.07135V9.08686M2.67241 9.07135V9.08686M2.67241 9.08686V9.10238M2.67241 9.08686V9.10238M2.67241 9.10238V9.11789M2.67241 9.10238V9.11789M2.67241 9.11789V9.1334M2.67241 9.11789V9.1334M2.67241 9.1334V9.14892M2.67241 9.1334V9.14892M2.67241 9.14892V9.16443M2.67241 9.14892V9.16443M2.67241 9.16443V9.17994M2.67241 9.16443V9.17994M2.67241 9.17994V9.19546M2.67241 9.17994V9.19546M2.67241 9.19546V9.21097M2.67241 9.19546V9.21097M2.67241 9.21097V9.22648M2.67241 9.21097V9.22648M2.67241 9.22648V9.242M2.67241 9.22648V9.242M2.67241 9.242V9.25751M2.67241 9.242V9.25751M2.67241 9.25751V9.27302M2.67241 9.25751V9.27302M2.67241 9.27302V9.28854M2.67241 9.27302V9.28854M2.67241 9.28854V9.30405M2.67241 9.28854V9.30405M2.67241 9.30405V9.31956M2.67241 9.30405V9.31956M2.67241 9.31956V9.33508M2.67241 9.31956V9.33508M2.67241 9.33508V9.35059M2.67241 9.33508V9.35059M2.67241 9.35059V9.36611M2.67241 9.35059V9.36611M2.67241 9.36611V9.38162M2.67241 9.36611V9.38162M2.67241 9.38162V9.39713M2.67241 9.38162V9.39713M2.67241 9.39713V9.41265M2.67241 9.39713V9.41265M2.67241 9.41265V9.42816M2.67241 9.41265V9.42816M2.67241 9.42816V9.44367M2.67241 9.42816V9.44367M2.67241 9.44367V9.45919M2.67241 9.44367V9.45919M2.67241 9.45919V9.4747M2.67241 9.45919V9.4747M2.67241 9.4747V9.49021M2.67241 9.4747V9.49021M2.67241 9.49021V9.50573M2.67241 9.49021V9.50573M2.67241 9.50573V9.52124M2.67241 9.50573V9.52124M2.67241 9.52124V9.53675M2.67241 9.52124V9.53675M2.67241 9.53675V9.55227M2.67241 9.53675V9.55227M2.67241 9.55227V9.56778M2.67241 9.55227V9.56778M2.67241 9.56778V9.58329M2.67241 9.56778V9.58329M2.67241 9.58329V9.59881M2.67241 9.58329V9.59881M2.67241 9.59881V9.61432M2.67241 9.59881V9.61432M2.67241 9.61432V9.62983M2.67241 9.61432V9.62983M2.67241 9.62983V9.64535M2.67241 9.62983V9.64535M2.67241 9.64535V9.66086M2.67241 9.64535V9.66086M2.67241 9.66086V9.67637M2.67241 9.66086V9.67637M2.67241 9.67637V9.69189M2.67241 9.67637V9.69189M2.67241 9.69189V9.7074M2.67241 9.69189V9.7074M2.67241 9.7074V9.72291M2.67241 9.7074V9.72291M2.67241 9.72291V9.73843M2.67241 9.72291V9.73843M2.67241 9.73843V9.75394M2.67241 9.73843V9.75394M2.67241 9.75394V9.76945M2.67241 9.75394V9.76945M2.67241 9.76945V9.78497M2.67241 9.76945V9.78497M2.67241 9.78497V9.80048M2.67241 9.78497V9.80048M2.67241 9.80048V9.81599M2.67241 9.80048V9.81599M2.67241 9.81599V9.83151M2.67241 9.81599V9.83151M2.67241 9.83151V9.84702M2.67241 9.83151V9.84702M2.67241 9.84702V9.86253M2.67241 9.84702V9.86253M2.67241 9.86253V9.87805M2.67241 9.86253V9.87805M2.67241 9.87805V9.89356M2.67241 9.87805V9.89356M2.67241 9.89356V9.90907M2.67241 9.89356V9.90907M2.67241 9.90907V9.92459M2.67241 9.90907V9.92459M2.67241 9.92459V9.9401M2.67241 9.92459V9.9401M2.67241 9.9401V9.95561M2.67241 9.9401V9.95561M2.67241 9.95561V9.97113M2.67241 9.95561V9.97113M2.67241 9.97113V9.98664M2.67241 9.97113V9.98664M2.67241 9.98664V10.0022M2.67241 9.98664V10.0022M2.67241 10.0022V10.0177M2.67241 10.0022V10.0177M2.67241 10.0177V10.0332M2.67241 10.0177V10.0332M2.67241 10.0332V10.0487M2.67241 10.0332V10.0487M2.67241 10.0487V10.0642M2.67241 10.0487V10.0642M2.67241 10.0642V10.0797M2.67241 10.0642V10.0797M2.67241 10.0797V10.0952M2.67241 10.0797V10.0952M2.67241 10.0952V10.1107M2.67241 10.0952V10.1107M2.67241 10.1107V10.1263M2.67241 10.1107V10.1263M2.67241 10.1263V10.1418M2.67241 10.1263V10.1418M2.67241 10.1418V10.1573M2.67241 10.1418V10.1573M2.67241 10.1573V10.1728M2.67241 10.1573V10.1728M2.67241 10.1728V10.1883M2.67241 10.1728V10.1883M2.67241 10.1883V10.2038M2.67241 10.1883V10.2038M2.67241 10.2038V10.2193M2.67241 10.2038V10.2193M2.67241 10.2193V10.2349M2.67241 10.2193V10.2349M2.67241 10.2349V10.2504M2.67241 10.2349V10.2504M2.67241 10.2504V10.2659M2.67241 10.2504V10.2659M2.67241 10.2659V10.2814M2.67241 10.2659V10.2814M2.67241 10.2814V10.2969M2.67241 10.2814V10.2969M2.67241 10.2969V10.3124M2.67241 10.2969V10.3124M2.67241 10.3124V10.3279M2.67241 10.3124V10.3279M2.67241 10.3279V10.3434M2.67241 10.3279V10.3434M2.67241 10.3434V10.359M2.67241 10.3434V10.359M2.67241 10.359V10.3745M2.67241 10.359V10.3745M2.67241 10.3745V10.39M2.67241 10.3745V10.39M2.67241 10.39V10.4055M2.67241 10.39V10.4055M2.67241 10.4055V10.421M2.67241 10.4055V10.421M2.67241 10.421V10.4365M2.67241 10.421V10.4365M2.67241 10.4365V10.452M2.67241 10.4365V10.452M2.67241 10.452V10.4676M2.67241 10.452V10.4676M2.67241 10.4676V10.4831M2.67241 10.4676V10.4831M2.67241 10.4831V10.4986M2.67241 10.4831V10.4986M2.67241 10.4986V10.5141M2.67241 10.4986V10.5141M2.67241 10.5141V10.5296M2.67241 10.5141V10.5296M2.67241 10.5296V10.5451M2.67241 10.5296V10.5451M2.67241 10.5451V10.5606M2.67241 10.5451V10.5606M2.67241 10.5606V10.5761M2.67241 10.5606V10.5761M2.67241 10.5761V10.5917M2.67241 10.5761V10.5917M2.67241 10.5917V10.6072M2.67241 10.5917V10.6072M2.67241 10.6072V10.6227M2.67241 10.6072V10.6227M2.67241 10.6227V10.6382M2.67241 10.6227V10.6382M2.67241 10.6382V10.6537M2.67241 10.6382V10.6537M2.67241 10.6537V10.6692M2.67241 10.6537V10.6692M2.67241 10.6692V10.6847M2.67241 10.6692V10.6847M2.67241 10.6847V10.7003M2.67241 10.6847V10.7003M2.67241 10.7003V10.7158M2.67241 10.7003V10.7158M2.67241 10.7158V10.7313M2.67241 10.7158V10.7313M2.67241 10.7313V10.7468M2.67241 10.7313V10.7468M2.67241 10.7468V10.7623M2.67241 10.7468V10.7623M2.67241 10.7623V10.7778M2.67241 10.7623V10.7778M2.67241 10.7778V10.7933M2.67241 10.7778V10.7933M2.67241 10.7933V10.8089M2.67241 10.7933V10.8089M2.67241 10.8089V10.8244M2.67241 10.8089V10.8244M2.67241 10.8244V10.8399M2.67241 10.8244V10.8399M2.67241 10.8399V10.8554M2.67241 10.8399V10.8554M2.67241 10.8554V10.8709M2.67241 10.8554V10.8709M2.67241 10.8709V10.8864M2.67241 10.8709V10.8864M2.67241 10.8864V10.9019M2.67241 10.8864V10.9019M2.67241 10.9019V10.9174M2.67241 10.9019V10.9174M2.67241 10.9174V10.933M2.67241 10.9174V10.933M2.67241 10.933V10.9485M2.67241 10.933V10.9485M2.67241 10.9485V10.964M2.67241 10.9485V10.964M2.67241 10.964V10.9795M2.67241 10.964V10.9795M2.67241 10.9795V10.995M2.67241 10.9795V10.995M2.67241 10.995V11.0105M2.67241 10.995V11.0105M2.67241 11.0105V11.026M2.67241 11.0105V11.026M2.67241 11.026V11.0416M2.67241 11.026V11.0416M2.67241 11.0416V11.0571M2.67241 11.0416V11.0571M2.67241 11.0571V11.0726M2.67241 11.0571V11.0726M2.67241 11.0726V11.0881M2.67241 11.0726V11.0881M2.67241 11.0881V11.1036M2.67241 11.0881V11.1036M2.67241 11.1036V11.1191M2.67241 11.1036V11.1191M2.67241 11.1191V11.1346M2.67241 11.1191V11.1346M2.67241 11.1346V11.1501M2.67241 11.1346V11.1501M2.67241 11.1501V11.1657M2.67241 11.1501V11.1657M2.67241 11.1657V11.1812M2.67241 11.1657V11.1812M2.67241 11.1812V11.1967M2.67241 11.1812V11.1967M2.67241 11.1967V11.2122M2.67241 11.1967V11.2122M2.67241 11.2122V11.2277M2.67241 11.2122V11.2277M2.67241 11.2277V11.2432M2.67241 11.2277V11.2432M2.67241 11.2432V11.2587M2.67241 11.2432V11.2587M2.67241 11.2587V11.2743M2.67241 11.2587V11.2743M2.67241 11.2743V11.2898M2.67241 11.2743V11.2898M2.67241 11.2898V11.3053M2.67241 11.2898V11.3053M2.67241 11.3053V11.3208M2.67241 11.3053V11.3208M2.67241 11.3208V11.3363M2.67241 11.3208V11.3363M2.67241 11.3363V11.3518M2.67241 11.3363V11.3518M2.67241 11.3518V11.3673M2.67241 11.3518V11.3673M2.67241 11.3673V11.3828M2.67241 11.3673V11.3828M2.67241 11.3828V11.3984M2.67241 11.3828V11.3984M2.67241 11.3984V11.4139M2.67241 11.3984V11.4139M2.67241 11.4139V11.4294M2.67241 11.4139V11.4294M2.67241 11.4294V11.4449M2.67241 11.4294V11.4449M2.67241 11.4449V11.4604M2.67241 11.4449V11.4604M2.67241 11.4604V11.4759M2.67241 11.4604V11.4759M2.67241 11.4759V11.4914M2.67241 11.4759V11.4914M2.67241 11.4914V11.507M2.67241 11.4914V11.507M2.67241 11.507V11.5225M2.67241 11.507V11.5225M2.67241 11.5225V11.538M2.67241 11.5225V11.538M2.67241 11.538V11.5535M2.67241 11.538V11.5535M2.67241 11.5535V11.569M2.67241 11.5535V11.569M2.67241 11.569V11.5845M2.67241 11.569V11.5845M2.67241 11.5845V11.6M2.67241 11.5845V11.6M2.67241 11.6V11.6155M2.67241 11.6V11.6155M2.67241 11.6155V11.6311M2.67241 11.6155V11.6311M2.67241 11.6311V11.6466M2.67241 11.6311V11.6466M2.67241 11.6466V11.6621M2.67241 11.6466V11.6621M2.67241 11.6621V11.6776M2.67241 11.6621V11.6776M2.67241 11.6776V11.6931M2.67241 11.6776V11.6931M2.67241 11.6931V11.7086M2.67241 11.6931V11.7086M2.67241 11.7086V11.7241M2.67241 11.7086V11.7241M2.67241 11.7241V11.7397M2.67241 11.7241V11.7397M2.67241 11.7397V11.7552M2.67241 11.7397V11.7552M2.67241 11.7552V11.7707M2.67241 11.7552V11.7707M2.67241 11.7707V11.7862M2.67241 11.7707V11.7862M2.67241 11.7862V11.8017M2.67241 11.7862V11.8017M2.67241 11.8017V11.8172M2.67241 11.8017V11.8172M2.67241 11.8172V11.8327M2.67241 11.8172V11.8327M2.67241 11.8327V11.8482M2.67241 11.8327V11.8482M2.67241 11.8482V11.8638M2.67241 11.8482V11.8638M2.67241 11.8638V11.8793M2.67241 11.8638V11.8793M2.67241 11.8793V11.8948M2.67241 11.8793V11.8948M2.67241 11.8948V11.9103M2.67241 11.8948V11.9103M2.67241 11.9103V11.9258M2.67241 11.9103V11.9258M2.67241 11.9258V11.9413M2.67241 11.9258V11.9413M2.67241 11.9413V11.9568M2.67241 11.9413V11.9568M2.67241 11.9568V11.9724M2.67241 11.9568V11.9724M2.67241 11.9724V11.9879M2.67241 11.9724V11.9879M2.67241 11.9879V12.0034M2.67241 11.9879V12.0034M2.67241 12.0034V12.0189M2.67241 12.0034V12.0189M2.67241 12.0189V12.0344M2.67241 12.0189V12.0344M2.67241 12.0344V12.0499M2.67241 12.0344V12.0499M2.67241 12.0499V12.0654M2.67241 12.0499V12.0654M2.67241 12.0654V12.0809M2.67241 12.0654V12.0809M2.67241 12.0809V12.0965M2.67241 12.0809V12.0965M2.67241 12.0965V12.112M2.67241 12.0965V12.112M2.67241 12.112V12.1275M2.67241 12.112V12.1275M2.67241 12.1275V12.143M2.67241 12.1275V12.143M2.67241 12.143V12.1585M2.67241 12.143V12.1585M2.67241 12.1585C2.67241 12.634 2.80898 13.0494 3.10349 13.3462M2.67241 12.1585L3.10349 13.3462M3.10349 13.3462C3.39835 13.6433 3.81272 13.7823 4.28961 13.7823M3.10349 13.3462L4.28961 13.7823M4.28961 13.7823H4.30975M4.28961 13.7823H4.30975M4.30975 13.7823H4.32988M4.30975 13.7823H4.32988M4.32988 13.7823H4.35002M4.32988 13.7823H4.35002M4.35002 13.7823H4.37016M4.35002 13.7823H4.37016M4.37016 13.7823H4.39029M4.37016 13.7823H4.39029M4.39029 13.7823H4.41043M4.39029 13.7823H4.41043M4.41043 13.7823H4.43057M4.41043 13.7823H4.43057M4.43057 13.7823H4.4507M4.43057 13.7823H4.4507M4.4507 13.7823H4.47084M4.4507 13.7823H4.47084M4.47084 13.7823H4.49098M4.47084 13.7823H4.49098M4.49098 13.7823H4.51112M4.49098 13.7823H4.51112M4.51112 13.7823H4.53125M4.51112 13.7823H4.53125M4.53125 13.7823H4.55139M4.53125 13.7823H4.55139M4.55139 13.7823H4.57153M4.55139 13.7823H4.57153M4.57153 13.7823H4.59167M4.57153 13.7823H4.59167M4.59167 13.7823H4.6118M4.59167 13.7823H4.6118M4.6118 13.7823H4.63194M4.6118 13.7823H4.63194M4.63194 13.7823H4.65208M4.63194 13.7823H4.65208M4.65208 13.7823H4.67222M4.65208 13.7823H4.67222M4.67222 13.7823H4.69236M4.67222 13.7823H4.69236M4.69236 13.7823H4.7125M4.69236 13.7823H4.7125M4.7125 13.7823H4.73264M4.7125 13.7823H4.73264M4.73264 13.7823H4.75278M4.73264 13.7823H4.75278M4.75278 13.7823H4.77292M4.75278 13.7823H4.77292M4.77292 13.7823H4.79306M4.77292 13.7823H4.79306M4.79306 13.7823H4.8132M4.79306 13.7823H4.8132M4.8132 13.7823H4.83334M4.8132 13.7823H4.83334M4.83334 13.7823H4.85348M4.83334 13.7823H4.85348M4.85348 13.7823H4.87362M4.85348 13.7823H4.87362M4.87362 13.7823H4.89376M4.87362 13.7823H4.89376M4.89376 13.7823H4.9139M4.89376 13.7823H4.9139M4.9139 13.7823H4.93404M4.9139 13.7823H4.93404M4.93404 13.7823H4.95418M4.93404 13.7823H4.95418M4.95418 13.7823H4.97432M4.95418 13.7823H4.97432M4.97432 13.7823H4.99446M4.97432 13.7823H4.99446M4.99446 13.7823H5.0146M4.99446 13.7823H5.0146M5.0146 13.7823H5.03474M5.0146 13.7823H5.03474M5.03474 13.7823H5.05488M5.03474 13.7823H5.05488M5.05488 13.7823H5.07503M5.05488 13.7823H5.07503M5.07503 13.7823H5.09517M5.07503 13.7823H5.09517M5.09517 13.7823H5.11531M5.09517 13.7823H5.11531M5.11531 13.7823H5.13545M5.11531 13.7823H5.13545M5.13545 13.7823H5.15559M5.13545 13.7823H5.15559M5.15559 13.7823H5.17574M5.15559 13.7823H5.17574M5.17574 13.7823H5.19588M5.17574 13.7823H5.19588M5.19588 13.7823H5.21602M5.19588 13.7823H5.21602M5.21602 13.7823H5.23617M5.21602 13.7823H5.23617M5.23617 13.7823H5.25631M5.23617 13.7823H5.25631M5.25631 13.7823H5.27645M5.25631 13.7823H5.27645M5.27645 13.7823H5.29659M5.27645 13.7823H5.29659M5.29659 13.7823H5.31674M5.29659 13.7823H5.31674M5.31674 13.7823H5.33688M5.31674 13.7823H5.33688M5.33688 13.7823H5.35702M5.33688 13.7823H5.35702M5.35702 13.7823H5.37717M5.35702 13.7823H5.37717M5.37717 13.7823H5.39731M5.37717 13.7823H5.39731M5.39731 13.7823H5.41746M5.39731 13.7823H5.41746M5.41746 13.7823H5.4376M5.41746 13.7823H5.4376M5.4376 13.7823H5.45775M5.4376 13.7823H5.45775M5.45775 13.7823H5.47789M5.45775 13.7823H5.47789M5.47789 13.7823H5.49803M5.47789 13.7823H5.49803M5.49803 13.7823H5.51818M5.49803 13.7823H5.51818M5.51818 13.7823H5.53832M5.51818 13.7823H5.53832M5.53832 13.7823H5.55847M5.53832 13.7823H5.55847M5.55847 13.7823H5.57861M5.55847 13.7823H5.57861M5.57861 13.7823H5.59876M5.57861 13.7823H5.59876M5.59876 13.7823H5.6189M5.59876 13.7823H5.6189M5.6189 13.7823H5.63905M5.6189 13.7823H5.63905M5.63905 13.7823H5.65919M5.63905 13.7823H5.65919M5.65919 13.7823H5.67934M5.65919 13.7823H5.67934M5.67934 13.7823H5.69949M5.67934 13.7823H5.69949M5.69949 13.7823H5.71963M5.69949 13.7823H5.71963M5.71963 13.7823H5.73978M5.71963 13.7823H5.73978M5.73978 13.7823H5.75992M5.73978 13.7823H5.75992M5.75992 13.7823H5.78007M5.75992 13.7823H5.78007M5.78007 13.7823H5.80022M5.78007 13.7823H5.80022M5.80022 13.7823H5.82036M5.80022 13.7823H5.82036M5.82036 13.7823H5.84051M5.82036 13.7823H5.84051M5.84051 13.7823H5.86066M5.84051 13.7823H5.86066M5.86066 13.7823H5.8808M5.86066 13.7823H5.8808M5.8808 13.7823H5.90095M5.8808 13.7823H5.90095M5.90095 13.7823H5.9211M5.90095 13.7823H5.9211M5.9211 13.7823H5.94125M5.9211 13.7823H5.94125M5.94125 13.7823H5.96139M5.94125 13.7823H5.96139M5.96139 13.7823H5.98154M5.96139 13.7823H5.98154M5.98154 13.7823H6.00169M5.98154 13.7823H6.00169M6.00169 13.7823H6.02184M6.00169 13.7823H6.02184M6.02184 13.7823H6.04198M6.02184 13.7823H6.04198M6.04198 13.7823H6.06213M6.04198 13.7823H6.06213M6.06213 13.7823H6.08228M6.06213 13.7823H6.08228M6.08228 13.7823H6.10243M6.08228 13.7823H6.10243M6.10243 13.7823H6.12258M6.10243 13.7823H6.12258M6.12258 13.7823H6.14272M6.12258 13.7823H6.14272M6.14272 13.7823H6.16287M6.14272 13.7823H6.16287M6.16287 13.7823H6.18302M6.16287 13.7823H6.18302M6.18302 13.7823H6.20317M6.18302 13.7823H6.20317M6.20317 13.7823H6.22332M6.20317 13.7823H6.22332M6.22332 13.7823H6.24347M6.22332 13.7823H6.24347M6.24347 13.7823H6.26362M6.24347 13.7823H6.26362M6.26362 13.7823H6.28377M6.26362 13.7823H6.28377M6.28377 13.7823H6.30392M6.28377 13.7823H6.30392M6.30392 13.7823H6.32406M6.30392 13.7823H6.32406M6.32406 13.7823H6.34421M6.32406 13.7823H6.34421M6.34421 13.7823H6.36436M6.34421 13.7823H6.36436M6.36436 13.7823H6.38451M6.36436 13.7823H6.38451M6.38451 13.7823H6.40466M6.38451 13.7823H6.40466M6.40466 13.7823H6.42481M6.40466 13.7823H6.42481M6.42481 13.7823H6.44496M6.42481 13.7823H6.44496M6.44496 13.7823H6.46511M6.44496 13.7823H6.46511M6.46511 13.7823H6.48526M6.46511 13.7823H6.48526M6.48526 13.7823H6.50541M6.48526 13.7823H6.50541M6.50541 13.7823H6.52556M6.50541 13.7823H6.52556M6.52556 13.7823H6.54571M6.52556 13.7823H6.54571M6.54571 13.7823H6.56586M6.54571 13.7823H6.56586M6.56586 13.7823H6.58601M6.56586 13.7823H6.58601M6.58601 13.7823H6.60617M6.58601 13.7823H6.60617M6.60617 13.7823H6.62632M6.60617 13.7823H6.62632M6.62632 13.7823H6.64647M6.62632 13.7823H6.64647M6.64647 13.7823H6.66662M6.64647 13.7823H6.66662M6.66662 13.7823H6.68677M6.66662 13.7823H6.68677M6.68677 13.7823H6.70692M6.68677 13.7823H6.70692M6.70692 13.7823H6.72707M6.70692 13.7823H6.72707M6.72707 13.7823H6.74722M6.72707 13.7823H6.74722M6.74722 13.7823H6.76737M6.74722 13.7823H6.76737M6.76737 13.7823H6.78753M6.76737 13.7823H6.78753M6.78753 13.7823H6.80768M6.78753 13.7823H6.80768M6.80768 13.7823H6.82783M6.80768 13.7823H6.82783M6.82783 13.7823H6.84798M6.82783 13.7823H6.84798M6.84798 13.7823H6.86813M6.84798 13.7823H6.86813M6.86813 13.7823H6.88828M6.86813 13.7823H6.88828M6.88828 13.7823H6.90844M6.88828 13.7823H6.90844M6.90844 13.7823H6.92859M6.90844 13.7823H6.92859M6.92859 13.7823H6.94874M6.92859 13.7823H6.94874M6.94874 13.7823H6.96889M6.94874 13.7823H6.96889M6.96889 13.7823H6.98905M6.96889 13.7823H6.98905M6.98905 13.7823H7.0092M6.98905 13.7823H7.0092M7.0092 13.7823H7.02935M7.0092 13.7823H7.02935M7.02935 13.7823H7.0495M7.02935 13.7823H7.0495M7.0495 13.7823H7.06965M7.0495 13.7823H7.06965M7.06965 13.7823H7.08981M7.06965 13.7823H7.08981M7.08981 13.7823H7.10996M7.08981 13.7823H7.10996M7.10996 13.7823H7.13011M7.10996 13.7823H7.13011M7.13011 13.7823H7.15027M7.13011 13.7823H7.15027M7.15027 13.7823H7.17042M7.15027 13.7823H7.17042M7.17042 13.7823H7.19057M7.17042 13.7823H7.19057M7.19057 13.7823H7.21073M7.19057 13.7823H7.21073M7.21073 13.7823H7.23088M7.21073 13.7823H7.23088M7.23088 13.7823H7.25103M7.23088 13.7823H7.25103M7.25103 13.7823H7.27119M7.25103 13.7823H7.27119M7.27119 13.7823H7.29134M7.27119 13.7823H7.29134M7.29134 13.7823H7.31149M7.29134 13.7823H7.31149M7.31149 13.7823H7.33165M7.31149 13.7823H7.33165M7.33165 13.7823H7.3518M7.33165 13.7823H7.3518M7.3518 13.7823H7.37195M7.3518 13.7823H7.37195M7.37195 13.7823H7.39211M7.37195 13.7823H7.39211M7.39211 13.7823H7.41226M7.39211 13.7823H7.41226M7.41226 13.7823H7.43242M7.41226 13.7823H7.43242M7.43242 13.7823H7.45257M7.43242 13.7823H7.45257M7.45257 13.7823H7.47272M7.45257 13.7823H7.47272M7.47272 13.7823H7.49288M7.47272 13.7823H7.49288M7.49288 13.7823H7.51303M7.49288 13.7823H7.51303M7.51303 13.7823H7.53319M7.51303 13.7823H7.53319M7.53319 13.7823H7.55334M7.53319 13.7823H7.55334M7.55334 13.7823H7.57349M7.55334 13.7823H7.57349M7.57349 13.7823H7.59365M7.57349 13.7823H7.59365M7.59365 13.7823H7.6138M7.59365 13.7823H7.6138M7.6138 13.7823H7.63396M7.6138 13.7823H7.63396M7.63396 13.7823H7.65411M7.63396 13.7823H7.65411M7.65411 13.7823H7.67427M7.65411 13.7823H7.67427M7.67427 13.7823H7.69442M7.67427 13.7823H7.69442M7.69442 13.7823H7.71458M7.69442 13.7823H7.71458M7.71458 13.7823H7.73473M7.71458 13.7823H7.73473M7.73473 13.7823H7.75489M7.73473 13.7823H7.75489M7.75489 13.7823H7.77504M7.75489 13.7823H7.77504M7.77504 13.7823H7.7952M7.77504 13.7823H7.7952M7.7952 13.7823H7.81535M7.7952 13.7823H7.81535M7.81535 13.7823H7.83551M7.81535 13.7823H7.83551M7.83551 13.7823H7.85566M7.83551 13.7823H7.85566M7.85566 13.7823H7.87582M7.85566 13.7823H7.87582M7.87582 13.7823H7.89597M7.87582 13.7823H7.89597M7.89597 13.7823H7.91613M7.89597 13.7823H7.91613M7.91613 13.7823H7.93628M7.91613 13.7823H7.93628M7.93628 13.7823H7.95644M7.93628 13.7823H7.95644M7.95644 13.7823H7.97659M7.95644 13.7823H7.97659M7.97659 13.7823H7.99675M7.97659 13.7823H7.99675M7.99675 13.7823H8.01691M7.99675 13.7823H8.01691M8.01691 13.7823H8.03706M8.01691 13.7823H8.03706M8.03706 13.7823H8.05722M8.03706 13.7823H8.05722M8.05722 13.7823H8.07737M8.05722 13.7823H8.07737M8.07737 13.7823H8.09753M8.07737 13.7823H8.09753M8.09753 13.7823H8.11768M8.09753 13.7823H8.11768M8.11768 13.7823H8.13784M8.11768 13.7823H8.13784M8.13784 13.7823H8.158M8.13784 13.7823H8.158M8.158 13.7823H8.17815M8.158 13.7823H8.17815M8.17815 13.7823H8.19831M8.17815 13.7823H8.19831M8.19831 13.7823H8.21846M8.19831 13.7823H8.21846M8.21846 13.7823H8.23862M8.21846 13.7823H8.23862M8.23862 13.7823H8.25878M8.23862 13.7823H8.25878M8.25878 13.7823H8.27893M8.25878 13.7823H8.27893M8.27893 13.7823H8.29909M8.27893 13.7823H8.29909M8.29909 13.7823H8.31924M8.29909 13.7823H8.31924M8.31924 13.7823H8.3394M8.31924 13.7823H8.3394M8.3394 13.7823H8.35956M8.3394 13.7823H8.35956M8.35956 13.7823H8.37971M8.35956 13.7823H8.37971M8.37971 13.7823H8.39987M8.37971 13.7823H8.39987M8.39987 13.7823H8.42003M8.39987 13.7823H8.42003M8.42003 13.7823H8.44018M8.42003 13.7823H8.44018M8.44018 13.7823H8.46034M8.44018 13.7823H8.46034M8.46034 13.7823H8.4805M8.46034 13.7823H8.4805M8.4805 13.7823H8.50065M8.4805 13.7823H8.50065M8.50065 13.7823H8.52081M8.50065 13.7823H8.52081M8.52081 13.7823H8.54097M8.52081 13.7823H8.54097M8.54097 13.7823H8.56112M8.54097 13.7823H8.56112M8.56112 13.7823H8.58128M8.56112 13.7823H8.58128M8.58128 13.7823H8.60144M8.58128 13.7823H8.60144M8.60144 13.7823H8.62159M8.60144 13.7823H8.62159M8.62159 13.7823H8.64175M8.62159 13.7823H8.64175M8.64175 13.7823H8.66191M8.64175 13.7823H8.66191M8.66191 13.7823H8.68206M8.66191 13.7823H8.68206M8.68206 13.7823H8.70222M8.68206 13.7823H8.70222M8.70222 13.7823H8.72238M8.70222 13.7823H8.72238M8.72238 13.7823H8.74253M8.72238 13.7823H8.74253M8.74253 13.7823H8.76269M8.74253 13.7823H8.76269M8.76269 13.7823H8.78285M8.76269 13.7823H8.78285M8.78285 13.7823H8.803M8.78285 13.7823H8.803M8.803 13.7823H8.82316M8.803 13.7823H8.82316M8.82316 13.7823H8.84332M8.82316 13.7823H8.84332M8.84332 13.7823H8.86347M8.84332 13.7823H8.86347M8.86347 13.7823H8.88363M8.86347 13.7823H8.88363M8.88363 13.7823H8.90379M8.88363 13.7823H8.90379M8.90379 13.7823H8.92395M8.90379 13.7823H8.92395M8.92395 13.7823H8.9441M8.92395 13.7823H8.9441M8.9441 13.7823H8.96426M8.9441 13.7823H8.96426M8.96426 13.7823H8.98442M8.96426 13.7823H8.98442M8.98442 13.7823H9.00457M8.98442 13.7823H9.00457M9.00457 13.7823H9.02473M9.00457 13.7823H9.02473M9.02473 13.7823H9.04489M9.02473 13.7823H9.04489M9.04489 13.7823H9.06505M9.04489 13.7823H9.06505M9.06505 13.7823H9.0852M9.06505 13.7823H9.0852M9.0852 13.7823H9.10536M9.0852 13.7823H9.10536M9.10536 13.7823H9.12552M9.10536 13.7823H9.12552M9.12552 13.7823H9.14567M9.12552 13.7823H9.14567M9.14567 13.7823H9.16583M9.14567 13.7823H9.16583M9.16583 13.7823H9.18599M9.16583 13.7823H9.18599M9.18599 13.7823H9.20615M9.18599 13.7823H9.20615M9.20615 13.7823H9.2263M9.20615 13.7823H9.2263M9.2263 13.7823H9.24646M9.2263 13.7823H9.24646M9.24646 13.7823H9.26662M9.24646 13.7823H9.26662M9.26662 13.7823H9.28677M9.26662 13.7823H9.28677M9.28677 13.7823H9.30693M9.28677 13.7823H9.30693M9.30693 13.7823H9.32709M9.30693 13.7823H9.32709M9.32709 13.7823H9.34725M9.32709 13.7823H9.34725M9.34725 13.7823H9.3674M9.34725 13.7823H9.3674M9.3674 13.7823H9.38756M9.3674 13.7823H9.38756M9.38756 13.7823H9.40772M9.38756 13.7823H9.40772M9.40772 13.7823H9.42787M9.40772 13.7823H9.42787M9.42787 13.7823H9.44803M9.42787 13.7823H9.44803M9.44803 13.7823H9.46819M9.44803 13.7823H9.46819M9.46819 13.7823H9.48835M9.46819 13.7823H9.48835M9.48835 13.7823H9.5085M9.48835 13.7823H9.5085M9.5085 13.7823H9.52866M9.5085 13.7823H9.52866M9.52866 13.7823H9.54882M9.52866 13.7823H9.54882M9.54882 13.7823H9.56898M9.54882 13.7823H9.56898M9.56898 13.7823H9.58913M9.56898 13.7823H9.58913M9.58913 13.7823H9.60929M9.58913 13.7823H9.60929M9.60929 13.7823H9.62945M9.60929 13.7823H9.62945M9.62945 13.7823H9.6496M9.62945 13.7823H9.6496M9.6496 13.7823H9.66976M9.6496 13.7823H9.66976M9.66976 13.7823H9.68992M9.66976 13.7823H9.68992M9.68992 13.7823H9.71008M9.68992 13.7823H9.71008M9.71008 13.7823H9.73023M9.71008 13.7823H9.73023M9.73023 13.7823H9.75039M9.73023 13.7823H9.75039M9.75039 13.7823H9.77055M9.75039 13.7823H9.77055M9.77055 13.7823H9.7907M9.77055 13.7823H9.7907M9.7907 13.7823H9.81086M9.7907 13.7823H9.81086M9.81086 13.7823H9.83102M9.81086 13.7823H9.83102M9.83102 13.7823H9.85118M9.83102 13.7823H9.85118M9.85118 13.7823H9.87133M9.85118 13.7823H9.87133M9.87133 13.7823H9.89149M9.87133 13.7823H9.89149M9.89149 13.7823H9.91165M9.89149 13.7823H9.91165M9.91165 13.7823H9.9318M9.91165 13.7823H9.9318M9.9318 13.7823H9.95196M9.9318 13.7823H9.95196M9.95196 13.7823H9.97212M9.95196 13.7823H9.97212M9.97212 13.7823H9.99228M9.97212 13.7823H9.99228M9.99228 13.7823H10.0124M9.99228 13.7823H10.0124M10.0124 13.7823H10.0326M10.0124 13.7823H10.0326M10.0326 13.7823H10.0527M10.0326 13.7823H10.0527M10.0527 13.7823H10.0729M10.0527 13.7823H10.0729M10.0729 13.7823H10.0931M10.0729 13.7823H10.0931M10.0931 13.7823H10.1132M10.0931 13.7823H10.1132M10.1132 13.7823H10.1334M10.1132 13.7823H10.1334M10.1334 13.7823H10.1535M10.1334 13.7823H10.1535M10.1535 13.7823H10.1737M10.1535 13.7823H10.1737M10.1737 13.7823H10.1938M10.1737 13.7823H10.1938M10.1938 13.7823H10.214M10.1938 13.7823H10.214M10.214 13.7823H10.2342M10.214 13.7823H10.2342M10.2342 13.7823H10.2543M10.2342 13.7823H10.2543M10.2543 13.7823H10.2745M10.2543 13.7823H10.2745M10.2745 13.7823H10.2946M10.2745 13.7823H10.2946M10.2946 13.7823H10.3148M10.2946 13.7823H10.3148M10.3148 13.7823H10.3349M10.3148 13.7823H10.3349M10.3349 13.7823H10.3551M10.3349 13.7823H10.3551M10.3551 13.7823H10.3753M10.3551 13.7823H10.3753M10.3753 13.7823H10.3954M10.3753 13.7823H10.3954M10.3954 13.7823H10.4156M10.3954 13.7823H10.4156M10.4156 13.7823H10.4357M10.4156 13.7823H10.4357M10.4357 13.7823H10.4559M10.4357 13.7823H10.4559M10.4559 13.7823H10.476M10.4559 13.7823H10.476M10.476 13.7823H10.4962M10.476 13.7823H10.4962M10.4962 13.7823H10.5164M10.4962 13.7823H10.5164M10.5164 13.7823H10.5365M10.5164 13.7823H10.5365M10.5365 13.7823H10.5567M10.5365 13.7823H10.5567M10.5567 13.7823H10.5768M10.5567 13.7823H10.5768M10.5768 13.7823H10.597M10.5768 13.7823H10.597M10.597 13.7823H10.6171M10.597 13.7823H10.6171M10.6171 13.7823H10.6373M10.6171 13.7823H10.6373M10.6373 13.7823H10.6574M10.6373 13.7823H10.6574M10.6574 13.7823H10.6776M10.6574 13.7823H10.6776M10.6776 13.7823H10.6978M10.6776 13.7823H10.6978M10.6978 13.7823H10.7179M10.6978 13.7823H10.7179M10.7179 13.7823H10.7381M10.7179 13.7823H10.7381M10.7381 13.7823H10.7582M10.7381 13.7823H10.7582M10.7582 13.7823H10.7784M10.7582 13.7823H10.7784M10.7784 13.7823H10.7985M10.7784 13.7823H10.7985M10.7985 13.7823H10.8187M10.7985 13.7823H10.8187M10.8187 13.7823H10.8388M10.8187 13.7823H10.8388M10.8388 13.7823H10.859M10.8388 13.7823H10.859M10.859 13.7823H10.8792M10.859 13.7823H10.8792M10.8792 13.7823H10.8993M10.8792 13.7823H10.8993M10.8993 13.7823H10.9195M10.8993 13.7823H10.9195M10.9195 13.7823H10.9396M10.9195 13.7823H10.9396M10.9396 13.7823H10.9598M10.9396 13.7823H10.9598M10.9598 13.7823H10.9799M10.9598 13.7823H10.9799M10.9799 13.7823H11.0001M10.9799 13.7823H11.0001M11.0001 13.7823H11.0202M11.0001 13.7823H11.0202M11.0202 13.7823H11.0404M11.0202 13.7823H11.0404M11.0404 13.7823H11.0606M11.0404 13.7823H11.0606M11.0606 13.7823H11.0807M11.0606 13.7823H11.0807M11.0807 13.7823H11.1009M11.0807 13.7823H11.1009M11.1009 13.7823H11.121M11.1009 13.7823H11.121M11.121 13.7823H11.1412M11.121 13.7823H11.1412M11.1412 13.7823H11.1613M11.1412 13.7823H11.1613M11.1613 13.7823H11.1815M11.1613 13.7823H11.1815M11.1815 13.7823H11.2016M11.1815 13.7823H11.2016M11.2016 13.7823H11.2218M11.2016 13.7823H11.2218M11.2218 13.7823H11.242M11.2218 13.7823H11.242M11.242 13.7823H11.2621M11.242 13.7823H11.2621M11.2621 13.7823H11.2823M11.2621 13.7823H11.2823M11.2823 13.7823H11.3024M11.2823 13.7823H11.3024M11.3024 13.7823H11.3226M11.3024 13.7823H11.3226M11.3226 13.7823H11.3427M11.3226 13.7823H11.3427M11.3427 13.7823H11.3629M11.3427 13.7823H11.3629M11.3629 13.7823H11.383M11.3629 13.7823H11.383M11.383 13.7823H11.4032M11.383 13.7823H11.4032M11.4032 13.7823H11.4233M11.4032 13.7823H11.4233M11.4233 13.7823H11.4435M11.4233 13.7823H11.4435M11.4435 13.7823H11.4636M11.4435 13.7823H11.4636M11.4636 13.7823H11.4838M11.4636 13.7823H11.4838M11.4838 13.7823H11.504M11.4838 13.7823H11.504M11.504 13.7823H11.5241M11.504 13.7823H11.5241M11.5241 13.7823H11.5443M11.5241 13.7823H11.5443M11.5443 13.7823H11.5644M11.5443 13.7823H11.5644M11.5644 13.7823H11.5846M11.5644 13.7823H11.5846M11.5846 13.7823H11.6047M11.5846 13.7823H11.6047M11.6047 13.7823H11.6249M11.6047 13.7823H11.6249M11.6249 13.7823H11.645M11.6249 13.7823H11.645M11.645 13.7823H11.6652M11.645 13.7823H11.6652M11.6652 13.7823H11.6853M11.6652 13.7823H11.6853M11.6853 13.7823H11.7055M11.6853 13.7823H11.7055M11.7055 13.7823H11.7256M11.7055 13.7823H11.7256M11.7256 13.7823H11.7458M11.7256 13.7823H11.7458M11.7458 13.7823H11.766M11.7458 13.7823H11.766M11.766 13.7823H11.7861M11.766 13.7823H11.7861M11.7861 13.7823H11.8063M11.7861 13.7823H11.8063M11.8063 13.7823H11.8264M11.8063 13.7823H11.8264M11.8264 13.7823H11.8466M11.8264 13.7823H11.8466M11.8466 13.7823H11.8667M11.8466 13.7823H11.8667M11.8667 13.7823H11.8869M11.8667 13.7823H11.8869M11.8869 13.7823H11.907M11.8869 13.7823H11.907M11.907 13.7823H11.9272M11.907 13.7823H11.9272M11.9272 13.7823H11.9473M11.9272 13.7823H11.9473M11.9473 13.7823H11.9675M11.9473 13.7823H11.9675M11.9675 13.7823H11.9876M11.9675 13.7823H11.9876M11.9876 13.7823H12.0078M11.9876 13.7823H12.0078M12.0078 13.7823H12.0279M12.0078 13.7823H12.0279M12.0279 13.7823H12.0481M12.0279 13.7823H12.0481M12.0481 13.7823H12.0682M12.0481 13.7823H12.0682M12.0682 13.7823H12.0884M12.0682 13.7823H12.0884M12.0884 13.7823H12.1085M12.0884 13.7823H12.1085M12.1085 13.7823H12.1287M12.1085 13.7823H12.1287M12.1287 13.7823H12.1488M12.1287 13.7823H12.1488M12.1488 13.7823H12.169M12.1488 13.7823H12.169M12.169 13.7823H12.1891M12.169 13.7823H12.1891M12.1891 13.7823H12.2093M12.1891 13.7823H12.2093M12.2093 13.7823H12.2294M12.2093 13.7823H12.2294M12.2294 13.7823H12.2496M12.2294 13.7823H12.2496M12.2496 13.7823H12.2697M12.2496 13.7823H12.2697M12.2697 13.7823H12.2899M12.2697 13.7823H12.2899M12.2899 13.7823H12.3101M12.2899 13.7823H12.3101M12.3101 13.7823H12.3302M12.3101 13.7823H12.3302M12.3302 13.7823H12.3504M12.3302 13.7823H12.3504M12.3504 13.7823H12.3705M12.3504 13.7823H12.3705M12.3705 13.7823H12.3907M12.3705 13.7823H12.3907M12.3907 13.7823H12.4108M12.3907 13.7823H12.4108M12.4108 13.7823H12.431M12.4108 13.7823H12.431M12.431 13.7823H12.4511M12.431 13.7823H12.4511M12.4511 13.7823H12.4713M12.4511 13.7823H12.4713M12.4713 13.7823H12.4914M12.4713 13.7823H12.4914M12.4914 13.7823H12.5116M12.4914 13.7823H12.5116M12.5116 13.7823H12.5317M12.5116 13.7823H12.5317M12.5317 13.7823H12.5519M12.5317 13.7823H12.5519M12.5519 13.7823H12.572M12.5519 13.7823H12.572M12.572 13.7823H12.5921M12.572 13.7823H12.5921M12.5921 13.7823H12.6123M12.5921 13.7823H12.6123M12.6123 13.7823H12.6324M12.6123 13.7823H12.6324M12.6324 13.7823H12.6526M12.6324 13.7823H12.6526M12.6526 13.7823H12.6727M12.6526 13.7823H12.6727M12.6727 13.7823H12.6929M12.6727 13.7823H12.6929M12.6929 13.7823H12.713M12.6929 13.7823H12.713M12.713 13.7823H12.7332M12.713 13.7823H12.7332M12.7332 13.7823H12.7533M12.7332 13.7823H12.7533M12.7533 13.7823H12.7735M12.7533 13.7823H12.7735M12.7735 13.7823H12.7936M12.7735 13.7823H12.7936M12.7936 13.7823H12.8138M12.7936 13.7823H12.8138M12.8138 13.7823H12.8339M12.8138 13.7823H12.8339M12.8339 13.7823H12.8541M12.8339 13.7823H12.8541M12.8541 13.7823H12.8742M12.8541 13.7823H12.8742M12.8742 13.7823H12.8944M12.8742 13.7823H12.8944M12.8944 13.7823H12.9145M12.8944 13.7823H12.9145M12.9145 13.7823H12.9347M12.9145 13.7823H12.9347M12.9347 13.7823H12.9548M12.9347 13.7823H12.9548M12.9548 13.7823H12.975M12.9548 13.7823H12.975M12.975 13.7823H12.9951M12.975 13.7823H12.9951M12.9951 13.7823H13.0153M12.9951 13.7823H13.0153M13.0153 13.7823H13.0354M13.0153 13.7823H13.0354M13.0354 13.7823H13.0556M13.0354 13.7823H13.0556M13.0556 13.7823H13.0757M13.0556 13.7823H13.0757M13.0757 13.7823H13.0958M13.0757 13.7823H13.0958M13.0958 13.7823H13.116M13.0958 13.7823H13.116M13.116 13.7823H13.1361M13.116 13.7823H13.1361M13.1361 13.7823H13.1563M13.1361 13.7823H13.1563M13.1563 13.7823H13.1764M13.1563 13.7823H13.1764M13.1764 13.7823H13.1966M13.1764 13.7823H13.1966M13.1966 13.7823H13.2167M13.1966 13.7823H13.2167M13.2167 13.7823H13.2369M13.2167 13.7823H13.2369M13.2369 13.7823H13.257M13.2369 13.7823H13.257M13.257 13.7823H13.2772M13.257 13.7823H13.2772M13.2772 13.7823H13.2973M13.2772 13.7823H13.2973M13.2973 13.7823H13.3175M13.2973 13.7823H13.3175M13.3175 13.7823H13.3376M13.3175 13.7823H13.3376M13.3376 13.7823H13.3577M13.3376 13.7823H13.3577M13.3577 13.7823H13.3779M13.3577 13.7823H13.3779M13.3779 13.7823H13.398M13.3779 13.7823H13.398M13.398 13.7823H13.4182M13.398 13.7823H13.4182M13.4182 13.7823H13.4383M13.4182 13.7823H13.4383M13.4383 13.7823H13.4585M13.4383 13.7823H13.4585M13.4585 13.7823H13.4786M13.4585 13.7823H13.4786M13.4786 13.7823H13.4988M13.4786 13.7823H13.4988M13.4988 13.7823H13.5189M13.4988 13.7823H13.5189M13.5189 13.7823H13.539M13.5189 13.7823H13.539M13.539 13.7823H13.5592M13.539 13.7823H13.5592M13.5592 13.7823H13.5793M13.5592 13.7823H13.5793M13.5793 13.7823H13.5995M13.5793 13.7823H13.5995M13.5995 13.7823H13.6196M13.5995 13.7823H13.6196M13.6196 13.7823H13.6398M13.6196 13.7823H13.6398M13.6398 13.7823H13.6599M13.6398 13.7823H13.6599M13.6599 13.7823H13.68M13.6599 13.7823H13.68M13.68 13.7823H13.7002M13.68 13.7823H13.7002M13.7002 13.7823H13.7203M13.7002 13.7823H13.7203M13.7203 13.7823H13.7405M13.7203 13.7823H13.7405M13.7405 13.7823H13.7606M13.7405 13.7823H13.7606M13.7606 13.7823H13.7808M13.7606 13.7823H13.7808M13.7808 13.7823H13.8009M13.7808 13.7823H13.8009M13.8009 13.7823H13.821M13.8009 13.7823H13.821M13.821 13.7823H13.8412M13.821 13.7823H13.8412M13.8412 13.7823H13.8613M13.8412 13.7823H13.8613M13.8613 13.7823H13.8815M13.8613 13.7823H13.8815M13.8815 13.7823H13.9016M13.8815 13.7823H13.9016M13.9016 13.7823H13.9217M13.9016 13.7823H13.9217M13.9217 13.7823H13.9419M13.9217 13.7823H13.9419M13.9419 13.7823H13.962M13.9419 13.7823H13.962M13.962 13.7823H13.9822M13.962 13.7823H13.9822M13.9822 13.7823H14.0023M13.9822 13.7823H14.0023M14.0023 13.7823H14.0224M14.0023 13.7823H14.0224M14.0224 13.7823H14.0426M14.0224 13.7823H14.0426M14.0426 13.7823H14.0627M14.0426 13.7823H14.0627M14.0627 13.7823H14.0829M14.0627 13.7823H14.0829M14.0829 13.7823H14.103M14.0829 13.7823H14.103M14.103 13.7823H14.1231M14.103 13.7823H14.1231M14.1231 13.7823H14.1433M14.1231 13.7823H14.1433M14.1433 13.7823H14.1634M14.1433 13.7823H14.1634M14.1634 13.7823H14.1836M14.1634 13.7823H14.1836M14.1836 13.7823H14.2037M14.1836 13.7823H14.2037M14.2037 13.7823H14.2238M14.2037 13.7823H14.2238M14.2238 13.7823H14.244M14.2238 13.7823H14.244M14.244 13.7823H14.2641M14.244 13.7823H14.2641M14.2641 13.7823H14.2843M14.2641 13.7823H14.2843M14.2843 13.7823H14.3044M14.2843 13.7823H14.3044M14.3044 13.7823H14.3245M14.3044 13.7823H14.3245M14.3245 13.7823H14.3447M14.3245 13.7823H14.3447M14.3447 13.7823H14.3648M14.3447 13.7823H14.3648M14.3648 13.7823H14.3849M14.3648 13.7823H14.3849M14.3849 13.7823H14.4051M14.3849 13.7823H14.4051M14.4051 13.7823H14.4252M14.4051 13.7823H14.4252M14.4252 13.7823H14.4454M14.4252 13.7823H14.4454M14.4454 13.7823H14.4655M14.4454 13.7823H14.4655M14.4655 13.7823H14.4856M14.4655 13.7823H14.4856M14.4856 13.7823H14.5058M14.4856 13.7823H14.5058M14.5058 13.7823H14.5259M14.5058 13.7823H14.5259M14.5259 13.7823H14.546M14.5259 13.7823H14.546M14.546 13.7823H14.5662M14.546 13.7823H14.5662M14.5662 13.7823H14.5863M14.5662 13.7823H14.5863M14.5863 13.7823H14.6065M14.5863 13.7823H14.6065M14.6065 13.7823C15.087 13.7823 15.5049 13.649 15.8018 13.3498L14.6065 13.7823ZM18.0068 3.6761L18.1419 3.87872L14.8787 15.8063C13.0186 15.8284 11.1543 15.8257 9.29203 15.8229C8.67163 15.822 8.05147 15.8211 7.43176 15.8211C7.07146 15.8211 6.71034 15.8219 6.34895 15.8227C5.62535 15.8243 4.90065 15.826 4.17923 15.8211L4.18171 15.5211C4.18156 15.5211 4.18142 15.5211 4.18127 15.5211C2.54382 15.5073 1.26229 14.4332 0.971726 12.8259L0.971777 12.8259L0.970678 12.8204C0.933382 12.634 0.932359 12.4291 0.93236 12.1953L0.932358 12.1945C0.925 9.51791 0.925 6.84128 0.925 4.16417C0.925 2.20698 2.31134 0.831049 4.28961 0.831049C5.31491 0.831049 6.34076 0.833034 7.36696 0.835019C9.76289 0.839654 12.1607 0.844292 14.5575 0.823686L14.5582 0.823678C16.4046 0.803325 17.6833 2.07776 17.9145 3.47445C17.9192 3.51355 17.9303 3.54578 17.9408 3.56947C17.9532 3.59734 17.9674 3.61886 17.9737 3.62829C17.9793 3.63676 17.9861 3.6463 17.9902 3.65211L17.992 3.65465C17.9969 3.66161 18.0016 3.66831 18.0068 3.6761ZM18.2019 12.9912L18.1879 13.0331L18.1879 13.0332L18.1542 13.1345C18.1582 13.1358 18.1621 13.1371 18.166 13.1384C18.1745 13.1037 18.1826 13.0688 18.1901 13.0337C18.1937 13.0196 18.1976 13.0054 18.2019 12.9912ZM18.1697 3.22114C18.1814 3.27117 18.1919 3.32143 18.2011 3.37187L18.1447 3.23117C18.153 3.22783 18.1614 3.22449 18.1697 3.22114ZM18.5107 3.40764C18.511 3.40754 18.5112 3.40745 18.5115 3.40735L18.5122 3.41193V3.43608C18.5122 3.42614 18.5117 3.41665 18.5107 3.40764ZM14.5942 2.58448L14.5904 2.58449L14.5917 2.88449L14.5942 2.58448Z" fill="white" stroke="#EB352A" stroke-width="0.6"/>
<path d="M13.4159 8.23909C13.3316 8.3629 13.2575 8.49509 13.1629 8.6126C12.6568 9.24002 12.0664 9.76461 11.3504 10.1318C10.8629 10.3836 10.3486 10.5452 9.80338 10.5977C8.7439 10.7005 7.78316 10.413 6.90677 9.81497C6.33692 9.42677 5.86169 8.93785 5.44613 8.38388C5.34326 8.24749 5.34326 8.0985 5.44613 7.96421C5.92341 7.3263 6.48298 6.77653 7.16599 6.36734C7.72967 6.02951 8.33451 5.81547 8.99077 5.75042C9.94327 5.65809 10.8238 5.88472 11.6426 6.37784C12.3194 6.78702 12.8728 7.33469 13.346 7.9684C13.3768 8.01037 13.3953 8.06073 13.418 8.10899C13.4159 8.15306 13.4159 8.19503 13.4159 8.23909ZM9.44748 9.89681C10.365 9.87792 11.0994 9.08264 11.083 8.12158C11.0665 7.18151 10.2848 6.43239 9.33844 6.45128C8.42297 6.46807 7.68441 7.26964 7.70293 8.2265C7.71939 9.16657 8.50114 9.91569 9.44748 9.89681Z" fill="white"/>
<path d="M8.48402 8.17226C8.4799 8.67587 8.88312 9.09764 9.37275 9.10393C9.88089 9.11023 10.3026 8.69265 10.3047 8.18275C10.3067 7.67284 9.90557 7.25317 9.41183 7.24688C8.90575 7.24058 8.48607 7.65816 8.48402 8.17226Z" fill="white"/>
<path d="M8.48399 8.17191C8.48811 7.65781 8.90573 7.24024 9.41181 7.24443C9.90555 7.24863 10.3088 7.6704 10.3047 8.18031C10.3026 8.69231 9.88086 9.10779 9.37272 9.10149C8.8831 9.0973 8.47988 8.67552 8.48399 8.17191Z" fill="white"/>
</svg>
