<svg width="84" height="16" viewBox="0 0 84 16" fill="none" xmlns="http://www.w3.org/2000/svg">
<path d="M5.79473 2.81772C6.34743 1.59132 7.12842 0.581345 8.49816 0.184568C9.42333 -0.0799503 10.3605 -0.0919738 11.2136 0.364921C12.4271 1.01419 13.6046 1.7356 14.7941 2.42095C14.6139 2.42095 14.4337 2.3969 14.2655 2.42095C14.0372 2.45702 13.7488 2.30071 13.5806 2.58928C13.2922 2.51714 13.0399 2.64939 12.8357 2.79367C12.4031 3.11831 11.8985 3.40688 11.7783 4.02008C11.4419 4.32067 11.2977 4.75352 11.0694 5.12625C10.0962 6.79752 9.14698 8.48082 8.16173 10.1521C7.71717 10.9096 6.84006 11.1741 5.99899 10.9336C5.54241 10.8014 5.20599 10.4888 4.77344 10.3324C5.14591 9.50282 5.65055 8.75736 6.10713 7.98785C6.49162 7.32656 6.80401 6.62919 7.23656 6.00397C7.87337 5.09018 7.60903 3.94794 6.67184 3.45497C6.34743 3.28664 5.93892 3.2145 5.79473 2.81772Z" fill="#2FA850"/>
<path d="M30.945 6.83327C31.5698 6.83327 32.2066 6.84529 32.8314 6.83327C33.0957 6.82125 33.1798 6.90541 33.2158 7.18195C33.5403 10.248 31.1492 12.5926 28.0853 12.2198C25.7424 11.9313 23.9401 10.1999 23.6277 7.92741C23.2672 5.35437 25.0815 2.87752 27.6408 2.4086C29.1427 2.13206 30.5004 2.44467 31.7019 3.40656C31.9903 3.635 31.9663 3.77929 31.7139 3.98369C31.4977 4.16404 31.3294 4.47665 31.0891 4.54879C30.8248 4.62094 30.6326 4.28427 30.3923 4.13999C29.0826 3.38251 27.3644 3.56286 26.247 4.58486C25.0575 5.67901 24.7211 7.42242 25.418 8.87728C26.1028 10.2961 27.6408 11.1016 29.1787 10.8491C30.5845 10.6207 31.5097 9.80309 31.774 8.57669C31.8461 8.2761 31.798 8.17991 31.4736 8.19193C30.6446 8.21598 29.8155 8.19193 28.9985 8.20395C28.7221 8.20395 28.614 8.15586 28.614 7.83122C28.614 6.83327 28.602 6.83327 29.5872 6.83327C30.0438 6.83327 30.5004 6.83327 30.945 6.83327Z" fill="white"/>
<path d="M4.76124 10.3202C5.19379 10.4765 5.54223 10.7891 5.98679 10.9214C6.82786 11.1618 7.70497 10.9093 8.14954 10.1398C9.13478 8.48058 10.072 6.78526 11.0572 5.11398C11.2735 4.74125 11.4297 4.3084 11.7661 4.00781C12.2107 4.24828 12.6552 4.47673 13.0157 4.82541C13.0277 4.93363 13.0878 4.99374 13.1959 5.01779C13.232 5.18612 13.268 5.34243 13.3882 5.47469C13.3882 5.49874 13.3882 5.5348 13.4002 5.55885C13.3401 5.88348 13.5083 6.22014 13.4122 6.54478C13.4122 6.6049 13.4002 6.66502 13.4002 6.72513C13.0517 7.32631 12.6913 7.92749 12.3549 8.55272C11.8382 9.50258 11.2014 10.3923 10.7809 11.4023C10.3844 11.9193 10.12 12.5205 9.77159 13.0736C8.8344 14.5404 7.15227 14.8651 5.74649 14.2399C5.66238 14.2038 5.6023 14.1316 5.53021 14.0836C5.54222 14.0715 5.55424 14.0595 5.55424 14.0475C5.55424 14.0355 5.54222 14.0114 5.53021 14.0114C4.97751 13.6868 4.79728 13.0856 4.46086 12.6047C4.31668 11.8111 4.24458 11.0296 4.76124 10.3202Z" fill="#F9BD07"/>
<path d="M52.5112 6.5575C52.391 6.04049 52.6434 6.01644 52.9918 6.01644C53.8329 6.04049 53.8329 6.01644 53.8329 6.87011C53.8329 8.49329 53.8329 10.1165 53.8329 11.7396C53.8329 12.1124 53.7968 12.4851 53.7127 12.8578C53.4123 14.1684 52.5352 14.9379 51.1655 15.0942C49.9039 15.2385 48.6423 14.5652 48.0896 13.4831C47.9815 13.2666 47.9935 13.1584 48.2338 13.0983C48.2938 13.0863 48.3419 13.0502 48.402 13.0262C48.6423 12.93 48.8706 12.7617 49.1109 12.7617C49.3512 12.7617 49.3872 13.1103 49.5554 13.2787C50.0841 13.8197 50.7089 13.964 51.4058 13.7476C52.0546 13.5552 52.367 13.0502 52.4631 12.413C52.5112 12.1364 52.4752 11.8599 52.4752 11.5112C51.8624 12.1244 51.1415 12.3288 50.3484 12.1965C49.5675 12.0763 48.9186 11.6675 48.426 11.0543C47.4047 9.79183 47.5128 7.92818 48.6783 6.74987C49.7477 5.6437 51.2135 5.54752 52.5112 6.5575ZM52.5953 9.07042C52.5953 7.9402 51.8624 7.09856 50.8771 7.11058C49.8919 7.1226 49.1229 7.97627 49.1229 9.07042C49.1229 10.1525 49.9039 10.9822 50.9132 10.9822C51.8624 10.9701 52.5833 10.1405 52.5953 9.07042Z" fill="white"/>
<path d="M10.7734 11.4037C11.194 10.3938 11.8308 9.51604 12.3474 8.55416C12.6839 7.94095 13.0443 7.33978 13.3928 6.72657C13.5129 6.71455 13.561 6.65443 13.561 6.54622C13.5009 6.22158 13.7292 5.83683 13.3928 5.56029C13.3807 5.53624 13.3807 5.50018 13.3807 5.47613C13.5369 5.42803 13.3687 5.2597 13.4769 5.19958C13.7292 5.18756 13.7893 4.98316 13.8373 4.8028C13.9695 4.30984 14.0896 3.82889 14.1978 3.33593C14.2819 2.93915 14.5823 2.65059 14.8586 2.8069C15.0749 2.92713 15.171 2.79487 15.3272 2.77083C16.7931 3.39605 17.49 5.39196 16.6969 6.85884C15.9039 8.33773 15.0509 9.78056 14.1858 11.2234C13.6331 12.1372 12.5277 12.3897 11.5905 11.8847C11.3141 11.7284 11.0498 11.56 10.7734 11.4037Z" fill="#E74335"/>
<path d="M40.15 9.04551C40.15 10.849 38.7562 12.2318 36.9539 12.2318C35.1276 12.2318 33.7459 10.837 33.7579 9.00944C33.7699 7.21793 35.1637 5.83522 36.978 5.84725C38.7682 5.83522 40.15 7.24198 40.15 9.04551ZM38.7442 9.03349C38.7442 7.93934 37.9752 7.10972 36.966 7.10972C35.9447 7.0977 35.1637 7.93935 35.1637 9.05754C35.1637 10.1517 35.9567 10.9933 36.99 10.9813C37.9873 10.9573 38.7442 10.1156 38.7442 9.03349Z" fill="white"/>
<path d="M43.9227 12.2325C42.1324 12.2325 40.7387 10.8378 40.7266 9.03428C40.7146 7.23074 42.1444 5.82399 43.9708 5.83601C45.773 5.84804 47.1428 7.23075 47.1428 9.05833C47.1428 10.8378 45.725 12.2325 43.9227 12.2325ZM45.737 9.02226C45.737 7.94014 44.944 7.09849 43.9467 7.09849C42.9254 7.09849 42.1324 7.95215 42.1324 9.0463C42.1324 10.1164 42.9254 10.9701 43.9227 10.9701C44.944 10.9821 45.737 10.1284 45.737 9.02226Z" fill="white"/>
<path d="M56.8711 9.1427C56.9071 6.90632 58.6013 5.46349 60.5357 5.92038C61.6892 6.1849 62.302 7.02655 62.6865 8.08463C62.7826 8.33712 62.5543 8.31308 62.4462 8.36117C61.2446 8.86616 60.0431 9.38317 58.8296 9.85209C58.5052 9.98435 58.4931 10.0805 58.6974 10.3451C59.3342 11.1627 60.5958 11.2108 61.3408 10.3811C61.569 10.1286 61.7012 10.1286 61.9535 10.309C62.7826 10.8741 62.8066 10.9583 61.9776 11.5715C60.9322 12.341 59.7908 12.4612 58.6253 11.9081C57.4358 11.343 56.9071 10.309 56.8711 9.1427ZM58.2649 8.9383C59.1059 8.58962 59.8989 8.26498 60.6799 7.94035C60.8241 7.88023 61.0644 7.89225 61.0524 7.68785C61.0524 7.5075 60.8722 7.38726 60.716 7.29107C60.1633 6.99048 59.6226 7.00251 59.0939 7.33917C58.5292 7.69988 58.2649 8.21689 58.2649 8.9383Z" fill="white"/>
<path d="M66.6292 7.66274C66.6292 6.32813 66.6412 4.99352 66.6172 3.64688C66.6172 3.35831 66.6773 3.2501 66.9897 3.26212C67.9749 3.28617 68.9722 3.22605 69.9574 3.29819C71.8318 3.43045 72.9492 5.5466 72.012 7.13371C71.4834 8.03548 70.6543 8.46833 69.621 8.48035C69.1404 8.48035 68.6598 8.49237 68.1792 8.46832C67.8548 8.4563 67.7346 8.55249 67.7346 8.88915C67.7586 9.80294 67.7346 10.7167 67.7466 11.6425C67.7586 11.9672 67.6625 12.0513 67.3501 12.0393C66.6172 12.0273 66.6172 12.0393 66.6172 11.2939C66.6292 10.1035 66.6292 8.87712 66.6292 7.66274ZM67.7466 5.84719C67.7466 6.26801 67.7466 6.68884 67.7466 7.10966C67.7466 7.30204 67.7827 7.4343 68.011 7.42227C68.6237 7.41025 69.2485 7.44632 69.8613 7.41025C70.6062 7.36216 71.231 6.61669 71.219 5.85921C71.219 5.11375 70.5702 4.40436 69.8012 4.36829C69.2125 4.34425 68.6357 4.36829 68.047 4.35627C67.8067 4.35627 67.7346 4.45246 67.7466 4.6809C67.7586 5.06566 67.7466 5.46244 67.7466 5.84719Z" fill="white"/>
<path d="M76.9165 11.2952C76.7843 11.2831 76.7603 11.3673 76.7123 11.4154C75.8351 12.4013 74.4294 12.5216 73.4081 11.704C72.3267 10.8383 72.4468 9.19105 73.6604 8.52975C74.5615 8.02477 75.5348 8.07286 76.496 8.33738C76.6281 8.37345 76.7483 8.42154 76.8805 8.46964C76.9526 7.78429 76.7002 7.33942 76.0995 7.02681C75.4747 6.7142 74.6456 6.84646 74.129 7.3274C74.0208 7.42359 73.9848 7.68811 73.7685 7.56787C73.4802 7.41156 73.2038 7.23121 72.9395 7.02681C72.8674 6.97872 72.9755 6.87051 73.0356 6.79837C73.7084 5.93267 75.1623 5.58398 76.4239 6.00481C77.4812 6.35349 77.9979 7.13502 77.9979 8.40952C77.9979 9.49164 77.9859 10.5738 78.0099 11.6559C78.0219 11.9805 77.9018 12.0887 77.6014 12.0406C77.5173 12.0286 77.4211 12.0286 77.337 12.0406C76.9886 12.1008 76.8685 11.9565 76.9285 11.6198C76.9285 11.5236 76.9165 11.4034 76.9165 11.2952ZM75.5227 9.05879C75.0541 9.05879 74.8018 9.10689 74.5255 9.25117C74.0208 9.50366 73.7805 9.88842 73.8526 10.3573C73.9367 10.8503 74.2972 11.0788 74.7417 11.187C75.6549 11.4274 76.7843 10.6459 76.9045 9.70806C76.9285 9.51569 76.8564 9.39545 76.6882 9.31129C76.3278 9.11891 75.9313 9.05879 75.5227 9.05879Z" fill="white"/>
<path d="M1.09868 11.3414C-0.102847 10.2472 -0.355166 8.28738 0.521946 6.74837C1.18278 5.58208 1.85563 4.43985 2.52848 3.28559C3.23738 2.08323 4.24667 1.87882 5.38811 2.7325L5.3761 2.76857C5.0637 2.7806 4.73929 2.69643 4.40286 2.82869C4.49899 2.96095 4.6672 2.97297 4.58309 3.1894C4.19861 4.17533 3.8021 5.14924 3.41761 6.13517C2.92499 7.40967 2.62461 8.7563 2.02385 9.99473C1.91571 10.2112 2.02385 10.5117 1.79556 10.656C1.55525 10.8003 1.62735 10.9927 1.63936 11.1971C1.32697 11.0648 1.32697 11.0648 1.09868 11.3414Z" fill="#4185F0"/>
<path d="M4.76277 10.3212C4.24611 11.0306 4.33022 11.8122 4.46239 12.6057C4.35425 12.738 4.41432 12.8342 4.49843 12.9544C4.60657 13.1227 4.7147 13.3151 4.53448 13.5075C3.83759 13.1348 3.16474 12.75 2.50391 12.3172C2.60003 12.1729 2.85235 12.1128 2.84033 11.9204C2.79227 11.4034 3.09265 11.0066 3.26086 10.5617C3.46512 10.0086 3.53721 9.41948 3.81356 8.89044C3.95774 8.6139 4.06588 8.28926 4.17402 7.97665C4.64261 6.67811 5.0271 5.34349 5.60383 4.09304C5.84414 3.56401 5.78406 3.16723 5.37554 2.77045L5.38756 2.73438C5.53174 2.75842 5.63988 2.90271 5.80809 2.81854C5.95228 3.21532 6.3728 3.28746 6.67319 3.44377C7.61037 3.93673 7.87471 5.07897 7.2379 5.99276C6.80535 6.61799 6.49296 7.31536 6.10848 7.97665C5.62787 8.74616 5.12323 9.50364 4.76277 10.3212Z" fill="#2679E5"/>
<path d="M81.1319 10.3697C81.6726 9.01102 82.1892 7.78462 82.6578 6.54619C82.802 6.14941 82.9942 5.99311 83.4268 6.01716C84.0996 6.06525 84.0996 6.02918 83.8353 6.65441C82.7419 9.17935 81.6365 11.7043 80.5311 14.2292C80.459 14.3856 80.471 14.626 80.2548 14.6501C79.9424 14.6861 79.618 14.6861 79.3176 14.638C79.1494 14.614 79.2936 14.4457 79.3296 14.3495C79.6901 13.5559 80.0505 12.7624 80.423 11.9808C80.5311 11.7404 80.5311 11.548 80.423 11.3075C79.6901 9.68435 78.9932 8.04914 78.2602 6.41394C78.104 6.06525 78.1641 5.99311 78.5366 6.00513C79.3176 6.02918 79.3176 6.00513 79.618 6.72655C80.1226 7.91688 80.6032 9.09518 81.1319 10.3697Z" fill="white"/>
<path d="M5.36306 2.77074C5.75957 3.16752 5.83165 3.56429 5.59135 4.09333C5.01462 5.3558 4.63013 6.67839 4.16154 7.97694C4.0534 8.28955 3.94527 8.60216 3.80108 8.89072C3.52473 9.43179 3.45264 10.0089 3.24838 10.562C3.08016 10.9949 2.7918 11.4037 2.82784 11.9207C2.83986 12.113 2.58754 12.1732 2.49142 12.3174C1.97477 12.0649 1.45811 11.8125 1.09766 11.3435C1.32595 11.055 1.32594 11.055 1.62632 11.2113C1.61431 11.0069 1.55424 10.8025 1.78253 10.6702C2.01082 10.538 1.90267 10.2253 2.01081 10.0089C2.61157 8.77049 2.91196 7.42385 3.40458 6.14935C3.77705 5.16342 4.18557 4.18951 4.57005 3.20358C4.65416 2.97514 4.48595 2.96311 4.38982 2.84288C4.72625 2.71062 5.05067 2.78276 5.36306 2.77074Z" fill="#337EEC"/>
<path d="M54.8329 11.8719C54.8209 10.6455 54.8089 9.40703 54.8089 8.18063C54.8089 6.48531 54.8209 4.78998 54.7969 3.09466C54.7969 2.758 54.881 2.66181 55.2174 2.67383C56.1906 2.68586 56.1906 2.67383 56.1906 3.65977C56.1906 6.31697 56.1786 8.97418 56.2027 11.6314C56.2027 11.968 56.1186 12.1003 55.7821 12.0402C55.4697 11.9801 55.1333 12.1484 54.8329 11.956C54.905 11.932 54.893 11.8959 54.8329 11.8719Z" fill="white"/>
<path d="M15.3242 2.75811C15.168 2.78216 15.0719 2.91442 14.8556 2.79418C14.5793 2.63788 14.2789 2.92644 14.1948 3.32322C14.0866 3.81619 13.9665 4.30916 13.8343 4.7901C13.7863 4.97045 13.7262 5.17485 13.4739 5.18687C13.4258 5.06664 13.3297 5.00652 13.1975 5.01854C13.2095 4.88628 13.1374 4.82617 13.0173 4.82617C12.9332 4.50153 13.0894 3.65988 13.0653 3.29917C13.0413 2.86633 13.3898 2.80621 13.558 2.56574C13.7262 2.2892 14.0146 2.43348 14.2428 2.39741C14.4111 2.37336 14.6033 2.39741 14.7715 2.39741C14.7835 2.39741 14.8076 2.39741 14.8076 2.42145C14.8196 2.54169 14.8917 2.54169 14.9758 2.52967C15.12 2.60181 15.2401 2.6499 15.3242 2.75811Z" fill="#DC3E2D"/>
<path d="M4.52038 13.5063C4.70061 13.3139 4.59247 13.1215 4.48434 12.9532C4.41224 12.8329 4.35216 12.7368 4.44828 12.6045C4.78471 13.0854 4.97696 13.6866 5.51764 14.0113C5.52966 14.0233 5.54167 14.0353 5.54167 14.0473C5.54167 14.0593 5.52966 14.0714 5.51764 14.0834C5.19323 13.903 4.86882 13.7227 4.54441 13.5303C4.5324 13.5303 4.52038 13.5303 4.49635 13.5303C4.50836 13.5303 4.50836 13.5183 4.52038 13.5063Z" fill="#616369"/>
<path d="M15.0002 2.55401C14.9161 2.56603 14.832 2.55401 14.832 2.4458C14.8801 2.48187 14.9402 2.51794 15.0002 2.55401Z" fill="#2FA850"/>
<path d="M54.832 11.8711C54.8921 11.8951 54.9041 11.9312 54.832 11.9673C54.832 11.9312 54.832 11.9072 54.832 11.8711Z" fill="#535456"/>
<path d="M13.5715 2.58858C13.4033 2.81703 13.0549 2.87715 13.0789 3.32202C13.0909 3.68273 12.9347 4.52438 13.0308 4.84901C12.6704 4.48831 12.2138 4.25986 11.7812 4.03141C11.8894 3.41821 12.406 3.12964 12.8386 2.80501C13.0188 2.6487 13.2832 2.51644 13.5715 2.58858Z" fill="#CB3D25"/>
<path d="M13.4048 5.55859C13.7412 5.84716 13.5009 6.21989 13.573 6.54453C13.5249 6.54453 13.4648 6.54453 13.4168 6.54453C13.5009 6.21989 13.3447 5.89525 13.4048 5.55859Z" fill="#CB3D25"/>
<path d="M13.1992 5.0313C13.3314 5.01927 13.4275 5.07939 13.4756 5.19962C13.3674 5.27176 13.5356 5.42807 13.3794 5.47617C13.2713 5.35593 13.2232 5.1876 13.1992 5.0313Z" fill="#CB3D25"/>
<path d="M13.0156 4.83691C13.1358 4.83691 13.2079 4.89704 13.1959 5.0293C13.0877 5.01727 13.0276 4.94513 13.0156 4.83691Z" fill="#CB3D25"/>
<path d="M13.4026 6.55762C13.4507 6.55762 13.5108 6.55762 13.5588 6.55762C13.5588 6.67785 13.4988 6.73797 13.3906 6.73797C13.3906 6.67785 13.4026 6.61773 13.4026 6.55762Z" fill="#DC3E2D"/>
</svg>
