<svg width="17" height="18" viewBox="0 0 17 18" fill="none" xmlns="http://www.w3.org/2000/svg">
<path d="M7.99592 0C8.30957 0 8.61311 0 8.92675 0C8.98746 0.0101177 9.05828 0.0202342 9.11899 0.0303519C9.39217 0.060705 9.65523 0.0809404 9.92841 0.131529C11.0414 0.313648 12.0734 0.718355 13.0345 1.32542C13.2571 1.46706 13.4595 1.61883 13.6821 1.7706C13.0143 2.6306 12.3668 3.48049 11.7091 4.33038C9.47311 2.64072 6.53898 3.06566 4.82908 4.7452C3.22037 6.33368 2.7246 8.83276 3.85778 10.9777C4.93026 12.9911 7.20675 14.1446 9.60464 13.6488C11.7091 13.2137 13.1256 11.5139 13.4797 10.1278C11.8204 10.1278 10.1712 10.1278 8.51193 10.1278C8.51193 9.04523 8.51193 7.97275 8.51193 6.89016C8.59287 6.89016 8.66369 6.89016 8.73452 6.89016C11.4157 6.89016 14.0969 6.89016 16.7882 6.89016C16.859 6.89016 16.9299 6.89016 17.0007 6.88004C17.0007 7.58828 17.0007 8.29652 17.0007 9.00476C16.9906 9.06546 16.9804 9.12617 16.9703 9.17676C16.9197 9.541 16.8894 9.91535 16.8084 10.2695C16.3633 12.3132 15.3211 13.9827 13.6517 15.2474C11.5877 16.8156 9.25052 17.3316 6.71098 16.8055C4.67732 16.3806 3.02813 15.3182 1.76342 13.669C0.397529 11.8984 -0.169063 9.87488 0.043409 7.64898C0.21541 5.84803 0.913532 4.25955 2.11754 2.89366C3.43284 1.40636 5.07191 0.475531 7.03474 0.131529C7.34839 0.0708227 7.67216 0.0404708 7.99592 0Z" fill="#F74239"/>
</svg>
