<svg width="28" height="26" viewBox="0 0 28 26" fill="none" xmlns="http://www.w3.org/2000/svg">
<path d="M27.4989 3.03457C27.4989 7.45179 27.4989 11.8743 27.4989 16.2916C27.483 16.3129 27.4672 16.3342 27.4619 16.3609C27.1396 17.8973 26.0882 18.7562 24.5295 18.7562C19.0082 18.7562 13.4921 18.7562 7.97075 18.7562C7.75941 18.7562 7.54806 18.7509 7.342 18.7136C5.92072 18.4522 4.99609 17.2945 4.99609 15.7741C4.99609 11.709 4.99609 7.64384 4.99609 3.57873C4.99609 1.80224 6.20075 0.580566 7.9549 0.580566C10.0102 0.580566 12.0655 0.580566 14.1261 0.580566C17.6239 0.580566 21.1216 0.580566 24.6193 0.580566C25.9138 0.580566 26.9758 1.34878 27.3615 2.54911C27.409 2.71449 27.4513 2.87453 27.4989 3.03457ZM7.2469 14.131C7.35785 14.0296 7.42654 13.9656 7.48994 13.9016C8.404 12.9786 9.31806 12.0557 10.2321 11.1381C11.1673 10.1939 12.3191 10.1885 13.2543 11.1328C13.6665 11.5436 14.0627 11.9704 14.4907 12.4078C14.9609 11.837 15.4047 11.3035 15.8486 10.7647C16.7785 9.63906 17.7031 8.51342 18.633 7.39311C19.1508 6.76894 19.7954 6.5022 20.5985 6.66224C21.074 6.75827 21.4492 7.01434 21.7609 7.38777C22.8546 8.68413 23.9589 9.97515 25.0526 11.2715C25.1001 11.3302 25.1213 11.4049 25.1582 11.4742C25.1847 11.4476 25.2164 11.4262 25.2428 11.3995C25.2428 11.3142 25.2428 11.2235 25.2428 11.1381C25.2428 8.63612 25.2428 6.1341 25.2428 3.63207C25.2428 3.03991 25.079 2.8692 24.4925 2.8692C18.9923 2.8692 13.4921 2.8692 7.99188 2.8692C7.42126 2.8692 7.2469 3.04524 7.2469 3.61073C7.2469 7.01967 7.2469 10.4233 7.2469 13.8322C7.2469 13.9069 7.2469 13.9923 7.2469 14.131Z" fill="#46BD63"/>
<path d="M23.8596 20.4575C23.5109 21.5884 23.178 22.6714 22.8399 23.749C22.5334 24.736 21.8624 25.3441 20.8638 25.5202C20.4887 25.5842 20.066 25.5575 19.6962 25.4615C13.9476 23.9198 8.19908 22.362 2.45583 20.8096C0.986991 20.4095 0.183886 18.9851 0.61714 17.5287C1.47308 14.6319 2.3343 11.7404 3.19024 8.84894C3.2061 8.79025 3.22723 8.73691 3.29063 8.67822C3.29592 8.76891 3.3012 8.85427 3.3012 8.94496C3.3012 11.3296 3.29592 13.7196 3.3012 16.1043C3.30648 18.1955 4.66436 19.924 6.64042 20.3561C6.99971 20.4361 7.37484 20.4521 7.73941 20.4521C12.986 20.4575 18.2326 20.4575 23.4739 20.4575C23.5902 20.4575 23.7064 20.4575 23.8596 20.4575Z" fill="#46BD63"/>
<path d="M10.6234 8.52868C9.387 8.52868 8.37784 7.52041 8.36727 6.27206C8.3567 5.02372 9.387 3.98877 10.6286 3.98877C11.8597 3.9941 12.8742 5.01838 12.8689 6.26139C12.8689 7.50974 11.865 8.52335 10.6234 8.52868Z" fill="#46BD63"/>
</svg>
