<svg width="33" height="33" viewBox="0 0 33 33" fill="none" xmlns="http://www.w3.org/2000/svg">
<path d="M15.9321 0.103516C16.6013 0.103516 17.2705 0.103516 17.9397 0.103516C18.4834 0.179472 19.0355 0.22167 19.5793 0.322946C23.7451 1.06563 27.1496 3.11647 29.701 6.5092C32.5702 10.3239 33.5656 14.6366 32.6957 19.3375C31.9512 23.3885 29.8934 26.6884 26.6477 29.1865C23.1344 31.8872 19.1443 32.9337 14.761 32.3598C11.5739 31.9378 8.75488 30.6297 6.34574 28.4691C3.54345 25.971 1.79516 22.8568 1.12595 19.1349C1.01721 18.5357 0.958651 17.928 0.875 17.3204C0.875 16.6452 0.875 15.97 0.875 15.2949C0.94192 14.7547 1.00048 14.2062 1.09249 13.6745C1.65295 10.3155 3.11683 7.4038 5.47578 4.97319C7.88491 2.50037 10.7792 0.955919 14.1671 0.356705C14.7526 0.255429 15.3465 0.187912 15.9321 0.103516ZM30.9892 16.3161C30.9976 8.5094 24.707 2.15435 16.961 2.12903C9.21496 2.11215 2.89098 8.48408 2.88261 16.2992C2.87425 24.0974 9.16477 30.4609 16.9108 30.4862C24.6485 30.5115 30.9808 24.1396 30.9892 16.3161Z" fill="white"/>
<path d="M16.4095 24.9321C13.5319 24.8646 10.6794 23.5649 8.42921 20.9654C7.96077 20.4169 7.96913 19.8008 8.43757 19.4041C8.89765 19.0075 9.48321 19.1003 9.94328 19.6404C11.5326 21.4887 13.5235 22.6027 15.9327 22.8475C19.0696 23.1682 21.6962 22.1048 23.8209 19.7586C23.9798 19.5813 24.1471 19.3957 24.3479 19.2775C24.7578 19.0496 25.2681 19.1762 25.5608 19.5476C25.862 19.9274 25.8536 20.4506 25.519 20.8557C24.5905 21.9866 23.4779 22.9066 22.1897 23.5986C20.5585 24.4848 18.8102 24.9321 16.4095 24.9321Z" fill="white"/>
<path d="M25.4103 13.0842C25.4103 13.2277 25.4186 13.3796 25.4103 13.523C25.3936 14.0801 24.9753 14.5105 24.4399 14.5274C23.9213 14.5442 23.4529 14.1223 23.411 13.5737C23.3943 13.3627 23.411 13.1517 23.4027 12.9407C23.4027 12.8648 23.411 12.7888 23.3943 12.7213C23.3107 12.3415 22.7502 12.0799 22.1563 12.1305C21.6209 12.1811 21.2779 12.4934 21.2696 12.9238C21.2696 13.1264 21.2696 13.3289 21.2696 13.523C21.2529 14.0632 20.8513 14.4852 20.3243 14.5189C19.8224 14.5527 19.3456 14.1476 19.2787 13.6243C19.0612 12.0967 19.7304 10.873 21.0688 10.3329C22.4909 9.75897 24.1639 10.2147 24.9753 11.3963C25.3015 11.8942 25.4103 12.2993 25.4103 13.0842Z" fill="white"/>
<path d="M8.46184 13.0667C8.31127 11.1847 10.1349 9.82589 12.0672 10.1466C13.255 10.3407 14.1668 10.9568 14.5014 12.1806C14.6269 12.6447 14.6185 13.1595 14.5851 13.649C14.5516 14.1807 14.0413 14.569 13.5311 14.5268C13.0041 14.4846 12.6109 14.0626 12.6025 13.514C12.5942 13.3452 12.6025 13.1764 12.6025 13.0076C12.6025 12.5941 12.4771 12.3493 12.0839 12.2481C11.7577 12.1637 11.3812 12.1468 11.0466 12.2143C10.6033 12.3071 10.4695 12.5603 10.4611 13.0161C10.4611 13.1933 10.4695 13.379 10.4527 13.5562C10.4109 14.1048 9.96755 14.5268 9.44056 14.5268C8.89683 14.5183 8.47021 14.0795 8.45348 13.5056C8.46184 13.3621 8.46184 13.2102 8.46184 13.0667Z" fill="white"/>
</svg>
