<svg width="25" height="26" viewBox="0 0 25 26" fill="none" xmlns="http://www.w3.org/2000/svg">
<path d="M11.5387 0.676593C12.4406 0.639676 13.3546 0.639676 14.2565 0.713511C14.287 0.713511 14.3114 0.719664 14.3418 0.719664C14.7379 0.756581 15.1279 0.811957 15.5119 0.904251C15.8897 0.996545 16.2614 1.11345 16.627 1.24266C17.992 1.72874 19.2535 2.41172 20.3808 3.33465C20.4661 3.40234 20.5393 3.47617 20.588 3.57462C20.6368 3.69768 20.7038 3.80228 20.7891 3.90688C21.429 4.69445 21.886 5.58662 22.2699 6.52187C22.7513 7.67862 23.0378 8.88459 23.1535 10.1336C23.3485 12.2502 23.0743 14.2992 22.2516 16.2681C21.7398 17.4987 21.0512 18.6247 20.1797 19.6337C19.0463 20.9505 17.7178 22.0088 16.17 22.7779C14.8903 23.4116 13.5435 23.83 12.1237 23.9715C10.3747 24.15 8.64409 24.0269 6.95 23.4978C5.7678 23.1286 4.67091 22.5933 3.64105 21.9103C3.39729 21.7503 3.22666 21.4919 2.92807 21.4058C2.76963 21.3319 2.68431 21.1904 2.58681 21.0612C1.28273 19.3446 0.411306 17.431 0.10052 15.2898C-0.0335445 14.3545 -0.00307452 13.3947 0.0213009 12.4471C0.0456762 11.6657 0.112709 10.8966 0.307712 10.1398C0.807408 8.23238 1.66664 6.52187 2.94025 5.0144C4.50637 3.16853 6.43812 1.88257 8.72331 1.13191C9.60082 0.842722 10.5088 0.719664 11.429 0.676593C11.4655 0.682746 11.5021 0.676593 11.5387 0.676593Z" fill="#FED83B"/>
<path d="M11.4889 25.812C11.2573 25.7936 11.0258 25.769 10.7942 25.7382C10.3371 25.6767 9.88011 25.5905 9.43526 25.4736C9.11838 25.3936 8.8015 25.2952 8.49071 25.1906C7.78992 24.9506 7.1135 24.6553 6.46755 24.2923C5.82161 23.9354 5.21222 23.5108 4.6455 23.0432C4.06049 22.5571 3.51813 22.0157 3.01844 21.4373C3.00625 21.425 2.99406 21.4065 2.98187 21.3942C2.96359 21.3758 2.9575 21.3512 2.94531 21.3327C3.14032 21.3635 3.26829 21.5173 3.41454 21.6219C5.01113 22.7663 6.77225 23.4862 8.704 23.8C9.63026 23.9477 10.5626 23.9723 11.495 23.9231C12.6406 23.8677 13.7558 23.6154 14.8405 23.2216C16.0775 22.7725 17.2232 22.1449 18.2591 21.3265C19.5815 20.2805 20.6723 19.0315 21.5072 17.5487C22.1592 16.3857 22.6162 15.1429 22.8783 13.8323C23.122 12.6325 23.1525 11.4142 23.055 10.1959C22.9697 9.16837 22.7564 8.1716 22.4212 7.20559C22.013 6.01192 21.434 4.91055 20.6845 3.90147C20.6175 3.80918 20.5382 3.72304 20.5139 3.60613C20.654 3.5323 20.7454 3.63074 20.8368 3.71073C22.9575 5.62429 24.3164 7.98701 24.8771 10.805C24.9563 11.205 24.9502 11.6172 24.9746 12.0295C24.9807 12.1095 24.9502 12.1956 24.9989 12.2694C24.9989 12.3679 24.9989 12.4663 24.9989 12.5648C24.9624 12.6817 24.9624 12.7924 24.9989 12.9093C24.9989 13.1555 24.9989 13.4016 24.9989 13.6477C24.9563 13.7769 24.9563 13.9123 24.9989 14.0415C24.9989 14.1215 24.9989 14.2076 24.9989 14.2876C24.9441 14.6568 24.9624 15.0321 24.9136 15.4074C24.7857 16.3796 24.4992 17.3087 24.1214 18.207C23.6095 19.4314 22.9209 20.5451 22.0617 21.5542C21.1172 22.6617 20.0081 23.5724 18.7527 24.3046C17.5705 24.9937 16.303 25.4613 14.9624 25.7259C14.5175 25.812 14.0605 25.8182 13.6095 25.8366C12.8966 25.8551 12.1897 25.8612 11.4889 25.812Z" fill="#F3C434"/>
<path d="M12.5008 21.3502C8.88102 21.3317 5.77925 18.9321 4.81033 15.4003C4.71283 15.0373 4.83471 14.7604 5.1333 14.662C5.4319 14.5635 5.70612 14.7358 5.80972 15.1234C6.15707 16.3848 6.79692 17.4615 7.72928 18.3783C10.0388 20.6487 13.8292 20.9441 16.4496 19.0613C17.7963 18.0953 18.7104 16.8216 19.1735 15.2219C19.1918 15.1542 19.2101 15.0804 19.2406 15.0127C19.3563 14.7235 19.6123 14.5758 19.8743 14.662C20.1546 14.7481 20.3009 15.0127 20.2217 15.3203C20.051 15.9971 19.8012 16.6432 19.4538 17.2523C18.3509 19.1782 16.736 20.4519 14.6153 21.0671C13.9267 21.264 13.2198 21.3502 12.5008 21.3502Z" fill="#3E4347"/>
<path d="M14.6406 11.3341C14.6467 10.8419 14.8356 10.245 15.3049 9.7651C16.0727 8.98983 17.1635 9.0329 17.8765 9.86355C18.6869 10.8049 18.626 12.3986 17.7424 13.2723C16.9685 14.0352 15.7741 13.9306 15.1281 13.0446C14.7991 12.577 14.6406 12.0663 14.6406 11.3341Z" fill="#3E4347"/>
<path d="M10.3819 11.5934C10.3515 12.2333 10.1626 12.7747 9.74208 13.2116C8.96207 14.0176 7.87127 13.9807 7.14001 13.1316C6.34171 12.2025 6.40265 10.5966 7.26798 9.74134C8.0419 8.97837 9.17535 9.05221 9.85177 9.91362C10.2235 10.3751 10.4246 11.0396 10.3819 11.5934Z" fill="#3E4347"/>
<path d="M17.4874 10.7422C17.4995 10.9268 17.4203 11.0437 17.207 11.0376C16.9511 11.0314 16.75 10.8284 16.75 10.5638C16.75 10.3669 16.8353 10.2562 17.0364 10.25C17.2802 10.25 17.4813 10.4654 17.4874 10.7422Z" fill="#595E62"/>
<path d="M9.43449 10.7726C9.4223 10.9203 9.36746 11.0434 9.16027 11.0434C8.92261 11.0372 8.65448 10.7911 8.67276 10.5634C8.68495 10.3788 8.78245 10.2558 8.98355 10.2619C9.19683 10.2558 9.43449 10.5204 9.43449 10.7726Z" fill="#595E62"/>
</svg>
