<svg width="38" height="22" viewBox="0 0 38 22" fill="none" xmlns="http://www.w3.org/2000/svg">
<path d="M18.9103 7.33432C19.7034 6.64488 20.469 5.95544 21.2552 5.30082C22.9587 3.88712 24.7518 2.59877 26.7381 1.58899C30.3382 -0.235588 34.2418 1.6447 35.9591 4.32585C38.4902 8.27446 37.0556 13.4905 32.8555 15.531C32.5659 15.6703 32.49 15.8304 32.4831 16.1299C32.4555 17.7734 32.4003 19.4239 32.2693 21.144C32.221 21.0604 32.1796 20.9629 32.1176 20.8863C30.7934 19.3403 29.4692 17.7943 28.145 16.2552C28.0485 16.1438 27.9312 16.0254 27.8002 15.9836C25.9312 15.3499 24.2967 14.3053 22.7587 13.0936C21.5449 12.1395 20.4069 11.0949 19.2344 10.0851C19.1379 10.0015 19.0482 9.91101 18.931 9.79958C18.8344 9.88315 18.7379 9.96672 18.6482 10.0503C16.7102 11.8749 14.6964 13.6019 12.3722 14.9042C11.6618 15.3012 10.8963 15.5867 10.1583 15.9419C9.9997 16.0185 9.83418 16.116 9.71693 16.2483C8.42724 17.7316 7.15134 19.2219 5.87545 20.7122C5.7651 20.8376 5.65475 20.9699 5.5444 21.0952C5.50302 21.0883 5.46164 21.0813 5.42716 21.0674C5.42716 20.2108 5.43405 19.3612 5.42716 18.5046C5.42026 17.6689 5.37888 16.8333 5.37198 15.9976C5.37198 15.7886 5.30302 15.6703 5.10991 15.5797C2.5857 14.3401 1.06152 12.3206 0.702887 9.51406C0.164941 5.36349 2.97192 1.78398 6.76513 0.990082C8.55828 0.614024 10.1721 1.06669 11.7308 1.90933C13.8757 3.06536 15.7723 4.56959 17.5999 6.16436C18.0344 6.54042 18.462 6.9304 18.9103 7.33432ZM7.05479 16.4781C7.10307 16.4851 7.15134 16.492 7.19962 16.499C7.71688 15.8931 8.22724 15.2872 8.75829 14.6953C8.87553 14.5699 9.04105 14.4794 9.20658 14.4098C9.92384 14.0964 10.6756 13.8666 11.3584 13.4905C13.6619 12.2161 15.6412 10.5099 17.5516 8.69927C17.593 8.66445 17.6137 8.60873 17.6551 8.54606C17.2344 8.16304 16.8275 7.78698 16.4068 7.42485C14.6688 5.92062 12.8756 4.47906 10.8411 3.4066C9.80659 2.85644 8.74449 2.46646 7.51687 2.61967C4.22023 3.03054 1.79257 6.35239 2.46845 9.63941C2.95123 12.0141 4.37196 13.5741 6.66168 14.3053C6.95824 14.4028 7.08927 14.5212 7.06858 14.8555C7.0272 15.3917 7.05479 15.9349 7.05479 16.4781ZM30.7658 14.4655C30.9589 14.4028 31.0968 14.3541 31.2417 14.3053C33.4279 13.5811 34.8487 12.1047 35.3315 9.8344C35.8211 7.52234 35.1245 5.53063 33.3521 3.99158C32.1176 2.91912 30.6417 2.362 29.014 2.67538C28.1588 2.84251 27.3174 3.24643 26.5381 3.6782C24.2346 4.96654 22.2345 6.6797 20.2965 8.46249C20.2552 8.49731 20.2345 8.55302 20.1862 8.62963C20.9104 9.27728 21.6138 9.9319 22.338 10.5447C23.9311 11.8958 25.5519 13.2607 27.5243 13.978C28.6899 14.4028 29.5106 15.0853 30.221 16.0254C30.3037 16.1369 30.4003 16.2413 30.4899 16.3388C30.5451 16.4015 30.6141 16.4502 30.752 16.5756C30.7658 15.8026 30.7658 15.1271 30.7658 14.4655Z" fill="white"/>
<path d="M8.68205 7.02065C7.39925 7.02065 6.10956 7.02065 4.82677 7.02065C4.72331 7.02065 4.59917 7.04848 4.52331 6.99977C4.42675 6.94411 4.31641 6.82583 4.31641 6.73538C4.31641 6.64493 4.42675 6.51969 4.52331 6.46403C4.61297 6.41533 4.744 6.44316 4.86125 6.44316C7.40615 6.44316 9.95794 6.44316 12.5028 6.44316C12.5856 6.44316 12.6822 6.41533 12.7373 6.45011C12.8546 6.53361 12.9442 6.64493 13.0408 6.7493C12.9442 6.83975 12.8546 6.98586 12.7373 7.00673C12.5166 7.04848 12.2821 7.02065 12.0477 7.02065C10.9373 7.02065 9.80622 7.02065 8.68205 7.02065Z" fill="white"/>
<path d="M8.66769 9.38774C7.38489 9.38774 6.0952 9.38774 4.81241 9.38774C4.70206 9.38774 4.57102 9.3947 4.47447 9.34599C4.3986 9.31121 4.30205 9.19292 4.30894 9.11639C4.31584 9.01898 4.3917 8.9007 4.47447 8.852C4.55033 8.80329 4.67447 8.81025 4.77103 8.81025C7.3642 8.81025 9.95738 8.81025 12.5506 8.81025C12.6195 8.81025 12.7092 8.78938 12.7506 8.81721C12.8609 8.89374 13.0195 8.99811 13.0195 9.09552C13.0195 9.18597 12.8678 9.30425 12.7575 9.37383C12.6885 9.41557 12.5781 9.38078 12.4885 9.38078C11.2195 9.38774 9.94359 9.38774 8.66769 9.38774Z" fill="white"/>
<path d="M8.64873 10.5721C7.38662 10.5721 6.12452 10.5721 4.86241 10.5721C4.75896 10.5721 4.63482 10.5999 4.55896 10.5581C4.45551 10.4955 4.31757 10.3772 4.32447 10.2798C4.32447 10.1824 4.4693 10.0781 4.56585 10.0015C4.62103 9.95977 4.72448 9.9876 4.80034 9.9876C7.37973 9.9876 9.96601 9.9876 12.5454 9.9876C12.635 9.9876 12.7454 9.95977 12.8144 10.0085C12.9109 10.0641 13.042 10.1824 13.0282 10.2659C13.0213 10.3703 12.904 10.4886 12.8006 10.5512C12.7247 10.5999 12.6006 10.5721 12.4971 10.5721C11.2212 10.5721 9.93152 10.5721 8.64873 10.5721Z" fill="white"/>
<path d="M8.68205 8.20455C7.39925 8.20455 6.10956 8.20455 4.82677 8.20455C4.72331 8.20455 4.59917 8.22542 4.52331 8.18368C4.42675 8.12801 4.31641 8.00973 4.31641 7.91928C4.31641 7.82883 4.43365 7.71055 4.53021 7.64793C4.59917 7.60618 4.70952 7.62706 4.79918 7.62706C7.37167 7.62706 9.93726 7.62706 12.5097 7.62706C12.6132 7.62706 12.7373 7.59923 12.8132 7.64793C12.9098 7.71055 13.0201 7.83579 13.0339 7.94015C13.0408 8.01669 12.9098 8.14193 12.8132 8.19063C12.7304 8.23238 12.6132 8.21151 12.5097 8.21151C11.2269 8.20455 9.95795 8.20455 8.68205 8.20455Z" fill="white"/>
<path d="M29.0618 10.5721C27.7997 10.5721 26.5376 10.5721 25.2686 10.5721C25.1651 10.5721 25.041 10.5999 24.9651 10.5581C24.8547 10.4886 24.7168 10.3772 24.6961 10.2659C24.6823 10.1963 24.8479 10.0641 24.9513 10.0015C25.0203 9.95977 25.1306 9.9876 25.2203 9.9876C27.7928 9.9876 30.3652 9.9876 32.9377 9.9876C33.0274 9.9876 33.1377 9.96673 33.2067 10.0085C33.3033 10.0711 33.4205 10.1824 33.4205 10.2729C33.4205 10.3633 33.3102 10.4886 33.2136 10.5442C33.1377 10.5929 33.0136 10.5651 32.9101 10.5651C31.6342 10.5721 30.3446 10.5721 29.0618 10.5721Z" fill="white"/>
<path d="M29.0602 8.80425C30.3499 8.80425 31.6327 8.80425 32.9224 8.80425C33.0258 8.80425 33.15 8.78338 33.2258 8.83208C33.3224 8.88774 33.4396 9.01298 33.4327 9.10343C33.4327 9.19388 33.3086 9.30521 33.2121 9.36783C33.1431 9.40957 33.0327 9.3887 32.9431 9.3887C30.3706 9.3887 27.7981 9.3887 25.2256 9.3887C25.1773 9.3887 25.136 9.3887 25.0877 9.3887C24.8877 9.39566 24.6877 9.34 24.6877 9.11039C24.6808 8.85991 24.8808 8.80425 25.1015 8.80425C26.4188 8.80425 27.736 8.80425 29.0602 8.80425Z" fill="white"/>
<path d="M29.0622 8.20339C27.7863 8.20339 26.5104 8.20339 25.2414 8.20339C25.1241 8.20339 25 8.22426 24.9034 8.17556C24.8138 8.13381 24.6965 8.01553 24.7034 7.93899C24.7103 7.83463 24.8069 7.70939 24.9034 7.65373C24.9931 7.60502 25.1241 7.61894 25.2414 7.61894C27.7932 7.61894 30.3381 7.61894 32.8899 7.61894C32.9726 7.61894 33.0692 7.59111 33.1243 7.6259C33.2485 7.70243 33.3519 7.81375 33.4623 7.91116C33.3519 8.00857 33.2554 8.1686 33.1381 8.18947C32.9036 8.23122 32.6554 8.20339 32.414 8.20339C31.2898 8.20339 30.1725 8.20339 29.0622 8.20339Z" fill="white"/>
<path d="M29.0972 6.43585C30.3593 6.43585 31.6215 6.43585 32.8836 6.43585C32.9732 6.43585 33.0905 6.40801 33.1525 6.44976C33.2629 6.51934 33.3456 6.63762 33.4422 6.73503C33.3456 6.82548 33.2491 6.9368 33.1387 7.00638C33.0836 7.04117 32.9801 7.01334 32.9042 7.01334C30.3456 7.01334 27.7869 7.01334 25.2213 7.01334C25.1661 7.01334 25.0902 7.03421 25.0489 7.00638C24.9178 6.92289 24.704 6.83939 24.6902 6.72807C24.6626 6.51238 24.8488 6.42889 25.0626 6.42889C26.4144 6.43585 27.7524 6.43585 29.0972 6.43585Z" fill="white"/>
</svg>
