<svg width="23" height="30" viewBox="0 0 23 30" fill="none" xmlns="http://www.w3.org/2000/svg">
<path d="M12.2721 0.972656C12.8311 1.06466 13.3902 1.13543 13.9351 1.25573C17.0207 1.92096 19.3773 3.6265 20.9979 6.32988C22.1585 8.26895 22.6185 10.3991 22.4911 12.6425C22.3567 15.1123 21.4154 17.2637 19.8797 19.1957C17.1268 22.6705 14.4234 26.1806 11.6918 29.6766C11.6281 29.7545 11.5644 29.8323 11.4795 29.9314C11.2742 29.6695 11.0831 29.4218 10.8921 29.1812C8.20284 25.7348 5.52069 22.2954 2.83146 18.8489C1.55762 17.2142 0.743775 15.3812 0.545622 13.3077C0.142238 8.97664 1.73454 5.53019 5.23054 2.96835C6.60346 1.95635 8.16746 1.37604 9.85176 1.11419C10.2976 1.04343 10.7505 1.01512 11.1964 0.972656C11.5573 0.972656 11.9111 0.972656 12.2721 0.972656ZM11.4158 6.05388C8.41515 6.06096 5.71177 8.43172 5.52777 11.6659C5.33669 15.0769 7.95515 17.8086 11.0902 17.9502C14.5721 18.1129 17.3533 15.5157 17.417 12.0976C17.4807 8.95541 15.0321 6.1105 11.4158 6.05388Z" fill="#DC3833"/>
</svg>
