<svg width="13" height="16" viewBox="0 0 13 16" fill="none" xmlns="http://www.w3.org/2000/svg">
<path d="M5.97773 14.9719C5.68877 14.9173 5.4712 14.7467 5.26042 14.5557C4.41053 13.7845 3.53685 13.0338 2.76175 12.1876C1.96625 11.321 1.25234 10.3929 0.779803 9.3044C-0.192471 7.06263 0.103291 4.97783 1.63309 3.08751C2.55777 1.94104 3.78841 1.25861 5.24682 1.06412C7.34435 0.780913 9.12912 1.43604 10.5467 3.02609C11.5224 4.12138 11.9882 5.42823 12.0017 6.89203C12.0085 7.73482 11.8012 8.52985 11.4578 9.29416C10.9717 10.3758 10.2714 11.3107 9.47588 12.1774C8.64638 13.085 7.7183 13.8869 6.79702 14.6956C6.64744 14.8252 6.43327 14.8832 6.2463 14.9719C6.15791 14.9719 6.06612 14.9719 5.97773 14.9719ZM6.26669 1.81137C5.51199 1.82502 4.92047 1.91033 4.35954 2.13553C2.57817 2.84525 1.49371 4.14527 1.12316 6.03217C0.946382 6.92274 1.05517 7.79624 1.38492 8.64245C1.76907 9.63196 2.364 10.4816 3.04731 11.2766C3.9244 12.3002 4.95106 13.1703 5.95053 14.0677C6.08312 14.1871 6.1613 14.1803 6.30409 14.0507C6.90581 13.5047 7.51433 12.9656 8.10585 12.4094C8.88095 11.6758 9.58806 10.8774 10.1694 9.97317C10.5739 9.33852 10.9037 8.66633 11.0703 7.9259C11.3592 6.62247 11.1417 5.39069 10.4413 4.26128C9.44188 2.66441 7.97327 1.87962 6.26669 1.81137Z" fill="white"/>
<path d="M8.70463 6.69073C8.69443 8.13064 7.52498 9.301 6.10396 9.29076C4.67275 9.28053 3.5067 8.10335 3.5169 6.67708C3.5271 5.23034 4.69654 4.0668 6.13116 4.08045C7.55897 4.0941 8.71482 5.26446 8.70463 6.69073ZM7.88873 6.67708C7.88193 5.68756 7.08644 4.89254 6.10396 4.89936C5.12149 4.90277 4.32599 5.71486 4.33619 6.69755C4.34639 7.68365 5.14189 8.47527 6.11416 8.47186C7.09663 8.46844 7.89553 7.65977 7.88873 6.67708Z" fill="white"/>
<path d="M5.97773 14.9719C5.68877 14.9173 5.4712 14.7467 5.26042 14.5557C4.41053 13.7845 3.53685 13.0338 2.76175 12.1876C1.96625 11.321 1.25234 10.3929 0.779803 9.3044C-0.192471 7.06263 0.103291 4.97783 1.63309 3.08751C2.55777 1.94104 3.78841 1.25861 5.24682 1.06412C7.34435 0.780913 9.12912 1.43604 10.5467 3.02609C11.5224 4.12138 11.9882 5.42823 12.0017 6.89203C12.0085 7.73482 11.8012 8.52985 11.4578 9.29416C10.9717 10.3758 10.2714 11.3107 9.47588 12.1774C8.64638 13.085 7.7183 13.8869 6.79702 14.6956C6.64744 14.8252 6.43327 14.8832 6.2463 14.9719C6.15791 14.9719 6.06612 14.9719 5.97773 14.9719ZM6.26669 1.81137C5.51199 1.82502 4.92047 1.91033 4.35954 2.13553C2.57817 2.84525 1.49371 4.14527 1.12316 6.03217C0.946382 6.92274 1.05517 7.79624 1.38492 8.64245C1.76907 9.63196 2.364 10.4816 3.04731 11.2766C3.9244 12.3002 4.95106 13.1703 5.95053 14.0677C6.08312 14.1871 6.1613 14.1803 6.30409 14.0507C6.90581 13.5047 7.51433 12.9656 8.10585 12.4094C8.88095 11.6758 9.58806 10.8774 10.1694 9.97317C10.5739 9.33852 10.9037 8.66633 11.0703 7.9259C11.3592 6.62247 11.1417 5.39069 10.4413 4.26128C9.44188 2.66441 7.97327 1.87962 6.26669 1.81137Z" stroke="white" stroke-width="0.3"/>
<path d="M8.70463 6.69073C8.69443 8.13064 7.52498 9.301 6.10396 9.29076C4.67275 9.28053 3.5067 8.10335 3.5169 6.67708C3.5271 5.23034 4.69654 4.0668 6.13116 4.08045C7.55897 4.0941 8.71482 5.26446 8.70463 6.69073ZM7.88873 6.67708C7.88193 5.68756 7.08644 4.89254 6.10396 4.89936C5.12149 4.90277 4.32599 5.71486 4.33619 6.69755C4.34639 7.68365 5.14189 8.47527 6.11416 8.47186C7.09663 8.46844 7.89553 7.65977 7.88873 6.67708Z" stroke="white" stroke-width="0.3"/>
</svg>
