<svg width="27" height="27" viewBox="0 0 27 27" fill="none" xmlns="http://www.w3.org/2000/svg">
<path d="M8.22656 26.0032C8.48537 25.3756 8.82379 24.788 9.11578 24.1737C9.20205 23.9867 9.30159 23.8131 9.39449 23.6328C9.99837 23.8064 10.589 24.0001 11.2061 24.1136C12.5267 24.3473 13.8406 24.3673 15.1678 24.1536C15.8712 24.0401 16.5481 23.8398 17.2183 23.6328C17.57 24.3406 17.9217 25.0484 18.2734 25.7629C18.3133 25.843 18.3796 25.9098 18.3597 26.0099C14.982 26.0032 11.6043 26.0032 8.22656 26.0032Z" fill="#FED23F"/>
<path d="M2.05941 15.0799C1.77406 15.2602 1.48871 15.4405 1.19673 15.6207C1.13037 15.6608 1.07728 15.7343 0.984375 15.7209C0.984375 13.7511 0.984375 11.7813 0.984375 9.81152C1.29627 9.93171 1.5418 10.1587 1.83378 10.319C1.91341 10.3591 1.98641 10.4058 2.06604 10.4525C2.57701 10.7998 3.08798 11.1403 3.6255 11.4408C4.20946 11.8681 4.83988 12.2287 5.44376 12.6226C5.66938 12.7695 5.66938 12.7629 5.44376 12.9098C4.83988 13.3037 4.22937 13.6977 3.6255 14.0916C3.08135 14.3921 2.57038 14.7327 2.05941 15.0799Z" fill="#ED2849"/>
<path d="M17.2246 23.6258C16.5477 23.8328 15.8708 24.0331 15.1741 24.1466C13.8535 24.3603 12.5329 24.3403 11.2124 24.1065C10.5952 23.9997 9.998 23.7994 9.40076 23.6258C8.56462 23.2786 7.7484 22.9046 6.99853 22.3972C5.71115 21.5291 4.62284 20.4608 3.77344 19.152C3.8398 19.0652 3.88625 19.1453 3.9327 19.172C4.3375 19.4124 4.75557 19.6395 5.18691 19.8331C5.87041 20.1403 6.56719 20.4073 7.31042 20.5342C7.37014 20.5676 7.42987 20.5943 7.49623 20.6277C7.72849 20.8614 8.01384 21.0216 8.29255 21.1886C8.69735 21.429 9.10214 21.676 9.55339 21.8096C9.61311 21.8763 9.69274 21.883 9.76574 21.9164C10.4426 22.1835 11.146 22.3705 11.8693 22.484C12.6988 22.6108 13.535 22.6309 14.3645 22.5374C15.2869 22.4306 16.1761 22.1902 17.0321 21.8496C18.2067 21.3488 19.2618 20.6544 20.1776 19.753C20.7947 19.1387 21.3323 18.4509 21.757 17.683C21.9693 17.2957 22.1949 16.9218 22.3277 16.5011C22.7656 15.4528 23.0244 14.3644 23.0576 13.2293C23.0775 12.5749 23.0709 11.9272 22.9647 11.2728C22.8386 10.4916 22.6462 9.7304 22.3277 9.00257C22.0357 8.25472 21.6574 7.56029 21.1531 6.93262C21.1199 6.87253 21.0867 6.81243 21.0535 6.75234C21.0469 6.67889 21.0403 6.60544 21.0204 6.53867C20.7483 5.41021 20.297 4.36188 19.7064 3.36697C19.6733 3.31355 19.6202 3.26681 19.6334 3.19336C19.9918 3.32023 20.2572 3.58064 20.5426 3.81434C22.7325 5.63724 24.1326 7.96093 24.5972 10.7787C25.1878 14.3711 24.2853 17.5829 21.9295 20.3539C20.6819 21.8229 19.1357 22.8646 17.344 23.559C17.3042 23.5857 17.2644 23.6057 17.2246 23.6258Z" fill="#9E1666"/>
<path d="M19.6385 3.19354C19.6252 3.26699 19.6783 3.31373 19.7115 3.36715C20.3021 4.36206 20.7533 5.4104 21.0254 6.53886C21.0453 6.6123 21.0453 6.68575 21.0586 6.75252C21.0387 6.73917 21.0188 6.72582 21.0055 6.70579C20.2888 5.791 19.4461 5.01644 18.4573 4.40213C17.9928 4.11501 17.5216 3.84124 16.9974 3.68098C16.9244 3.64092 16.858 3.59418 16.785 3.56747C15.6967 3.15348 14.5752 2.93313 13.4139 2.9131C12.7304 2.89974 12.0536 2.96652 11.39 3.11342C10.7795 3.24696 10.1689 3.38718 9.61152 3.68098C9.28635 3.76779 8.99437 3.92804 8.70239 4.08829C6.67178 5.21675 5.17868 6.84601 4.28283 9.00944C3.95766 9.784 3.74531 10.5919 3.62586 11.4266C3.08835 11.1261 2.57738 10.7789 2.06641 10.4384C2.26549 9.58368 2.50438 8.74235 2.88927 7.94776C4.65444 4.30197 7.50792 2.07176 11.4829 1.384C14.3164 0.896564 16.9708 1.47081 19.4195 2.9999C19.4925 3.04664 19.5655 3.10006 19.6385 3.1468C19.612 3.16683 19.592 3.18687 19.6451 3.20022L19.6385 3.19354Z" fill="#EB4C96"/>
<path d="M25.6777 7.16625C25.6644 7.40663 25.5649 7.55354 25.3526 7.60696C25.1402 7.66705 24.9809 7.57357 24.8814 7.39328C24.7089 7.07945 24.5562 6.75227 24.3771 6.43844C23.4945 4.86928 22.3332 3.54718 20.8932 2.47214C20.8202 2.41872 20.7472 2.36531 20.6808 2.30521C20.495 2.1316 20.4685 1.8979 20.6078 1.71093C20.7472 1.53065 20.9861 1.49058 21.1984 1.63748C21.4307 1.80442 21.6563 1.97802 21.8753 2.15831C23.4679 3.47373 24.7022 5.0696 25.5914 6.93923C25.6379 7.01936 25.6578 7.11283 25.6777 7.16625Z" fill="#3C3B58"/>
<path d="M24.9254 2.92612C24.9254 3.09973 24.8458 3.2266 24.6932 3.30005C24.5472 3.3735 24.3879 3.38018 24.2818 3.27334C23.6712 2.65903 23.0541 2.0514 22.4237 1.45713C22.271 1.31023 22.2976 1.10323 22.437 0.942977C22.5829 0.776045 22.7754 0.729303 22.9612 0.849493C23.1404 0.963007 23.293 1.10991 23.4523 1.25013C23.9101 1.65744 24.3415 2.09146 24.7463 2.5522C24.8458 2.66571 24.9321 2.77255 24.9254 2.92612Z" fill="#3C3B58"/>
<path d="M25.6158 4.80899C25.3836 4.80899 25.0916 4.48848 25.0783 4.22807C25.0717 4.00104 25.2575 3.80073 25.4897 3.79405C25.7419 3.78737 26.0405 4.10788 26.0339 4.38832C26.0339 4.60867 25.8414 4.80899 25.6158 4.80899Z" fill="#3C3B58"/>
<path d="M19.6401 3.20088C19.5937 3.18752 19.6069 3.16749 19.6335 3.14746C19.6401 3.16082 19.6468 3.16749 19.6468 3.18085C19.6534 3.18752 19.6468 3.1942 19.6401 3.20088Z" fill="#9E1666"/>
<path d="M7.30102 20.5476C6.55779 20.4207 5.86101 20.1469 5.17751 19.8465C4.74617 19.6528 4.3281 19.4258 3.9233 19.1854C3.87685 19.1587 3.8304 19.0786 3.76404 19.1654C2.97436 17.9768 2.43021 16.6881 2.11168 15.2926C2.09841 15.2191 2.0785 15.1523 2.05859 15.0789C2.56956 14.7383 3.08717 14.3911 3.61805 14.084C3.72423 14.9186 3.95648 15.7199 4.26174 16.5012C4.70635 17.6029 5.35004 18.5845 6.14636 19.4592C6.5047 19.8465 6.91613 20.187 7.30102 20.5476Z" fill="#EB4B96"/>
<path d="M4.26478 16.5008C3.95953 15.7196 3.72727 14.9183 3.62109 14.0837C4.22497 13.6897 4.83548 13.2957 5.43936 12.9018C5.66498 12.7549 5.66498 12.7616 5.43936 12.6147C4.83548 12.2207 4.20506 11.8601 3.62109 11.4328C3.74054 10.5981 3.95289 9.79019 4.27142 9.01562C4.67621 9.12914 5.05447 9.32945 5.44599 9.48971C7.68895 10.4245 9.93855 11.3593 12.1815 12.2875C12.5399 12.4344 12.8849 12.6213 13.2698 12.7148C13.2698 12.7482 13.2698 12.7816 13.2698 12.815C13.1902 12.8083 13.1305 12.8417 13.0575 12.8684C12.4337 13.1288 11.8099 13.3892 11.1861 13.6496C9.60675 14.304 8.03402 14.9717 6.45466 15.6194C5.73133 15.9066 5.01465 16.2404 4.26478 16.5008Z" fill="#FED23F"/>
<path d="M16.9798 3.68066C17.5041 3.84092 17.9752 4.11469 18.4398 4.40181C19.4285 5.01612 20.2713 5.78401 20.988 6.70547C21.0012 6.7255 21.0278 6.73885 21.0411 6.75221C21.0742 6.8123 21.1074 6.87239 21.1406 6.93249C21.1406 7.00594 21.1273 7.08607 21.1406 7.15284C21.2999 7.89402 21.3463 8.64187 21.3331 9.38972L21.3264 9.3964C20.4173 9.777 19.5082 10.1509 18.599 10.5315C17.5041 10.9856 16.4091 11.453 15.3142 11.9004C14.6572 12.1675 14.0202 12.4679 13.35 12.695C13.3301 12.695 13.3168 12.695 13.2969 12.695C13.7349 11.6333 14.1728 10.5649 14.6108 9.50323C15.2678 7.90069 15.9314 6.30483 16.5817 4.70229C16.7343 4.36843 16.9201 4.04791 16.9798 3.68066Z" fill="#F9A31B"/>
<path d="M4.26172 16.5018C5.00495 16.2481 5.72164 15.9075 6.45159 15.6137C8.03096 14.966 9.60369 14.305 11.1831 13.644C11.8068 13.3835 12.4306 13.1231 13.0544 12.8627C13.1208 12.836 13.1871 12.7959 13.2668 12.8093C13.2535 12.8494 13.2468 12.8894 13.2336 12.9228C12.8885 13.7708 12.5368 14.6122 12.1851 15.4602C11.6144 16.8424 11.0437 18.2246 10.4796 19.6068C10.3071 20.0274 10.0948 20.4347 9.98194 20.8821C9.96867 20.8821 9.94876 20.8821 9.93549 20.8821C9.48424 20.8821 9.03299 20.8487 8.58174 20.7886C8.21676 20.7352 7.85179 20.6885 7.48017 20.6417C7.42045 20.6083 7.36073 20.5816 7.29437 20.5482C6.90285 20.1877 6.49805 19.8538 6.13971 19.4599C5.35002 18.5851 4.71297 17.6036 4.26172 16.5018Z" fill="#F1624C"/>
<path d="M22.3276 16.5073C22.1949 16.928 21.9692 17.3086 21.7569 17.6892C21.3322 18.4571 20.7947 19.1449 20.1775 19.7592C19.2684 20.6606 18.2133 21.355 17.0321 21.8558C16.8529 21.4084 16.6671 20.9677 16.4945 20.5204C16.3154 20.0663 16.0898 19.6323 15.957 19.1582C16.8463 18.5439 17.689 17.8695 18.4123 17.0616C18.8702 16.5541 19.2817 16.0065 19.6334 15.4189C19.7263 15.4457 19.8192 15.4724 19.9054 15.5057C20.715 15.8396 21.5246 16.1735 22.3276 16.5073Z" fill="#D34A43"/>
<path d="M15.9545 19.1661C16.0872 19.6402 16.3128 20.0743 16.492 20.5283C16.6646 20.9757 16.8504 21.4164 17.0295 21.8638C16.1669 22.2043 15.2776 22.4447 14.3619 22.5515C13.5257 22.645 12.6962 22.625 11.8667 22.4981C11.1434 22.3846 10.4466 22.2043 9.76313 21.9305C9.69013 21.9038 9.60387 21.8905 9.55078 21.8237C9.72332 21.5299 9.84939 21.2161 9.9423 20.8889C9.95557 20.8889 9.97548 20.8889 9.98875 20.8889C10.6258 20.8622 11.2629 20.8087 11.8933 20.7019C13.3333 20.4482 14.6738 19.934 15.9147 19.1661C15.928 19.1595 15.9412 19.1595 15.9545 19.1661Z" fill="#EF8015"/>
<path d="M22.3259 16.5083C21.5163 16.1745 20.7133 15.8406 19.9037 15.5067C19.8174 15.4734 19.7179 15.4466 19.6316 15.4199C19.6316 15.4066 19.625 15.3932 19.625 15.3732C19.7312 15.3131 19.7776 15.2063 19.8307 15.1061C20.2222 14.425 20.5408 13.7106 20.7797 12.9627C21.1579 11.8075 21.3769 10.6257 21.3437 9.40372L21.3504 9.39704C21.6755 9.27017 22.0007 9.13663 22.3259 9.00977C22.6444 9.73759 22.8368 10.4988 22.9629 11.28C23.0691 11.9277 23.0757 12.5821 23.0558 13.2365C23.0226 14.3716 22.7705 15.46 22.3259 16.5083Z" fill="#E9B32D"/>
<path d="M22.3301 9.00843C22.0049 9.1353 21.6798 9.26884 21.3546 9.3957C21.3679 8.64117 21.3214 7.89332 21.1621 7.15882C21.1489 7.08537 21.1621 7.01193 21.1621 6.93848C21.6598 7.55946 22.0447 8.26057 22.3301 9.00843Z" fill="#EF8015"/>
<path d="M9.93696 20.8808C9.83742 21.208 9.71797 21.5219 9.54544 21.8157C9.08755 21.6821 8.68939 21.4351 8.2846 21.1947C8.00589 21.0277 7.72054 20.8675 7.48828 20.6338C7.85326 20.6805 8.22488 20.7273 8.58986 20.7807C9.03447 20.8541 9.48571 20.8808 9.93696 20.8808Z" fill="#D34A43"/>
<path d="M13.2679 12.7083C12.883 12.6148 12.538 12.4279 12.1796 12.281C9.93003 11.3528 7.68707 10.418 5.44411 9.48321C5.05258 9.32295 4.68096 9.12931 4.26953 9.00912C5.16539 6.84569 6.65849 5.21643 8.6891 4.08798C8.97445 3.92772 9.27307 3.76747 9.59823 3.68066C9.60487 3.72073 9.61151 3.76079 9.62478 3.80085C10.5273 5.99767 11.4364 8.19449 12.3323 10.3913C12.6508 11.1592 12.9959 11.9204 13.2679 12.7083Z" fill="#F9A31B"/>
<path d="M13.2635 12.7074C12.9847 11.9194 12.6463 11.1649 12.3278 10.3904C11.4253 8.19354 10.5228 5.99672 9.6203 3.7999C9.60702 3.76651 9.60039 3.71977 9.59375 3.67971C10.1512 3.38591 10.7617 3.24569 11.3722 3.11214C12.0358 2.96524 12.7193 2.89847 13.3962 2.91183C14.5575 2.93186 15.6789 3.15221 16.7672 3.5662C16.8402 3.59291 16.9066 3.64632 16.9796 3.67971C16.9199 4.04696 16.7274 4.36747 16.5947 4.70801C15.9444 6.31055 15.2808 7.9131 14.6238 9.50896C14.1859 10.5706 13.7479 11.639 13.3099 12.7007C13.2966 12.7007 13.2767 12.7007 13.2635 12.7074Z" fill="#F1624C"/>
<path d="M13.2665 12.7012C13.2797 12.7012 13.293 12.7012 13.3129 12.7012C13.3328 12.7012 13.3461 12.7012 13.366 12.7012C13.366 12.7346 13.366 12.7613 13.366 12.7947C13.3328 12.828 13.3262 12.8547 13.3461 12.9015C13.4523 13.1485 13.5651 13.3956 13.6646 13.6427C14.1557 14.8245 14.6467 16.0131 15.1312 17.2016C15.3966 17.8493 15.6886 18.4904 15.9142 19.1581C14.6733 19.926 13.3328 20.4401 11.8928 20.6939C11.2624 20.8074 10.6253 20.8541 9.98828 20.8808C10.1011 20.4334 10.3134 20.0261 10.486 19.6055C11.05 18.2233 11.6207 16.8411 12.1914 15.4589C12.5431 14.6109 12.8882 13.7695 13.2399 12.9215C13.2532 12.8815 13.2598 12.8414 13.2731 12.808C13.2665 12.7679 13.2665 12.7346 13.2665 12.7012Z" fill="#F9A31B"/>
<path d="M13.3711 12.8022C13.3711 12.7688 13.3711 12.7421 13.3711 12.7087C14.0413 12.4817 14.685 12.1812 15.3353 11.9141C16.4369 11.4668 17.5252 10.9993 18.6202 10.5453C19.5293 10.1647 20.4384 9.79076 21.3475 9.41016C21.3807 10.6321 21.1617 11.8073 20.7835 12.9691C20.538 13.717 20.2261 14.4315 19.8345 15.1125C19.7814 15.206 19.735 15.3195 19.6288 15.3796C19.5956 15.3729 19.5625 15.3729 19.5359 15.3596C18.3481 14.8655 17.1602 14.3647 15.9724 13.8706C15.1031 13.51 14.2338 13.1561 13.3711 12.8022Z" fill="#FED23F"/>
<path d="M13.3689 12.8027C14.2382 13.1566 15.1009 13.5105 15.9702 13.8711C17.158 14.3652 18.3459 14.866 19.5337 15.3601C19.5603 15.3735 19.6001 15.3735 19.6266 15.3802C19.6266 15.3935 19.6333 15.4069 19.6333 15.4269C19.2882 16.0212 18.8701 16.562 18.4122 17.0695C17.6889 17.8775 16.8461 18.5585 15.9569 19.1662C15.9437 19.1662 15.9304 19.1662 15.9105 19.1595C15.6915 18.4918 15.3929 17.8574 15.1274 17.2031C14.6496 16.0145 14.1519 14.8326 13.6609 13.6441C13.5613 13.397 13.4485 13.15 13.3423 12.9029C13.3291 12.8628 13.3357 12.8294 13.3689 12.8027Z" fill="#F1624C"/>
</svg>
