<svg width="24" height="24" viewBox="0 0 24 24" fill="none" xmlns="http://www.w3.org/2000/svg">
<path d="M2.93479 23.4391C2.90324 23.4391 2.87619 23.4391 2.84464 23.4391C2.2497 23.1987 2.16406 22.7134 2.16406 22.1329C2.17758 18.7179 2.17308 15.3074 2.17308 11.8924C2.17308 11.7927 2.17758 11.6974 2.18209 11.5977C2.92127 11.5977 3.65593 11.5977 4.39511 11.6022C4.38609 11.6475 4.38609 11.6929 4.36806 11.7337C3.99848 12.7541 3.72354 13.8018 3.50269 14.863C3.40804 15.3074 3.33142 15.7519 3.27282 16.2009C3.34494 16.2054 3.37198 16.1601 3.40353 16.1329C4.07961 15.5251 4.80526 14.9764 5.55345 14.4594C5.72923 14.3369 5.81486 14.3551 5.90951 14.541C6.19797 15.1034 6.54051 15.6385 6.89658 16.1601C7.04532 16.3778 7.18504 16.609 7.38335 16.8131C7.40589 16.7632 7.42843 16.7406 7.43293 16.7134C7.50054 16.2145 7.5997 15.7201 7.71688 15.2303C8.00985 13.9832 8.40197 12.7632 8.93832 11.5977C9.35749 11.5977 9.77215 11.5977 10.1913 11.5977C10.1958 11.6974 10.2003 11.7927 10.2003 11.8924C10.2003 15.6294 10.2003 19.3619 10.2003 23.0989C10.2003 23.1987 10.2093 23.2939 10.2139 23.3937H10.1958C7.86111 23.3937 5.53091 23.3937 3.1962 23.3982C3.10606 23.3937 3.0069 23.3529 2.93479 23.4391Z" fill="#FEC63B"/>
<path d="M21.1907 23.4393C21.1592 23.4393 21.1321 23.4393 21.1006 23.4393C21.0285 23.3577 20.9293 23.394 20.8482 23.394C18.5315 23.3894 16.2148 23.3894 13.8936 23.3894H13.8711C13.8756 23.2987 13.8846 23.208 13.8846 23.1173C13.8846 20.8452 13.8846 18.5731 13.8846 16.3055C13.8846 14.7363 13.8891 13.1671 13.8891 11.5979C14.3083 11.5979 14.7275 11.5979 15.1466 11.5979C15.7416 12.895 16.1607 14.251 16.4582 15.6479C16.5393 16.0288 16.6024 16.4098 16.6745 16.7907C16.7647 16.7817 16.7872 16.7227 16.8188 16.6728C17.3101 16.0061 17.7563 15.3077 18.1529 14.5821C18.3016 14.3145 18.3016 14.3145 18.563 14.4869C19.2031 14.9222 19.8205 15.3848 20.4065 15.8928C20.5282 16.0016 20.6363 16.1377 20.8166 16.2102C20.6769 15.2352 20.4831 14.2918 20.2217 13.3667C20.0549 12.7726 19.8656 12.1875 19.6853 11.5934C20.4245 11.5934 21.1592 11.5889 21.8983 11.5889C21.8983 11.6025 21.9029 11.6206 21.9029 11.6342C21.9029 15.2578 21.9074 18.8815 21.9029 22.5051C21.9029 22.9541 21.6865 23.2307 21.2583 23.3804C21.2313 23.3985 21.1997 23.403 21.1907 23.4393Z" fill="#FEC63B"/>
<path d="M20.6081 4.99512C21.0769 5.04047 21.5456 5.00419 22.0144 5.01326C22.2442 5.01779 22.4786 5.0314 22.7085 5.00872C23.1276 4.97244 23.4116 5.13571 23.5783 5.5212C23.5783 6.8228 23.5783 8.11987 23.5783 9.42147C23.4206 9.82963 23.1231 9.9929 22.6995 9.96569C22.438 9.95209 22.1766 9.96569 21.9107 9.96569C20.9507 9.96569 19.9906 9.96569 19.0306 9.96569C18.981 9.86592 18.9315 9.76161 18.8864 9.66183C18.6475 9.15389 18.4131 8.63688 18.1247 8.15615C17.7686 7.42145 17.3314 6.73663 16.8672 6.06996C17.0565 5.97472 17.2638 5.94297 17.4621 5.88855C18.5078 5.58469 19.558 5.2899 20.6081 4.99512Z" fill="#FEC63B"/>
<path d="M0.503906 5.52574C0.670671 5.14024 0.954622 4.99512 1.37379 5.00872C1.99127 5.0314 2.61326 5.01779 3.23074 5.01326C3.31187 5.01326 3.393 4.99965 3.47412 4.99512C3.86625 5.11303 4.25837 5.22641 4.655 5.34433C5.286 5.53027 5.92602 5.66633 6.54801 5.88855C5.7232 7.12212 4.97501 8.39651 4.38006 9.76161C4.31246 9.92034 4.22231 9.98383 4.04203 9.9793C3.42004 9.96569 2.79805 9.97476 2.17606 9.97476C1.91465 9.97476 1.64872 9.95662 1.38731 9.97476C0.963637 10.002 0.661657 9.83871 0.508413 9.43054C0.503906 8.1244 0.503906 6.8228 0.503906 5.52574Z" fill="#FEC63B"/>
<path d="M2.9375 23.4401C3.00961 23.3585 3.10877 23.3948 3.1899 23.3948C5.52461 23.3902 7.85481 23.3902 10.1895 23.3902C10.1895 23.4038 10.194 23.422 10.194 23.4356C7.77368 23.4401 5.35785 23.4401 2.9375 23.4401Z" fill="#FED97E"/>
<path d="M13.8951 23.3902C16.2118 23.3902 18.5285 23.3902 20.8497 23.3948C20.9353 23.3948 21.03 23.3585 21.1021 23.4401C18.6998 23.4401 16.2929 23.4401 13.8906 23.4401C13.8906 23.422 13.8951 23.4084 13.8951 23.3902Z" fill="#FED97E"/>
<path d="M13.8963 23.3896C13.8963 23.4033 13.8918 23.4214 13.8918 23.435C12.6613 23.435 11.4264 23.435 10.1959 23.435C10.1959 23.4214 10.1914 23.4033 10.1914 23.3896H10.2094C11.4309 23.3896 12.6523 23.3896 13.8738 23.3896H13.8963Z" fill="#FE6844"/>
<path d="M13.8744 23.3888C12.6529 23.3888 11.4315 23.3888 10.21 23.3888C10.2055 23.289 10.1965 23.1938 10.1965 23.094C10.1965 19.357 10.1965 15.6246 10.1965 11.8876C10.1965 11.7878 10.192 11.6925 10.1875 11.5928H10.2055C11.418 11.5928 12.6259 11.5928 13.8383 11.5928C13.8518 11.5928 13.8653 11.5928 13.8789 11.5973L13.8879 11.5928C13.8879 13.162 13.8834 14.7311 13.8834 16.3003C13.8834 18.5724 13.8834 20.8446 13.8834 23.1122C13.8879 23.2119 13.8789 23.2981 13.8744 23.3888Z" fill="#FE4440"/>
<path d="M8.93503 11.6024C8.39868 12.7679 8.01106 13.9879 7.71359 15.2351C7.5964 15.7249 7.50175 16.2192 7.42964 16.7181C7.42513 16.7453 7.4071 16.7725 7.38006 16.8178C7.18175 16.6138 7.04202 16.3825 6.89329 16.1648C6.53722 15.6432 6.19468 15.1126 5.90622 14.5457C5.81157 14.3598 5.72593 14.3416 5.55015 14.4641C4.80197 14.9811 4.07631 15.5298 3.40024 16.1376C3.36869 16.1648 3.34165 16.2101 3.26953 16.2056C3.32812 15.7521 3.40475 15.3076 3.4994 14.8677C3.72475 13.8065 3.99969 12.7588 4.36477 11.7384C4.37829 11.6976 4.3828 11.6477 4.39181 11.6069C4.59464 11.099 4.79295 10.5819 5.00929 10.0831C5.29325 9.43001 5.59072 8.77694 5.9558 8.16016C6.02341 8.16923 6.09101 8.17376 6.15411 8.1919C6.91582 8.40052 7.67753 8.60914 8.43474 8.8223C8.99362 8.97649 9.55251 9.13976 10.1114 9.30303C9.98971 9.52979 9.86801 9.75201 9.75083 9.97877C9.43983 10.4912 9.17391 11.04 8.93503 11.6024Z" fill="#FE4440"/>
<path d="M5.95458 8.15139C5.5895 8.76817 5.29654 9.42124 5.00808 10.0743C4.78723 10.5777 4.59342 11.0902 4.3906 11.5981C3.65143 11.5981 2.91676 11.5936 2.17758 11.5936C2.17308 11.0494 2.16857 10.5052 2.16406 9.96547C2.78605 9.96547 3.40804 9.95639 4.03003 9.97C4.21031 9.97453 4.30046 9.91105 4.36806 9.75231C4.96301 8.39175 5.7112 7.11283 6.53601 5.88379C6.76137 5.911 6.97771 5.96542 7.18053 6.06973C6.9732 6.4008 6.76137 6.7228 6.56305 7.05841C6.35572 7.41669 6.12135 7.7659 5.95458 8.15139Z" fill="#EEAF25"/>
<path d="M8.9375 11.603C9.17187 11.0407 9.4423 10.4964 9.7533 9.96582C9.90203 9.96582 10.0463 9.96582 10.195 9.96582C10.1995 10.51 10.2085 11.0543 10.213 11.5985H10.195C9.77132 11.5985 9.35667 11.603 8.9375 11.603Z" fill="#EEAF25"/>
<path d="M18.1238 8.15527C18.4122 8.64054 18.6466 9.15302 18.8855 9.66096C18.935 9.76073 18.9801 9.86504 19.0297 9.96482C19.246 10.509 19.4669 11.0533 19.6832 11.602C19.8635 12.1916 20.0483 12.7812 20.2196 13.3753C20.481 14.3005 20.6748 15.2438 20.8145 16.2189C20.6387 16.1463 20.5306 16.0102 20.4044 15.9014C19.8184 15.3934 19.201 14.9309 18.5609 14.4955C18.2995 14.3186 18.2995 14.3186 18.1508 14.5907C17.7542 15.3163 17.308 16.0148 16.8167 16.6814C16.7806 16.7268 16.7626 16.7903 16.6724 16.7994C16.6003 16.4184 16.5372 16.0374 16.4561 15.6565C16.1631 14.2596 15.7395 12.9036 15.1445 11.6066C15.0138 11.3254 14.8831 11.0487 14.7569 10.7675C14.527 10.2596 14.216 9.79702 13.9727 9.29814C14.0358 9.27547 14.0944 9.24372 14.162 9.22558C15.0589 8.97615 15.9513 8.71764 16.8527 8.48181C17.2719 8.36389 17.682 8.2097 18.1238 8.15527Z" fill="#FE4440"/>
<path d="M19.6848 11.603C19.4684 11.0588 19.2476 10.5146 19.0312 9.96582C19.9913 9.96582 20.9513 9.96582 21.9113 9.96582C21.9068 10.51 21.9023 11.0543 21.8978 11.594C21.1586 11.5985 20.424 11.603 19.6848 11.603Z" fill="#EEAF25"/>
<path d="M13.9736 9.29368C14.2169 9.79256 14.5324 10.2551 14.7578 10.7631C14.884 11.0443 15.0147 11.3209 15.1454 11.6021C14.7263 11.6021 14.3071 11.6021 13.8879 11.6021L13.8789 11.6066C13.8789 11.5885 13.8834 11.5703 13.8834 11.5567C13.8834 11.0307 13.8789 10.5 13.8789 9.97396C13.8834 9.72906 13.8834 9.48416 13.8879 9.23926C13.9195 9.25286 13.9465 9.27101 13.9736 9.29368Z" fill="#EEAF25"/>
<path d="M13.9724 9.2942C13.9454 9.27606 13.9184 9.25791 13.8868 9.23977C13.5758 8.64566 13.1747 8.11504 12.769 7.58443C12.7195 7.5164 12.6564 7.52094 12.5887 7.52094C12.2237 7.52094 11.8541 7.52094 11.489 7.52094C11.4214 7.52094 11.3583 7.5164 11.3087 7.58443C10.9031 8.11504 10.5019 8.64566 10.1909 9.23977C10.1639 9.25791 10.1369 9.27606 10.1098 9.2942C9.55092 9.13547 8.99654 8.9722 8.43315 8.81347C7.67144 8.60031 6.90973 8.39169 6.15252 8.18307C6.08942 8.16493 6.02182 8.1604 5.95421 8.15133C6.12097 7.76583 6.35084 7.41663 6.56268 7.05834C6.76099 6.72274 6.97283 6.39621 7.18016 6.06967C7.49566 6.09688 7.78862 6.2148 8.0906 6.29643C8.66752 6.45063 9.24444 6.61389 9.82135 6.76809C9.88896 6.78623 9.99262 6.85426 9.9791 6.69099C9.93854 6.11049 9.97009 5.52998 9.96558 4.94948C9.96558 4.80435 9.916 4.71818 9.7898 4.64109C9.25796 4.32816 8.71259 4.05151 8.1492 3.80207C7.60383 3.55717 7.04945 3.32134 6.46352 3.19436C6.12548 3.12179 5.78744 3.05377 5.4449 3.07644C5.11137 3.09912 4.83193 3.23971 4.60206 3.49368C4.45783 3.65695 4.24149 3.65695 4.09726 3.5345C3.96204 3.42112 3.92148 3.18075 4.03416 3.04016C4.26402 2.75898 4.52995 2.52315 4.89953 2.42791C5.47194 2.28278 6.03985 2.33267 6.60775 2.46419C7.68947 2.71816 8.67654 3.20343 9.6591 3.70683C9.75375 3.75672 9.83037 3.85196 9.9746 3.84289C9.916 3.43019 9.9746 3.0447 10.1909 2.69095C10.565 2.36442 11.0158 2.35081 11.48 2.36895C11.8541 2.38256 12.2282 2.38256 12.6023 2.36895C13.062 2.35081 13.5082 2.37802 13.8823 2.69095C14.0446 2.98574 14.1572 3.2896 14.1122 3.63427C14.0851 3.84289 14.1663 3.84743 14.324 3.75672C14.9821 3.37577 15.6671 3.0583 16.3793 2.79526C17.2131 2.48687 18.0559 2.22836 18.9619 2.39163C19.3991 2.46873 19.7687 2.66374 20.012 3.05377C20.1157 3.22157 20.0932 3.39391 19.9444 3.52543C19.7957 3.65695 19.6289 3.64788 19.4712 3.52996C19.4216 3.49368 19.381 3.44833 19.3405 3.40298C19.1286 3.17622 18.8582 3.07644 18.5562 3.07191C18.0875 3.0583 17.6323 3.14901 17.1906 3.29413C16.1494 3.6252 15.1804 4.115 14.2294 4.64562C14.1212 4.70458 14.1167 4.79075 14.1167 4.89052C14.1167 5.47103 14.1257 6.05607 14.1077 6.63657C14.1032 6.78623 14.1212 6.80891 14.2519 6.77263C14.5629 6.68646 14.8739 6.60482 15.1804 6.51866C15.7438 6.36446 16.2936 6.17852 16.866 6.06514C17.3303 6.73181 17.763 7.41662 18.1235 8.15133C17.6863 8.20575 17.2717 8.36448 16.848 8.47333C15.9466 8.70916 15.0542 8.96766 14.1572 9.2171C14.0986 9.23977 14.0355 9.26699 13.9724 9.2942Z" fill="#E92F2F"/>
<path d="M16.8705 6.07037C16.2981 6.18375 15.7437 6.36969 15.1848 6.52389C14.8738 6.61006 14.5628 6.68716 14.2563 6.77786C14.1211 6.81414 14.1076 6.796 14.1121 6.6418C14.1301 6.0613 14.1211 5.48079 14.1211 4.89575C14.1211 4.79598 14.1256 4.70981 14.2338 4.65085C15.1848 4.12024 16.1538 3.63043 17.195 3.29936C17.6367 3.15877 18.0919 3.06807 18.5606 3.07714C18.8626 3.08621 19.1331 3.18145 19.3449 3.40821C19.3855 3.45356 19.426 3.49891 19.4756 3.53519C19.6333 3.65311 19.8001 3.66218 19.9488 3.53066C20.0976 3.39914 20.1201 3.2268 20.0165 3.059C19.7776 2.66897 19.4035 2.47396 18.9663 2.39686C18.0603 2.23359 17.2175 2.4921 16.3837 2.80049C15.6716 3.06353 14.9865 3.381 14.3284 3.76195C14.1752 3.85266 14.0895 3.84812 14.1166 3.6395C14.1617 3.29483 14.049 2.99097 13.8867 2.69618C14.6034 2.35151 15.3155 2.0023 16.0321 1.65763C16.8975 1.24039 17.7629 0.823148 18.6283 0.414981C19.5612 -0.0249332 20.5077 0.3016 20.9224 1.23585C21.1793 1.81182 21.4002 2.40593 21.5759 3.01365C21.8148 3.84812 21.4137 4.64178 20.6114 4.99099C19.5612 5.29032 18.5111 5.5851 17.4654 5.88443C17.2626 5.94338 17.0553 5.97513 16.8705 6.07037Z" fill="#FE4440"/>
<path d="M10.197 2.69539C9.98067 3.04913 9.92208 3.43463 9.98067 3.84733C9.83644 3.8564 9.75982 3.76116 9.66517 3.71127C8.68261 3.20787 7.69554 2.7226 6.61382 2.46863C6.04592 2.33711 5.48252 2.28722 4.90561 2.43235C4.53602 2.52305 4.2701 2.76342 4.04023 3.0446C3.92755 3.18519 3.96812 3.42556 4.10333 3.53894C4.24756 3.66139 4.4639 3.66138 4.60813 3.49812C4.838 3.23961 5.11744 3.10355 5.45097 3.08088C5.79802 3.05367 6.13606 3.12623 6.46959 3.1988C7.06003 3.32578 7.6099 3.56161 8.15527 3.80651C8.71866 4.05595 9.26403 4.33259 9.79588 4.64552C9.92208 4.72262 9.97166 4.80879 9.97166 4.95391C9.97616 5.53442 9.94461 6.11492 9.98518 6.69543C9.99419 6.8587 9.89503 6.79067 9.82743 6.77253C9.25051 6.61833 8.67359 6.45506 8.09668 6.30087C7.7947 6.21923 7.50173 6.10132 7.18623 6.07411C6.98341 5.97433 6.76706 5.91538 6.54171 5.88817C5.92422 5.66594 5.2797 5.52989 4.6487 5.34394C4.25658 5.23056 3.86445 5.11265 3.46782 4.99473C2.60695 4.61831 2.23737 3.75662 2.55287 2.84505C2.72865 2.34164 2.91344 1.83824 3.10725 1.33937C3.48134 0.391509 4.40531 -0.0438718 5.32477 0.373366C6.96538 1.11714 8.57444 1.91987 10.197 2.69539Z" fill="#FE4440"/>
<path d="M13.8822 9.97035C13.8822 10.4964 13.8867 11.0271 13.8867 11.5531C13.8732 11.5667 13.8596 11.5849 13.8461 11.5985C12.6337 11.5985 11.4258 11.5985 10.2133 11.5985C10.2088 11.0543 10.1998 10.51 10.1953 9.96582L10.2088 9.97035C11.4303 9.97035 12.6562 9.97035 13.8822 9.97035Z" fill="#E92F2F"/>
<path d="M13.8398 11.6026C13.8533 11.5891 13.8667 11.5711 13.8801 11.5576C13.8801 11.5756 13.8756 11.5936 13.8756 11.6071C13.8667 11.6026 13.8533 11.6026 13.8398 11.6026Z" fill="#FE6844"/>
<path d="M10.1151 9.28977C10.1421 9.27163 10.1692 9.25349 10.1962 9.23535C10.2007 9.48025 10.2007 9.72515 10.2052 9.97005L10.1917 9.96552C10.043 9.96552 9.89874 9.96552 9.75 9.96552C9.87169 9.74329 9.99339 9.51653 10.1151 9.28977Z" fill="#FEC63B"/>
<path d="M10.2043 9.96923C10.1998 9.72433 10.1998 9.47943 10.1953 9.23453C10.5063 8.64042 10.9074 8.1098 11.3131 7.57918C11.3627 7.51115 11.4258 7.51569 11.4934 7.51569C11.8585 7.51569 12.228 7.51569 12.5931 7.51569C12.6607 7.51569 12.7238 7.51115 12.7734 7.57918C13.1791 8.1098 13.5802 8.64042 13.8912 9.23453C13.8867 9.47943 13.8867 9.72433 13.8822 9.96923C12.6562 9.96923 11.4303 9.96923 10.2043 9.96923Z" fill="#FE4440"/>
</svg>
