<svg width="20" height="18" viewBox="0 0 20 18" fill="none" xmlns="http://www.w3.org/2000/svg">
<path d="M0 10.2921C0.0497738 9.99843 0.0895928 9.70476 0.149321 9.41607C0.696833 6.72331 2.93665 4.61291 5.66425 4.20476C5.6991 4.19978 5.73394 4.18983 5.8086 4.16992C5.73891 4.11517 5.68914 4.0853 5.64932 4.04549C5.26109 3.67218 4.85294 3.32377 4.5095 2.9206C4.17104 2.52241 3.98688 2.04458 4.09638 1.50205C4.21086 0.939603 4.53937 0.556345 5.07692 0.372182C5.61946 0.188019 6.1172 0.307476 6.55023 0.685757C6.58507 0.715621 6.61493 0.745485 6.64978 0.770372C6.65475 0.775349 6.65973 0.775349 6.67964 0.780327C6.90362 0.556345 7.16742 0.382137 7.48597 0.322408C8.06335 0.217883 8.55113 0.387114 8.92444 0.835078C9.29276 1.27806 9.35747 1.78576 9.16335 2.32331C9.00905 2.74639 8.7353 3.09481 8.41674 3.4034C8.14299 3.66721 7.8543 3.90612 7.55566 4.16992C7.72987 4.20476 7.89412 4.23463 8.06335 4.26947C10.7611 4.86675 12.7968 6.97716 13.2398 9.68485C13.5186 11.3772 13.19 12.96 12.2593 14.4134C12.2045 14.498 12.1597 14.5577 12.0403 14.5428C11.4579 14.4681 10.9154 14.2889 10.4077 13.9604C10.4425 13.9106 10.4674 13.8658 10.5023 13.826C12.7719 10.8944 11.1941 6.67852 7.56063 5.97173C4.8629 5.44911 2.19005 7.37037 1.82172 10.093C1.46335 12.7609 3.22036 15.1699 5.8733 15.6079C6.25656 15.6726 6.51041 15.822 6.76923 16.0957C7.14254 16.4889 7.58552 16.8174 7.99864 17.1758C8.03349 17.2057 8.0733 17.2355 8.10815 17.3152C7.72987 17.36 7.35656 17.4247 6.9733 17.4446C3.61358 17.6188 0.602263 15.1699 0.079638 11.8351C0.0497738 11.6459 0.0248869 11.4568 0 11.2627C0 10.9392 0 10.6156 0 10.2921Z" fill="#E93025"/>
<path d="M19.1113 11.2619C19.0466 11.6452 19.0117 12.0434 18.9022 12.4167C18.1158 15.1244 16.3538 16.8216 13.5764 17.3443C10.2316 17.9764 6.94158 15.8909 6.03072 12.6108C5.49814 10.7044 5.77189 8.89268 6.81714 7.20535C6.90176 7.06599 6.99135 7.02119 7.14565 7.04608C7.69814 7.13069 8.21579 7.3049 8.69859 7.61848C8.66873 7.66327 8.64882 7.69811 8.62393 7.72798C7.49904 9.21124 7.21036 10.8488 7.89723 12.5809C8.58909 14.333 9.92303 15.3682 11.7945 15.637C14.4574 16.0203 16.9113 14.1388 17.2895 11.466C17.6778 8.69857 15.6769 6.18001 12.8846 5.91621C12.8049 5.91124 12.7054 5.87639 12.6606 5.81667C12.1877 5.25422 11.6502 4.76644 11.0479 4.35332C11.028 4.33838 11.0131 4.32345 10.9583 4.27368C11.3266 4.2239 11.6552 4.16418 11.9837 4.13929C14.8257 3.92526 17.5434 5.61757 18.6135 8.25558C18.8624 8.8678 19.0266 9.5049 19.0814 10.1669C19.0864 10.2216 19.1013 10.2714 19.1113 10.3262C19.1113 10.6397 19.1113 10.9533 19.1113 11.2619Z" fill="#E93025"/>
</svg>
