<svg width="32" height="33" viewBox="0 0 32 33" fill="none" xmlns="http://www.w3.org/2000/svg">
<path d="M31.4323 14.1788C31.3119 14.3836 31.2276 14.6246 31.065 14.7873C30.7217 15.1427 30.2821 15.2331 29.8184 15.0644C29.3547 14.8957 29.0958 14.5403 29.0355 14.0523C29.0175 13.9318 29.0235 13.8113 29.0235 13.6908C29.0235 11.2208 29.0235 8.75075 29.0235 6.28072C29.0235 5.07583 28.3671 4.17818 27.247 3.85888C27.0001 3.78659 26.7351 3.76249 26.4761 3.76249C19.5025 3.75647 12.5229 3.75647 5.54928 3.75647C4.04375 3.75647 3.00795 4.78063 3.00795 6.28675C3.00193 10.8232 3.00193 15.3596 3.00795 19.902C3.00795 21.4082 4.04375 22.4323 5.54928 22.4323C12.5229 22.4323 19.4965 22.4323 26.4701 22.4323C27.9154 22.4323 28.9091 21.5106 29.0175 20.0888C29.0717 19.3659 29.4571 18.908 30.0774 18.8297C30.6615 18.7514 31.1433 19.0827 31.3962 19.7334C31.4022 19.7514 31.4203 19.7635 31.4323 19.7816C31.4323 20.0406 31.4323 20.3057 31.4323 20.5647C31.4143 20.6009 31.3842 20.631 31.3842 20.6672C31.1072 22.9324 29.0897 24.8602 26.428 24.8481C19.4845 24.818 12.5349 24.8421 5.59144 24.8361C5.22409 24.8361 4.8447 24.812 4.48337 24.7397C2.20099 24.2818 0.617169 22.348 0.599103 19.9984C0.587059 18.4321 0.599103 16.8657 0.599103 15.2994C0.599103 12.2871 0.587059 9.27488 0.605125 6.26265C0.617169 4.19023 1.58673 2.68411 3.44756 1.78044C3.8932 1.56959 4.39906 1.49127 4.87481 1.34668C12.3001 1.34668 19.7314 1.34668 27.1566 1.34668C27.1988 1.36475 27.247 1.39488 27.2891 1.4009C28.9813 1.672 30.2159 2.5817 30.9566 4.12396C31.1794 4.59387 31.2758 5.12402 31.4323 5.62405C31.4323 8.47363 31.4323 11.3292 31.4323 14.1788Z" fill="#454545"/>
<path d="M31.4329 29.9631C31.186 30.686 30.6741 30.9391 29.9274 30.933C24.929 30.915 19.9367 30.921 14.9383 30.927C14.5288 30.927 14.1554 30.8487 13.8724 30.5354C13.5472 30.18 13.4569 29.7583 13.6255 29.3064C13.8001 28.8425 14.1494 28.5835 14.6372 28.5232C14.7637 28.5052 14.8962 28.5112 15.0286 28.5112C19.9969 28.5112 24.9591 28.5172 29.9274 28.5052C30.6741 28.5052 31.186 28.7582 31.4329 29.4751C31.4329 29.6438 31.4329 29.8004 31.4329 29.9631Z" fill="#454545"/>
<path d="M11.8615 13.0944C11.8615 12.1305 11.8555 11.1666 11.8615 10.2026C11.8676 8.22661 13.7645 7.11811 15.4748 8.1001C17.1429 9.05799 18.8111 10.0219 20.4671 10.9979C22.1714 11.9979 22.1714 14.1848 20.4732 15.1849C18.8111 16.1608 17.1489 17.1248 15.4808 18.0826C13.7705 19.0646 11.8736 17.9561 11.8615 15.9861C11.8555 15.0222 11.8615 14.0583 11.8615 13.0944ZM14.2945 10.2026C14.2945 12.1485 14.2945 14.0583 14.2945 15.9922C15.9626 15.0222 17.5946 14.0764 19.2748 13.1004C17.5946 12.1184 15.9626 11.1666 14.2945 10.2026Z" fill="#454545"/>
<path d="M4.1351 28.517C4.89991 28.517 5.6587 28.5109 6.42351 28.523C6.59815 28.523 6.71257 28.4808 6.82096 28.3302C7.45931 27.4808 8.53125 27.1735 9.56103 27.535C10.4824 27.8543 11.1509 28.8182 11.1328 29.8122C11.1147 30.8846 10.4222 31.7822 9.36832 32.0955C8.39876 32.3847 7.32682 32.0051 6.75472 31.1497C6.63428 30.975 6.51384 30.9268 6.31511 30.9268C4.83367 30.9328 3.3462 30.9388 1.85874 30.9268C0.97951 30.9207 0.407409 30.1677 0.654316 29.3604C0.810891 28.8543 1.25051 28.529 1.81056 28.517C2.58742 28.5109 3.36427 28.517 4.1351 28.517Z" fill="#454545"/>
<path d="M31.4323 14.1788C31.3119 14.3836 31.2276 14.6246 31.065 14.7873C30.7217 15.1427 30.2821 15.2331 29.8184 15.0644C29.3547 14.8957 29.0958 14.5403 29.0355 14.0523C29.0175 13.9318 29.0235 13.8113 29.0235 13.6908C29.0235 11.2208 29.0235 8.75075 29.0235 6.28072C29.0235 5.07583 28.3671 4.17818 27.247 3.85888C27.0001 3.78659 26.7351 3.76249 26.4761 3.76249C19.5025 3.75647 12.5229 3.75647 5.54928 3.75647C4.04375 3.75647 3.00795 4.78063 3.00795 6.28675C3.00193 10.8232 3.00193 15.3596 3.00795 19.902C3.00795 21.4082 4.04375 22.4323 5.54928 22.4323C12.5229 22.4323 19.4965 22.4323 26.4701 22.4323C27.9154 22.4323 28.9091 21.5106 29.0175 20.0888C29.0717 19.3659 29.4571 18.908 30.0774 18.8297C30.6615 18.7514 31.1433 19.0827 31.3962 19.7334C31.4022 19.7514 31.4203 19.7635 31.4323 19.7816C31.4323 20.0406 31.4323 20.3057 31.4323 20.5647C31.4143 20.6009 31.3842 20.631 31.3842 20.6672C31.1072 22.9324 29.0897 24.8602 26.428 24.8481C19.4845 24.818 12.5349 24.8421 5.59144 24.8361C5.22409 24.8361 4.8447 24.812 4.48337 24.7397C2.20099 24.2818 0.617169 22.348 0.599103 19.9984C0.587059 18.4321 0.599103 16.8657 0.599103 15.2994C0.599103 12.2871 0.587059 9.27488 0.605125 6.26265C0.617169 4.19023 1.58673 2.68411 3.44756 1.78044C3.8932 1.56959 4.39906 1.49127 4.87481 1.34668C12.3001 1.34668 19.7314 1.34668 27.1566 1.34668C27.1988 1.36475 27.247 1.39488 27.2891 1.4009C28.9813 1.672 30.2159 2.5817 30.9566 4.12396C31.1794 4.59387 31.2758 5.12402 31.4323 5.62405C31.4323 8.47363 31.4323 11.3292 31.4323 14.1788Z" stroke="white" stroke-width="0.7"/>
<path d="M31.4329 29.9631C31.186 30.686 30.6741 30.9391 29.9274 30.933C24.929 30.915 19.9367 30.921 14.9383 30.927C14.5288 30.927 14.1554 30.8487 13.8724 30.5354C13.5472 30.18 13.4569 29.7583 13.6255 29.3064C13.8001 28.8425 14.1494 28.5835 14.6372 28.5232C14.7637 28.5052 14.8962 28.5112 15.0286 28.5112C19.9969 28.5112 24.9591 28.5172 29.9274 28.5052C30.6741 28.5052 31.186 28.7582 31.4329 29.4751C31.4329 29.6438 31.4329 29.8004 31.4329 29.9631Z" stroke="white" stroke-width="0.7"/>
<path d="M11.8615 13.0944C11.8615 12.1305 11.8555 11.1666 11.8615 10.2026C11.8676 8.22661 13.7645 7.11811 15.4748 8.1001C17.1429 9.05799 18.8111 10.0219 20.4671 10.9979C22.1714 11.9979 22.1714 14.1848 20.4732 15.1849C18.8111 16.1608 17.1489 17.1248 15.4808 18.0826C13.7705 19.0646 11.8736 17.9561 11.8615 15.9861C11.8555 15.0222 11.8615 14.0583 11.8615 13.0944ZM14.2945 10.2026C14.2945 12.1485 14.2945 14.0583 14.2945 15.9922C15.9626 15.0222 17.5946 14.0764 19.2748 13.1004C17.5946 12.1184 15.9626 11.1666 14.2945 10.2026Z" stroke="white" stroke-width="0.7"/>
<path d="M4.1351 28.517C4.89991 28.517 5.6587 28.5109 6.42351 28.523C6.59815 28.523 6.71257 28.4808 6.82096 28.3302C7.45931 27.4808 8.53125 27.1735 9.56103 27.535C10.4824 27.8543 11.1509 28.8182 11.1328 29.8122C11.1147 30.8846 10.4222 31.7822 9.36832 32.0955C8.39876 32.3847 7.32682 32.0051 6.75472 31.1497C6.63428 30.975 6.51384 30.9268 6.31511 30.9268C4.83367 30.9328 3.3462 30.9388 1.85874 30.9268C0.97951 30.9207 0.407409 30.1677 0.654316 29.3604C0.810891 28.8543 1.25051 28.529 1.81056 28.517C2.58742 28.5109 3.36427 28.517 4.1351 28.517Z" stroke="white" stroke-width="0.7"/>
</svg>
