<svg width="24" height="30" viewBox="0 0 24 30" fill="none" xmlns="http://www.w3.org/2000/svg">
<path d="M18.4788 0.96875C18.9505 1.0812 19.4364 1.15147 19.8866 1.30609C22.5162 2.22673 24.1026 4.63728 23.9025 7.38517C23.6524 10.7445 20.351 13.2675 16.9711 12.6842C14.4629 12.2555 12.6193 10.5196 12.0548 8.07389C11.3688 5.09409 13.3339 1.93859 16.3423 1.18661C16.671 1.10228 17.0068 1.03903 17.3427 0.96875C17.7143 0.96875 18.093 0.96875 18.4788 0.96875Z" fill="white"/>
<path d="M7.44717 29.7127C6.99699 29.2699 6.5611 28.8342 6.09662 28.3844C6.58253 27.9065 7.07559 27.4216 7.5758 26.9297C7.81875 26.6907 8.06885 26.4588 8.29037 26.2058C8.65481 25.7841 8.60479 25.1797 8.21177 24.8073C7.8259 24.4418 7.22565 24.4137 6.8112 24.7721C6.48249 25.0532 6.18952 25.3835 5.86081 25.6647C4.39593 26.9508 2.03782 26.4729 1.20177 24.7229C0.694421 23.6547 0.887356 22.3686 1.69483 21.4971C1.93778 21.2371 2.20932 20.9982 2.45228 20.7311C2.51659 20.6608 2.55947 20.5133 2.53803 20.4219C2.36653 19.698 2.5023 19.0444 2.96677 18.4611C5.39634 15.397 7.8259 12.3328 10.2626 9.26871C10.2769 9.24763 10.3055 9.23357 10.3412 9.19141C11.2416 11.7285 12.9709 13.4362 15.5719 14.3217C15.3218 14.5185 15.0931 14.6942 14.8573 14.8699C12.0062 17.0626 9.14787 19.2412 6.30385 21.4409C5.63929 21.968 4.93186 22.1929 4.09581 21.9821C4.02435 21.961 3.91002 22.0032 3.85285 22.0523C3.60989 22.2772 3.37408 22.5092 3.14542 22.7481C2.74526 23.1768 2.74526 23.7953 3.14542 24.1958C3.53844 24.5894 4.17441 24.6105 4.61745 24.2239C4.91757 23.9639 5.18196 23.6617 5.47494 23.4017C6.33243 22.6497 7.33284 22.4319 8.419 22.7832C9.50515 23.1346 10.1769 23.9007 10.3912 24.99C10.5842 25.9528 10.3484 26.8383 9.64807 27.5551C8.92635 28.2931 8.16889 29.0099 7.44717 29.7127Z" fill="white"/>
</svg>
