<svg width="22" height="19" viewBox="0 0 22 19" fill="none" xmlns="http://www.w3.org/2000/svg">
<path d="M0.571545 13.0342C0.669172 12.7088 0.725693 12.3624 0.864426 12.058C1.38853 10.9454 2.27231 10.3104 3.47467 10.2422C4.33276 10.195 5.20113 10.2107 6.05923 10.2737C6.40863 10.2999 6.57819 10.2369 6.77859 9.93781C7.34893 9.09287 8.17106 8.64153 9.1833 8.62579C10.4833 8.6048 11.7884 8.5943 13.0884 8.63629C14.1469 8.66777 14.9639 9.20308 15.5239 10.1162C15.637 10.2999 15.7346 10.3524 15.9299 10.2894C16.0378 10.2527 16.1611 10.2422 16.2741 10.2422C17.163 10.2474 18.0571 10.195 18.9409 10.2737C20.3847 10.4049 21.5614 11.7169 21.6025 13.1969C21.6334 14.3829 21.6282 15.5742 21.6077 16.7655C21.5871 17.8256 20.8215 18.5761 19.7836 18.6286C19.727 18.6286 19.6757 18.6286 19.6191 18.6286C13.9311 18.6286 8.24813 18.6286 2.56006 18.6286C1.89208 18.6286 1.34229 18.4029 0.931224 17.8571C0.725693 17.5842 0.633204 17.2641 0.566406 16.9387C0.571545 15.6372 0.571545 14.3357 0.571545 13.0342ZM14.7532 17.3586C14.7583 17.2851 14.7583 17.2379 14.7583 17.1906C14.7583 15.4063 14.7635 13.6219 14.7583 11.8429C14.7532 10.6778 13.9722 9.88533 12.8315 9.88008C11.6754 9.87483 10.5193 9.87483 9.358 9.88008C9.16789 9.88008 8.97263 9.89582 8.79279 9.9483C7.92956 10.2055 7.43115 10.8982 7.43115 11.8586C7.42601 13.6272 7.43115 15.3958 7.43115 17.1644C7.43115 17.2274 7.43629 17.2851 7.44142 17.3533C9.88211 17.3586 12.3074 17.3586 14.7532 17.3586ZM6.19282 17.3586C6.19282 17.2589 6.19282 17.1801 6.19282 17.0962C6.19282 15.3905 6.19282 13.6849 6.19282 11.9793C6.19282 11.5017 6.19282 11.4965 5.70982 11.4912C5.03671 11.486 4.36873 11.486 3.69562 11.4912C3.53119 11.4912 3.36677 11.5122 3.20748 11.5542C2.3237 11.8009 1.80473 12.5041 1.79959 13.454C1.79445 14.5089 1.79959 15.5637 1.79959 16.6186C1.79959 17.1382 2.02568 17.3691 2.53951 17.3691C3.6802 17.3691 4.82604 17.3691 5.96674 17.3691C6.04381 17.3691 6.11061 17.3638 6.19282 17.3586ZM15.9967 17.3376C16.0378 17.3533 16.0532 17.3638 16.0737 17.3638C17.3172 17.3638 18.5658 17.3691 19.8093 17.3586C20.1381 17.3586 20.3796 17.0857 20.3848 16.7393C20.3899 15.6057 20.4053 14.4721 20.3796 13.3438C20.3591 12.3467 19.6911 11.6119 18.7148 11.5175C18.1702 11.465 17.6204 11.4912 17.0757 11.486C16.7777 11.486 16.4745 11.507 16.1765 11.5175C16.0429 11.5227 15.9967 11.5805 15.9967 11.7274C16.0018 13.517 16.0018 15.3066 16.0018 17.0962C15.9967 17.1801 15.9967 17.2589 15.9967 17.3376Z" fill="white"/>
<path d="M14.7545 4.55243C14.7493 6.60442 13.0948 8.29429 11.0857 8.2838C9.07152 8.2733 7.42727 6.58867 7.43755 4.53668C7.44269 2.47419 9.09208 0.805311 11.1063 0.810559C13.1256 0.815807 14.7596 2.49519 14.7545 4.55243ZM11.1011 2.07009C9.76005 2.07009 8.67074 3.17743 8.67074 4.54718C8.67074 5.91167 9.77033 7.02951 11.1011 7.02426C12.4268 7.01901 13.5161 5.90643 13.5213 4.55243C13.5264 3.18268 12.4422 2.07009 11.1011 2.07009Z" fill="white"/>
<path d="M1.94241 7.04996C1.98865 5.4808 3.23211 4.24226 4.72221 4.28424C6.24314 4.32622 7.45577 5.59625 7.42494 7.10769C7.38897 8.66636 6.13524 9.9154 4.64514 9.87342C3.12935 9.83668 1.9013 8.55615 1.94241 7.04996ZM3.18587 7.14968C3.22698 8.02085 3.95147 8.65587 4.75304 8.60864C5.65224 8.55615 6.22259 7.80568 6.18148 7.02897C6.1301 6.08432 5.41588 5.4808 4.49099 5.55952C3.74594 5.62774 3.12421 6.38871 3.18587 7.14968Z" fill="white"/>
<path d="M17.5017 4.28516C19.0072 4.28516 20.2301 5.5237 20.2404 7.06663C20.2558 8.59906 19.0072 9.87434 17.5017 9.87959C15.9962 9.87959 14.7476 8.60431 14.7579 7.07188C14.7733 5.5342 16.0013 4.28516 17.5017 4.28516ZM17.4966 5.54469C16.6693 5.54994 15.9859 6.25318 15.9962 7.08762C16.0065 7.92731 16.695 8.6253 17.512 8.62006C18.3341 8.60956 19.0175 7.90632 19.0072 7.07713C18.997 6.22694 18.3187 5.53944 17.4966 5.54469Z" fill="white"/>
</svg>
