<svg width="34" height="33" viewBox="0 0 34 33" fill="none" xmlns="http://www.w3.org/2000/svg">
<path d="M33.3971 25.7607C33.3625 25.9093 33.3191 26.0491 33.2845 26.1977C32.7385 28.5927 30.4681 30.1748 28.0764 29.8164C25.6673 29.4493 23.9515 27.3166 24.1075 24.8604C24.2548 22.5266 26.2479 20.5774 28.579 20.5337C29.5235 20.5162 30.4594 20.5337 31.4213 20.5337C31.4213 18.2261 31.4213 15.9448 31.4213 13.6372C27.5478 14.2578 23.6915 14.8697 19.8093 15.4903C19.8093 15.6301 19.8093 15.7612 19.8093 15.8923C19.8093 19.7033 19.8093 23.5143 19.8093 27.3253C19.8093 29.6416 18.2408 31.5296 15.9964 31.9579C13.5267 32.4299 11.1089 30.7867 10.5976 28.2868C10.095 25.8306 11.6635 23.3657 14.1073 22.8325C14.6879 22.7014 15.3118 22.7189 15.9097 22.7014C16.5423 22.6839 17.1836 22.6927 17.8595 22.6927C17.8595 22.5353 17.8595 22.413 17.8595 22.2819C17.8595 18.3835 17.8942 14.4851 17.8422 10.5867C17.8248 9.17068 18.5701 7.87704 20.3639 7.61482C23.6482 7.13407 26.9238 6.5834 30.2081 6.05896C31.7853 5.80547 32.9638 6.5834 33.3451 8.12178C33.3538 8.148 33.3798 8.17423 33.3971 8.20045C33.3971 14.048 33.3971 19.9044 33.3971 25.7607ZM19.818 13.4537C19.9653 13.4449 20.0693 13.4362 20.1733 13.4187C23.8388 12.8331 27.5044 12.2474 31.17 11.6705C31.3867 11.6356 31.456 11.5744 31.456 11.3471C31.4473 10.4643 31.456 9.58149 31.4473 8.68993C31.4473 8.148 31.1527 7.89452 30.6154 7.97319C28.0677 8.37527 25.5287 8.77734 22.9809 9.17942C22.123 9.31927 21.2738 9.45039 20.4159 9.59024C20.0259 9.66016 19.818 9.8612 19.8093 10.2021C19.8093 11.2772 19.818 12.3523 19.818 13.4537ZM17.8162 24.6506C16.9063 24.6506 15.979 24.6331 15.0518 24.6594C13.674 24.6943 12.5301 25.8481 12.4781 27.2029C12.4261 28.6452 13.4573 29.8864 14.8178 30.0262C16.291 30.1748 17.6255 29.257 17.7902 27.8323C17.9115 26.8008 17.8162 25.7432 17.8162 24.6506ZM31.3953 22.4829C30.4854 22.4829 29.5755 22.4654 28.6743 22.4829C27.2791 22.5091 26.1179 23.6542 26.0573 25.0265C25.9966 26.4425 27.0192 27.7012 28.3623 27.8585C29.8442 28.0333 31.2047 27.1155 31.3693 25.6733C31.4993 24.6331 31.3953 23.5668 31.3953 22.4829Z" fill="white"/>
<path d="M6.75593 15.0791C6.75593 14.9217 6.75593 14.7906 6.75593 14.6595C6.75593 11.1632 6.75593 7.66688 6.75593 4.17056C6.75593 2.63219 7.49251 1.73188 8.99168 1.4784C10.2222 1.26862 11.4441 1.0501 12.6833 0.910248C14.1131 0.744173 15.309 1.76684 15.3436 3.21782C15.3956 5.07086 15.3696 6.93265 15.3523 8.7857C15.3523 9.36259 14.919 9.76467 14.3818 9.76467C13.8271 9.76467 13.4199 9.33637 13.4112 8.71578C13.4025 7.05503 13.4112 5.39427 13.4112 3.73352C13.4112 3.62863 13.4112 3.515 13.4112 3.41011C13.3939 2.98182 13.2119 2.81574 12.7873 2.87693C11.8687 3.00804 10.9501 3.16537 10.0316 3.30522C9.72827 3.34893 9.43363 3.40137 9.139 3.45382C8.86169 3.50626 8.73171 3.68108 8.72304 3.95204C8.71438 4.04819 8.72304 4.14434 8.72304 4.24923C8.72304 9.28392 8.73171 14.3186 8.72304 19.3533C8.72304 21.4773 7.3192 23.1905 5.26542 23.6276C2.97768 24.117 0.603273 22.5 0.213316 20.1749C-0.202638 17.7363 1.42652 15.42 3.80959 15.1403C4.64149 15.0441 5.49073 15.0878 6.33997 15.0703C6.45263 15.0703 6.59128 15.0791 6.75593 15.0791ZM6.72993 17.0545C5.89802 17.0545 5.06611 17.0195 4.23421 17.0632C3.01234 17.1332 2.07644 18.1733 2.06778 19.3795C2.05911 20.6207 2.99501 21.6347 4.2602 21.7483C5.42141 21.8532 6.58261 20.9878 6.7126 19.7904C6.80792 18.8901 6.72993 17.981 6.72993 17.0545Z" fill="white"/>
</svg>
