<svg width="26" height="27" viewBox="0 0 26 27" fill="none" xmlns="http://www.w3.org/2000/svg">
<path d="M21.1683 26.0421C20.4563 25.5878 19.751 25.1268 19.039 24.6725C16.1773 22.8622 13.3156 21.0519 10.4539 19.2416C10.3996 19.2077 10.3454 19.167 10.3047 19.1399C13.9395 15.5057 17.5675 11.8851 21.209 8.24414C21.209 8.33906 21.209 8.43399 21.209 8.52891C21.209 14.2717 21.209 20.0213 21.209 25.7641C21.209 25.859 21.2158 25.9472 21.2226 26.0421C21.2023 26.0421 21.1887 26.0421 21.1683 26.0421Z" fill="white"/>
<path d="M21.2119 0.228891C21.2119 1.14422 21.2119 2.0053 21.2119 2.93418C21.3204 2.83248 21.3815 2.77824 21.4425 2.71044C22.2427 1.91038 23.0429 1.10353 23.8499 0.303473C24.3788 -0.2186 25.1926 -0.0423157 25.4096 0.642482C25.5045 0.94759 25.457 1.23236 25.2672 1.48322C25.2061 1.56459 25.1315 1.63239 25.0569 1.70697C17.55 9.21941 10.0363 16.7251 2.52943 24.2375C2.25139 24.5155 1.95301 24.685 1.55292 24.5969C0.901912 24.4613 0.62388 23.6883 1.0172 23.1527C1.07823 23.0713 1.15282 22.9967 1.22064 22.9289C2.64471 21.5051 4.07557 20.0745 5.49964 18.6506C5.56745 18.5828 5.64883 18.5354 5.71664 18.4811C5.70308 18.454 5.6963 18.4269 5.68274 18.3998C5.59458 18.3998 5.5132 18.3998 5.42505 18.3998C4.03488 18.3998 2.64471 18.3998 1.25454 18.3998C0.440785 18.3998 0 17.9591 0 17.1387C0 14.4605 0 11.7823 0 9.10415C0 8.2973 0.434003 7.86337 1.24098 7.86337C3.71616 7.86337 6.19133 7.86337 8.66651 7.86337C8.96489 7.86337 9.22258 7.79557 9.48027 7.63284C13.2981 5.21232 17.1228 2.79858 20.9475 0.384834C21.0153 0.344153 21.0899 0.303473 21.2119 0.228891Z" fill="white"/>
</svg>
