<svg width="25" height="25" viewBox="0 0 25 25" fill="none" xmlns="http://www.w3.org/2000/svg">
<path d="M0.238281 9.58204C0.382215 9.12811 0.617306 8.7273 1.09229 8.59209C1.46651 8.49068 1.85993 8.46653 2.24855 8.4279C4.25883 8.23957 6.2691 8.06089 8.27937 7.88222C8.4425 7.86773 8.52406 7.80496 8.59123 7.65043C9.46922 5.55945 10.3616 3.47814 11.2444 1.38717C11.4219 0.962213 11.6954 0.648325 12.1416 0.522771C12.7989 0.334438 13.4322 0.653154 13.7201 1.31956C14.3198 2.72481 14.9147 4.13489 15.5144 5.54497C15.8167 6.25484 16.119 6.95988 16.4116 7.66974C16.4692 7.80496 16.5412 7.86773 16.6851 7.88222C18.1628 8.0126 19.6405 8.14782 21.1183 8.2782C21.9291 8.35064 22.7399 8.4279 23.5507 8.50517C24.1169 8.55829 24.5103 8.86251 24.6878 9.39854C24.8701 9.95871 24.7118 10.4464 24.2752 10.8328C22.5816 12.3346 20.8832 13.8316 19.1799 15.3238C19.0264 15.459 18.9688 15.5749 19.0168 15.7874C19.5254 17.9991 20.0244 20.2107 20.5233 22.4273C20.6529 23.0068 20.5185 23.5042 20.034 23.8615C19.5494 24.214 19.0408 24.1995 18.5322 23.8905C16.5939 22.7267 14.6604 21.5629 12.7269 20.3894C12.5638 20.288 12.4439 20.288 12.2807 20.3894C10.3568 21.5581 8.42331 22.717 6.4946 23.876C5.8421 24.2671 5.13682 24.1657 4.70982 23.62C4.44114 23.2724 4.37397 22.8812 4.46993 22.4611C4.9689 20.2494 5.46787 18.0329 5.97643 15.8212C6.02921 15.5942 5.98603 15.4638 5.81331 15.3141C4.11969 13.8364 2.44047 12.3394 0.751644 10.8569C0.50216 10.6396 0.358226 10.3643 0.247877 10.0601C0.238281 9.90076 0.238281 9.7414 0.238281 9.58204Z" fill="white"/>
</svg>
