<svg width="33" height="34" viewBox="0 0 33 34" fill="none" xmlns="http://www.w3.org/2000/svg">
<path d="M16.7633 1.28714C25.3906 1.30501 32.4818 8.40513 32.4461 17.0235C32.4193 25.7848 25.3459 32.7688 16.5489 32.7331C8.0109 32.6974 0.973283 25.5794 1.00008 17.0057C1.02687 8.30689 8.07341 1.26928 16.7633 1.28714ZM26.766 24.981C30.8742 19.9886 30.6599 11.915 24.9708 7.14587C19.6033 2.64465 12.4407 3.7253 8.77003 6.98511C14.7627 12.9778 20.7554 18.9794 26.766 24.981ZM6.68018 9.0571C2.94703 13.4154 2.50048 21.2747 7.91266 26.3743C13.2802 31.4203 20.8001 30.4468 24.6672 27.053C18.6745 21.0514 12.6729 15.0587 6.68018 9.0571Z" fill="white" stroke="#0B2839"/>
</svg>
