<svg width="24" height="27" viewBox="0 0 24 27" fill="none" xmlns="http://www.w3.org/2000/svg">
<path d="M19.8342 8.13193C22.0424 8.13193 23.8325 6.33482 23.8325 4.11797C23.8325 1.90112 22.0424 0.104004 19.8342 0.104004C17.626 0.104004 15.8359 1.90112 15.8359 4.11797C15.8359 6.33482 17.626 8.13193 19.8342 8.13193Z" fill="#475165"/>
<path d="M22.9884 9.92708C22.9482 9.52366 22.6066 9.2211 22.2048 9.2211C21.7628 9.2211 21.4011 9.58418 21.4011 10.0279V10.5524V18.1971C21.4011 21.6866 18.5882 24.5105 15.1123 24.5105H8.62268C5.14679 24.5105 2.33391 21.6866 2.33391 18.1971V9.07991C2.33391 5.59038 5.14679 2.76649 8.62268 2.76649L13.1434 2.80683H13.1634H13.8667C14.3087 2.80683 14.6904 2.44376 14.6904 1.97983C14.6904 1.55625 14.369 1.21334 13.9671 1.173C13.9671 1.173 13.9671 1.173 13.9671 1.15283H13.8667H13.1634H8.62268C4.26274 1.15283 0.726562 4.70287 0.726562 9.07991V18.1769C0.726562 22.5539 4.26274 26.104 8.62268 26.104H15.1123C19.4723 26.104 23.0085 22.5539 23.0085 18.1769V11.7021V10.0279L22.9884 9.92708C23.0085 9.92708 22.9884 9.92708 22.9884 9.92708Z" fill="#475165"/>
</svg>
