<svg width="15" height="25" viewBox="0 0 15 25" fill="none" xmlns="http://www.w3.org/2000/svg">
<path d="M1.43972 24.681C0.904968 24.5438 0.438772 24.297 0.21253 23.7691C0.0959815 23.4949 0.0137116 23.1864 0.0137116 22.8916C0 15.8575 0 8.81658 0 1.78251C0 0.699293 0.713005 0 1.80994 0C5.37496 0 8.93999 0 12.5119 0C13.6499 0 14.3492 0.692438 14.3492 1.8305C14.3492 5.05274 14.3492 8.27497 14.3492 11.4972C14.3492 15.2816 14.3492 19.066 14.3492 22.8504C14.3492 23.5977 14.0681 24.1736 13.3826 24.5164C13.2317 24.5918 13.0672 24.6261 12.9095 24.681C9.08396 24.681 5.25841 24.681 1.43972 24.681ZM13.17 21.589C13.17 15.2611 13.17 8.96056 13.17 2.66006C9.16623 2.66006 5.17614 2.66006 1.1792 2.66006C1.1792 8.97427 1.1792 15.2816 1.1792 21.589C5.183 21.589 9.16623 21.589 13.17 21.589ZM8.00074 23.0218C8.00074 22.5625 7.64424 22.1923 7.1849 22.1854C6.73241 22.1786 6.35534 22.5488 6.34849 23.0013C6.34163 23.4743 6.71185 23.8514 7.17119 23.8514C7.62367 23.8445 8.00074 23.4743 8.00074 23.0218ZM7.15062 1.59741C7.7128 1.59741 8.27497 1.59741 8.8303 1.59741C8.97427 1.59741 9.1251 1.58369 9.1251 1.39859C9.1251 1.21348 8.98112 1.19977 8.8303 1.19977C7.72651 1.19977 6.61587 1.19977 5.51208 1.19977C5.36125 1.19977 5.21728 1.22034 5.21728 1.39859C5.21728 1.58369 5.36125 1.59741 5.51208 1.59741C6.06054 1.59741 6.60215 1.59741 7.15062 1.59741Z" fill="white"/>
</svg>
