<svg width="14" height="24" viewBox="0 0 14 24" fill="none" xmlns="http://www.w3.org/2000/svg">
<path d="M7.38541 0.683594C7.78414 0.799231 8.20473 0.859802 8.57069 1.03601C10.1001 1.75737 10.8921 3.00184 10.9085 4.69785C10.9358 7.25287 10.9249 9.8079 10.914 12.3574C10.903 14.2792 9.70682 15.788 7.86061 16.2505C5.59382 16.8122 3.2451 15.0831 3.09762 12.7319C3.07031 12.3134 3.07031 11.8949 3.07031 11.4764C3.07031 9.23522 3.07031 6.99957 3.07031 4.75842C3.07031 3.82782 3.31611 2.97981 3.88417 2.23643C4.53963 1.39393 5.38626 0.892841 6.43499 0.727646C6.48961 0.716633 6.54424 0.700113 6.59886 0.683594C6.86104 0.683594 7.12322 0.683594 7.38541 0.683594ZM9.27531 8.52488C9.27531 7.20331 9.29169 5.88175 9.26985 4.56018C9.248 3.32672 8.21019 2.33004 6.99213 2.33004C5.77407 2.33004 4.7308 3.33223 4.71988 4.56569C4.70349 7.19781 4.70896 9.83543 4.71988 12.4675C4.72534 13.4092 5.34256 14.2406 6.21651 14.5655C7.66398 15.0997 9.23707 14.0424 9.26438 12.4841C9.29169 11.1625 9.27531 9.84094 9.27531 8.52488Z" fill="white"/>
<path d="M6.16457 21.5963C6.16457 20.8915 6.16457 20.2087 6.16457 19.5479C5.68936 19.4267 5.21961 19.3386 4.76626 19.1845C2.81627 18.5072 1.42889 17.2021 0.582254 15.3134C0.232677 14.5314 0.0524261 13.7 0.0141911 12.8409C-0.00219537 12.505 -0.00219537 12.1636 0.00326678 11.8277C0.0141911 11.3707 0.374693 11.0293 0.822588 11.0293C1.25956 11.0348 1.59821 11.3652 1.62552 11.8222C1.65283 12.3288 1.63099 12.8409 1.71292 13.3365C1.99695 15.1206 2.9419 16.4697 4.52592 17.2902C6.81456 18.4741 9.36538 17.962 11.0641 16.0127C11.9544 14.9885 12.3532 13.766 12.3586 12.4114C12.3586 12.2077 12.3532 11.9984 12.3641 11.7947C12.3859 11.3652 12.7301 11.0403 13.1506 11.0348C13.5822 11.0238 13.9536 11.3432 13.9809 11.7727C14.2212 15.3354 12.1729 18.2428 9.04858 19.245C8.6553 19.3717 8.24564 19.4378 7.82506 19.5369C7.82506 20.2032 7.82506 20.8805 7.82506 21.5853C7.89606 21.5908 7.96161 21.5963 8.03262 21.5963C8.38766 21.5963 8.74816 21.5908 9.1032 21.5963C9.60572 21.6073 9.96622 21.9652 9.95529 22.4278C9.94437 22.8903 9.58387 23.2317 9.09227 23.2317C8.46413 23.2373 7.84144 23.2317 7.2133 23.2317C6.42675 23.2317 5.6402 23.2373 4.85365 23.2317C4.49861 23.2317 4.23643 23.061 4.09441 22.7362C3.95786 22.4278 4.01248 22.1304 4.2255 21.8716C4.37844 21.6899 4.58054 21.5963 4.82088 21.5908C5.18684 21.5853 5.54734 21.5853 5.91331 21.5853C5.99524 21.5963 6.07717 21.5963 6.16457 21.5963Z" fill="white"/>
</svg>
