<svg width="13" height="11" viewBox="0 0 13 11" fill="none" xmlns="http://www.w3.org/2000/svg">
<path d="M6.45399 8.08084C7.43607 8.08084 8.2322 7.2847 8.2322 6.30263C8.2322 5.32055 7.43607 4.52441 6.45399 4.52441C5.47191 4.52441 4.67578 5.32055 4.67578 6.30263C4.67578 7.2847 5.47191 8.08084 6.45399 8.08084Z" fill="#C6C6C6"/>
<path d="M4.78828 0.746094L3.77136 1.85748H2.00982C1.39856 1.85748 0.898438 2.3576 0.898438 2.96886V9.63715C0.898438 10.2484 1.39856 10.7485 2.00982 10.7485H10.9009C11.5121 10.7485 12.0123 10.2484 12.0123 9.63715V2.96886C12.0123 2.3576 11.5121 1.85748 10.9009 1.85748H9.13934L8.12242 0.746094H4.78828ZM6.45535 9.08146C4.92164 9.08146 3.67689 7.83671 3.67689 6.303C3.67689 4.7693 4.92164 3.52455 6.45535 3.52455C7.98906 3.52455 9.2338 4.7693 9.2338 6.303C9.2338 7.83671 7.98906 9.08146 6.45535 9.08146Z" fill="#C6C6C6"/>
</svg>
