<svg width="26" height="26" viewBox="0 0 26 26" fill="none" xmlns="http://www.w3.org/2000/svg">
<path d="M4.21288 18.6259C4.21288 20.8587 4.21288 22.904 4.21288 25.0336C3.0607 25.0336 2.01156 25.0336 0.859375 25.0336C0.859375 18.7854 0.859375 12.4995 0.859375 6.13867C1.93662 6.13867 3.01386 6.13867 4.08174 6.13867C4.08174 8.23082 4.24099 10.3042 4.04427 12.3307C3.77262 15.1171 5.50558 17.2561 8.20337 17.1248C9.76772 17.0497 11.1166 15.8958 11.5288 14.2727C11.6318 13.8693 11.7068 13.4565 11.866 12.6684C12.8121 13.7192 13.6364 14.5542 14.3577 15.483C14.5357 15.7081 14.4701 16.271 14.3202 16.5806C12.3531 20.521 7.69754 21.5155 4.70935 18.9449C4.62505 18.8698 4.52201 18.8229 4.21288 18.6259Z" fill="#27B0FF"/>
<path d="M24.9254 19.9583C23.511 19.9583 22.1059 19.9958 20.6914 19.9301C20.3261 19.9114 19.8952 19.6768 19.6235 19.4047C16.9538 16.7684 14.3122 14.1134 11.6707 11.4583C11.5582 11.3458 11.4552 11.2426 11.3615 11.1206C9.4225 8.56873 7.95182 8.24037 5.09478 9.88219C5.09478 8.94401 5.02921 8.08088 5.13225 7.23652C5.16972 6.91753 5.55378 6.53288 5.88164 6.36401C8.25158 5.08808 10.8651 5.55717 12.9915 7.66808C16.551 11.1956 20.0732 14.7514 23.6234 18.2883C24.1011 18.7668 24.6351 19.1796 25.1409 19.6205C25.0753 19.7331 25.0004 19.8457 24.9254 19.9583Z" fill="#E92F24"/>
<path d="M19.0442 12.2462C18.2573 11.4768 17.5267 10.7638 16.7305 9.97575C17.7983 8.77488 18.8756 7.54586 19.9903 6.36375C20.1683 6.17612 20.5242 6.09168 20.8053 6.09168C21.9481 6.06354 23.0909 6.0823 24.5428 6.0823C22.5851 8.25888 20.7959 10.276 19.0442 12.2462Z" fill="#E92F24"/>
<path d="M14.9869 0.744141C14.9869 3.26785 14.9869 5.68836 14.9869 8.18392C13.9003 7.30203 12.8606 6.49519 11.8676 5.64145C11.699 5.50072 11.6053 5.19112 11.6053 4.95658C11.5772 3.58683 11.596 2.21709 11.596 0.744141C12.72 0.744141 13.7973 0.744141 14.9869 0.744141Z" fill="#E92F24"/>
<path d="M12.8516 19.9011C13.601 19.0755 14.2286 18.3906 14.9498 17.6025C14.9498 18.4188 14.9498 19.1318 14.9498 19.9011C14.2941 19.9011 13.6665 19.9011 12.8516 19.9011Z" fill="#E92F24"/>
</svg>
