<svg width="96" height="34" viewBox="0 0 96 34" fill="none" xmlns="http://www.w3.org/2000/svg">
<g clip-path="url(#clip0_2428_12425)">
<path d="M1.57428 0.369141L5.64915 10.3091L0.5 13.87C5.64915 17.488 16.5957 20.9156 25.8012 22.0772C25.8012 17.3738 25.8012 12.6704 25.8012 7.96695C16.5216 6.97676 7.4458 3.03504 1.57428 0.369141Z" fill="#EB3328"/>
<path d="M10.3359 11.1468L25.8019 7.9668V17.4879L10.3359 11.1468Z" fill="#AD1910"/>
<path d="M94.4457 0.369141L90.3708 10.3091L95.52 13.889C90.3708 17.5071 79.4242 20.9346 70.2188 22.0962C70.2188 17.3928 70.2188 12.6894 70.2188 7.98599C79.4798 6.97676 88.5742 3.03504 94.4457 0.369141Z" fill="#EB3328"/>
<path d="M85.6662 11.8675L70.2188 7.9668V17.4879L85.6662 11.8675Z" fill="#AD1910"/>
<path d="M85.6664 26.2283C77.6834 29.3703 64.5697 33.3691 48.011 33.3691C31.4337 33.3691 18.32 29.3512 10.3555 26.2283C10.3555 21.2012 10.3555 16.1741 10.3555 11.147C17.8014 14.4222 31.0076 19.0875 48.011 19.0875C65.0143 19.0875 78.2206 14.4222 85.6664 11.147C85.6664 16.1741 85.6664 21.2012 85.6664 26.2283Z" fill="#D12117"/>
<path d="M46.0719 31.4059C45.4639 31.4059 44.9479 31.2779 44.5239 31.0219C44.0999 30.7579 43.7599 30.4139 43.5039 29.9899C43.2479 29.5579 43.0599 29.0859 42.9399 28.5739C42.8279 28.0619 42.7719 27.5539 42.7719 27.0499C42.7719 26.5459 42.8399 26.0339 42.9759 25.5139C43.1199 24.9939 43.3319 24.5179 43.6119 24.0859C43.8919 23.6459 44.2399 23.2939 44.6559 23.0299C45.0719 22.7579 45.5599 22.6219 46.1199 22.6219C46.7039 22.6219 47.1999 22.7539 47.6079 23.0179C48.0239 23.2819 48.3599 23.6299 48.6159 24.0619C48.8719 24.4859 49.0599 24.9539 49.1799 25.4659C49.2999 25.9779 49.3599 26.4859 49.3599 26.9899C49.3599 27.4859 49.2919 27.9939 49.1559 28.5139C49.0279 29.0339 48.8279 29.5139 48.5559 29.9539C48.2839 30.3859 47.9399 30.7379 47.5239 31.0099C47.1159 31.2739 46.6319 31.4059 46.0719 31.4059ZM46.1439 30.5539C46.4239 30.5539 46.6559 30.4659 46.8399 30.2899C47.0239 30.1139 47.1639 29.8739 47.2599 29.5699C47.3639 29.2579 47.4359 28.9019 47.4759 28.5019C47.5159 28.1019 47.5359 27.6819 47.5359 27.2419C47.5359 26.7539 47.5159 26.2859 47.4759 25.8379C47.4439 25.3819 47.3759 24.9779 47.2719 24.6259C47.1759 24.2659 47.0319 23.9819 46.8399 23.7739C46.6559 23.5659 46.4079 23.4619 46.0959 23.4619C45.8079 23.4619 45.5679 23.5499 45.3759 23.7259C45.1839 23.9019 45.0279 24.1459 44.9079 24.4579C44.7959 24.7699 44.7159 25.1259 44.6679 25.5259C44.6199 25.9259 44.5959 26.3499 44.5959 26.7979C44.5959 27.1339 44.6039 27.4779 44.6199 27.8299C44.6439 28.1819 44.6839 28.5219 44.7399 28.8499C44.8039 29.1699 44.8919 29.4579 45.0039 29.7139C45.1159 29.9699 45.2639 30.1739 45.4479 30.3259C45.6399 30.4779 45.8719 30.5539 46.1439 30.5539ZM50.8448 31.2139V30.4219C51.0288 30.4139 51.1808 30.3899 51.3008 30.3499C51.4288 30.3099 51.5248 30.2179 51.5888 30.0739C51.6608 29.9299 51.6968 29.6979 51.6968 29.3779V24.5659L50.3888 25.3459L49.9568 24.6259L52.7048 22.6219H53.4248V29.2459C53.4248 29.4619 53.4208 29.6699 53.4128 29.8699C53.4128 30.0699 53.4048 30.2219 53.3888 30.3259C53.5168 30.3099 53.6768 30.3019 53.8688 30.3019C54.0688 30.2939 54.2088 30.2899 54.2888 30.2899V31.2139H50.8448Z" fill="white"/>
</g>
<defs>
<clipPath id="clip0_2428_12425">
<rect width="95" height="33" fill="white" transform="translate(0.5 0.369141)"/>
</clipPath>
</defs>
</svg>
