<svg width="29" height="28" viewBox="0 0 29 28" fill="none" xmlns="http://www.w3.org/2000/svg">
<path d="M28.1301 3.14947C28.1301 3.32782 28.1301 3.51667 28.1301 3.69502C28.0886 4.00975 28.0574 4.32449 28.0054 4.62873C27.7352 6.16045 27.2053 7.60823 26.5402 8.99306C25.1166 11.9621 23.2357 14.6268 21.0223 17.0503C20.7937 17.3021 20.7313 17.5434 20.8145 17.8686C20.9392 18.3197 21.0327 18.7813 21.147 19.2429C21.3341 19.9983 21.1574 20.6488 20.5962 21.2048C18.5803 23.2296 16.5747 25.2649 14.5588 27.2897C14.3301 27.5205 14.0911 27.7303 13.8521 27.9506C13.7586 27.9506 13.6755 27.9506 13.582 27.9506C13.3533 27.8037 13.3118 27.5624 13.2702 27.3107C13.0312 25.7999 12.7922 24.2787 12.5636 22.768C12.4701 22.1595 12.6155 21.6139 12.9793 21.1209C13.2286 20.7851 13.2286 20.6907 12.9481 20.4075C11.2854 18.7184 9.61239 17.0398 7.93935 15.3507C7.64839 15.057 7.56525 15.057 7.23272 15.3087C6.79627 15.634 6.30787 15.8228 5.76751 15.7494C4.17761 15.5186 2.5877 15.2563 0.99779 15.0045C0.80035 14.973 0.571731 14.9311 0.49899 14.7003C0.426249 14.459 0.582133 14.3121 0.717223 14.1547C0.738006 14.1232 0.769175 14.1023 0.789959 14.0813C2.93062 11.9201 5.07128 9.75891 7.21194 7.60822C7.72113 7.09415 8.33423 6.9263 9.04085 7.09416C9.48769 7.19907 9.94492 7.283 10.3814 7.41938C10.8698 7.57675 11.2543 7.47184 11.6283 7.11514C12.9585 5.86669 14.3925 4.73364 15.9097 3.71599C17.9776 2.32067 20.1286 1.10369 22.5395 0.42176C23.5267 0.138498 24.5346 -0.0398493 25.5738 0.096536C26.8 0.253904 27.6729 1.01976 27.9639 2.24723C28.0366 2.54098 28.0782 2.84522 28.1301 3.14947ZM24.1917 7.01023C24.1813 5.39458 22.9032 4.12515 21.3237 4.12515C19.7337 4.12515 18.4556 5.41556 18.4556 7.02072C18.4556 8.63636 19.7545 9.92677 21.3444 9.91628C22.9447 9.90579 24.2125 8.61538 24.1917 7.01023Z" fill="white"/>
</svg>
