<svg width="28" height="26" viewBox="0 0 28 26" fill="none" xmlns="http://www.w3.org/2000/svg">
<path d="M26.9943 8.87328C27.2017 9.03329 27.2501 9.28373 27.3538 9.49939C27.3538 9.69417 27.3538 9.88201 27.3538 10.0768C27.257 10.1255 27.257 10.2368 27.2155 10.3133C26.9943 10.7029 26.6694 10.9325 26.22 10.9742C25.819 11.009 25.819 11.002 25.7291 11.3986C25.0377 14.5569 24.3464 17.7222 23.655 20.8805C22.5695 20.8805 21.4841 20.8805 20.3986 20.8736C20.3641 20.7762 20.3226 20.6788 20.288 20.5814C19.7073 19.1275 19.1265 17.6805 18.5458 16.2265C19.7211 15.35 20.8895 14.4734 22.0648 13.6038C23.2056 12.7551 24.3464 11.9064 25.4871 11.0716C25.7153 10.9046 25.7982 10.7307 25.7153 10.4525C25.6738 10.3203 25.6254 10.1742 25.6531 10.0211C25.7844 9.29068 26.2615 8.8872 26.9943 8.87328Z" fill="#FDD303"/>
<path d="M18.5466 16.2335C19.1274 17.6874 19.7081 19.1344 20.2889 20.5883C20.3304 20.6857 20.3649 20.7831 20.3995 20.8805C16.6177 20.8805 12.829 20.8805 9.04721 20.8805C9.06104 20.8249 9.06103 20.7623 9.08869 20.7066C9.79388 18.9535 10.4991 17.2074 11.2043 15.4543C12.2897 12.7342 13.3683 10.0142 14.4675 7.30105C14.5643 7.06452 14.5159 6.93234 14.3569 6.7793C14.0182 6.44537 13.6863 6.1045 13.3475 5.76362C13.2023 5.62449 13.1539 5.46448 13.313 5.31143C13.7762 4.84534 14.2186 4.35837 14.7164 3.9201C15.1797 4.38619 15.6498 4.84534 16.113 5.31143C16.272 5.47144 16.2374 5.61753 16.0853 5.76362C15.7466 6.09754 15.4147 6.44538 15.0759 6.77234C14.91 6.93235 14.8685 7.09235 14.9584 7.308C15.5115 8.67152 16.0577 10.042 16.6039 11.4055C16.6315 11.4751 16.6384 11.5585 16.7214 11.5933C16.7836 11.9273 16.9288 12.2333 17.0809 12.5325C17.0878 12.5812 17.0878 12.6368 17.1086 12.6855C17.4128 13.4369 17.7101 14.1951 18.0212 14.9465C18.0903 15.1204 18.118 15.3152 18.2632 15.4543C18.2977 15.7326 18.4498 15.9761 18.5466 16.2335ZM14.7095 14.1395C14.5574 13.9169 14.4122 13.6943 14.2532 13.4786C14.1357 13.3186 14.0043 13.3395 13.8937 13.4925C13.3959 14.1812 12.905 14.8769 12.4142 15.5656C12.3312 15.6769 12.3174 15.7743 12.4003 15.8926C12.8981 16.6022 13.3959 17.3117 13.8937 18.0213C14.0112 18.1883 14.1495 18.1952 14.267 18.0283C14.4191 17.8196 14.5574 17.597 14.7026 17.3813C15.0414 16.9013 15.3732 16.4213 15.712 15.9413C15.8088 15.8021 15.8226 15.6839 15.7258 15.5378C15.3871 15.0717 15.0483 14.6056 14.7095 14.1395Z" fill="#FDE35A"/>
<path d="M9.04413 20.8725C12.8259 20.8725 16.6146 20.8725 20.3964 20.8725C21.4819 20.8725 22.5673 20.8725 23.6528 20.8795C23.6528 22.2012 23.6597 23.523 23.6597 24.8448C23.6597 25.1578 23.5767 25.2274 23.2449 25.2274C21.6547 25.2274 20.0646 25.2274 18.4744 25.2274C14.8447 25.2274 11.2219 25.2274 7.59226 25.2274C7.41941 25.2274 7.24657 25.2344 7.07373 25.2344C6.97694 25.0952 6.96311 24.9352 6.97003 24.7683C6.97694 24.3022 6.97003 23.8361 6.97003 23.3769C7.29497 23.3561 7.44707 23.2239 7.44016 22.9665C7.43324 22.6952 7.31571 22.6047 6.97003 22.5978C6.97003 22.0273 6.97003 21.4569 6.97003 20.8795C7.23275 20.8795 7.48855 20.8725 7.75127 20.8725C8.18683 20.8725 8.61548 20.8725 9.04413 20.8725ZM10.2402 22.9874C10.2402 22.7369 10.1088 22.5908 9.86686 22.5978C9.63871 22.6047 9.51426 22.7369 9.51426 22.9804C9.51426 23.1821 9.68711 23.37 9.87378 23.3769C10.0604 23.3769 10.2402 23.1891 10.2402 22.9874ZM13.0402 22.9874C13.0402 22.7369 12.9089 22.5908 12.6669 22.5978C12.4388 22.6047 12.3143 22.7369 12.3143 22.9804C12.3143 23.1821 12.4872 23.37 12.6738 23.3769C12.8605 23.3769 13.0402 23.1891 13.0402 22.9874ZM15.1144 22.9665C15.1074 23.1682 15.2734 23.363 15.46 23.3769C15.6467 23.3908 15.8334 23.203 15.8403 23.0013C15.8472 22.7439 15.7158 22.5978 15.4808 22.5978C15.2526 22.5978 15.1213 22.73 15.1144 22.9665ZM18.6403 22.9874C18.6403 22.7369 18.509 22.5908 18.267 22.5978C18.0388 22.6047 17.9144 22.7369 17.9075 22.9804C17.9075 23.1821 18.0803 23.37 18.267 23.3769C18.4606 23.3839 18.6403 23.1891 18.6403 22.9874ZM21.0809 22.5978C20.8527 22.5978 20.7214 22.73 20.7144 22.9734C20.7075 23.1891 20.8942 23.3839 21.0947 23.3769C21.2814 23.37 21.4542 23.1752 21.4473 22.9734C21.4404 22.7369 21.309 22.5978 21.0809 22.5978Z" fill="#FD9901"/>
<path d="M7.75227 20.8737C7.48955 20.8737 7.23375 20.8806 6.97103 20.8806C6.43867 20.8806 5.8994 20.8737 5.36705 20.8737C5.35322 20.7902 5.33248 20.7067 5.31174 20.6232C4.77939 18.258 4.24012 15.8927 3.70776 13.5274C3.49344 12.5952 3.29294 11.6561 3.07862 10.7239C3.03714 10.543 2.98183 10.383 2.73293 10.383C1.95169 10.383 1.4055 9.73602 1.47464 9.0473C1.48847 8.90121 1.50921 8.75512 1.52304 8.60903C2.00008 8.40033 2.45638 8.45599 2.84355 8.79686C3.23763 9.1447 3.36899 9.58993 3.20998 10.0908C3.13393 10.3412 3.18924 10.4873 3.39665 10.6404C4.24012 11.2595 5.07667 11.8856 5.92014 12.5117C5.98928 12.5604 6.04459 12.637 6.14138 12.637C6.34188 12.8596 6.57003 13.0544 6.86041 13.1587C6.88115 13.27 6.98486 13.3048 7.05399 13.3605C7.99425 14.0631 8.93452 14.7588 9.87478 15.4544C9.86786 15.5031 9.86786 15.5588 9.84712 15.6075C9.59823 16.2405 9.34242 16.8736 9.08662 17.5067C8.64414 18.6267 8.20166 19.7537 7.75227 20.8737Z" fill="#FDD302"/>
<path d="M7.75581 20.8731C8.2052 19.7531 8.64768 18.6261 9.09707 17.5061C9.35288 16.873 9.60177 16.24 9.85757 15.6069C9.87831 15.5582 9.87831 15.5095 9.88523 15.4539C9.95436 15.426 9.97511 15.3565 10.0028 15.2939C10.2862 14.5912 10.5835 13.8886 10.8531 13.179C11.0536 12.6573 11.3095 12.1494 11.4477 11.6068C11.6275 11.3285 11.7104 11.0085 11.8349 10.7094C12.2912 9.58936 12.7337 8.46237 13.1969 7.34235C13.2937 7.10582 13.266 6.94582 13.0794 6.7719C12.7475 6.45885 12.4295 6.12493 12.1045 5.79796C11.904 5.59622 11.904 5.47099 12.1045 5.26925C12.6784 4.69184 13.2522 4.11444 13.826 3.53704C14.0265 3.33529 14.1579 3.33529 14.3515 3.53008C14.4828 3.6553 14.6004 3.79443 14.7179 3.92661C14.2201 4.35792 13.7846 4.85185 13.3144 5.31795C13.1554 5.471 13.2107 5.631 13.349 5.77013C13.6878 6.10405 14.0196 6.45189 14.3584 6.78581C14.5174 6.93886 14.5658 7.07799 14.469 7.30756C13.3766 10.0207 12.2912 12.7407 11.2057 15.4608C10.5075 17.2139 9.79535 18.96 9.09015 20.7131C9.06941 20.7688 9.0625 20.8314 9.04867 20.887C8.62002 20.8731 8.19137 20.8731 7.75581 20.8731Z" fill="#FDDE31"/>
<path d="M11.4378 11.6064C11.2995 12.156 11.0437 12.6568 10.8432 13.1786C10.5736 13.8882 10.2763 14.5908 9.9928 15.2934C9.96515 15.363 9.95132 15.4256 9.87527 15.4534C8.93501 14.7578 7.99474 14.0621 7.05448 13.3595C6.98534 13.3038 6.88164 13.269 6.8609 13.1577C6.87472 13.1299 6.90238 13.0951 6.90238 13.0673C7.22041 11.4812 7.53153 9.90199 7.85647 8.32282C7.90486 8.08629 7.8703 7.97498 7.64906 7.84976C7.03374 7.49497 6.86781 6.7993 7.19276 6.16624C7.24115 6.06885 7.34485 5.99232 7.32411 5.8671C8.34734 5.90884 8.89352 6.88278 8.38882 7.78019C8.29203 7.95411 8.31277 8.06542 8.43722 8.21151C9.45353 9.33154 10.4422 10.4724 11.4378 11.6064Z" fill="#FDE35A"/>
<path d="M18.2724 15.4539C18.1341 15.3148 18.1064 15.12 18.0304 14.9461C17.7193 14.1948 17.422 13.4365 17.1178 12.6852C17.097 12.6365 17.097 12.5808 17.0901 12.5321C17.6778 11.8643 18.2585 11.1964 18.8462 10.5286C19.4753 9.80509 20.0976 9.0816 20.7405 8.37202C20.8857 8.21201 20.8788 8.1007 20.7751 7.91983C20.4502 7.37025 20.5815 6.70241 21.0724 6.30588C21.1899 6.20848 21.3628 6.19457 21.4527 6.05543C22.2685 6.61892 22.2339 7.72504 21.3697 8.21201C21.1899 8.3094 21.1761 8.42767 21.2038 8.59463C21.4734 9.94423 21.7499 11.2938 22.0196 12.6434C21.985 12.6852 21.9574 12.7269 21.9159 12.7617C20.6991 13.6521 19.4892 14.5565 18.2724 15.4539Z" fill="#FDDE30"/>
<path d="M5.37137 20.8725C5.90373 20.8725 6.443 20.8795 6.97535 20.8795C6.97535 21.4499 6.97535 22.0204 6.97535 22.5978C6.60892 22.8134 6.60892 23.0987 6.97535 23.3839C6.97535 23.85 6.97535 24.3161 6.97535 24.7752C6.97535 24.9422 6.98226 25.1022 7.07906 25.2413C6.33238 25.2483 5.57878 25.2552 4.83211 25.2483C4.60395 25.2483 4.49333 25.1231 4.49333 24.8865C4.50025 23.5508 4.50025 22.2152 4.50025 20.8795C4.79062 20.8795 5.081 20.8795 5.37137 20.8725Z" fill="#FA8801"/>
<path d="M5.36861 20.8731C5.07823 20.8731 4.78786 20.8731 4.49748 20.8801C3.85451 17.9374 3.21153 14.9947 2.56856 12.0521C2.51325 11.8086 2.45794 11.5651 2.40955 11.3146C2.36806 11.1129 2.27818 11.0155 2.05003 10.9946C0.999152 10.9112 0.446054 9.85374 1.01989 9.02589C1.15125 8.83806 1.30335 8.67806 1.53151 8.60849C1.51768 8.75458 1.49694 8.90067 1.48311 9.04676C1.40706 9.73547 1.96015 10.3824 2.7414 10.3824C2.9903 10.3824 3.0456 10.5355 3.08709 10.7233C3.30141 11.6555 3.50191 12.5947 3.71623 13.5269C4.24859 15.8922 4.78785 18.2574 5.32021 20.6227C5.33404 20.7062 5.35478 20.7897 5.36861 20.8731Z" fill="#F9C602"/>
<path d="M18.2682 15.4535C19.485 14.556 20.6949 13.6586 21.9118 12.7543C21.9532 12.7264 21.9809 12.6777 22.0155 12.636C22.3542 12.4621 22.6377 12.1977 22.9419 11.9821C23.5088 11.5716 24.0688 11.1473 24.6288 10.7229C24.9607 10.4725 25.0575 10.5281 24.9054 9.97854C24.7671 9.46374 25.0506 8.87938 25.5414 8.62198C26.0323 8.35763 26.6407 8.46197 27.0002 8.87242C26.2674 8.87938 25.7903 9.28982 25.659 10.0203C25.6313 10.1733 25.6797 10.3194 25.7212 10.4516C25.8042 10.7299 25.7212 10.9038 25.493 11.0707C24.3454 11.9125 23.2046 12.7543 22.0708 13.603C20.8954 14.4795 19.727 15.3561 18.5517 16.2256C18.448 15.9752 18.2959 15.7317 18.2682 15.4535Z" fill="#F9C602"/>
<path d="M21.444 6.05589C21.3541 6.19502 21.1813 6.20894 21.0638 6.30633C20.5798 6.70287 20.4415 7.37071 20.7665 7.92029C20.8702 8.10116 20.884 8.20551 20.7319 8.37247C20.0889 9.08206 19.4667 9.81251 18.8375 10.529C18.2499 11.1969 17.6686 11.8646 17.0809 12.5325C16.9288 12.2333 16.7767 11.9273 16.7214 11.5933C17.6893 10.4872 18.6578 9.37424 19.6395 8.27508C19.7986 8.0942 19.8746 7.96898 19.7156 7.71854C19.4114 7.23157 19.5289 6.5846 19.9437 6.19502C20.3724 5.79849 20.9462 5.74284 21.444 6.05589Z" fill="#FDD404"/>
<path d="M7.34093 5.86002C7.36858 5.9922 7.25796 6.06872 7.20957 6.15916C6.87771 6.79222 7.05055 7.48789 7.66587 7.84268C7.8802 7.9679 7.92168 8.07921 7.87328 8.31574C7.54834 9.89491 7.23722 11.481 6.91919 13.0602C6.91228 13.095 6.89154 13.1228 6.87771 13.1506C6.58733 13.0463 6.3661 12.8515 6.15869 12.6289C6.37301 11.5367 6.59425 10.4375 6.80857 9.34533C6.85697 9.10185 6.88462 8.84445 6.96067 8.60792C7.0229 8.39922 6.96759 8.30183 6.78092 8.19748C6.26239 7.90529 6.02732 7.3418 6.17251 6.77831C6.29696 6.25656 6.76709 5.88785 7.34093 5.86002Z" fill="#FDDE32"/>
<path d="M8.89428 1.90226C9.19157 1.65877 9.36441 1.33181 9.49577 0.983972C9.53034 0.886579 9.56491 0.782227 9.69627 0.782227C9.82763 0.782227 9.8622 0.893534 9.88985 0.990927C10.0973 1.61007 10.4983 2.02052 11.1136 2.22922C11.2173 2.264 11.3417 2.29183 11.3348 2.44488C11.3279 2.59097 11.2035 2.61184 11.0997 2.64662C10.7472 2.77184 10.436 2.97359 10.1941 3.26577C10.0696 2.86924 9.84837 2.53532 9.54417 2.264C9.3575 2.08313 9.10169 2.04139 8.89428 1.90226Z" fill="#FD9904"/>
<path d="M17.7415 3.33525C18.0042 3.08481 18.184 2.78567 18.3084 2.4448C18.3499 2.34045 18.3775 2.21522 18.5158 2.21522C18.6403 2.21522 18.6748 2.33349 18.7094 2.43088C18.9168 3.05003 19.3178 3.46743 19.94 3.66917C20.0368 3.697 20.1474 3.72483 20.1544 3.86396C20.1613 4.01701 20.0437 4.04484 19.94 4.07962C19.5805 4.2118 19.2556 4.40658 19.0136 4.71268C18.986 4.50398 18.903 4.31615 18.7924 4.13527C18.5435 3.7457 18.1563 3.53004 17.7415 3.33525Z" fill="#FD9904"/>
<path d="M17.7443 3.33528C18.1523 3.52312 18.5394 3.73877 18.7883 4.14226C18.8989 4.32313 18.9819 4.50401 19.0096 4.71967C18.9058 4.93533 18.7952 5.15098 18.6984 5.3736C18.657 5.47099 18.6155 5.54752 18.4979 5.54056C18.3942 5.54056 18.3528 5.46404 18.3182 5.38056C18.249 5.21359 18.1799 5.04663 18.0969 4.88663C17.8757 4.4901 17.5231 4.26053 17.1083 4.10052C16.9977 4.05878 16.8594 4.03791 16.8525 3.88487C16.8456 3.72486 16.9838 3.69703 17.0945 3.66225C17.3364 3.58573 17.53 3.43964 17.7443 3.33528Z" fill="#FA8904"/>
<path d="M8.89428 1.90226C9.09478 2.04835 9.34997 2.08316 9.54356 2.25708C9.85467 2.53535 10.069 2.86927 10.1934 3.25884C10.0897 3.48841 9.97912 3.71103 9.87541 3.9406C9.83393 4.03104 9.79245 4.09365 9.68874 4.09365C9.59195 4.09365 9.52973 4.03799 9.50207 3.9406C9.29466 3.25884 8.84527 2.81362 8.16773 2.61187C8.07785 2.58404 8.01563 2.51448 8.02254 2.41708C8.02946 2.3336 8.08476 2.27795 8.16773 2.25012C8.43736 2.16664 8.66613 2.03443 8.89428 1.90226Z" fill="#FA8904"/>
<path d="M14.7026 17.3813C14.5574 17.597 14.4191 17.8126 14.267 18.0283C14.1495 18.1952 14.0112 18.1952 13.8937 18.0213C13.3959 17.3117 12.905 16.6022 12.4003 15.8926C12.3174 15.7743 12.3312 15.6769 12.4142 15.5656C12.912 14.8769 13.4028 14.1882 13.8937 13.4925C14.0043 13.3395 14.1357 13.3186 14.2532 13.4786C14.4122 13.6943 14.5574 13.9169 14.7095 14.1395C14.5021 14.5291 14.2177 14.8698 13.9619 15.2246C13.5816 15.7533 13.5886 15.7255 13.9619 16.2681C14.2246 16.6229 14.5229 16.9639 14.7026 17.3813Z" fill="#824CA1"/>
<path d="M14.7015 17.3811C14.5217 16.9637 14.2245 16.6298 13.9686 16.2611C13.5953 15.7254 13.5884 15.7463 13.9686 15.2176C14.2245 14.8628 14.5079 14.5289 14.7153 14.1323C15.0541 14.5984 15.3929 15.0715 15.7316 15.5376C15.8353 15.6767 15.8215 15.8019 15.7178 15.9411C15.3721 16.4141 15.0403 16.9011 14.7015 17.3811Z" fill="#925CB3"/>
<path d="M6.97712 23.3777C6.6107 23.0924 6.6107 22.8072 6.97712 22.5915C7.32281 22.5985 7.44034 22.6959 7.44725 22.9603C7.44725 23.2316 7.30207 23.3568 6.97712 23.3777Z" fill="#FDD302"/>
<path d="M10.2433 22.9884C10.2433 23.1902 10.0635 23.378 9.87683 23.378C9.69016 23.378 9.51732 23.1832 9.51732 22.9815C9.51732 22.738 9.64868 22.6058 9.86992 22.5989C10.1119 22.5919 10.2502 22.738 10.2433 22.9884Z" fill="#FDD302"/>
<path d="M13.0413 22.9884C13.0413 23.1902 12.8615 23.378 12.6749 23.378C12.4882 23.378 12.3153 23.1832 12.3153 22.9815C12.3153 22.738 12.4467 22.5989 12.6679 22.5989C12.9099 22.5919 13.0413 22.738 13.0413 22.9884Z" fill="#FDD302"/>
<path d="M15.1193 22.9673C15.1262 22.7308 15.2575 22.5986 15.4926 22.5986C15.7277 22.5986 15.859 22.7517 15.8521 23.0021C15.8452 23.2039 15.6516 23.3847 15.4719 23.3778C15.2714 23.3639 15.1123 23.176 15.1193 22.9673Z" fill="#FDD302"/>
<path d="M18.643 22.9884C18.643 23.1902 18.4633 23.378 18.2766 23.378C18.0899 23.378 17.9171 23.1832 17.9171 22.9815C17.9171 22.738 18.0484 22.6058 18.2766 22.5989C18.5116 22.5919 18.6499 22.738 18.643 22.9884Z" fill="#FDD302"/>
<path d="M21.0815 22.5986C21.3097 22.5986 21.441 22.7308 21.4479 22.9743C21.4549 23.176 21.282 23.3708 21.0953 23.3778C20.9018 23.3847 20.7151 23.1899 20.7151 22.9743C20.722 22.7308 20.8534 22.5986 21.0815 22.5986Z" fill="#FDD302"/>
</svg>
