<svg width="26" height="32" viewBox="0 0 26 32" fill="none" xmlns="http://www.w3.org/2000/svg">
<path d="M20.4965 0.520508C21.046 0.694641 21.5654 0.944484 21.7836 1.51231C21.9191 1.86815 21.9492 2.26941 22.0019 2.65553C22.032 2.85238 22.0095 3.05679 22.0095 3.30664C22.3708 3.30664 22.717 3.30664 23.0632 3.30664C23.3342 3.30664 23.6052 3.29907 23.8761 3.31421C24.8245 3.36721 25.5848 4.05617 25.6074 5.00254C25.6525 7.14514 25.1934 9.15145 23.8009 10.8474C23.0858 11.718 22.1901 12.3237 21.1213 12.6644C20.918 12.7325 20.7826 12.8234 20.6847 13.0278C19.6911 15.1174 18.2535 16.8436 16.3567 18.1609C15.6717 18.6379 15.3631 19.2512 15.3857 20.084C15.4083 21.0228 15.3857 21.9616 15.4008 22.9004C15.4008 22.9912 15.4685 23.1427 15.5438 23.173C16.5825 23.5742 17.1094 24.3465 17.2072 25.4745C17.3954 25.4745 17.5836 25.467 17.7718 25.4745C18.8331 25.5048 19.5933 26.2543 19.6008 27.3219C19.6159 28.4954 19.6084 29.6613 19.6008 30.8348C19.6008 31.2891 19.36 31.5313 18.9083 31.5313C14.9567 31.5313 10.9975 31.5313 7.04581 31.5313C6.5942 31.5313 6.35333 31.2891 6.35333 30.8348C6.34581 29.6613 6.33828 28.4954 6.35333 27.3219C6.36839 26.2543 7.12861 25.5048 8.18239 25.4745C8.36304 25.467 8.54368 25.4745 8.69422 25.4745C8.7996 25.1036 8.86734 24.7477 9.01036 24.4222C9.2738 23.8241 9.74047 23.4152 10.3502 23.1957C10.5158 23.1351 10.5609 23.067 10.5609 22.8928C10.5534 21.8859 10.5534 20.8714 10.5609 19.8644C10.5609 19.1527 10.2448 18.6152 9.66521 18.2139C7.97916 17.0404 6.60172 15.5717 5.65332 13.7395C5.29955 13.0505 4.84041 12.6644 4.1404 12.3616C2.60489 11.7029 1.63391 10.4537 1.0167 8.92432C0.51992 7.73567 0.324219 6.47132 0.324219 5.18425C0.324219 4.10916 1.09197 3.33692 2.1608 3.31421C2.74038 3.29907 3.31996 3.31421 3.93717 3.31421C3.93717 3.04165 3.93717 2.79181 3.93717 2.54197C3.93717 1.48203 4.36621 0.891487 5.3673 0.573505C5.39741 0.565934 5.41999 0.543221 5.44257 0.528079C10.4555 0.520508 15.476 0.520508 20.4965 0.520508ZM15.9653 25.467C15.9277 24.7931 15.5061 24.354 14.8739 24.2707C14.3395 24.2026 14.1739 24.0209 14.1739 23.4909C14.1739 22.2871 14.1663 21.0909 14.1814 19.8871C14.1814 19.5994 14.219 19.3042 14.2868 19.024C14.4825 18.1609 15.0771 17.6158 15.7545 17.1086C19.0363 14.6556 20.7148 11.3546 20.7976 7.24356C20.8277 5.66879 20.8051 4.09402 20.8051 2.51925C20.8051 1.95143 20.5869 1.73944 20.0148 1.73944C15.318 1.73944 10.6211 1.73944 5.93182 1.73944C5.35224 1.73187 5.14149 1.94386 5.14149 2.51925C5.14149 4.08645 5.14149 5.64608 5.14149 7.21327C5.14149 8.40949 5.30708 9.583 5.66085 10.7338C6.49635 13.4518 8.06948 15.6247 10.3878 17.2524C11.3362 17.9187 11.7803 18.8272 11.7652 19.9856C11.7502 21.1288 11.7652 22.2644 11.7652 23.4076C11.7652 24.036 11.6373 24.1875 11.0276 24.2783C10.4028 24.3616 9.9437 24.8916 9.99639 25.4745C11.976 25.467 13.9631 25.467 15.9653 25.467ZM18.389 30.3048C18.389 29.3282 18.389 28.3742 18.389 27.4279C18.389 26.9055 18.1632 26.6783 17.6288 26.6783C14.5201 26.6783 11.4115 26.6783 8.30282 26.6783C7.76841 26.6783 7.55012 26.8979 7.55012 27.4354C7.55012 28.3137 7.55012 29.1919 7.55012 30.0701C7.55012 30.1458 7.56518 30.2216 7.5727 30.3048C11.1781 30.3048 14.761 30.3048 18.389 30.3048ZM4.55438 11.2562C4.21567 10.1281 3.98986 9.03789 3.96728 7.91738C3.93717 6.7893 3.95975 5.66879 3.95975 4.52557C3.3049 4.52557 2.7178 4.51043 2.13069 4.53314C1.74682 4.54828 1.52854 4.81327 1.53606 5.2221C1.55864 6.49403 1.75435 7.7281 2.30382 8.89404C2.77802 9.90098 3.49308 10.7035 4.55438 11.2562ZM21.9944 4.52557C21.9944 6.79687 22.1299 9.04546 21.4224 11.2486C21.8815 10.9458 22.3331 10.6581 22.6869 10.272C24.0417 8.81833 24.3729 7.00129 24.388 5.09339C24.388 4.77541 24.1471 4.54071 23.8235 4.53314C23.2288 4.51043 22.6342 4.52557 21.9944 4.52557Z" fill="#6D6D6D"/>
<path d="M9.74945 12.7471C9.87741 11.9749 10.0204 11.1648 10.1409 10.3471C10.1559 10.2336 10.1032 10.0746 10.0204 9.9913C9.50106 9.46133 8.96665 8.93893 8.43223 8.4241C8.21395 8.21212 8.06341 7.98499 8.16126 7.67457C8.25911 7.36416 8.51503 7.27331 8.81611 7.23546C9.5387 7.13703 10.2613 7.02347 10.9914 6.92504C11.1796 6.90233 11.285 6.81148 11.3678 6.63735C11.6839 5.9711 12.0151 5.31999 12.3312 4.65374C12.4592 4.38876 12.6172 4.18434 12.9334 4.17677C13.257 4.1692 13.4301 4.38119 13.5581 4.65374C13.8742 5.31242 14.213 5.9711 14.5216 6.63735C14.6044 6.81148 14.7097 6.89476 14.8979 6.91747C15.6356 7.0159 16.3657 7.12946 17.1033 7.22788C17.3818 7.26574 17.6152 7.35659 17.713 7.64429C17.8184 7.93956 17.6979 8.16669 17.4872 8.37111C16.9603 8.87836 16.4485 9.40833 15.9065 9.90802C15.7334 10.067 15.6958 10.2184 15.7409 10.438C15.8764 11.1648 15.9818 11.8916 16.1173 12.6109C16.17 12.8986 16.1248 13.1408 15.8915 13.315C15.6581 13.4891 15.4022 13.4437 15.1538 13.315C14.4915 12.9591 13.8216 12.6184 13.1592 12.255C12.9861 12.1642 12.8581 12.1718 12.6925 12.2626C12.0226 12.626 11.3527 12.9894 10.6753 13.3377C10.2011 13.5951 9.71935 13.315 9.74945 12.7471ZM15.771 8.27268C15.2968 8.20454 14.8076 8.12126 14.3108 8.06069C13.9721 8.02284 13.7689 7.84871 13.6334 7.54587C13.4226 7.09161 13.1968 6.64492 12.9484 6.1528C12.7 6.65249 12.4742 7.09918 12.2635 7.55344C12.128 7.84871 11.9323 8.01527 11.6086 8.05312C11.1043 8.11369 10.6075 8.19697 10.0731 8.28025C10.4043 8.62095 10.6903 8.95407 11.0215 9.24177C11.3979 9.55975 11.5032 9.92316 11.3828 10.3926C11.2774 10.8165 11.2323 11.2481 11.157 11.7251C11.5258 11.5358 11.857 11.3995 12.143 11.2027C12.7 10.809 13.2119 10.8014 13.7689 11.1951C14.0549 11.3995 14.3861 11.5282 14.7624 11.7251C14.6646 11.1724 14.5893 10.6954 14.499 10.2184C14.4312 9.87017 14.5065 9.59761 14.77 9.34777C15.1162 9.02221 15.4323 8.64366 15.771 8.27268Z" fill="#6D6D6D"/>
<path d="M11.7895 27.897C12.1508 27.897 12.5121 27.8894 12.8734 27.897C13.2874 27.9046 13.5584 28.1468 13.5659 28.5027C13.5659 28.8509 13.2949 29.1083 12.8809 29.1083C12.1358 29.1159 11.3981 29.1159 10.6529 29.1083C10.239 29.1083 9.96799 28.8585 9.96046 28.5102C9.96046 28.162 10.2314 27.9121 10.6454 27.9046C11.0293 27.8894 11.4132 27.897 11.7895 27.897Z" fill="#6D6D6D"/>
<path d="M15.3896 27.9058C15.7057 27.9133 15.9842 28.201 15.9767 28.5114C15.9692 28.8294 15.6832 29.1095 15.3745 29.102C15.0584 29.0944 14.7799 28.8067 14.7874 28.4963C14.7874 28.1783 15.0735 27.8982 15.3896 27.9058Z" fill="#6D6D6D"/>
</svg>
