<svg width="11" height="12" viewBox="0 0 11 12" fill="none" xmlns="http://www.w3.org/2000/svg">
<path d="M7.4023 0C7.65311 0.311929 7.90086 0.623858 8.15473 0.941963C7.93757 1.24463 7.72652 1.54111 7.51241 1.8376C7.13008 2.37189 6.7447 2.90619 6.36237 3.44048C6.31954 3.49916 6.27672 3.52387 6.20026 3.52078C5.9311 3.5146 5.65888 3.52078 5.38972 3.51769C5.3469 3.51769 5.28878 3.49916 5.26431 3.46519C4.66176 2.63441 4.06227 1.79745 3.46277 0.963582C3.45972 0.957405 3.45666 0.94814 3.4536 0.932698C3.69829 0.623858 3.9491 0.311929 4.19991 0C5.26431 0 6.33178 0 7.4023 0Z" fill="white"/>
<path d="M3.89578 2.20246C4.11906 2.51439 4.33929 2.82014 4.55951 3.12589C2.35117 3.87329 1.5498 6.17724 1.9719 7.85116C2.42763 9.65787 4.02425 10.8963 5.80743 10.884C7.67626 10.8716 9.24841 9.58993 9.64603 7.73997C9.85708 6.75786 9.71026 5.81281 9.2117 4.93879C8.71314 4.06786 7.98519 3.47797 7.03395 3.13825C7.26029 2.82632 7.47745 2.52056 7.69767 2.21481C9.34017 2.82941 10.9704 4.70098 10.8328 7.1995C10.6951 9.73817 8.72538 11.7333 6.31211 11.9742C3.6878 12.2367 1.47028 10.4701 0.904431 8.12911C0.292703 5.59044 1.6538 3.12898 3.89578 2.20246Z" fill="white"/>
</svg>
