<svg width="25" height="32" viewBox="0 0 25 32" fill="none" xmlns="http://www.w3.org/2000/svg">
<path d="M12.9345 0.308594C13.21 0.537684 13.5099 0.750409 13.7611 1.01223C15.39 2.67313 17.2864 3.87586 19.4907 4.5795C20.7793 4.98859 22.1083 5.20132 23.4617 5.21768C24.2154 5.22586 24.5477 5.56949 24.5477 6.3304C24.5477 9.28404 24.5477 12.2377 24.5477 15.1913C24.5396 22.154 20.6658 28.2331 14.3851 31.1131C13.9637 31.3095 13.5342 31.4976 13.0885 31.6286C12.8454 31.7022 12.5293 31.7186 12.3024 31.6286C6.28913 29.3295 2.56935 25.0013 1.18354 18.6686C0.94042 17.5722 0.875587 16.4186 0.859379 15.2895C0.818859 12.2949 0.843171 9.3004 0.843171 6.30586C0.843171 5.58586 1.18354 5.23404 1.8967 5.22586C5.68132 5.15222 8.89865 3.75314 11.5811 1.06132C11.8485 0.791321 12.1565 0.562228 12.4483 0.316774C12.6103 0.308592 12.7724 0.308594 12.9345 0.308594ZM4.48191 15.9522C4.48191 20.5095 8.16118 24.2322 12.6671 24.2404C17.1973 24.2486 20.8846 20.5258 20.8846 15.9604C20.8846 11.4031 17.2135 7.68859 12.6995 7.67222C8.17739 7.66404 4.48191 11.3868 4.48191 15.9522Z" fill="white"/>
<path d="M12.6745 22.4C9.16544 22.3919 6.30469 19.4955 6.30469 15.9528C6.30469 12.3937 9.18165 9.50551 12.715 9.51369C16.2241 9.52187 19.0768 12.4264 19.0687 15.9773C19.0606 19.52 16.1917 22.4082 12.6745 22.4ZM11.4589 17.7282C10.8673 17.131 10.3081 16.55 9.74893 15.9773C9.49771 15.7237 9.19785 15.5928 8.84127 15.6746C8.12001 15.8546 7.89309 16.6973 8.41986 17.2455C9.17354 18.031 9.95154 18.7919 10.7133 19.5691C11.2158 20.0764 11.7101 20.0764 12.2207 19.5691C12.8609 18.931 13.493 18.2846 14.1333 17.6382C15.0571 16.7055 15.981 15.7728 16.9049 14.84C17.1642 14.5782 17.3101 14.2755 17.2128 13.8991C17.0345 13.1628 16.1917 12.9582 15.6325 13.5146C14.3278 14.8237 13.023 16.141 11.7182 17.4582C11.6534 17.54 11.5724 17.6137 11.4589 17.7282Z" fill="white"/>
</svg>
