<svg width="23" height="23" viewBox="0 0 23 23" fill="none" xmlns="http://www.w3.org/2000/svg">
<path d="M11.8792 0.0839844C12.3415 0.226694 12.7012 0.477864 12.8267 0.974494C12.8667 1.14004 12.8781 1.31129 12.8781 1.48254C12.8781 5.20441 12.8781 8.93199 12.8781 12.6539C12.8781 12.7452 12.8781 12.8308 12.8781 12.9735C12.9752 12.8765 13.0322 12.8251 13.0893 12.7737C13.9456 11.9175 14.8019 11.0555 15.6638 10.205C16.0006 9.86817 16.4059 9.75971 16.8626 9.8853C17.3193 10.0109 17.6104 10.3191 17.7188 10.7815C17.8273 11.2439 17.6789 11.6378 17.3421 11.9689C16.4402 12.8708 15.5382 13.7727 14.6306 14.6746C13.957 15.3482 13.2891 16.0161 12.6155 16.6897C12.0047 17.3005 11.3083 17.3005 10.7032 16.6897C9.13341 15.1199 7.56361 13.5558 5.99951 11.986C5.48004 11.4665 5.43437 10.7587 5.87392 10.2563C6.34772 9.71404 7.14689 9.69121 7.67777 10.2164C8.53403 11.0669 9.38458 11.9175 10.2351 12.7737C10.2922 12.8308 10.3493 12.8822 10.4463 12.9735C10.4463 12.8365 10.4463 12.7452 10.4463 12.6596C10.4463 8.92058 10.4463 5.18158 10.4463 1.44829C10.4463 0.723324 10.7261 0.340862 11.4111 0.118235C11.4225 0.112526 11.4339 0.10111 11.4453 0.0954012C11.5937 0.0839844 11.7364 0.0839844 11.8792 0.0839844Z" fill="white"/>
<path d="M0.701021 15.6684C0.723854 15.617 0.752396 15.5713 0.769522 15.52C0.975024 14.9548 1.51732 14.6295 2.09958 14.7151C2.69325 14.8064 3.12138 15.2916 3.1328 15.8967C3.14421 16.2906 3.1328 16.6788 3.1385 17.0726C3.14421 18.5055 4.18885 19.5615 5.62166 19.5615C9.64607 19.5672 13.6705 19.5672 17.6892 19.5615C19.1334 19.5615 20.1724 18.5055 20.1781 17.0555C20.1781 16.6902 20.1781 16.3306 20.1781 15.9652C20.1838 15.303 20.6005 14.8064 21.2284 14.7094C21.8392 14.618 22.3701 14.9777 22.5756 15.6113C22.587 15.6456 22.6041 15.6741 22.6155 15.7083C22.6155 16.3363 22.6155 16.9642 22.6155 17.5921C22.6041 17.6378 22.5813 17.6834 22.5756 17.7348C22.353 19.67 20.9259 21.3254 19.0364 21.8277C18.7624 21.902 18.4827 21.9476 18.2087 22.0047C13.8417 22.0047 9.47482 22.0047 5.1079 22.0047C5.06223 21.9933 5.01657 21.9705 4.96519 21.9647C3.03575 21.7421 1.37461 20.3093 0.872273 18.4255C0.798064 18.1515 0.752396 17.8718 0.695312 17.5921C0.701021 16.9528 0.701021 16.3134 0.701021 15.6684Z" fill="white"/>
</svg>
