<svg width="24" height="24" viewBox="0 0 24 24" fill="none" xmlns="http://www.w3.org/2000/svg">
<path d="M10.4367 0.141798L10.4367 0.141824L10.439 0.142222C10.6289 0.175865 10.8163 0.203531 11.0017 0.230907C11.3445 0.281518 11.6805 0.331132 12.0135 0.415673C17.9292 1.93727 20.9002 8.6676 18.0467 14.0864L18.0466 14.0866C17.8687 14.4268 17.6629 14.7533 17.4456 15.098C17.3458 15.2562 17.2436 15.4183 17.1406 15.5874L17.0934 15.6648L17.1658 15.7193C17.1862 15.7347 17.2071 15.7492 17.2284 15.764C17.2704 15.7932 17.3137 15.8233 17.3561 15.8618C19.2986 17.8114 21.2412 19.7611 23.1837 21.7046C23.4483 21.9702 23.6904 22.227 23.8146 22.5641V22.5649V22.5658V22.5667V22.5676V22.5685V22.5694V22.5704V22.5713V22.5722V22.5731V22.574V22.5749V22.5758V22.5768V22.5777V22.5786V22.5795V22.5804V22.5813V22.5823V22.5832V22.5841V22.585V22.5859V22.5868V22.5877V22.5887V22.5896V22.5905V22.5914V22.5923V22.5932V22.5942V22.5951V22.596V22.5969V22.5978V22.5987V22.5996V22.6006V22.6015V22.6024V22.6033V22.6042V22.6051V22.6061V22.607V22.6079V22.6088V22.6097V22.6106V22.6116V22.6125V22.6134V22.6143V22.6152V22.6161V22.617V22.618V22.6189V22.6198V22.6207V22.6216V22.6225V22.6235V22.6244V22.6253V22.6262V22.6271V22.628V22.629V22.6299V22.6308V22.6317V22.6326V22.6335V22.6344V22.6354V22.6363V22.6372V22.6381V22.639V22.6399V22.6409V22.6418V22.6427V22.6436V22.6445V22.6454V22.6463V22.6473V22.6482V22.6491V22.65V22.6509V22.6518V22.6528V22.6537V22.6546V22.6555V22.6564V22.6573V22.6583V22.6592V22.6601V22.661V22.6619V22.6628V22.6637V22.6647V22.6656V22.6665V22.6674V22.6683V22.6692V22.6702V22.6711V22.672V22.6729V22.6738V22.6747V22.6756V22.6766V22.6775V22.6784V22.6793V22.6802V22.6811V22.6821V22.683V22.6839V22.6848V22.6857V22.6866V22.6876V22.6885V22.6894V22.6903V22.6912V22.6921V22.693V22.694V22.6949V22.6958V22.6967V22.6976V22.6985V22.6995V22.7004V22.7013V22.7022V22.7031V22.704V22.7049V22.7059V22.7068V22.7077V22.7086V22.7095V22.7104V22.7114V22.7123V22.7132V22.7141V22.715V22.7159V22.7169V22.7178V22.7187V22.7196V22.7205V22.7214V22.7223V22.7233V22.7242V22.7251V22.726V22.7269V22.7278V22.7288V22.7297V22.7306V22.7315V22.7324V22.7333V22.7342V22.7352V22.7361V22.737V22.7379V22.7388V22.7397V22.7407V22.7416V22.7425V22.7434V22.7443V22.7452V22.7462V22.7471V22.748V22.7489V22.7498V22.7507V22.7516V22.7526V22.7535V22.7544V22.7553V22.7562V22.7571V22.7581V22.759V22.7599V22.7608V22.7617V22.7626V22.7635V22.7645V22.7654V22.7663V22.7672V22.7681V22.769V22.77V22.7709V22.7718V22.7727V22.7736V22.7745V22.7755V22.7764V22.7773V22.7782V22.7791V22.78V22.7809V22.7819V22.7828V22.7837V22.7846V22.7855V22.7864V22.7874V22.7883V22.7892V22.7901V22.791V22.7919V22.7929V22.7938V22.7947V22.7956V22.7965V22.7974V22.7983V22.7993V22.8002V22.8011V22.802V22.8029V22.8038V22.8048V22.8057V22.8066V22.8075V22.8084V22.8093V22.8102V22.8112V22.8121V22.813V22.8139V22.8148V22.8157V22.8167V22.8176V22.8185V22.8194V22.8203V22.8212V22.8222V22.8231V22.824V22.8249V22.8258V22.8267V22.8276V22.8286V22.8295V22.8304V22.8313V22.8322V22.8331V22.8341V22.835V22.8359V22.8368V22.8377V22.8386V22.8395V22.8405V22.8414V22.8423V22.8432V22.8441V22.845V22.846V22.8469V22.8478V22.8487V22.8496V22.8505V22.8515V22.8524V22.8533V22.8542V22.8551V22.856V22.8569V22.8579V22.8588V22.8597V22.8606V22.8615V22.8624V22.8634V22.8643V22.8652V22.8661V22.867V22.8679V22.8688V22.8698V22.8707V22.8716V22.8725V22.8734V22.8743V22.8753V22.8762V22.8771V22.878V22.8789V22.8798V22.8808V22.8817V22.8826V22.8835V22.8844V22.8853V22.8862V22.8872V22.8881V22.889V22.8899V22.8908V22.8917V22.8927V22.8936V22.8945V22.8954V22.8963V22.8972V22.8981V22.8991V22.9V22.9009V22.9018V22.9027V22.9036V22.9046V22.9055V22.9064V22.9073V22.9082V22.9091V22.9101V22.911V22.9119V22.9128V22.9137V22.9146V22.9155V22.9165V22.9174V22.9183V22.9192V22.9201V22.921V22.922V22.9229V22.9238V22.9247V22.9256V22.9265V22.9274V22.9284V22.9293V22.9302V22.9311V22.932V22.9329V22.9339V22.9348V22.9357V22.9366V22.9375V22.9384V22.9394V22.9403V22.9412V22.9421V22.943V22.9439V22.9448V22.9458V22.9467V22.9476V22.9485V22.9494V22.9503V22.9513V22.9522V22.9531V22.954V22.9549V22.9558V22.9567V22.9577V22.9586V22.9595V22.9604V22.9613V22.9622V22.9632V22.9641V22.965V22.9659V22.9668V22.9677V22.9687V22.9696V22.9705V22.9714V22.9723V22.9732V22.9741V22.9751V22.976V22.9769V22.9778V22.9787V22.9796V22.9806V22.9815V22.9824V22.9833V22.9842V22.9851V22.986V22.987V22.9879V22.9888V22.9897V22.9906V22.9915V22.9925V22.9934V22.9943V22.9952V22.9961V22.997V22.9974C23.711 23.2762 23.5948 23.5194 23.3698 23.6847C22.9104 24.0206 22.3358 23.9647 21.8739 23.507C21.8738 23.507 21.8738 23.5069 21.8738 23.5069L15.7854 17.3961C15.7525 17.3588 15.729 17.3161 15.7 17.2633C15.6885 17.2424 15.6762 17.2199 15.6621 17.1956L15.6055 17.0982L15.5155 17.166C15.4793 17.1932 15.4505 17.2145 15.4265 17.2321C15.3891 17.2596 15.3635 17.2785 15.3396 17.2983C13.0828 18.9498 10.583 19.5364 7.8275 19.0352L7.82747 19.0352C4.14979 18.3675 1.09251 15.3857 0.328413 11.719C0.2625 11.3881 0.21239 11.0522 0.161927 10.7139C0.141689 10.5783 0.121394 10.4422 0.1 10.306V10.3035V10.301V10.2984V10.2958V10.2933V10.2907V10.2881V10.2856V10.283V10.2804V10.2779V10.2753V10.2728V10.2702V10.2676V10.2651V10.2625V10.2599V10.2574V10.2548V10.2522V10.2497V10.2471V10.2446V10.242V10.2394V10.2369V10.2343V10.2317V10.2292V10.2266V10.224V10.2215V10.2189V10.2164V10.2138V10.2112V10.2087V10.2061V10.2035V10.201V10.1984V10.1958V10.1933V10.1907V10.1882V10.1856V10.183V10.1805V10.1779V10.1753V10.1728V10.1702V10.1676V10.1651V10.1625V10.1599V10.1574V10.1548V10.1523V10.1497V10.1471V10.1446V10.142V10.1394V10.1369V10.1343V10.1317V10.1292V10.1266V10.1241V10.1215V10.1189V10.1164V10.1138V10.1112V10.1087V10.1061V10.1035V10.101V10.0984V10.0959V10.0933V10.0907V10.0882V10.0856V10.083V10.0805V10.0779V10.0753V10.0728V10.0702V10.0677V10.0651V10.0625V10.06V10.0574V10.0548V10.0523V10.0497V10.0471V10.0446V10.042V10.0395V10.0369V10.0343V10.0318V10.0292V10.0266V10.0241V10.0215V10.0189V10.0164V10.0138V10.0112V10.0087V10.0061V10.0036V10.001V9.99843V9.99587V9.9933V9.99074V9.98818V9.98561V9.98305V9.98048V9.97792V9.97536V9.97279V9.97023V9.96767V9.9651V9.96254V9.95997V9.95741V9.95485V9.95228V9.94972V9.94715V9.94459V9.94203V9.93946V9.9369V9.93434V9.93177V9.92921V9.92664V9.92408V9.92152V9.91895V9.91639V9.91383V9.91126V9.9087V9.90613V9.90357V9.90101V9.89844V9.89588V9.89332V9.89075V9.88819V9.88562V9.88306V9.8805V9.87793V9.87537V9.8728V9.87024V9.86768V9.86511V9.86255V9.85999V9.85742V9.85486V9.85229V9.84973V9.84717V9.8446V9.84204V9.83948V9.83691V9.83435V9.83178V9.82922V9.82666V9.82409V9.82153V9.81896V9.8164V9.81384V9.81127V9.80871V9.80615V9.80358V9.80102V9.79846V9.79589V9.79333V9.79076V9.7882V9.78564V9.78307V9.78051V9.77794V9.77538V9.77282V9.77025V9.76769V9.76513V9.76256V9.76V9.75743V9.75487V9.75231V9.74974V9.74718V9.74462V9.74205V9.73949V9.73692V9.73436V9.7318V9.72923V9.72667V9.7241V9.72154V9.71898V9.71641V9.71385V9.71129V9.70872V9.70616V9.70359V9.70103V9.69847V9.6959V9.69334V9.69078V9.68821V9.68565V9.68308V9.68052V9.67796V9.67539V9.67283V9.67027V9.6677V9.66514V9.66257V9.66001V9.65745V9.65488V9.65232V9.64975V9.64719V9.64463V9.64206V9.6395V9.63694V9.63437V9.63181V9.62924V9.62668V9.62412V9.62155V9.61899V9.61643V9.61386V9.6113V9.60873V9.60617V9.60361V9.60104V9.59848V9.59591V9.59335V9.59079V9.58822V9.58566V9.5831V9.58053V9.57797V9.57541V9.57284V9.57028V9.56771V9.56515V9.56259V9.56002V9.55746V9.55489V9.55233V9.54977V9.5472V9.54464V9.54208V9.53951V9.53695V9.53438V9.53182V9.52926V9.52669V9.52413V9.52157V9.519V9.51644V9.51387V9.51131V9.50875V9.50618V9.50362V9.50105V9.49849V9.49593V9.49336V9.4908V9.48824V9.48567V9.48311V9.48054V9.47798V9.47542V9.47285V9.47029V9.46773V9.46516V9.4626V9.46003V9.45747V9.45491V9.45234V9.44978V9.44722V9.44465V9.44209V9.43952V9.43696V9.4344V9.43183V9.42927V9.4267V9.42414V9.42158V9.41901V9.41645V9.41389V9.41132V9.40876V9.40619V9.40363V9.40107V9.3985V9.39594V9.39338V9.39081V9.38825V9.38568V9.38312V9.38056V9.37799V9.37543V9.37286V9.3703V9.36774V9.36517V9.36261V9.36005V9.35748V9.35492V9.35236V9.34979V9.34723V9.34466V9.3421V9.33954V9.33697V9.33441V9.33184V9.32928V9.32672V9.32415V9.32159V9.31903V9.31646V9.3139V9.31133V9.30877V9.30621V9.30364V9.30108V9.29852V9.29595V9.29339V9.29082V9.28826V9.2857V9.28313V9.28057V9.278V9.27544V9.27288V9.27031V9.26775V9.26519V9.26262V9.26006V9.25749V9.25493V9.25237V9.2498V9.24724V9.24468V9.24211V9.23955V9.23698V9.23442V9.23186V9.22929V9.22673V9.22416V9.2216V9.21904V9.21647V9.21391V9.21135V9.20878V9.20622V9.20365V9.20109V9.19853V9.19596V9.1934V9.19084V9.18827V9.18571V9.18314V9.18058V9.17802V9.17545V9.17289V9.17033V9.16776V9.1652V9.16263V9.16007V9.15751V9.15494V9.15238V9.14981V9.14725V9.14469V9.14212V9.13956V9.137V9.13443V9.13187V9.1293V9.12674V9.12418V9.12161V9.11905V9.11649V9.11392V9.11136V9.10879V9.10623V9.10367V9.1011V9.09854V9.09597V9.09341V9.09085V9.08828V9.08572V9.08316V9.08059V9.07803V9.07547V9.0729V9.07034V9.06777V9.06521V9.06265V9.06008V9.05752V9.05495V9.05239V9.04983V9.04726V9.0447V9.04214V9.03957V9.03701V9.03444V9.03188V9.02932V9.02675V9.02419V9.02163V9.01906V9.0165V9.01393V9.01137V9.00884C0.124162 8.85325 0.146254 8.69932 0.168199 8.54641C0.202973 8.30411 0.237378 8.06438 0.279061 7.82472C0.944571 4.16417 3.93433 1.08347 7.562 0.335468C7.87107 0.271838 8.1796 0.226531 8.49227 0.180616C8.66654 0.155026 8.8421 0.129246 9.01975 0.1H9.02148H9.02396H9.02644H9.02892H9.0314H9.03389H9.03637H9.03885H9.04132H9.0438H9.04628H9.04876H9.05124H9.05372H9.0562H9.05868H9.06116H9.06364H9.06612H9.06859H9.07107H9.07355H9.07603H9.07851H9.08098H9.08346H9.08594H9.08842H9.09089H9.09337H9.09585H9.09832H9.1008H9.10328H9.10575H9.10823H9.11071H9.11318H9.11566H9.11813H9.12061H9.12308H9.12556H9.12803H9.13051H9.13299H9.13546H9.13794H9.14041H9.14288H9.14536H9.14783H9.15031H9.15278H9.15526H9.15773H9.1602H9.16268H9.16515H9.16763H9.1701H9.17257H9.17505H9.17752H9.17999H9.18246H9.18494H9.18741H9.18988H9.19236H9.19483H9.1973H9.19977H9.20224H9.20472H9.20719H9.20966H9.21213H9.2146H9.21707H9.21955H9.22202H9.22449H9.22696H9.22943H9.2319H9.23437H9.23684H9.23931H9.24178H9.24425H9.24673H9.2492H9.25167H9.25414H9.25661H9.25908H9.26155H9.26402H9.26649H9.26895H9.27142H9.27389H9.27636H9.27883H9.2813H9.28377H9.28624H9.28871H9.29118H9.29365H9.29611H9.29858H9.30105H9.30352H9.30599H9.30846H9.31093H9.31339H9.31586H9.31833H9.3208H9.32327H9.32573H9.3282H9.33067H9.33314H9.3356H9.33807H9.34054H9.34301H9.34547H9.34794H9.35041H9.35287H9.35534H9.35781H9.36027H9.36274H9.36521H9.36767H9.37014H9.37261H9.37507H9.37754H9.38001H9.38247H9.38494H9.38741H9.38987H9.39234H9.3948H9.39727H9.39974H9.4022H9.40467H9.40713H9.4096H9.41206H9.41453H9.417H9.41946H9.42193H9.42439H9.42686H9.42932H9.43179H9.43425H9.43672H9.43918H9.44165H9.44411H9.44658H9.44904H9.45151H9.45397H9.45644H9.4589H9.46137H9.46383H9.4663H9.46876H9.47122H9.47369H9.47615H9.47862H9.48108H9.48355H9.48601H9.48847H9.49094H9.4934H9.49587H9.49833H9.5008H9.50326H9.50572H9.50819H9.51065H9.51312H9.51558H9.51804H9.52051H9.52297H9.52544H9.5279H9.53036H9.53283H9.53529H9.53775H9.54022H9.54268H9.54514H9.54761H9.55007H9.55254H9.555H9.55746H9.55993H9.56239H9.56485H9.56732H9.56978H9.57224H9.57471H9.57717H9.57963H9.5821H9.58456H9.58702H9.58949H9.59195H9.59441H9.59688H9.59934H9.6018H9.60427H9.60673H9.60919H9.61165H9.61412H9.61658H9.61904H9.62151H9.62397H9.62643H9.6289H9.63136H9.63382H9.63629H9.63875H9.64121H9.64367H9.64614H9.6486H9.65106H9.65353H9.65599H9.65845H9.66092H9.66338H9.66584H9.66831H9.67077H9.67323H9.6757H9.67816H9.68062H9.68309H9.68555H9.68801H9.69048H9.69294H9.6954H9.69787H9.70033H9.70279H9.70525H9.70772H9.71018H9.71264H9.71511H9.71757H9.72003H9.7225H9.72496H9.72743H9.72989H9.73235H9.73482H9.73728H9.73974H9.74221H9.74467H9.74713H9.7496H9.75206H9.75452H9.75699H9.75945H9.76192H9.76438H9.76684H9.76931H9.77177H9.77423H9.7767H9.77916H9.78163H9.78409H9.78655H9.78902H9.79148H9.79395H9.79641H9.79888H9.80134H9.8038H9.80627H9.80873H9.8112H9.81366H9.81613H9.81859H9.82106H9.82352H9.82598H9.82845H9.83091H9.83338H9.83584H9.83831H9.84077H9.84324H9.8457H9.84817H9.85063H9.8531H9.85556H9.85803H9.86049H9.86296H9.86542H9.86789H9.87036H9.87282H9.87529H9.87775H9.88022H9.88268H9.88515H9.88762H9.89008H9.89255H9.89501H9.89748H9.89994H9.90241H9.90488H9.90734H9.90981H9.91228H9.91474H9.91721H9.91968H9.92214H9.92461H9.92708H9.92954H9.93201H9.93448H9.93694H9.93941H9.94188H9.94435H9.94681H9.94928H9.95175H9.95422H9.95668H9.95915H9.96162H9.96409H9.96655H9.96902H9.97149H9.97396H9.97643H9.97889H9.98136H9.98383H9.9863H9.98877H9.99124H9.9937H9.99617H9.99864H10.0011H10.0036H10.006H10.0085H10.011H10.0135H10.0159H10.0184H10.0209H10.0233H10.0258H10.0283H10.0307H10.0332H10.0357H10.0382H10.0406H10.0431H10.0456H10.048H10.0505H10.053H10.0554H10.0579H10.0604H10.0629H10.0653H10.0678H10.0703H10.0727H10.0752H10.0777H10.0802H10.0826H10.0851H10.0876H10.0901H10.0925H10.095H10.0975H10.0999H10.1024H10.1049H10.1074H10.1098H10.1123H10.1148H10.1173H10.1197H10.1222H10.1247H10.1271H10.1296H10.1321H10.1346H10.137H10.1395H10.142H10.1445H10.1469H10.1494H10.1519H10.1544H10.1568H10.1593H10.1618H10.1643H10.1667H10.1692H10.1717H10.1742H10.1766H10.1791H10.1816H10.1841H10.1866H10.189H10.1915H10.194H10.1965H10.1989H10.2014H10.2039H10.2064H10.2088H10.2113H10.2138H10.2163H10.2188H10.2212H10.2237H10.2262H10.2287H10.2311H10.2336H10.2361H10.2386H10.2411H10.2435H10.246H10.2485H10.251H10.2535H10.2559H10.2584H10.2609H10.2634H10.2655C10.29 0.105222 10.314 0.111543 10.3406 0.118562L10.3417 0.118863C10.3706 0.126492 10.4026 0.134953 10.4367 0.141798ZM9.64103 2.29405L9.64088 2.29405C5.61207 2.28137 2.29794 5.58289 2.28523 9.63197C2.26629 13.6753 5.54931 16.9892 9.59634 17.0146C13.6258 17.0399 16.9334 13.7379 16.9523 9.67666C16.9712 5.62722 13.6883 2.31306 9.64103 2.29405Z" fill="#6D6D6D" stroke="white" stroke-width="0.2"/>
</svg>
