<svg width="28" height="29" viewBox="0 0 28 29" fill="none" xmlns="http://www.w3.org/2000/svg">
<path d="M20.257 0.131914C20.5219 0.270186 20.8072 0.37389 21.0382 0.553643C21.4389 0.864754 21.5544 1.33488 21.6224 1.81883C21.6427 1.96401 21.6631 2.17142 21.7582 2.24056C21.962 2.38574 22.2134 2.45488 22.4511 2.54475C22.4919 2.55858 22.5598 2.49636 22.6141 2.46179C22.8111 2.33043 23.0013 2.18525 23.1983 2.0608C23.7893 1.70821 24.5094 1.75661 25.0189 2.2129C25.3381 2.49636 25.6438 2.80747 25.9223 3.13241C26.3775 3.66475 26.425 4.39759 26.0718 5.0129C26.031 5.08204 25.9835 5.15117 25.9427 5.22031C25.5623 5.77339 25.5623 5.77339 25.8544 6.38179C25.8884 6.45784 25.9835 6.52697 26.065 6.54771C26.3027 6.60994 26.5473 6.63759 26.7783 6.69981C27.4711 6.88648 27.9331 7.47413 27.9602 8.20697C27.9738 8.57339 27.9738 8.94673 27.9602 9.31315C27.9331 10.0667 27.4508 10.6682 26.7375 10.848C26.6356 10.8756 26.5269 10.9102 26.4182 10.9102C26.0446 10.9171 25.8204 11.0761 25.6982 11.4633C25.6167 11.7191 25.6166 11.8919 25.7797 12.1062C26.0786 12.4865 26.3095 12.8944 26.2892 13.4129C26.2688 13.7862 26.1669 14.125 25.9223 14.4015C25.6574 14.6988 25.3789 14.9961 25.08 15.2657C24.523 15.7843 23.7961 15.8465 23.1508 15.4593C23.0557 15.404 22.9538 15.3487 22.8791 15.2727C22.6074 14.9961 22.3424 14.9892 21.9824 15.1551C21.6971 15.2865 21.6292 15.4731 21.5952 15.7359C21.5341 16.2959 21.3642 16.8144 20.8548 17.1117C20.6238 17.2499 20.3453 17.3536 20.0736 17.3813C19.6796 17.4297 19.2788 17.4089 18.878 17.3882C18.1851 17.3606 17.6213 16.8904 17.4379 16.2129C17.4107 16.1161 17.3699 16.0124 17.3699 15.9156C17.3903 15.4178 17.1322 15.1759 16.6906 15.0514C16.5344 15.0099 16.4257 15.0099 16.2966 15.1067C15.9502 15.3556 15.6241 15.6322 15.1758 15.6875C14.7071 15.7428 14.2859 15.646 13.9395 15.328C13.6202 15.0376 13.3145 14.7334 13.036 14.4085C12.5809 13.883 12.5333 13.164 12.873 12.5556C12.9205 12.4657 12.9613 12.3689 13.036 12.2998C13.4572 11.9265 13.3213 11.5255 13.0903 11.1245C13.0496 11.0554 12.9409 11.0001 12.8594 10.9793C12.6148 10.9171 12.3567 10.8894 12.1189 10.8203C11.4736 10.6267 11.0321 10.0598 11.0049 9.37537C10.9913 8.99512 10.9845 8.62179 10.9981 8.24154C11.0253 7.43265 11.5212 6.83117 12.3024 6.65833C12.411 6.63759 12.5129 6.60302 12.6216 6.60302C12.9341 6.59611 13.0836 6.4371 13.2262 6.13981C13.4164 5.75265 13.2398 5.53142 13.0496 5.25488C12.4518 4.39759 12.5197 3.62327 13.2534 2.8766C13.4708 2.65537 13.6813 2.42722 13.9123 2.21981C14.4354 1.7566 15.1554 1.69438 15.7532 2.04698C15.8415 2.09537 15.9366 2.13685 16.0045 2.2129C16.3714 2.64846 16.7654 2.48944 17.1526 2.26821C17.2205 2.23364 17.2748 2.13685 17.2952 2.05389C17.3428 1.86722 17.3631 1.67364 17.3971 1.48698C17.533 0.809445 17.927 0.373889 18.5723 0.180309C18.6063 0.173395 18.6266 0.145741 18.6606 0.125C19.2108 0.131914 19.7339 0.131914 20.257 0.131914ZM14.9516 11.8781C14.8837 12.0302 14.8294 12.1961 14.741 12.3413C14.5644 12.6178 14.3742 12.8875 14.184 13.1571C14.0685 13.3161 14.0753 13.4544 14.2248 13.5927C14.4014 13.7655 14.578 13.9383 14.741 14.1181C14.8837 14.2771 15.0196 14.284 15.1894 14.1596C15.4543 13.9591 15.7192 13.7793 15.991 13.5857C16.2559 13.3922 16.5276 13.3714 16.8333 13.5166C17.2341 13.7033 17.6417 13.8761 18.056 14.0351C18.3889 14.1596 18.5723 14.3877 18.6266 14.7403C18.6742 15.0514 18.7421 15.3556 18.7829 15.6667C18.8101 15.9018 18.9255 15.9778 19.1429 15.9709C19.3807 15.9571 19.6116 15.9571 19.8494 15.9709C20.0803 15.9847 20.1687 15.8672 20.2026 15.6529C20.2502 15.3418 20.3181 15.0376 20.3589 14.7265C20.4064 14.367 20.6102 14.1596 20.9363 14.0351C21.3438 13.883 21.7446 13.7102 22.1386 13.5304C22.4511 13.3852 22.7296 13.406 23.0081 13.6065C23.2731 13.8001 23.5448 13.9867 23.8097 14.1803C23.9659 14.2978 24.1018 14.2909 24.2377 14.1457C24.4075 13.9591 24.5909 13.7793 24.7743 13.5996C24.9102 13.4682 24.917 13.3368 24.8083 13.1847C24.6181 12.9151 24.4347 12.6386 24.2445 12.3689C24.0407 12.0786 24.0203 11.7882 24.1697 11.4633C24.3532 11.0623 24.5162 10.6544 24.6656 10.2396C24.7879 9.9008 25.0121 9.71413 25.3585 9.65882C25.671 9.61043 25.9835 9.54129 26.296 9.4929C26.4997 9.46524 26.5745 9.36154 26.5677 9.16105C26.5609 8.93981 26.5541 8.71858 26.5677 8.49734C26.5948 8.20697 26.4862 8.07562 26.2008 8.04105C25.902 8.01339 25.6166 7.93735 25.3178 7.88895C24.9917 7.83364 24.7879 7.64697 24.6724 7.33586C24.5162 6.91414 24.3532 6.49932 24.1629 6.09142C24.0203 5.7734 24.0339 5.48994 24.2309 5.20648C24.4279 4.92994 24.6113 4.64648 24.8083 4.36994C24.9102 4.22475 24.9034 4.10031 24.7743 3.97586C24.5909 3.79611 24.4075 3.61636 24.2377 3.42969C24.095 3.27068 23.9592 3.25685 23.7893 3.38821C23.5312 3.5887 23.2595 3.76846 22.9878 3.96204C22.7228 4.15562 22.4443 4.17636 22.1454 4.03117C21.7378 3.84451 21.3167 3.67167 20.8955 3.50574C20.5898 3.38821 20.4064 3.17389 20.3589 2.84204C20.3113 2.5171 20.2434 2.19216 20.1958 1.86031C20.1619 1.66673 20.0668 1.56994 19.863 1.57685C19.6184 1.58377 19.3739 1.58377 19.1293 1.57685C18.9187 1.56994 18.8101 1.6529 18.7829 1.86722C18.7421 2.18525 18.6742 2.50327 18.6199 2.8213C18.5655 3.16006 18.3821 3.3813 18.0628 3.50574C17.6485 3.66475 17.2409 3.83068 16.8401 4.02426C16.5276 4.16944 16.2491 4.15562 15.9706 3.95512C15.7057 3.76154 15.4339 3.57488 15.1758 3.3813C15.0128 3.25685 14.8837 3.27068 14.7478 3.41586C14.578 3.59562 14.4082 3.77537 14.2316 3.9413C14.0753 4.08648 14.0617 4.22475 14.1908 4.39759C14.381 4.66722 14.5644 4.94376 14.7546 5.21339C14.9448 5.48302 14.9652 5.75957 14.8294 6.07068C14.6392 6.48549 14.4693 6.91413 14.3063 7.34278C14.1908 7.6608 13.9802 7.84055 13.6542 7.88895C13.3485 7.93735 13.0496 8.00648 12.7439 8.04796C12.5197 8.08253 12.4043 8.17241 12.4178 8.42129C12.4314 8.66327 12.4246 8.89833 12.4178 9.14031C12.411 9.35463 12.4858 9.46524 12.7031 9.4929C13.002 9.53438 13.2873 9.61043 13.5862 9.645C13.9666 9.69339 14.2044 9.9008 14.3335 10.2672C14.4761 10.6613 14.6459 11.0485 14.8022 11.4425C14.8565 11.5739 14.8973 11.7122 14.9516 11.8781Z" fill="#6D6D6D"/>
<path d="M0.148438 16.7245C0.236747 16.5171 0.297885 16.289 0.413366 16.0954C0.712259 15.5631 1.18097 15.2381 1.76517 15.1897C2.43768 15.1413 2.87243 14.9132 3.05584 14.1942C3.13057 13.8969 3.17812 13.7033 2.97433 13.4613C2.79092 13.247 2.64147 12.9981 2.50561 12.7562C2.132 12.0994 2.18634 11.2628 2.68223 10.689C3.04226 10.2673 3.44305 9.87319 3.85742 9.49986C4.42124 8.99517 5.26357 8.93294 5.90891 9.32702C6.21459 9.51368 6.48631 9.73492 6.792 9.92159C6.86672 9.96998 6.99579 9.99072 7.0773 9.96307C7.37619 9.85245 7.6683 9.728 7.9536 9.58973C8.03512 9.54825 8.11663 9.45146 8.13701 9.36159C8.20494 9.0643 8.23891 8.76011 8.30004 8.46974C8.38835 8.07566 8.74159 7.82677 9.10162 7.88899C9.46844 7.95122 9.73337 8.30381 9.67902 8.69788C9.61109 9.20949 9.51599 9.71418 9.42089 10.2189C9.36655 10.5162 9.16955 10.689 8.89783 10.7996C8.34759 11.0208 7.79057 11.2559 7.24713 11.4979C6.95503 11.6292 6.6901 11.6223 6.42518 11.4287C6.06515 11.166 5.69832 10.9102 5.33829 10.6544C5.0462 10.447 4.86958 10.4678 4.61823 10.7166C4.37369 10.9586 4.12914 11.2075 3.89139 11.4564C3.64004 11.7191 3.61967 11.885 3.82346 12.1892C4.068 12.5487 4.30576 12.9013 4.5571 13.2539C4.78127 13.565 4.78127 13.8623 4.61823 14.208C4.39406 14.6989 4.17669 15.1966 4.00686 15.7083C3.871 16.1023 3.64004 16.3236 3.23925 16.3858C2.81809 16.448 2.40372 16.531 1.98255 16.607C1.68366 16.6692 1.56818 16.8075 1.56818 17.1255C1.56138 17.5058 1.56138 17.8791 1.56818 18.2594C1.57497 18.5636 1.70404 18.7157 1.99614 18.771C2.4173 18.847 2.83168 18.93 3.25284 18.9922C3.63325 19.0475 3.85742 19.248 3.99328 19.6213C4.17669 20.1468 4.39407 20.6653 4.62503 21.17C4.77448 21.5087 4.77447 21.7991 4.56389 22.1033C4.31255 22.4628 4.06121 22.8223 3.81666 23.1887C3.62646 23.4653 3.64004 23.645 3.86421 23.8801C4.12235 24.1497 4.38727 24.4194 4.6522 24.6821C4.87637 24.9033 5.05299 24.9171 5.30433 24.7374C5.66436 24.4885 6.0176 24.2396 6.37083 23.9769C6.66972 23.7487 6.96862 23.7418 7.30827 23.9008C7.80416 24.1359 8.31363 24.3571 8.8299 24.5438C9.19672 24.6752 9.39372 24.9102 9.44806 25.2974C9.5092 25.7191 9.59071 26.1339 9.65864 26.5487C9.71978 26.8875 9.85564 27.005 10.1953 27.012C10.5553 27.0189 10.9221 27.0189 11.2822 27.012C11.5879 27.005 11.7305 26.8944 11.7849 26.5833C11.8664 26.1754 11.9411 25.7675 11.9954 25.3596C12.0566 24.9033 12.2807 24.6475 12.7223 24.5092C13.1842 24.364 13.6393 24.1705 14.0741 23.9423C14.4681 23.7349 14.801 23.7418 15.1542 24.0184C15.4667 24.2673 15.7995 24.4885 16.1324 24.7166C16.4313 24.924 16.5875 24.9033 16.8524 24.6475C17.1038 24.3986 17.3551 24.1428 17.5997 23.887C17.8238 23.652 17.8374 23.4653 17.654 23.1957C17.4095 22.8292 17.1581 22.4697 16.9068 22.1102C16.6826 21.7991 16.6894 21.5018 16.8456 21.1562C17.0766 20.6584 17.2872 20.1468 17.4706 19.6283C17.5997 19.2549 17.8238 19.0475 18.2042 18.9922C18.5779 18.9369 18.9515 18.8608 19.3251 18.7917C19.4134 18.7779 19.5017 18.7641 19.5968 18.7571C19.9772 18.7295 20.3101 18.9922 20.3644 19.3517C20.4188 19.7043 20.181 20.0707 19.821 20.1606C19.5289 20.2297 19.23 20.2574 18.9447 20.3334C18.8428 20.3611 18.7409 20.4579 18.6866 20.5547C18.5982 20.6999 18.5847 20.8934 18.4896 21.0317C18.2314 21.412 18.3129 21.7161 18.5914 22.0549C18.9175 22.449 19.1824 22.8915 19.196 23.4445C19.2028 23.9492 19.0738 24.3986 18.7341 24.765C18.4012 25.1315 18.0616 25.491 17.6948 25.8159C17.0358 26.4105 16.2139 26.4658 15.4667 25.9887C15.2085 25.8228 14.964 25.6223 14.6991 25.4633C14.6107 25.408 14.4681 25.4011 14.3662 25.4287C14.2032 25.4702 14.0605 25.6016 13.8907 25.6292C13.4423 25.7122 13.3065 25.9957 13.2453 26.4312C13.191 26.8253 13.0755 27.2263 12.9057 27.5789C12.6612 28.0766 12.1789 28.2979 11.6762 28.4569C11.0444 28.4569 10.4059 28.4569 9.77413 28.4569C9.73337 28.4361 9.6994 28.4085 9.65864 28.4016C8.91141 28.1803 8.45628 27.6895 8.29325 26.9152C8.23211 26.6248 8.20494 26.3344 8.13022 26.051C8.10305 25.9473 8.00795 25.8297 7.91964 25.7813C7.6615 25.65 7.38299 25.5601 7.12485 25.4287C6.9822 25.3596 6.8871 25.3665 6.75803 25.4633C6.47272 25.6776 6.18742 25.885 5.88174 26.0648C5.22961 26.452 4.39407 26.3759 3.83025 25.8643C3.42946 25.4979 3.04226 25.1038 2.68223 24.689C2.31541 24.2673 2.21351 23.7487 2.30182 23.1887C2.38334 22.691 2.66864 22.3107 2.96074 21.9374C3.17812 21.6608 3.13057 21.4465 3.04226 21.1285C2.85885 20.4648 2.46485 20.2366 1.8331 20.1952C1.22852 20.1537 0.732636 19.8357 0.420158 19.2895C0.31147 19.0959 0.236747 18.8747 0.148438 18.6673C0.148437 18.0105 0.148438 17.3675 0.148438 16.7245Z" fill="#6D6D6D"/>
<path d="M10.7063 22.5176C7.90761 22.4623 5.74743 20.0149 6.02594 17.1942C6.2637 14.7744 8.3016 12.887 10.6792 12.8732C11.0799 12.8732 11.406 13.1705 11.4332 13.5576C11.4536 13.9379 11.1615 14.2766 10.7539 14.2974C9.93192 14.3389 9.19148 14.5808 8.56653 15.1339C7.50682 16.0742 7.14679 17.5537 7.65626 18.9087C8.13857 20.1947 9.38848 21.0519 10.7607 21.045C12.4861 21.0312 13.8922 19.69 14.0281 17.9478C14.0485 17.6643 14.0485 17.3739 14.2794 17.1596C14.49 16.966 14.8025 16.9107 15.0403 17.0352C15.3256 17.1873 15.4682 17.4223 15.4614 17.7473C15.4139 19.9734 13.9466 21.8332 11.8136 22.3586C11.4468 22.4416 11.0731 22.4623 10.7063 22.5176Z" fill="#6D6D6D"/>
<path d="M19.4757 12.1963C17.6076 12.1894 16.1131 10.6614 16.1199 8.76021C16.1199 6.85898 17.6484 5.31725 19.5164 5.33108C21.3709 5.34491 22.879 6.90046 22.8654 8.78787C22.8518 10.6753 21.337 12.2032 19.4757 12.1963ZM19.4961 10.7582C20.5694 10.7513 21.4524 9.85947 21.4524 8.76713C21.4524 7.66787 20.549 6.76219 19.4689 6.7691C18.4024 6.77602 17.5261 7.68861 17.5329 8.78096C17.5397 9.88022 18.4228 10.7582 19.4961 10.7582Z" fill="#6D6D6D"/>
</svg>
