<svg width="21" height="23" viewBox="0 0 21 23" fill="none" xmlns="http://www.w3.org/2000/svg">
<path d="M16.9876 0.163086C17.1627 0.202486 17.3422 0.241886 17.5173 0.285664C19.1765 0.723441 20.341 2.2863 20.2534 3.95424C20.1571 5.76663 18.8701 7.22005 17.1058 7.46083C15.9457 7.62281 14.9301 7.28572 14.0633 6.49334C14.0064 6.44081 13.9451 6.3839 13.8882 6.32699C13.8838 6.32261 13.875 6.32261 13.8488 6.30948C11.8525 7.54401 9.84747 8.78729 7.8337 10.035C8.16203 10.9236 8.16203 11.808 7.8337 12.6966C9.84309 13.9443 11.8437 15.1832 13.8575 16.4265C13.9801 16.3127 14.1027 16.1989 14.2296 16.0938C15.4291 15.0869 17.1146 14.9512 18.4585 15.7479C19.8025 16.5447 20.4898 18.1032 20.179 19.6485C19.8813 21.1414 18.638 22.3059 17.1102 22.5291C17.0708 22.5335 17.0314 22.5554 16.9876 22.5685C16.7249 22.5685 16.4623 22.5685 16.1996 22.5685C15.8188 22.4547 15.416 22.3847 15.057 22.2227C13.3716 21.4697 12.5354 19.5697 13.0914 17.8055C13.1483 17.6216 13.1264 17.5341 12.9513 17.429C11.0557 16.2689 9.16892 15.0913 7.2821 13.9224C7.23832 13.8962 7.19454 13.8699 7.13325 13.8349C6.22705 14.7542 5.13261 15.1745 3.84555 14.9818C2.92184 14.8461 2.15573 14.3952 1.56911 13.6685C0.356463 12.1801 0.492174 10.0656 1.87993 8.72163C3.21953 7.42581 5.5485 7.2507 7.14201 8.89674C7.38279 8.74789 7.63232 8.59467 7.87747 8.44145C9.58918 7.38203 11.2965 6.32261 13.0082 5.26757C13.1308 5.19314 13.1527 5.13186 13.1089 4.99177C12.3997 2.76786 13.7787 0.561463 16.0946 0.198108C16.1296 0.19373 16.1646 0.176219 16.1952 0.163086C16.4623 0.163086 16.7249 0.163086 16.9876 0.163086ZM16.5805 21.2333C17.8632 21.2377 18.9095 20.2045 18.9138 18.9218C18.9226 17.6304 17.8807 16.5797 16.5892 16.5753C15.3066 16.571 14.269 17.5997 14.2559 18.8868C14.2471 20.1826 15.2847 21.2289 16.5805 21.2333ZM14.2603 3.82728C14.2559 5.10997 15.2934 6.15625 16.5717 6.16063C17.8632 6.16501 18.9138 5.11872 18.9138 3.83604C18.9138 2.54459 17.8675 1.50268 16.5761 1.50706C15.289 1.51144 14.2603 2.54459 14.2603 3.82728ZM2.08568 11.3614C2.07693 12.6441 3.11008 13.686 4.39277 13.6948C5.68421 13.7035 6.73925 12.666 6.73925 11.3789C6.74363 10.0962 5.71048 9.05434 4.43217 9.04558C3.13635 9.03683 2.09444 10.0656 2.08568 11.3614Z" fill="black"/>
</svg>
