<svg width="200" height="200" viewBox="0 0 200 200" fill="none" xmlns="http://www.w3.org/2000/svg">
<g opacity="0.4">
<path opacity="0.2" d="M98.1028 164.633C129.777 164.633 155.454 162.478 155.454 159.821C155.454 157.164 129.777 155.01 98.1028 155.01C66.4288 155.01 40.752 157.164 40.752 159.821C40.752 162.478 66.4288 164.633 98.1028 164.633Z" fill="#000072"/>
</g>
<path d="M160.871 117.709C164.136 126.38 162.675 132.321 157.996 135.729C157.637 135.99 157.264 136.233 156.879 136.457C153.725 138.293 149.153 139.165 142.797 137.121C141.897 136.832 140.961 136.483 139.989 136.073L139.057 127.845L138.611 123.896C138.611 123.896 138.828 124.163 139.22 124.578C139.752 125.142 140.313 125.678 140.902 126.182C142.507 127.557 144.8 129.082 147.226 129.314C148.059 129.4 148.902 129.311 149.699 129.054C151.309 128.526 152.238 127.449 152.605 125.955C153.138 123.777 152.476 120.717 150.989 117.196C148.353 110.96 146.777 100.349 151.783 93.9911C156.161 88.43 161.173 87.5856 163.451 89.8643C163.584 89.9967 163.708 90.1372 163.824 90.2848C165.591 92.5192 164.772 95.8272 161.389 100.349C158.079 104.768 158.461 111.305 160.871 117.709Z" fill="white"/>
<g opacity="0.4">
<path opacity="0.2" d="M160.871 117.708C163.89 126.936 162.242 133.294 157.996 135.728C157.62 135.944 157.277 136.226 156.879 136.456C153.725 138.292 149.153 139.165 142.797 137.12C141.897 136.832 140.961 136.483 139.989 136.072L139.057 127.844L138.611 123.896C138.611 123.896 138.828 124.163 139.22 124.577C139.752 125.142 140.313 125.678 140.902 126.182C142.507 127.556 144.8 129.081 147.226 129.314C147.843 131.101 149.752 132.949 152.879 132.949C161.661 132.949 158.026 120.945 155.335 112.204C152.572 103.221 156.364 98.0462 160.043 96.0636C163.538 94.1822 163.099 92.36 163.824 90.2827C165.591 92.5171 164.772 95.8251 161.389 100.347C158.079 104.768 158.743 111.205 160.871 117.708Z" fill="#000072"/>
</g>
<path d="M149.697 139.566C147.433 139.566 145.005 139.151 142.415 138.319C141.477 138.019 140.496 137.652 139.501 137.232C139.296 137.145 139.118 137.006 138.985 136.827C138.851 136.649 138.768 136.438 138.743 136.217L137.365 124.04C137.335 123.77 137.393 123.498 137.53 123.264C137.667 123.03 137.877 122.846 138.127 122.741C138.377 122.636 138.655 122.615 138.918 122.681C139.181 122.748 139.416 122.897 139.587 123.108C139.587 123.108 139.785 123.349 140.133 123.717C140.634 124.249 141.163 124.754 141.719 125.23C143.693 126.918 146.612 128.744 149.31 127.862C150.449 127.489 151.11 126.788 151.387 125.656C151.823 123.878 151.285 121.118 149.833 117.684C146.754 110.4 145.743 99.636 150.797 93.2149C153.542 89.7288 156.872 87.6261 159.933 87.4429C161.682 87.3378 163.247 87.8856 164.34 88.9768C168.418 93.0545 163.885 99.1114 162.395 101.102C158.672 106.076 160.579 113.366 162.048 117.268C166.217 128.335 162.549 133.969 158.737 136.746C158.342 137.034 157.932 137.3 157.51 137.546C155.194 138.892 152.581 139.566 149.697 139.566ZM141.154 135.195C141.846 135.471 142.526 135.717 143.182 135.927C148.358 137.591 152.755 137.404 156.25 135.374C156.598 135.171 156.936 134.95 157.262 134.713C161.778 131.424 162.598 125.852 159.697 118.153C156.849 110.584 157.096 103.994 160.385 99.5973C165.104 93.2891 163.192 91.38 162.564 90.752C161.977 90.1654 161.119 89.8876 160.081 89.9496C157.736 90.0885 155.071 91.8448 152.77 94.7676C148.343 100.389 149.344 110.08 152.146 116.707C153.833 120.701 154.398 123.913 153.825 126.253C153.341 128.225 152.05 129.607 150.09 130.248C146.371 131.466 142.72 129.344 140.257 127.282L141.154 135.195Z" fill="#000072"/>
<path d="M78.1943 129.818C78.0465 130.781 77.8805 131.77 77.6918 132.777C77.0422 136.273 76.1795 139.958 75.2881 143.401C75.0667 144.265 74.8393 145.112 74.6163 145.937C74.6148 145.94 74.6139 145.943 74.6135 145.947C74.6068 145.977 74.5983 146.008 74.5881 146.037C74.5665 146.119 74.5477 146.198 74.5256 146.276C73.9479 148.391 73.3834 150.356 72.881 152.044C72.451 153.491 72.0681 154.737 71.7638 155.713C71.517 156.501 70.9945 157.174 70.2919 157.609C69.7719 157.93 69.1767 158.108 68.566 158.127C66.2845 158.182 62.7558 158.161 59.4462 157.699C57.5726 157.436 55.7709 157.035 54.3084 156.422C52.3716 155.616 51.0353 154.442 50.9191 152.751C50.8311 151.478 51.0298 150.4 51.4088 149.486C53.0185 145.572 57.9112 144.672 57.9112 144.672L61.4106 121.037L62.6092 112.927L78.1943 129.818Z" fill="white"/>
<path d="M66.7658 159.403C64.5662 159.403 61.8625 159.303 59.2717 158.942C57.0794 158.634 55.2467 158.175 53.8235 157.579C50.5637 156.222 49.7635 154.25 49.6661 152.836C49.5704 151.452 49.7668 150.165 50.2483 149.002C51.6637 145.561 55.1399 144.149 56.7911 143.658L61.3667 112.744C61.4014 112.51 61.5016 112.29 61.6559 112.11C61.8102 111.931 62.0122 111.798 62.2386 111.728C62.465 111.658 62.7065 111.654 62.9353 111.716C63.1641 111.777 63.3707 111.902 63.5314 112.076L79.1171 128.967C79.245 129.105 79.34 129.271 79.395 129.451C79.4501 129.631 79.4639 129.821 79.4353 130.008C79.2809 131.019 79.1093 132.028 78.9267 133.008C78.3369 136.181 77.5218 139.784 76.5036 143.715C76.2823 144.582 76.0526 145.433 75.8291 146.263C75.8191 146.306 75.8075 146.347 75.7953 146.387L75.7782 146.452C75.7638 146.507 75.7499 146.563 75.735 146.614C75.2071 148.55 74.651 150.498 74.0855 152.401C73.7225 153.621 73.3451 154.861 72.9633 156.085C72.6256 157.162 71.9116 158.082 70.9518 158.676C70.5515 158.927 70.1142 159.114 69.6559 159.229C69.3103 159.322 68.9546 159.373 68.5968 159.38C68.0423 159.394 67.4265 159.403 66.7658 159.403ZM63.4667 115.709L59.1506 144.852C59.1123 145.112 58.9939 145.352 58.8121 145.541C58.6302 145.729 58.3939 145.856 58.1363 145.904C58.0975 145.911 53.8904 146.744 52.5673 149.961C52.2353 150.764 52.1009 151.673 52.1689 152.664C52.2398 153.694 53.1212 154.569 54.789 155.264C56.0158 155.778 57.6405 156.179 59.6187 156.457C62.8176 156.903 66.2318 156.929 68.5326 156.872C68.6945 156.869 68.8555 156.846 69.0118 156.804C69.2271 156.751 69.4326 156.665 69.6205 156.547C70.0708 156.271 70.4061 155.841 70.5645 155.336C70.9413 154.127 71.3154 152.898 71.6756 151.687C72.2362 149.802 72.7868 147.869 73.3119 145.946L73.3739 145.711C73.3788 145.692 73.3849 145.673 73.391 145.656C73.3971 145.639 73.401 145.616 73.4071 145.596C73.6284 144.78 73.8497 143.943 74.0711 143.091C75.0743 139.217 75.8767 135.669 76.456 132.552C76.5982 131.791 76.7327 131.011 76.8583 130.228L63.4667 115.709ZM73.391 145.659C73.3877 145.671 73.3849 145.684 73.3822 145.696L73.391 145.659Z" fill="#000072"/>
<path d="M55.6566 150.531L55.5586 150.8C55.5254 150.905 55.4922 151.011 55.4651 151.122C55.4098 151.34 55.3655 151.568 55.3284 151.795C55.2623 152.257 55.2309 152.724 55.2344 153.191C55.2369 153.662 55.2663 154.133 55.3223 154.6C55.3506 154.835 55.3899 155.07 55.4225 155.303L55.5559 156.001L55.5631 156.037C55.5942 156.2 55.593 156.368 55.5594 156.53C55.5257 156.693 55.4604 156.847 55.3671 156.985C55.2739 157.122 55.1544 157.24 55.0157 157.331C54.8769 157.422 54.7216 157.485 54.5585 157.516C54.3954 157.548 54.2277 157.546 54.0651 157.513C53.9025 157.479 53.7481 157.414 53.6107 157.32C53.4733 157.227 53.3557 157.108 53.2645 156.969C53.1732 156.83 53.1102 156.675 53.0791 156.512C53.0624 156.422 53.055 156.332 53.0569 156.241L53.0785 155.423C53.099 155.149 53.1128 154.878 53.1394 154.605C53.1922 154.059 53.2763 153.517 53.3912 152.98C53.5055 152.439 53.6605 151.908 53.8549 151.391C53.9557 151.129 54.0697 150.872 54.1963 150.622C54.2583 150.496 54.3296 150.37 54.4021 150.246C54.442 150.183 54.4779 150.121 54.5211 150.057C54.5643 149.994 54.5997 149.941 54.6688 149.848C54.7543 149.735 54.8776 149.656 55.0164 149.625C55.1551 149.595 55.3002 149.616 55.4252 149.683C55.5502 149.751 55.6468 149.861 55.6976 149.993C55.7484 150.126 55.7499 150.272 55.7019 150.406L55.6566 150.531Z" fill="#000072"/>
<path d="M58.1991 157.55C58.1847 157.201 58.193 156.924 58.2041 156.616C58.2151 156.308 58.2339 156.017 58.2633 155.719C58.3168 155.119 58.4092 154.523 58.5399 153.935C58.6783 153.343 58.8432 152.752 59.101 152.177C59.3572 151.583 59.7096 151.036 60.1441 150.557C60.2582 150.434 60.4141 150.359 60.5812 150.345C60.7483 150.331 60.9145 150.381 61.0471 150.483C61.1798 150.586 61.2692 150.734 61.298 150.899C61.3268 151.064 61.2928 151.234 61.2027 151.376L61.1772 151.416C60.9318 151.819 60.7517 152.259 60.6438 152.718C60.5248 153.191 60.4778 153.698 60.4479 154.203C60.4263 154.717 60.4381 155.232 60.4833 155.744C60.5027 156.002 60.5326 156.26 60.5674 156.515C60.6023 156.77 60.6449 157.04 60.6925 157.245C60.7646 157.57 60.7055 157.91 60.5281 158.192C60.3507 158.473 60.0694 158.673 59.7453 158.748C59.4211 158.823 59.0805 158.767 58.7973 158.593C58.5142 158.418 58.3115 158.138 58.2334 157.815C58.2159 157.741 58.2053 157.665 58.2018 157.589L58.1991 157.55Z" fill="#000072"/>
<path d="M142.799 137.124C142.206 143.457 138.43 150.983 129.131 155.414C127.654 156.113 126.129 156.703 124.567 157.181H124.561C118.903 158.934 111.689 159.692 102.603 158.878C98.5311 158.525 94.5206 157.654 90.6686 156.286C88.4827 155.506 86.3599 154.56 84.3189 153.456C80.7418 151.52 77.4464 149.104 74.5246 146.275C74.4649 146.219 74.4051 146.164 74.3459 146.102C74.3332 146.09 74.3204 146.077 74.3083 146.065C74.0947 145.858 73.8844 145.647 73.6741 145.434C68.7938 140.449 65.1379 134.398 62.9945 127.759C62.2855 125.565 61.7557 123.317 61.4102 121.037C61.087 118.95 60.9243 116.841 60.9238 114.729C60.9238 114.5 60.9271 114.267 60.9299 114.038C60.9332 113.866 60.9366 113.693 60.9426 113.518C60.946 113.411 60.9487 113.307 60.952 113.201C60.9581 113.018 60.9675 112.836 60.977 112.654C60.9864 112.463 60.9958 112.275 61.0118 112.083C61.0522 111.427 61.112 110.771 61.1872 110.116C61.206 109.95 61.2249 109.792 61.247 109.629C61.2658 109.485 61.2846 109.34 61.3067 109.196C61.335 108.975 61.3693 108.753 61.4041 108.527C61.4794 108.054 61.5607 107.583 61.652 107.109C61.6863 106.933 61.724 106.757 61.7583 106.582C61.8136 106.321 61.869 106.061 61.9309 105.801C61.9863 105.574 62.0377 105.352 62.0942 105.129C62.1412 104.941 62.1882 104.752 62.2386 104.567C62.2734 104.442 62.3044 104.316 62.3393 104.194C62.3797 104.059 62.4173 103.92 62.4555 103.783C62.4555 103.77 62.4616 103.76 62.4649 103.748C62.5463 103.471 62.6309 103.194 62.7189 102.918V102.912C62.8036 102.645 62.8915 102.381 62.9823 102.115C62.9917 102.08 63.0044 102.046 63.0172 102.011C63.0172 102.008 63.0172 102.005 63.0172 102.001C63.1085 101.735 63.2025 101.465 63.3027 101.198C63.4067 100.912 63.5163 100.63 63.6292 100.348C63.7203 100.115 63.8145 99.883 63.9119 99.6506C63.9495 99.5632 63.9872 99.4719 64.0226 99.3839C64.1167 99.1626 64.2107 98.9479 64.3114 98.7282C64.3363 98.6684 64.3668 98.6092 64.3928 98.5522C64.3961 98.5495 64.3961 98.5428 64.3989 98.5401C64.4183 98.4892 64.4414 98.4398 64.468 98.3923C64.5529 98.2042 64.6409 98.0159 64.732 97.8274C64.8637 97.5507 65.0015 97.274 65.1431 96.9973L112.911 93.561C112.914 93.566 112.916 93.5712 112.917 93.5765C112.955 93.6872 113.194 94.3551 113.627 95.3716C113.708 95.5631 113.796 95.7672 113.893 95.9836C113.944 96.0943 113.997 96.2127 114.05 96.3322C114.161 96.5707 114.272 96.8214 114.398 97.082C114.449 97.1927 114.502 97.3033 114.558 97.414C114.567 97.4344 114.576 97.4544 114.587 97.4738C114.672 97.6497 114.763 97.8318 114.853 98.0138C114.882 98.0692 114.913 98.1245 114.941 98.1865C114.97 98.2485 114.997 98.2927 115.023 98.3464C115.045 98.3901 115.067 98.4311 115.089 98.4748C115.214 98.7164 115.346 98.9643 115.484 99.2185C115.622 99.473 115.761 99.7303 115.911 99.9932C115.977 100.112 116.049 100.234 116.118 100.357C116.357 100.768 116.608 101.182 116.871 101.603C116.953 101.735 117.037 101.867 117.123 101.999C117.22 102.146 117.317 102.297 117.418 102.447C117.518 102.598 117.618 102.748 117.722 102.899C117.825 103.049 117.923 103.191 118.026 103.338C118.243 103.643 118.466 103.947 118.695 104.248C118.805 104.399 118.921 104.547 119.04 104.697C119.056 104.719 119.075 104.741 119.095 104.766C119.312 105.036 119.531 105.309 119.759 105.576C119.878 105.717 119.998 105.855 120.12 105.994C120.123 105.994 120.127 106.003 120.133 106.006C120.258 106.15 120.387 106.291 120.52 106.433C120.624 106.544 120.73 106.662 120.837 106.772C120.878 106.815 120.919 106.856 120.96 106.897C121.076 107.02 121.195 107.139 121.318 107.258C121.453 107.396 121.594 107.531 121.732 107.66C121.87 107.788 122.009 107.92 122.155 108.047C122.272 108.154 122.391 108.257 122.513 108.361C122.683 108.509 122.855 108.65 123.031 108.791C127.704 112.538 134.85 116.336 139.181 123.024C139.835 124.031 140.41 125.087 140.901 126.184C141.892 128.409 142.576 130.919 142.821 133.781C142.916 134.894 142.908 136.013 142.799 137.124Z" fill="white"/>
<g opacity="0.4">
<path opacity="0.2" d="M117.129 101.996C109.885 107.836 99.7744 111.465 88.5923 111.465C78.5971 111.465 69.4613 108.565 62.457 103.782C63.1353 101.439 64.037 99.1672 65.1496 96.9968L112.918 93.5605C112.918 93.5605 114.326 97.6465 117.129 101.996Z" fill="#000072"/>
</g>
<path d="M109.594 160.459C107.317 160.459 104.95 160.348 102.491 160.127C98.3127 159.762 94.1981 158.869 90.2455 157.467C87.9998 156.666 85.8186 155.695 83.721 154.562C80.0429 152.572 76.6545 150.089 73.65 147.18C73.5875 147.121 73.5222 147.059 73.4563 146.993L73.4187 146.955C73.2123 146.755 72.9954 146.538 72.7785 146.318C67.7636 141.189 64.0048 134.969 61.7967 128.144C61.0676 125.885 60.5223 123.571 60.166 121.224C59.8345 119.075 59.6681 116.904 59.668 114.729C59.668 114.501 59.6713 114.269 59.6741 114.041C59.6779 113.836 59.6812 113.654 59.6879 113.473L59.6967 113.164C59.7034 112.976 59.7128 112.795 59.7216 112.614C59.7333 112.388 59.7432 112.186 59.7604 111.981C59.7991 111.35 59.8605 110.666 59.9402 109.973C59.9596 109.801 59.9795 109.633 60.0027 109.461C60.021 109.319 60.0409 109.171 60.0631 109.023C60.0913 108.801 60.1261 108.576 60.1605 108.352C60.2451 107.818 60.3265 107.341 60.4189 106.872L60.54 106.277C60.5954 106.025 60.6507 105.773 60.7061 105.521C60.7614 105.28 60.8167 105.05 60.8759 104.82C60.9274 104.616 60.975 104.425 61.0259 104.238L61.0679 104.082C61.0879 104.005 61.1083 103.929 61.1294 103.854C61.1736 103.707 61.2079 103.577 61.24 103.452C61.2434 103.441 61.2461 103.43 61.2483 103.423C61.3335 103.129 61.4143 102.861 61.4996 102.593C61.5051 102.571 61.5117 102.549 61.5184 102.527C61.603 102.261 61.6905 101.997 61.7812 101.731C61.795 101.686 61.8105 101.641 61.8266 101.596C61.8269 101.595 61.8269 101.593 61.8266 101.592C61.9223 101.315 62.0203 101.031 62.1254 100.752C62.2305 100.473 62.3434 100.172 62.4613 99.8774C62.5526 99.6444 62.6505 99.4032 62.7512 99.1619L62.8685 98.8852C62.9643 98.6611 63.0606 98.4426 63.1624 98.2173C63.19 98.1526 63.2177 98.0879 63.2504 98.0259C63.2675 97.9844 63.2858 97.944 63.3057 97.9036L63.3284 97.8532C63.4269 97.6424 63.5149 97.4543 63.6051 97.2695C63.7345 96.9928 63.8817 96.7045 64.0273 96.4179C64.1261 96.2269 64.2722 96.0645 64.4518 95.9462C64.6313 95.8279 64.8382 95.7577 65.0526 95.7422L112.821 92.3059C113.067 92.2884 113.312 92.3437 113.527 92.4648C113.742 92.5859 113.916 92.7675 114.029 92.9871C114.059 93.0484 114.086 93.1118 114.108 93.1769C114.144 93.2875 114.378 93.9311 114.781 94.8768C114.86 95.061 114.947 95.258 115.038 95.4666L115.271 95.9807C115.353 96.1594 115.437 96.3443 115.529 96.5341C115.585 96.6536 115.631 96.7504 115.681 96.85C115.69 96.8677 115.699 96.886 115.707 96.9054L115.711 96.9137C115.798 97.0952 115.882 97.2661 115.972 97.4432L116.001 97.4985C116.024 97.5428 116.047 97.5871 116.069 97.633L116.132 97.7581L116.146 97.7835L116.212 97.9136C116.323 98.1305 116.453 98.3712 116.587 98.618C116.722 98.8648 116.854 99.116 116.998 99.3611C117.045 99.4458 117.082 99.5105 117.119 99.5758L117.211 99.7368C117.428 100.11 117.667 100.505 117.935 100.933C118.014 101.061 118.093 101.183 118.171 101.306L118.462 101.749C118.56 101.9 118.65 102.035 118.746 102.172L118.769 102.205C118.841 102.315 118.916 102.42 118.99 102.528L119.051 102.614C119.256 102.902 119.471 103.196 119.692 103.486C119.803 103.635 119.91 103.774 120.024 103.916C120.033 103.927 120.042 103.94 120.051 103.952L120.072 103.978C120.28 104.237 120.491 104.5 120.711 104.753C120.821 104.885 120.929 105.008 121.037 105.131C121.051 105.146 121.065 105.161 121.079 105.177C121.195 105.31 121.314 105.441 121.436 105.571C121.539 105.682 121.637 105.793 121.735 105.892L121.756 105.913C121.785 105.945 121.815 105.975 121.845 106.005L121.868 106.028C121.969 106.135 122.073 106.241 122.179 106.342L122.213 106.375C122.334 106.5 122.461 106.621 122.586 106.737C122.722 106.864 122.852 106.985 122.988 107.106C123.106 107.217 123.212 107.307 123.32 107.399C123.491 107.548 123.652 107.679 123.814 107.809C124.99 108.753 126.344 109.711 127.778 110.725C132.047 113.748 136.887 117.175 140.231 122.337C140.92 123.399 141.526 124.514 142.044 125.67C143.144 128.139 143.825 130.831 144.068 133.671C144.168 134.858 144.159 136.052 144.042 137.237C143.675 141.157 141.539 150.886 129.662 156.544C128.132 157.269 126.552 157.883 124.934 158.38C124.912 158.387 124.891 158.393 124.869 158.399C120.413 159.77 115.295 160.459 109.594 160.459ZM63.672 104.088C63.672 104.096 63.6681 104.103 63.6665 104.108C63.625 104.262 63.584 104.412 63.5398 104.557C63.5292 104.596 63.5126 104.659 63.496 104.723L63.4485 104.9C63.4025 105.066 63.3594 105.242 63.3156 105.416C63.2553 105.654 63.205 105.871 63.1496 106.09C63.0943 106.324 63.0434 106.567 62.9908 106.809L62.8802 107.35C62.7961 107.788 62.7175 108.239 62.64 108.724C62.6063 108.941 62.5747 109.148 62.5482 109.354C62.5482 109.364 62.5454 109.374 62.5443 109.385C62.5233 109.52 62.5061 109.656 62.4889 109.791C62.4668 109.952 62.4491 110.104 62.4336 110.259C62.3589 110.908 62.3019 111.549 62.2637 112.161C62.2471 112.363 62.2388 112.538 62.23 112.715C62.22 112.908 62.2117 113.075 62.2056 113.242L62.1968 113.552C62.1901 113.729 62.1874 113.894 62.1846 114.059C62.1813 114.29 62.178 114.51 62.178 114.727C62.179 116.775 62.3368 118.82 62.65 120.843C62.9863 123.058 63.5009 125.241 64.1888 127.373C66.2767 133.825 69.8301 139.705 74.5708 144.554C74.7717 144.758 74.9753 144.962 75.1822 145.163L75.2331 145.213C75.2824 145.263 75.3316 145.31 75.3809 145.356C78.2253 148.112 81.4335 150.465 84.9162 152.35C86.9007 153.424 88.9645 154.344 91.0894 155.103C94.8418 156.433 98.748 157.281 102.714 157.627C111.029 158.371 118.253 157.817 124.187 155.98C124.209 155.973 124.231 155.967 124.253 155.962C125.736 155.505 127.185 154.942 128.589 154.279C139.303 149.174 141.221 140.5 141.548 137.006V137.001C141.651 135.966 141.659 134.924 141.573 133.888C141.351 131.326 140.743 128.908 139.756 126.694C139.292 125.658 138.748 124.659 138.129 123.706C135.048 118.947 130.418 115.671 126.332 112.779C124.868 111.742 123.484 110.762 122.247 109.771C122.058 109.618 121.873 109.466 121.691 109.308C121.569 109.205 121.436 109.09 121.308 108.972C121.179 108.853 121.031 108.717 120.881 108.58C120.731 108.443 120.582 108.297 120.439 108.151C120.311 108.029 120.185 107.9 120.063 107.772C120.019 107.728 119.974 107.683 119.93 107.635C119.819 107.52 119.709 107.398 119.598 107.28C119.473 107.146 119.345 107.006 119.22 106.862C119.205 106.847 119.191 106.831 119.177 106.815C119.051 106.673 118.928 106.531 118.805 106.385C118.573 106.115 118.345 105.831 118.119 105.551L118.095 105.519L118.049 105.46C117.927 105.306 117.811 105.155 117.696 105C117.474 104.712 117.243 104.394 117.009 104.065L116.946 103.977C116.859 103.853 116.773 103.731 116.691 103.606C116.581 103.446 116.47 103.287 116.368 103.127C116.313 103.047 116.253 102.952 116.191 102.858L116.08 102.688C115.979 102.531 115.893 102.397 115.81 102.262C115.533 101.816 115.276 101.396 115.038 100.986L114.949 100.829C114.904 100.752 114.86 100.675 114.818 100.599C114.672 100.346 114.523 100.075 114.381 99.8082C114.245 99.5576 114.11 99.303 113.98 99.0546L113.838 98.7746C113.829 98.758 113.82 98.7408 113.812 98.7237L113.736 98.5759C113.642 98.39 113.55 98.2035 113.46 98.0198C113.448 97.9971 113.435 97.9706 113.423 97.9429C113.367 97.8283 113.312 97.7166 113.26 97.6048C113.172 97.4216 113.081 97.2219 112.992 97.0288L112.75 96.4948C112.651 96.2734 112.56 96.0626 112.473 95.8645C112.314 95.491 112.179 95.159 112.069 94.8806L65.9463 98.2007L65.8683 98.3667C65.7758 98.5549 65.6951 98.7281 65.6143 98.9007L65.5805 98.9738C65.5761 98.9848 65.5805 98.9738 65.5805 98.9655C65.5624 99.0167 65.5407 99.0666 65.5158 99.1149C65.4992 99.1475 65.4826 99.1824 65.4682 99.2173L65.4532 99.251C65.357 99.4618 65.2668 99.6693 65.1766 99.8796L65.0659 100.146C64.9757 100.36 64.8855 100.583 64.7975 100.81C64.6869 101.086 64.5817 101.357 64.4827 101.63C64.3836 101.904 64.2934 102.151 64.206 102.405L64.1927 102.443L64.1822 102.472C64.1779 102.49 64.1726 102.507 64.1661 102.524C64.0848 102.763 64.0057 102.999 63.9293 103.238C63.9238 103.26 63.9177 103.281 63.9111 103.302C63.8308 103.56 63.75 103.823 63.672 104.088ZM115.751 97.0105C115.751 97.0105 115.751 97.0138 115.751 97.0105V97.0105ZM115.751 97.0055V97.0099V97.0055Z" fill="#000072"/>
<path d="M121.48 158.756C118.623 158.756 116.107 157.926 113.971 156.272C109.628 152.909 107.798 146.706 107.533 142.021C107.469 140.888 107.443 138.808 107.995 137.612C109.053 135.319 110.978 134.648 112.477 134.602C112.69 133.562 113.141 132.075 114.089 130.842C114.103 130.821 114.118 130.801 114.133 130.782C114.806 129.924 115.634 129.305 116.594 128.942C119.488 127.844 121.879 129.323 123.298 130.869C124.63 129.659 126.748 128.656 129.243 129.774C131.124 130.618 132.914 132.88 134.156 135.982C136.971 143.003 136.379 152.296 129.8 156.474C128.366 157.385 126.687 158.037 124.81 158.41L124.754 158.42C123.676 158.638 122.58 158.751 121.48 158.756ZM112.601 137.103C111.918 137.103 110.882 137.347 110.277 138.663C110.148 138.94 109.933 139.973 110.042 141.879C110.275 146.012 111.834 151.441 115.51 154.287C117.839 156.091 120.802 156.65 124.317 155.947C124.334 155.943 124.352 155.94 124.369 155.937C125.922 155.623 127.298 155.09 128.457 154.351C134.517 150.503 133.793 141.814 131.828 136.913C130.855 134.483 129.472 132.625 128.217 132.062C125.982 131.059 124.454 133.283 124.288 133.54C124.171 133.721 124.01 133.868 123.82 133.969C123.629 134.069 123.417 134.119 123.201 134.114C122.986 134.109 122.776 134.048 122.591 133.939C122.406 133.829 122.252 133.674 122.144 133.488C122.068 133.36 120.211 130.255 117.488 131.287C116.97 131.483 116.532 131.809 116.149 132.283C116.138 132.299 116.125 132.316 116.113 132.332C114.958 133.803 114.805 136.011 114.803 136.033C114.791 136.218 114.739 136.398 114.649 136.561C114.56 136.723 114.435 136.864 114.285 136.972C114.135 137.081 113.962 137.155 113.78 137.19C113.597 137.224 113.41 137.217 113.23 137.171C113.024 137.124 112.813 137.101 112.601 137.103Z" fill="#000072"/>
<path d="M119.057 138.365C120.189 138.231 121.009 137.307 120.89 136.301C120.77 135.296 119.756 134.59 118.625 134.724C117.493 134.859 116.673 135.783 116.793 136.788C116.912 137.794 117.926 138.5 119.057 138.365Z" fill="#ED2D21"/>
<path d="M126.723 138.391C127.879 138.391 128.817 137.57 128.817 136.558C128.817 135.545 127.879 134.725 126.723 134.725C125.566 134.725 124.629 135.545 124.629 136.558C124.629 137.57 125.566 138.391 126.723 138.391Z" fill="#ED2D21"/>
<path d="M113.712 142.327C114.624 142.097 115.193 141.232 114.982 140.394C114.771 139.556 113.861 139.062 112.949 139.291C112.036 139.521 111.468 140.386 111.678 141.224C111.889 142.062 112.799 142.556 113.712 142.327Z" fill="#ED2D21"/>
<path d="M114.556 149.795C113.616 148.455 113.933 143.076 119.426 141.509C125.125 139.883 129.94 143.578 128.994 147.561C128.114 151.268 125.342 149.38 122.237 149.795C119.628 150.144 116.318 152.302 114.556 149.795Z" fill="#ED2D21"/>
<path d="M113.901 131.257C113.941 131.096 113.971 130.992 114.007 130.866L114.118 130.512C114.195 130.28 114.279 130.053 114.368 129.829C114.542 129.38 114.737 128.941 114.951 128.512C115.385 127.652 115.898 126.834 116.484 126.069C117.075 125.298 117.746 124.591 118.486 123.96C119.232 123.33 120.046 122.786 120.913 122.337C121.134 122.232 121.345 122.112 121.572 122.022L122.246 121.746C122.707 121.593 123.161 121.425 123.633 121.326C124.099 121.199 124.574 121.139 125.046 121.057C125.282 121.031 125.519 121.01 125.756 120.99L126.111 120.962L126.465 120.956C128.355 120.909 130.2 121.233 131.932 121.786C132.048 121.824 132.145 121.904 132.206 122.009C132.266 122.115 132.285 122.24 132.259 122.359C132.233 122.478 132.164 122.583 132.064 122.653C131.965 122.724 131.843 122.755 131.722 122.741C129.99 122.531 128.264 122.507 126.613 122.738L126.303 122.779L125.998 122.843L125.39 122.965C124.994 123.076 124.594 123.167 124.214 123.316C123.827 123.441 123.458 123.608 123.087 123.766L122.549 124.042C122.369 124.13 122.203 124.246 122.029 124.345C120.66 125.175 119.484 126.302 118.535 127.61C118.059 128.269 117.634 128.963 117.266 129.687C117.075 130.048 116.9 130.417 116.745 130.794C116.665 130.98 116.592 131.169 116.523 131.356L116.421 131.633L116.338 131.879L116.31 131.961C116.207 132.268 115.989 132.523 115.702 132.673C115.415 132.823 115.082 132.856 114.771 132.766C114.46 132.675 114.196 132.468 114.035 132.188C113.873 131.907 113.826 131.575 113.904 131.261L113.901 131.257Z" fill="#000072"/>
<path d="M103.804 134.299C103.568 135.391 103.296 136.439 102.994 137.45V137.453C102.12 140.414 100.906 143.264 99.3756 145.945C96.5889 150.81 93.2594 154.164 90.667 156.286C89.7263 157.048 88.8874 157.654 88.2062 158.112C87.1368 158.826 85.88 159.208 84.594 159.21C79.1396 159.222 73.1457 159.222 69.3481 158.014C66.988 157.264 65.4746 156.043 65.4746 154.07C65.4746 148.568 72.6931 146.333 72.6931 146.333C73.0431 146.06 73.3715 145.76 73.6753 145.436C74.2698 144.805 74.8094 144.125 75.2883 143.402C75.731 142.752 76.1637 142.04 76.5842 141.287C79.3963 136.241 81.675 129.252 82.8454 125.304V125.294L82.8487 125.291C83.3943 123.445 83.6959 122.269 83.6959 122.269L103.804 134.299Z" fill="white"/>
<path d="M104.413 134.43C104.28 135.53 104.089 136.622 103.84 137.702L103.877 137.45V137.453C103.881 137.498 103.878 137.543 103.868 137.586L103.841 137.704C103.246 140.31 102.355 142.84 101.185 145.243C100.018 147.668 98.5545 149.938 96.8289 152.003C95.9653 153.034 95.046 154.016 94.0749 154.947C93.1094 155.885 92.0948 156.772 91.0353 157.603C90.5069 158.018 89.969 158.423 89.4151 158.811L88.9974 159.099C88.8618 159.19 88.6819 159.309 88.5198 159.402C88.1857 159.599 87.8372 159.771 87.4773 159.915C86.7568 160.205 85.9972 160.385 85.2235 160.45C85.0309 160.466 84.8362 160.475 84.6442 160.478L84.1461 160.481L83.17 160.484C80.5643 160.49 77.9425 160.474 75.2898 160.3C73.9617 160.21 72.6287 160.076 71.2802 159.834C70.9427 159.768 70.6062 159.713 70.2665 159.628L69.7579 159.51L69.2472 159.366C68.5411 159.169 67.8555 158.906 67.1998 158.578C66.5219 158.234 65.8325 157.769 65.2481 157.102C64.9516 156.755 64.7047 156.368 64.5144 155.952C64.3322 155.528 64.2122 155.079 64.158 154.621C64.142 154.51 64.142 154.399 64.1348 154.289C64.1271 154.182 64.1251 154.075 64.1287 153.968C64.1376 153.771 64.1381 153.573 64.1586 153.375C64.1791 153.178 64.2012 152.979 64.2366 152.784C64.272 152.588 64.3113 152.391 64.3639 152.2C64.5663 151.436 64.8853 150.708 65.3095 150.042C66.1434 148.73 67.264 147.722 68.4476 146.923C69.0362 146.524 69.6523 146.169 70.2914 145.858C70.6084 145.702 70.9288 145.556 71.2553 145.421C71.4213 145.354 71.584 145.288 71.7533 145.225C71.9226 145.162 72.0776 145.105 72.2923 145.037L71.8634 145.258C73.1422 144.253 74.2301 142.672 75.1835 141.065C76.1419 139.435 76.9609 137.69 77.7511 135.93C77.9503 135.491 78.1345 135.045 78.3271 134.599L78.8805 133.255C79.254 132.358 79.607 131.451 79.9584 130.543C80.6683 128.728 81.3418 126.894 82.0157 125.056L81.9798 125.301V125.292L81.9864 125.187C81.9983 124.993 82.0869 124.811 82.2327 124.682L82.236 124.679L82.0191 125.044C82.3555 124.064 82.7119 123.087 83.0804 122.111L83.0909 122.084C83.1445 121.932 83.2537 121.807 83.3964 121.733C83.5391 121.659 83.7045 121.642 83.8592 121.685C84.014 121.729 84.1464 121.829 84.2298 121.967C84.3132 122.104 84.3412 122.268 84.3083 122.425C84.1118 123.463 83.9038 124.501 83.6752 125.536C83.6522 125.639 83.6035 125.736 83.5336 125.816L83.4578 125.901V125.904L83.7107 125.295V125.305C83.7134 125.352 83.7097 125.399 83.6996 125.445L83.6747 125.55C83.232 127.484 82.6997 129.397 82.1137 131.298C81.5116 133.193 80.8615 135.078 80.0951 136.93C79.3405 138.804 78.4685 140.63 77.4844 142.395C77.232 142.838 76.9686 143.28 76.687 143.723C76.5442 143.944 76.4026 144.156 76.2581 144.37C76.1137 144.584 75.956 144.801 75.7966 145.014C75.4741 145.447 75.1289 145.862 74.7624 146.258C74.382 146.675 73.968 147.06 73.5246 147.409C73.4045 147.502 73.2694 147.575 73.1251 147.623L73.0957 147.632C73.0011 147.663 72.8456 147.719 72.7161 147.769C72.5867 147.818 72.4444 147.876 72.3083 147.935C72.0355 148.049 71.766 148.175 71.501 148.306C70.9738 148.568 70.4637 148.862 69.9737 149.188C69.0065 149.831 68.1671 150.613 67.6026 151.497C67.3252 151.926 67.1156 152.395 66.9812 152.889C66.9464 153.009 66.9259 153.134 66.8999 153.256C66.8739 153.377 66.8678 153.505 66.8484 153.629C66.829 153.753 66.8368 153.881 66.8285 154.008C66.8242 154.063 66.8242 154.118 66.8285 154.174C66.8329 154.224 66.8285 154.278 66.8373 154.325C66.8597 154.512 66.9068 154.695 66.9773 154.87C67.06 155.044 67.1643 155.207 67.2878 155.356C67.6116 155.708 67.9979 155.998 68.4271 156.209C69.38 156.704 70.5636 157.017 71.7605 157.249C72.9663 157.479 74.2179 157.619 75.4807 157.718C78.01 157.916 80.5859 157.933 83.1722 157.942H84.1439H84.622C84.753 157.942 84.8839 157.937 85.0149 157.925C85.8007 157.864 86.5625 157.626 87.2432 157.229C87.3628 157.16 87.4541 157.101 87.5885 157.011L87.9759 156.748C88.4866 156.393 88.9902 156.022 89.4815 155.633C90.4563 154.849 91.3857 154.009 92.2654 153.119C93.1411 152.223 93.9709 151.283 94.7516 150.303C96.3167 148.344 97.728 146.266 98.9731 144.089C100.213 141.9 101.258 139.593 102.151 137.207L102.115 137.458V137.455L102.123 137.329C102.127 137.286 102.136 137.244 102.151 137.203C102.528 136.207 102.87 135.194 103.199 134.173C103.247 134.026 103.348 133.902 103.482 133.825C103.616 133.748 103.774 133.724 103.925 133.757C104.076 133.789 104.21 133.877 104.3 134.003C104.39 134.128 104.43 134.283 104.413 134.437L104.413 134.43Z" fill="#000072"/>
<path d="M72.3897 145.113C72.6907 145.052 72.9248 145.017 73.1854 144.981C73.446 144.945 73.6923 144.918 73.9446 144.896C74.4493 144.847 74.9534 144.825 75.4575 144.815C76.4675 144.801 77.4769 144.868 78.476 145.017C79.483 145.165 80.472 145.416 81.427 145.768L82.1397 146.049C82.3727 146.154 82.6007 146.274 82.8303 146.386L83.1734 146.557L83.5015 146.759L84.1539 147.164C84.3417 147.279 84.4776 147.462 84.5327 147.675C84.5878 147.888 84.5577 148.114 84.449 148.305C84.3403 148.496 84.1614 148.638 83.9502 148.699C83.739 148.761 83.5122 148.737 83.3178 148.635L83.2365 148.592L82.6554 148.288L82.366 148.137L82.0617 148.013C81.8586 147.931 81.6594 147.843 81.453 147.767L80.8255 147.571C79.9781 147.327 79.1076 147.171 78.2281 147.107C77.342 147.039 76.4519 147.044 75.5665 147.12C75.1238 147.16 74.6811 147.212 74.2451 147.286C74.0263 147.321 73.8101 147.361 73.5965 147.406C73.3896 147.449 73.1577 147.503 72.9967 147.549L72.9823 147.553C72.6639 147.637 72.325 147.593 72.0388 147.43C71.7526 147.267 71.5419 146.998 71.452 146.681C71.3621 146.364 71.4003 146.024 71.5583 145.735C71.7163 145.446 71.9814 145.231 72.2967 145.135C72.3277 145.127 72.3604 145.119 72.3897 145.113Z" fill="#000072"/>
<path d="M72.1753 152.289C72.0805 152.501 71.9976 152.719 71.9269 152.94C71.8505 153.172 71.7885 153.411 71.7321 153.649C71.6233 154.129 71.5455 154.616 71.4991 155.106C71.4544 155.596 71.436 156.088 71.4438 156.58C71.4438 156.824 71.4626 157.072 71.4704 157.315L71.5318 158.048L71.5351 158.085C71.5631 158.42 71.457 158.752 71.2401 159.009C71.0231 159.266 70.7132 159.426 70.3783 159.454C70.0435 159.482 69.7112 159.375 69.4547 159.159C69.1981 158.942 69.0382 158.632 69.0102 158.297C69.0018 158.194 69.0057 158.091 69.0218 157.989L69.1563 157.159C69.2149 156.882 69.2619 156.606 69.33 156.335C69.4577 155.788 69.6143 155.249 69.7992 154.719C69.9851 154.191 70.2049 153.675 70.4572 153.174C70.5856 152.925 70.72 152.679 70.8711 152.44C71.0243 152.189 71.1942 151.948 71.3796 151.72C71.4549 151.629 71.5608 151.568 71.6775 151.549C71.7943 151.53 71.914 151.554 72.0146 151.616C72.1151 151.678 72.1897 151.775 72.2244 151.888C72.2592 152.001 72.2518 152.123 72.2036 152.231L72.1753 152.289Z" fill="#000072"/>
<path d="M78.2957 152.992C78.1645 153.462 78.0568 153.938 77.9731 154.419C77.8868 154.905 77.8248 155.393 77.7856 155.88C77.7429 156.361 77.7262 156.845 77.7358 157.328C77.7439 157.8 77.7781 158.271 77.8381 158.739V158.759C77.8698 159.088 77.7711 159.417 77.563 159.674C77.355 159.931 77.0543 160.097 76.7257 160.135C76.397 160.173 76.0665 160.08 75.8053 159.877C75.544 159.674 75.3729 159.377 75.3287 159.049C75.3201 158.962 75.3201 158.874 75.3287 158.788C75.3741 158.228 75.4507 157.672 75.5583 157.121C75.6616 156.581 75.7937 156.047 75.954 155.521C76.11 154.999 76.2893 154.488 76.4918 153.987C76.6938 153.481 76.9226 152.985 77.1774 152.503C77.2427 152.361 77.3601 152.25 77.5053 152.192C77.6505 152.134 77.8123 152.135 77.9573 152.193C78.1023 152.251 78.2193 152.363 78.2842 152.505C78.349 152.647 78.3567 152.809 78.3057 152.956L78.2957 152.992Z" fill="#000072"/>
<path d="M135.516 80.1042C135.921 80.4914 136.159 81.0209 136.181 81.5808C136.203 82.1407 136.006 82.6871 135.632 83.1045C129.493 89.966 107.892 111.449 70.1152 100.503C44.6998 93.14 37.431 74.8568 35.6957 63.1009C35.1424 59.3536 35.1495 56.2687 35.3084 54.4105C35.4152 53.1616 36.3442 52.1102 37.581 51.9C47.2812 50.2587 50.0712 42.7697 52.3244 39.3942C52.3244 39.3942 59.3011 8.19637 69.3842 5.47831C70.6741 5.13026 71.9767 5.20828 73.3163 5.75775C76.2635 6.95963 79.4032 10.443 83.0077 16.7041C83.3223 16.5689 83.6439 16.4505 83.9711 16.3494C87.3166 15.2759 98.6741 12.9917 106.727 27.7916L109.247 29.5396C109.247 29.5396 128.588 17.1651 135.55 23.0937C136.197 23.647 136.68 24.4527 137.025 25.4664C140.411 35.3714 130.651 64.8649 130.651 64.8649C130.651 64.8649 131.502 76.2911 135.516 80.1042Z" fill="white"/>
<path d="M76.0426 23.4954C73.4723 24.1545 71.0746 25.14 69.0444 26.1515C65.2407 28.0379 62.7207 29.999 62.7207 29.999C62.7207 29.999 66.3894 11.8945 70.8583 11.2072C71.8371 11.0561 72.7031 12.1578 73.4347 13.7554C75.0853 17.3599 76.0426 23.4954 76.0426 23.4954Z" fill="#ED2D21"/>
<path d="M126.065 50.5372C125 47.1088 123.45 43.8498 121.465 40.8586C118.499 36.424 115.639 34.2626 115.639 34.2626C115.639 34.2626 126.786 26.4139 129.538 28.6483C129.694 28.7791 129.825 28.9365 129.926 29.1131C132.204 33.022 126.065 50.5372 126.065 50.5372Z" fill="#ED2D21"/>
<path d="M90.0735 104.96C83.4259 104.96 76.6472 103.873 69.7374 101.7C52.9797 96.4189 44.2667 85.5273 39.9085 77.3206C34.5709 67.2696 33.7469 57.8692 34.0568 54.3012L35.3074 54.4119L34.0568 54.3012C34.2167 52.4619 35.5796 50.9651 37.3719 50.6619C45.0081 49.3681 47.9785 44.2784 50.1454 40.5621C50.4946 39.9639 50.8261 39.3951 51.1509 38.8932C51.4646 37.5419 53.18 30.3716 55.8947 23.0198C60.031 11.8139 64.4595 5.50352 69.0573 4.26457C73.8294 2.97859 78.3231 6.34406 83.5589 15.1617C86.104 14.3566 88.7919 14.1058 91.442 14.4263C96.0143 14.9863 102.524 17.6152 107.686 26.9276L109.287 28.0376C110.852 27.0858 114.787 24.7961 119.309 22.9307C127.35 19.6145 133.087 19.3472 136.362 22.1367C139.674 24.9588 139.862 32.9165 136.936 46.4658C135.019 55.3432 132.343 63.7043 131.903 65.0645C131.91 66.3372 132.131 74.2838 136.464 79.2795C137.682 80.6844 137.725 82.6449 136.566 83.9403C133.855 86.9694 126.283 94.5746 114.514 99.7573C106.645 103.225 98.4739 104.959 90.0735 104.96ZM70.9691 6.51892C70.5438 6.52081 70.1206 6.57943 69.7108 6.69323C62.0436 8.75944 55.4443 31.2 53.5486 39.6729C53.515 39.824 53.4536 39.9675 53.3676 40.0962C53.0444 40.5804 52.7036 41.1608 52.3162 41.8326C50.0359 45.7431 46.5896 51.6535 37.7925 53.1425C37.1284 53.2532 36.6205 53.8232 36.5596 54.5259C35.9874 61.1108 40.2266 89.7743 70.4932 99.3107C77.4466 101.502 83.9324 102.409 89.902 102.409C115.14 102.409 131.182 86.1997 134.697 82.2736C135.058 81.8697 134.884 81.2948 134.569 80.9318C129.227 74.7735 129.386 65.2426 129.396 64.8398C129.399 64.7156 129.42 64.5926 129.459 64.4746C133.941 50.9275 139.337 27.9751 134.736 24.0551C129.609 19.6881 115.089 27.3011 109.927 30.6029C109.718 30.7364 109.474 30.8052 109.227 30.8005C108.979 30.7959 108.738 30.7181 108.535 30.5769L106.01 28.8239C105.849 28.7122 105.716 28.5644 105.623 28.3923C96.784 12.1443 84.0597 17.6075 83.5224 17.8493C83.2383 17.9769 82.9169 17.9946 82.6205 17.8989C82.324 17.8032 82.0736 17.601 81.9177 17.3314C76.7378 8.3245 73.2838 6.51615 70.9691 6.51615V6.51892Z" fill="#000072"/>
<path d="M62.7239 30.5331C62.5372 30.533 62.3528 30.4912 62.1842 30.4108C62.0157 30.3304 61.8671 30.2135 61.7494 30.0684C61.6318 29.9234 61.5479 29.754 61.504 29.5725C61.4601 29.3909 61.4572 29.2019 61.4955 29.0191C61.5337 28.8387 62.4439 24.5519 63.9253 20.103C66.7872 11.505 69.145 10.198 70.6695 9.96451C71.1315 9.89369 71.8398 9.92523 72.5907 10.4808C75.4621 12.6068 76.9423 21.9434 77.2095 23.7938C77.2561 24.114 77.1772 24.4398 76.9892 24.7032C76.8012 24.9666 76.5187 25.1471 76.2008 25.2071C68.5756 26.6491 63.5103 30.2586 63.4599 30.2952C63.2457 30.45 62.9882 30.5332 62.7239 30.5331ZM71.0209 12.4513C69.1212 12.8104 66.391 19.6172 64.6203 26.6641C67.744 24.9939 71.0805 23.7567 74.538 22.9865C74.3432 21.8577 74.0012 20.0537 73.532 18.2277C72.2349 13.1988 71.1642 12.521 71.0209 12.4513Z" fill="#000072"/>
<path d="M126.066 51.795H126.042C125.778 51.7903 125.523 51.7027 125.311 51.5446C125.1 51.3864 124.944 51.1658 124.866 50.9141C121.601 40.4679 114.945 35.319 114.878 35.2681C114.721 35.1488 114.594 34.994 114.507 34.8163C114.421 34.6386 114.378 34.4431 114.381 34.2455C114.384 34.048 114.434 33.854 114.527 33.6794C114.619 33.5048 114.752 33.3545 114.913 33.2406C115.029 33.1587 117.798 31.2154 120.959 29.516C125.733 26.949 128.71 26.3653 130.325 27.6778C131.566 28.6855 132.677 31.0981 130.244 40.8951C128.968 46.0324 127.265 50.9063 127.248 50.955C127.162 51.2001 127.002 51.4125 126.791 51.5629C126.579 51.7134 126.326 51.7945 126.066 51.795ZM117.698 34.3938C119.635 36.2199 123.32 40.2593 126.002 46.6942C126.555 44.9124 127.231 42.6205 127.813 40.2754C130.141 30.8917 128.803 29.6743 128.744 29.6273C128.733 29.6178 127.613 28.7939 122.167 31.7184C120.433 32.6491 118.793 33.6794 117.698 34.3938Z" fill="#000072"/>
<path d="M83.5532 17.8356L83.4425 17.8971L83.2981 17.9834C83.2001 18.0437 83.1022 18.1101 83.0059 18.1776C82.8132 18.3146 82.6284 18.4623 82.4525 18.6203C82.1053 18.9287 81.7991 19.2806 81.5417 19.6672C81.0432 20.4117 80.7883 21.2927 80.8124 22.1883C80.8318 23.114 81.1002 23.9197 81.6424 24.5124C81.9269 24.8218 82.2658 25.0764 82.6423 25.2632C82.8385 25.3627 83.042 25.4471 83.251 25.5156C83.3556 25.5499 83.4613 25.5792 83.5637 25.6041C83.648 25.6248 83.7333 25.6411 83.8193 25.6528L84.9465 26.8148C84.9465 26.785 84.9493 26.8193 84.9515 26.8287L84.9631 26.884L84.9924 27.0052C85.0146 27.0893 85.0422 27.1762 85.0727 27.2619C85.1351 27.4347 85.209 27.6031 85.294 27.7661C85.4647 28.0878 85.6833 28.3817 85.9425 28.6376C86.4588 29.1433 87.1444 29.5052 87.944 29.7033C88.7479 29.9177 89.586 29.972 90.4108 29.8632C91.2163 29.7662 91.9887 29.4854 92.6685 29.0426C93.3325 28.6143 93.867 28.0184 94.1266 27.3632C94.2546 27.0454 94.3203 26.7059 94.3202 26.3633C94.3156 26.1918 94.2926 26.0213 94.2516 25.8548C94.2121 25.6766 94.1566 25.5023 94.0856 25.3341C93.804 24.6806 93.3109 24.2395 92.5722 24.1045C91.8484 23.9739 90.9575 24.1776 90.3439 24.7049L90.3151 24.7293C90.2213 24.8085 90.1025 24.8517 89.9797 24.8513C89.857 24.8508 89.7384 24.8067 89.6452 24.7268C89.5521 24.647 89.4903 24.5365 89.4711 24.4153C89.4519 24.2941 89.4765 24.17 89.5404 24.0652C89.8717 23.5501 90.3348 23.133 90.8817 22.8573C91.435 22.5678 92.0491 22.414 92.6735 22.4085C93.3422 22.4005 94.0002 22.5762 94.5759 22.9165C95.1696 23.2607 95.6361 23.7908 95.9593 24.3491C96.1225 24.6254 96.2562 24.918 96.3582 25.2223C96.4643 25.5368 96.5363 25.8619 96.5729 26.1918C96.6412 26.8546 96.5676 27.5245 96.3571 28.1567C95.9371 29.4051 95.0922 30.3994 94.1111 31.1149C93.1206 31.831 91.9718 32.2681 90.7976 32.4612C89.6261 32.6419 88.4302 32.584 87.2816 32.2908C86.1373 32.0014 84.9576 31.4281 84.0628 30.4913C83.6139 30.0304 83.245 29.498 82.971 28.9159C82.8333 28.6279 82.72 28.3287 82.6324 28.0217C82.5881 27.8679 82.5499 27.7118 82.5217 27.5502C82.5057 27.4695 82.4913 27.3876 82.4791 27.3018L82.4619 27.1695L82.4459 26.9958L83.5731 28.1578C83.3757 28.1354 83.18 28.1005 82.9871 28.0532C82.8122 28.0112 82.6429 27.9636 82.4763 27.9094C82.1428 27.8002 81.8181 27.6656 81.5052 27.5065C80.8559 27.1807 80.2719 26.7387 79.7821 26.2023C79.2857 25.654 78.9044 25.0119 78.6604 24.3137C78.4136 23.6264 78.3179 22.9231 78.2991 22.2414C78.2633 20.8367 78.6628 19.4553 79.4429 18.2866C79.8182 17.7212 80.2645 17.2062 80.7709 16.7544C81.0195 16.5315 81.2806 16.3229 81.5528 16.1297C81.69 16.0334 81.8295 15.9393 81.9733 15.853L82.1947 15.7196C82.2782 15.6726 82.3347 15.6399 82.4597 15.5774C82.7525 15.4393 83.0874 15.4197 83.3943 15.5228C83.7012 15.6259 83.9564 15.8436 84.1064 16.1305C84.2565 16.4173 84.2899 16.7511 84.1995 17.062C84.1092 17.3729 83.9022 17.6368 83.6218 17.7986L83.5532 17.8356Z" fill="#000072"/>
<path d="M82.4438 27.0141C82.438 26.8153 82.4426 26.6164 82.4577 26.4181C82.4698 26.2366 82.4883 26.0579 82.513 25.882C82.5588 25.5308 82.6237 25.1824 82.7072 24.8383C82.8752 24.1512 83.122 23.4857 83.4426 22.8551C83.7635 22.2229 84.1682 21.6368 84.6456 21.1126L85.0141 20.733C85.1348 20.6052 85.2792 20.5023 85.4103 20.3866C85.6715 20.1515 85.9637 19.9639 86.2542 19.7741C86.395 19.6767 86.543 19.5901 86.6969 19.5151L87.1501 19.2794L87.621 19.0835C87.7761 19.0149 87.9356 18.9568 88.0985 18.9097C88.7371 18.6845 89.4055 18.5733 90.0646 18.5069C90.7211 18.4482 91.3821 18.4619 92.0356 18.5479C92.688 18.6267 93.3288 18.7816 93.9452 19.0093C94.0245 19.0396 94.0895 19.0988 94.1269 19.175C94.1642 19.2512 94.1713 19.3388 94.1467 19.42C94.122 19.5013 94.0675 19.5702 93.9941 19.6128C93.9206 19.6554 93.8337 19.6685 93.751 19.6496L93.7244 19.6435C93.1503 19.5144 92.5632 19.4515 91.9747 19.4559C91.3884 19.4531 90.8036 19.5156 90.2311 19.6424C89.6678 19.7746 89.115 19.9401 88.6076 20.1957C88.4775 20.2517 88.3515 20.317 88.2308 20.3911L87.8644 20.6013L87.5186 20.8443C87.4011 20.9195 87.2901 21.0042 87.1866 21.0977C86.3395 21.7775 85.6957 22.6772 85.3257 23.6984C85.1422 24.2038 85.0171 24.7284 84.9527 25.2622C84.9221 25.5284 84.9055 25.7961 84.9029 26.064C84.9007 26.1972 84.9033 26.3283 84.9107 26.4574C84.9154 26.5686 84.9263 26.6795 84.9433 26.7894C85.0056 27.1149 84.9374 27.4518 84.7536 27.7275C84.5698 28.0032 84.2851 28.1957 83.9607 28.2634C83.6363 28.3311 83.2983 28.2687 83.0196 28.0895C82.7408 27.9104 82.5436 27.6289 82.4704 27.3057C82.4561 27.2361 82.4474 27.1654 82.4444 27.0943L82.4438 27.0141Z" fill="#000072"/>
<path d="M103.574 67.3998C103.857 61.6225 100.473 56.7624 96.0163 56.5444C91.5598 56.3265 87.718 60.8332 87.4354 66.6105C87.1529 72.3878 90.5366 77.248 94.9931 77.4659C99.4496 77.6839 103.291 73.1772 103.574 67.3998Z" fill="#26B0FF"/>
<path d="M95.3037 78.7226C95.1787 78.7226 95.053 78.7226 94.9274 78.7132C92.3743 78.5887 90.058 77.2109 88.4023 74.8342C86.817 72.5577 86.0262 69.6134 86.1762 66.5434C86.3262 63.4734 87.3997 60.6225 89.1997 58.5087C91.0778 56.3047 93.5158 55.1577 96.0718 55.2838C98.6277 55.41 100.941 56.7862 102.597 59.1628C104.182 61.4398 104.972 64.3842 104.822 67.4542C104.672 70.5236 103.599 73.375 101.799 75.4888C100.013 77.5844 97.7191 78.7226 95.3037 78.7226ZM95.7021 57.7855C94.031 57.7855 92.4086 58.6155 91.1093 60.1372C89.6673 61.8288 88.8057 64.1474 88.6829 66.6668C88.56 69.1862 89.1914 71.5772 90.4613 73.4005C91.6616 75.1242 93.2906 76.1208 95.0486 76.2071C96.8066 76.2934 98.5248 75.4595 99.8877 73.8614C101.329 72.1698 102.191 69.8513 102.314 67.3319C102.437 64.8136 101.805 62.422 100.535 60.5982C99.3349 58.8745 97.7058 57.8779 95.9478 57.7921C95.8665 57.7877 95.7846 57.7855 95.7021 57.7855Z" fill="#000072"/>
<path d="M101.758 68.8506C101.999 63.921 99.7535 59.8053 96.742 59.658C93.7304 59.5107 91.0937 63.3876 90.8526 68.3172C90.6115 73.2469 92.8573 77.3626 95.8689 77.5099C98.8804 77.6571 101.517 73.7803 101.758 68.8506Z" fill="#000072"/>
<path d="M100.099 66.654C100.168 65.245 99.5263 64.0686 98.6656 64.0265C97.8048 63.9844 97.0511 65.0925 96.9822 66.5015C96.9133 67.9105 97.5552 69.0869 98.416 69.129C99.2768 69.1711 100.03 68.063 100.099 66.654Z" fill="white"/>
<g opacity="0.35">
<path opacity="0.35" d="M93.6287 73.5311C94.2534 73.4466 94.6062 72.2409 94.4165 70.8381C94.2268 69.4353 93.5666 68.3666 92.9418 68.4511C92.317 68.5355 91.9643 69.7412 92.154 71.144C92.3436 72.5468 93.0039 73.6155 93.6287 73.5311Z" fill="white"/>
</g>
<path d="M100.77 57.181C100.787 57.1985 100.805 57.2139 100.826 57.2269C100.85 57.2457 100.875 57.2651 100.905 57.2822C100.961 57.3215 101.016 57.3625 101.081 57.4001C101.202 57.4787 101.329 57.5528 101.459 57.6248C101.721 57.7686 101.992 57.8979 102.269 58.0121C102.83 58.2428 103.418 58.401 104.019 58.483C104.322 58.5383 104.625 58.5345 104.935 58.5505C105.238 58.5267 105.554 58.5345 105.858 58.4686C106.482 58.3917 107.079 58.1648 107.678 57.9119L107.711 57.8976C107.801 57.8476 107.907 57.8354 108.006 57.8636C108.105 57.8918 108.189 57.9582 108.239 58.0481C108.289 58.138 108.301 58.244 108.273 58.3429C108.245 58.4418 108.178 58.5254 108.088 58.5754C107.506 58.9877 106.883 59.39 106.18 59.6373C105.838 59.7895 105.473 59.8647 105.11 59.9693C104.742 60.0324 104.368 60.111 103.99 60.1281C103.231 60.1872 102.467 60.15 101.716 60.0174C101.339 59.9491 100.965 59.86 100.597 59.7507C100.412 59.6954 100.227 59.6351 100.044 59.5659C99.9513 59.5344 99.8572 59.4929 99.7631 59.4552C99.7172 59.437 99.6679 59.4154 99.6181 59.3922C99.5683 59.3689 99.5219 59.3496 99.4521 59.3119L98.6714 58.8941C98.4579 58.78 98.2759 58.6148 98.1415 58.4134C98.0072 58.2119 97.9247 57.9804 97.9014 57.7395C97.878 57.4985 97.9146 57.2554 98.0077 57.032C98.1009 56.8085 98.2478 56.6115 98.4354 56.4584C98.623 56.3054 98.8455 56.2011 99.0831 56.1547C99.3208 56.1083 99.5662 56.1213 99.7976 56.1926C100.029 56.2638 100.239 56.3912 100.41 56.5632C100.58 56.7352 100.705 56.9467 100.774 57.1788L100.77 57.181Z" fill="#000072"/>
<path d="M101.061 57.4285C101.126 57.5309 101.24 57.6781 101.338 57.8048C101.444 57.9348 101.549 58.0676 101.663 58.1921C101.777 58.3166 101.888 58.4483 102.007 58.5717C102.126 58.6951 102.243 58.8196 102.366 58.9386C102.854 59.4193 103.386 59.8536 103.954 60.2357C104.523 60.6074 105.136 60.9041 105.781 61.1183C106.438 61.3094 107.125 61.3803 107.808 61.3274H107.833C107.916 61.3215 107.999 61.3465 108.064 61.3976C108.13 61.4486 108.174 61.5222 108.189 61.604C108.204 61.6859 108.188 61.7702 108.144 61.841C108.1 61.9117 108.032 61.9637 107.952 61.987C107.18 62.2134 106.374 62.2968 105.572 62.2332C104.77 62.1448 103.983 61.9511 103.231 61.6572C102.488 61.3578 101.775 60.9893 101.1 60.5566C100.931 60.4504 100.763 60.3408 100.602 60.2246C100.441 60.1084 100.274 59.9938 100.115 59.871C99.9565 59.7482 99.7971 59.6231 99.6389 59.4958C99.4784 59.3597 99.3356 59.2418 99.1558 59.067L99.1005 59.0161C98.8593 58.7813 98.7214 58.4603 98.7169 58.1237C98.7124 57.7872 98.8419 57.4627 99.0767 57.2216C99.3115 56.9804 99.6325 56.8425 99.969 56.838C100.306 56.8335 100.63 56.9629 100.871 57.1978C100.943 57.2675 101.006 57.3448 101.061 57.4285Z" fill="#000072"/>
<path d="M66.3503 58.0494C68.0583 54.1968 67.4887 50.2071 65.0779 49.1383C62.6671 48.0695 59.3281 50.3263 57.6201 54.1789C55.912 58.0316 56.4817 62.0212 58.8924 63.09C61.3032 64.1589 64.6422 61.9021 66.3503 58.0494Z" fill="#26B0FF"/>
<path d="M60.1773 64.6143C59.5596 64.6167 58.9483 64.4889 58.3833 64.2391C56.8074 63.5408 55.7721 61.9842 55.4683 59.8577C55.1955 57.9442 55.5519 55.7474 56.4721 53.6718C58.4918 49.1166 62.4958 46.6227 65.5863 47.9928C67.1622 48.6916 68.197 50.2477 68.5008 52.3747C68.7742 54.2877 68.4178 56.4845 67.4976 58.5601C65.8519 62.2708 62.8898 64.6143 60.1773 64.6143ZM63.8189 50.1392C62.2573 50.1392 60.0644 51.7633 58.7674 54.6894C58.048 56.3162 57.7492 58.0704 57.9539 59.5035C58.0563 60.2229 58.3806 61.4956 59.401 61.9449C60.9227 62.6206 63.6795 60.9782 65.2023 57.5436C65.9216 55.9167 66.2199 54.1626 66.0157 52.7294C65.9128 52.0101 65.5885 50.7407 64.5687 50.288C64.332 50.1863 64.0765 50.1356 63.8189 50.1392Z" fill="#000072"/>
<path d="M66.1108 58.5657C67.44 55.5677 67.1649 52.5377 65.4965 51.798C63.828 51.0582 61.398 52.889 60.0688 55.887C58.7396 58.885 59.0147 61.9151 60.6831 62.6548C62.3516 63.3945 64.7816 61.5638 66.1108 58.5657Z" fill="#000072"/>
<path d="M65.1811 56.544C65.6075 55.5824 65.5191 54.6104 64.9838 54.3731C64.4485 54.1358 63.669 54.723 63.2427 55.6846C62.8163 56.6462 62.9046 57.6182 63.4399 57.8555C63.9752 58.0928 64.7548 57.5056 65.1811 56.544Z" fill="white"/>
<g opacity="0.35">
<path opacity="0.35" d="M60.9234 58.5886C60.7635 59.3788 60.4166 59.9759 60.1488 59.9216C59.8809 59.8674 59.793 59.1824 59.9529 58.3922C60.1128 57.602 60.4597 57.0044 60.7276 57.0586C60.9954 57.1128 61.0839 57.7979 60.9234 58.5886Z" fill="white"/>
</g>
<path d="M57.7216 44.6444C57.8701 45.2407 58.1232 45.8059 58.4691 46.3138C58.7898 46.7899 59.221 47.1812 59.7258 47.4543C59.8365 47.5318 59.972 47.5705 60.0954 47.6203L60.2808 47.6955C60.3455 47.7165 60.4115 47.7331 60.4784 47.7453C60.6117 47.773 60.7384 47.809 60.8701 47.8333L61.2802 47.8643C61.3482 47.8687 61.4124 47.8804 61.4821 47.8787L61.6941 47.8654L62.1102 47.8427C62.3935 47.8018 62.679 47.7393 62.9568 47.6944C63.2541 47.6458 63.559 47.7067 63.8149 47.8658C64.0707 48.025 64.2601 48.2715 64.348 48.5597C64.4359 48.8479 64.4162 49.1582 64.2926 49.433C64.1691 49.7077 63.95 49.9284 63.6762 50.0539L63.5483 50.1093C63.4045 50.1546 63.3121 50.1762 63.1981 50.205L62.8744 50.2797C62.66 50.3251 62.4466 50.3653 62.2341 50.4003C61.8075 50.4706 61.3798 50.5193 60.9504 50.5497C60.0862 50.6131 59.2177 50.5789 58.3612 50.4479C57.5024 50.3062 56.6503 50.0473 55.8784 49.6251C55.1127 49.2099 54.4435 48.6376 53.9145 47.9457C53.8484 47.8607 53.8167 47.7541 53.8257 47.6469C53.8347 47.5396 53.8837 47.4397 53.963 47.367C54.0423 47.2943 54.146 47.254 54.2536 47.2543C54.3612 47.2546 54.4648 47.2954 54.5437 47.3685L54.552 47.3763C55.0828 47.8657 55.7111 48.2374 56.3957 48.4669C57.0746 48.6854 57.7855 48.7881 58.4985 48.7707C59.221 48.7527 59.9393 48.654 60.6399 48.4763C60.9919 48.3878 61.341 48.2843 61.6819 48.1637C61.8523 48.1039 62.0211 48.0403 62.186 47.9733L62.4284 47.8698C62.5014 47.8372 62.5944 47.7946 62.6375 47.7697L63.2279 50.1873C62.8351 50.169 62.4499 50.1607 62.0659 50.1242L61.4788 50.024L61.1883 49.9687C61.092 49.9477 60.9941 49.9134 60.8978 49.8829L60.3251 49.697C60.1386 49.6168 59.9554 49.521 59.7717 49.4325C59.6801 49.3902 59.591 49.3425 59.505 49.2897L59.2527 49.116C59.0867 48.9981 58.9168 48.8946 58.7751 48.7447C58.1887 48.2258 57.7336 47.5754 57.4471 46.8467C57.3851 46.6691 57.3176 46.4953 57.2645 46.3183C57.2208 46.139 57.1627 45.9647 57.1345 45.7837C57.0591 45.4235 57.0202 45.0566 57.0183 44.6886C57.0168 44.6012 57.0477 44.5163 57.105 44.4502C57.1623 44.3841 57.2419 44.3415 57.3286 44.3305C57.4154 44.3194 57.5032 44.3408 57.5751 44.3904C57.6471 44.4401 57.6983 44.5145 57.7188 44.5996L57.7216 44.6444Z" fill="#000072"/>
<path d="M73.0649 67.7685C72.8719 67.8385 72.6598 67.8345 72.4696 67.7572C72.2794 67.6799 72.1246 67.5349 72.0351 67.3502C71.5459 66.3331 70.7308 64.4324 71.1597 63.8475C71.7551 63.0352 76.3213 64.4562 76.5183 65.5496C76.6655 66.3658 74.2856 67.3303 73.0649 67.7685Z" fill="#000072"/>
<path d="M67.6276 65.2253C67.6276 65.9707 67.6984 66.742 67.9236 67.3695C68.0404 67.68 68.1815 67.9605 68.3663 68.1653C68.542 68.3566 68.7583 68.5061 68.9993 68.603C69.2389 68.6749 69.4575 68.7186 69.6993 68.6832C69.9691 68.6363 70.2303 68.549 70.474 68.4242C70.7601 68.2782 71.0317 68.1056 71.2852 67.9085C71.4208 67.8095 71.5542 67.7027 71.6842 67.5914C71.8142 67.4802 71.9564 67.3574 72.0544 67.2716L72.0605 67.2666C72.184 67.1591 72.3341 67.0867 72.4952 67.0571C72.6563 67.0274 72.8223 67.0416 72.976 67.0982C73.1297 67.1548 73.2654 67.2516 73.3688 67.3786C73.4722 67.5056 73.5396 67.658 73.5639 67.82C73.5711 67.8703 73.585 67.9898 73.6016 68.0812C73.6182 68.1725 73.6342 68.2793 73.6569 68.3783C73.7008 68.5746 73.7581 68.7676 73.8284 68.956C73.9581 69.3187 74.1449 69.6583 74.3818 69.962C74.4925 70.1147 74.6302 70.2348 74.7586 70.3693C74.9091 70.4766 75.0441 70.605 75.2168 70.6885C75.5322 70.8988 75.9212 71.0117 76.3157 71.1229C76.7213 71.2076 77.1369 71.2657 77.537 71.2402C77.9384 71.2188 78.3332 71.1291 78.7046 70.9752C79.0878 70.81 79.4402 70.5807 79.7465 70.2973C80.0697 70.0066 80.3428 69.6647 80.555 69.2852L80.5677 69.2631C80.6158 69.1789 80.6928 69.1149 80.7845 69.0832C80.8761 69.0514 80.9762 69.054 81.0661 69.0905C81.156 69.1269 81.2296 69.1947 81.2733 69.2813C81.317 69.3679 81.3278 69.4674 81.3036 69.5614C81.1647 70.1042 80.9069 70.5862 80.5804 71.0338C80.242 71.4878 79.8195 71.8725 79.3359 72.1671C78.8391 72.4668 78.2898 72.6692 77.7174 72.7636C77.1447 72.8687 76.5758 72.8339 76.0169 72.7702C75.4603 72.6729 74.8903 72.5301 74.3596 72.2401C74.0868 72.1151 73.8472 71.9231 73.6005 71.7465C73.3763 71.5429 73.1434 71.3409 72.963 71.0969C72.5898 70.6331 72.3047 70.1047 72.1219 69.5381C72.0362 69.2631 71.9705 68.9822 71.9255 68.6976C71.9017 68.5565 71.8851 68.4132 71.8701 68.2693C71.8552 68.1254 71.8557 67.9926 71.8607 67.7989L73.3697 68.3523C73.2355 68.5395 73.0889 68.7176 72.9309 68.8852C72.7788 69.0477 72.6177 69.2016 72.4484 69.3461C72.098 69.6503 71.7087 69.9066 71.2908 70.1081C70.8287 70.3298 70.3278 70.4591 69.8161 70.4888C69.2752 70.5052 68.7399 70.3751 68.2669 70.112C67.794 69.849 67.401 69.4629 67.1296 68.9947C66.8928 68.5713 66.7478 68.1028 66.7041 67.6197C66.659 67.1823 66.6765 66.7407 66.7561 66.3082C66.8264 65.8907 66.9464 65.4831 67.1135 65.0942C67.1381 65.0373 67.1816 64.9906 67.2366 64.962C67.2916 64.9334 67.3547 64.9247 67.4154 64.9372C67.4761 64.9498 67.5306 64.9828 67.5698 65.0309C67.6089 65.0789 67.6303 65.139 67.6304 65.201L67.6276 65.2253Z" fill="#000072"/>
<path d="M68.4834 73.9938C68.9006 74.2301 69.3228 74.5013 69.7284 74.7043C70.1242 74.9131 70.5379 75.0859 70.9646 75.2206C71.3868 75.3435 71.8228 75.4575 72.2926 75.4918C72.5278 75.5382 72.7696 75.5216 73.0225 75.5526C73.2759 75.5681 73.5321 75.5526 73.8127 75.5853L73.868 75.5919C73.9351 75.5993 73.9983 75.627 74.0493 75.6713C74.1002 75.7156 74.1365 75.7743 74.1532 75.8397C74.1699 75.9051 74.1663 75.9741 74.1428 76.0374C74.1194 76.1006 74.0772 76.1553 74.0219 76.194C73.7801 76.3695 73.5217 76.5209 73.2505 76.6461C72.9699 76.7501 72.685 76.8713 72.3784 76.9133C71.7736 77.0467 71.124 77.0063 70.5064 76.858C69.8881 76.7085 69.3132 76.4167 68.8276 76.0058C68.7069 75.9068 68.5985 75.7933 68.4872 75.686C68.3843 75.5687 68.282 75.453 68.1912 75.328C68.0021 75.0717 67.8528 74.7884 67.7485 74.4874C67.7191 74.4003 67.7168 74.3064 67.7419 74.2179C67.767 74.1295 67.8183 74.0507 67.8892 73.9921C67.96 73.9335 68.0469 73.8977 68.1385 73.8895C68.23 73.8813 68.3219 73.9011 68.402 73.9463L68.4834 73.9938Z" fill="#000072"/>
<path d="M52.3232 40.6513C52.0881 40.6513 51.8578 40.5852 51.6584 40.4607C51.4591 40.3361 51.2987 40.1581 51.1955 39.9468C51.0924 39.7356 51.0507 39.4996 51.0752 39.2658C51.0996 39.032 51.1892 38.8097 51.3338 38.6244C63.5767 22.9137 79.0666 22.3592 79.7207 22.3432C79.8855 22.3391 80.0494 22.3675 80.2032 22.4268C80.357 22.4861 80.4976 22.5751 80.617 22.6887C80.7364 22.8024 80.8322 22.9384 80.899 23.0891C80.9659 23.2398 81.0023 23.4021 81.0064 23.5669C81.0105 23.7317 80.982 23.8956 80.9228 24.0494C80.8635 24.2032 80.7745 24.3438 80.6608 24.4632C80.5472 24.5826 80.4111 24.6784 80.2605 24.7452C80.1098 24.812 79.9474 24.8485 79.7827 24.8526C79.5613 24.8598 64.767 25.4723 53.3154 40.1677C53.1979 40.3187 53.0474 40.4407 52.8754 40.5246C52.7034 40.6084 52.5145 40.6518 52.3232 40.6513Z" fill="#000072"/>
<g opacity="0.4">
<path opacity="0.2" d="M135.513 80.1034C135.918 80.4906 136.157 81.0201 136.179 81.58C136.2 82.1399 136.003 82.6864 135.63 83.1037C129.491 89.9652 107.89 111.448 70.1128 100.502C44.6975 93.1392 37.4287 74.856 35.6934 63.1001C53.1576 93.8697 84.6095 94.5857 103.013 90.684C112.365 88.6997 120.436 84.2818 124.409 81.8304C125.803 80.9694 126.324 79.2203 125.678 77.7146C122.489 70.2814 124.947 58.25 124.947 58.25C132.817 50.2159 135.859 35.0828 137.023 25.4673C140.409 35.3723 130.649 64.8658 130.649 64.8658C130.649 64.8658 131.499 76.2903 135.513 80.1034Z" fill="#000072"/>
</g>
<g opacity="0.2">
<path opacity="0.4" d="M90.9121 31.2413C85.7997 32.3209 84.0893 28.2532 84.0893 28.2532L80.8129 25.466L77.3324 23.8685C79.2137 16.4619 75.8106 9.55165 73.3184 5.75732C76.2655 6.9592 79.4052 10.4425 83.0097 16.7037C83.3244 16.5685 83.6459 16.4501 83.9731 16.349C81.0453 19.7206 82.3037 22.0906 82.3037 22.0906C86.0698 18.4595 89.3428 19.2314 89.3428 19.2314C84.6792 22.966 86.3392 26.5312 89.3428 26.9047C92.3464 27.2782 95.0108 24.8208 95.0108 24.8208C95.0108 24.8208 96.024 30.1617 90.9121 31.2413Z" fill="#000072"/>
</g>
<g opacity="0.6">
<path opacity="0.2" d="M76.0442 23.4953C73.4739 24.1543 71.0762 25.1399 69.046 26.1514C68.3083 20.9543 71.1736 16.429 73.4362 13.7563C75.0869 17.3598 76.0442 23.4953 76.0442 23.4953Z" fill="#000072"/>
</g>
<g opacity="0.2">
<path opacity="0.6" d="M126.063 50.5371C124.998 47.1087 123.448 43.8497 121.463 40.8584C123.186 34.9774 127.008 31.2268 129.92 29.1152C132.202 33.0219 126.063 50.5371 126.063 50.5371Z" fill="#000072"/>
</g>
<g opacity="0.4">
<path opacity="0.2" d="M142.413 137.125C141.82 143.458 138.041 150.983 128.742 155.415C127.484 156.215 125.976 156.824 124.179 157.182H124.173C118.514 158.934 111.303 159.692 102.217 158.879C98.1451 158.525 94.1344 157.654 90.2823 156.287C89.3416 157.049 88.5033 157.655 87.8221 158.113C86.7515 158.828 85.4933 159.21 84.2059 159.211C78.7516 159.224 72.7577 159.224 68.96 158.016C68.705 158.084 68.4427 158.121 68.1787 158.126C65.8972 158.182 62.3685 158.161 59.059 157.699C57.1853 157.436 55.3842 157.035 53.9216 156.422C51.9849 155.616 50.648 154.442 50.5324 152.751C50.4444 151.478 50.6431 150.4 51.0215 149.486C51.9596 150.424 53.0435 151.204 54.231 151.796C55.0388 152.204 55.8878 152.525 56.7637 152.753C57.7431 153.007 58.6185 153.076 59.3998 153.001C63.5582 152.596 65.9094 150.876 65.6399 144.823C65.3417 138.102 62.6668 128.104 62.607 127.762C68.5417 137.169 73.726 136.003 77.304 132.78C80.4581 129.94 82.3721 125.503 82.4568 125.299V125.305C80.4581 130.894 77.9193 137.143 76.1962 141.289C75.0696 143.997 74.2882 145.804 74.2285 145.937C74.2267 145.94 74.2256 145.943 74.2252 145.946C74.1626 145.98 74.1029 146.018 74.0431 146.053C74.0149 146.068 73.9878 146.084 73.9585 146.103C68.8245 149.119 69.675 150.958 72.4926 152.043C73.7797 152.541 75.4807 152.882 77.2066 153.104C79.8334 153.443 82.526 153.513 83.932 153.456H83.9381C88.2819 153.28 102.37 137.714 102.608 137.454C102.655 141.518 99.2122 145.679 98.9992 145.933L98.9898 145.946C100.342 149.598 104.915 149.797 106.663 147.879C107.935 146.483 108.398 141.951 108.398 141.951C108.398 141.951 112.931 153.733 122 151.815C132.908 149.509 132.607 136.45 132.607 136.45C136.596 135.813 138.203 132.122 138.673 127.848C138.79 126.764 138.844 125.674 138.837 124.583C138.837 124.062 138.821 123.541 138.799 123.027C139.454 124.034 140.029 125.09 140.519 126.187C141.51 128.412 142.195 130.923 142.439 133.785C142.532 134.896 142.523 136.014 142.413 137.125Z" fill="#000072"/>
</g>
<path d="M40.086 193.26C38.682 193.26 37.3213 193.061 36.004 192.662C34.704 192.263 33.6727 191.735 32.91 191.076L34.08 188.45C34.8253 189.039 35.7353 189.525 36.81 189.906C37.902 190.27 38.994 190.452 40.086 190.452C41.438 190.452 42.4433 190.235 43.102 189.802C43.778 189.369 44.116 188.797 44.116 188.086C44.116 187.566 43.9253 187.141 43.544 186.812C43.18 186.465 42.712 186.197 42.14 186.006C41.568 185.815 40.788 185.599 39.8 185.356C38.4133 185.027 37.2867 184.697 36.42 184.368C35.5707 184.039 34.834 183.527 34.21 182.834C33.6033 182.123 33.3 181.17 33.3 179.974C33.3 178.969 33.5687 178.059 34.106 177.244C34.6607 176.412 35.484 175.753 36.576 175.268C37.6853 174.783 39.0373 174.54 40.632 174.54C41.7413 174.54 42.8333 174.679 43.908 174.956C44.9827 175.233 45.91 175.632 46.69 176.152L45.624 178.778C44.8267 178.31 43.9947 177.955 43.128 177.712C42.2613 177.469 41.4207 177.348 40.606 177.348C39.2713 177.348 38.2747 177.573 37.616 178.024C36.9747 178.475 36.654 179.073 36.654 179.818C36.654 180.338 36.836 180.763 37.2 181.092C37.5813 181.421 38.058 181.681 38.63 181.872C39.202 182.063 39.982 182.279 40.97 182.522C42.322 182.834 43.4313 183.163 44.298 183.51C45.1647 183.839 45.9013 184.351 46.508 185.044C47.132 185.737 47.444 186.673 47.444 187.852C47.444 188.857 47.1667 189.767 46.612 190.582C46.0747 191.397 45.2513 192.047 44.142 192.532C43.0327 193.017 41.6807 193.26 40.086 193.26ZM58.8296 192.246C58.4482 192.558 57.9802 192.792 57.4256 192.948C56.8882 193.104 56.3162 193.182 55.7096 193.182C54.1842 193.182 53.0056 192.783 52.1736 191.986C51.3416 191.189 50.9256 190.027 50.9256 188.502V181.82H48.6376V179.22H50.9256V176.048H54.1756V179.22H57.8936V181.82H54.1756V188.424C54.1756 189.1 54.3402 189.62 54.6696 189.984C54.9989 190.331 55.4756 190.504 56.0996 190.504C56.8276 190.504 57.4342 190.313 57.9196 189.932L58.8296 192.246ZM64.5971 181.144C65.5331 179.688 67.1798 178.96 69.5371 178.96V182.054C69.2598 182.002 69.0084 181.976 68.7831 181.976C67.5178 181.976 66.5298 182.349 65.8191 183.094C65.1084 183.822 64.7531 184.879 64.7531 186.266V193H61.5031V179.116H64.5971V181.144ZM85.2192 186.136C85.2192 186.361 85.2018 186.682 85.1672 187.098H74.2732C74.4638 188.121 74.9578 188.935 75.7552 189.542C76.5698 190.131 77.5752 190.426 78.7712 190.426C80.2965 190.426 81.5532 189.923 82.5412 188.918L84.2832 190.92C83.6592 191.665 82.8705 192.229 81.9172 192.61C80.9638 192.991 79.8892 193.182 78.6932 193.182C77.1678 193.182 75.8245 192.879 74.6632 192.272C73.5018 191.665 72.6005 190.825 71.9592 189.75C71.3352 188.658 71.0232 187.427 71.0232 186.058C71.0232 184.706 71.3265 183.493 71.9332 182.418C72.5572 181.326 73.4152 180.477 74.5072 179.87C75.5992 179.263 76.8298 178.96 78.1992 178.96C79.5512 178.96 80.7558 179.263 81.8132 179.87C82.8878 180.459 83.7198 181.3 84.3092 182.392C84.9158 183.467 85.2192 184.715 85.2192 186.136ZM78.1992 181.56C77.1592 181.56 76.2752 181.872 75.5472 182.496C74.8365 183.103 74.4032 183.917 74.2472 184.94H82.1252C81.9865 183.935 81.5618 183.12 80.8512 182.496C80.1405 181.872 79.2565 181.56 78.1992 181.56ZM93.2641 178.96C95.3095 178.96 96.8695 179.454 97.9441 180.442C99.0361 181.413 99.5821 182.886 99.5821 184.862V193H96.5141V191.31C96.1155 191.917 95.5435 192.385 94.7981 192.714C94.0701 193.026 93.1861 193.182 92.1461 193.182C91.1061 193.182 90.1961 193.009 89.4161 192.662C88.6361 192.298 88.0295 191.804 87.5961 191.18C87.1801 190.539 86.9721 189.819 86.9721 189.022C86.9721 187.774 87.4315 186.777 88.3501 186.032C89.2861 185.269 90.7508 184.888 92.7441 184.888H96.3321V184.68C96.3321 183.709 96.0375 182.964 95.4481 182.444C94.8761 181.924 94.0181 181.664 92.8741 181.664C92.0941 181.664 91.3228 181.785 90.5601 182.028C89.8148 182.271 89.1821 182.609 88.6621 183.042L87.3881 180.676C88.1161 180.121 88.9915 179.697 90.0141 179.402C91.0368 179.107 92.1201 178.96 93.2641 178.96ZM92.8221 190.816C93.6368 190.816 94.3561 190.634 94.9801 190.27C95.6215 189.889 96.0721 189.351 96.3321 188.658V187.046H92.9781C91.1061 187.046 90.1701 187.661 90.1701 188.892C90.1701 189.481 90.4041 189.949 90.8721 190.296C91.3401 190.643 91.9901 190.816 92.8221 190.816ZM121.277 178.96C123.028 178.96 124.414 179.471 125.437 180.494C126.46 181.499 126.971 183.016 126.971 185.044V193H123.721V185.46C123.721 184.247 123.452 183.337 122.915 182.73C122.378 182.106 121.606 181.794 120.601 181.794C119.509 181.794 118.634 182.158 117.975 182.886C117.316 183.597 116.987 184.619 116.987 185.954V193H113.737V185.46C113.737 184.247 113.468 183.337 112.931 182.73C112.394 182.106 111.622 181.794 110.617 181.794C109.508 181.794 108.624 182.149 107.965 182.86C107.324 183.571 107.003 184.602 107.003 185.954V193H103.753V179.116H106.847V180.884C107.367 180.26 108.017 179.783 108.797 179.454C109.577 179.125 110.444 178.96 111.397 178.96C112.437 178.96 113.356 179.159 114.153 179.558C114.968 179.939 115.609 180.511 116.077 181.274C116.649 180.546 117.386 179.983 118.287 179.584C119.188 179.168 120.185 178.96 121.277 178.96Z" fill="white"/>
<path d="M139.262 193.26C136.749 193.26 134.79 192.558 133.386 191.154C131.982 189.733 131.28 187.705 131.28 185.07V174.8H134.66V184.94C134.66 188.511 136.203 190.296 139.288 190.296C142.356 190.296 143.89 188.511 143.89 184.94V174.8H147.218V185.07C147.218 187.705 146.516 189.733 145.112 191.154C143.726 192.558 141.776 193.26 139.262 193.26ZM159.336 178.96C160.688 178.96 161.892 179.255 162.95 179.844C164.024 180.433 164.865 181.265 165.472 182.34C166.078 183.415 166.382 184.654 166.382 186.058C166.382 187.462 166.078 188.71 165.472 189.802C164.865 190.877 164.024 191.709 162.95 192.298C161.892 192.887 160.688 193.182 159.336 193.182C157.464 193.182 155.982 192.558 154.89 191.31V198.044H151.64V179.116H154.734V180.936C155.271 180.277 155.93 179.783 156.71 179.454C157.507 179.125 158.382 178.96 159.336 178.96ZM158.972 190.4C160.168 190.4 161.147 190.001 161.91 189.204C162.69 188.407 163.08 187.358 163.08 186.058C163.08 184.758 162.69 183.709 161.91 182.912C161.147 182.115 160.168 181.716 158.972 181.716C158.192 181.716 157.49 181.898 156.866 182.262C156.242 182.609 155.748 183.111 155.384 183.77C155.02 184.429 154.838 185.191 154.838 186.058C154.838 186.925 155.02 187.687 155.384 188.346C155.748 189.005 156.242 189.516 156.866 189.88C157.49 190.227 158.192 190.4 158.972 190.4Z" fill="#ED2D21"/>
</svg>
