<svg width="31" height="31" viewBox="0 0 31 31" fill="none" xmlns="http://www.w3.org/2000/svg">
<path d="M0.957031 30.5044C0.957031 24.8955 0.957031 19.2944 0.957031 13.6855C10.8781 13.6855 20.7913 13.6855 30.7123 13.6855C30.7904 13.6855 30.8607 13.7012 30.9545 13.709C30.9545 13.8027 30.9545 13.8808 30.9545 13.959C30.9545 19.3804 30.9545 24.794 30.9623 30.2154C30.9623 30.5825 30.8139 30.8247 30.4858 30.9731C20.7991 30.9731 11.1124 30.9731 1.42574 30.9731C1.2695 30.8169 1.11327 30.6607 0.957031 30.5044ZM11.8467 26.9188C11.8311 27.5203 12.3154 27.8172 12.8232 27.5516C13.8387 27.0282 14.8465 26.497 15.8464 25.9579C16.0026 25.872 16.1198 25.8798 16.276 25.9579C17.2838 26.497 18.2915 27.0203 19.2992 27.5516C19.5414 27.6765 19.7914 27.6922 20.0179 27.5125C20.2288 27.3484 20.2913 27.1297 20.2523 26.8641C20.057 25.7314 19.8695 24.5987 19.6742 23.466C19.6429 23.2863 19.682 23.1769 19.807 23.0597C20.6272 22.2629 21.4397 21.4661 22.2599 20.6693C22.463 20.474 22.5489 20.2475 22.4552 19.9819C22.3693 19.7241 22.1583 19.6069 21.9006 19.5679C20.7835 19.4038 19.6586 19.2398 18.5415 19.0913C18.3462 19.0679 18.2368 18.9898 18.1431 18.8101C17.6744 17.8336 17.1822 16.8728 16.7135 15.8963C16.5729 15.6073 16.4167 15.3573 16.0573 15.3495C15.6823 15.3417 15.5261 15.6073 15.3777 15.9041C14.909 16.8806 14.4324 17.8493 13.9403 18.8101C13.8856 18.9195 13.745 19.0445 13.6356 19.0601C12.5264 19.2319 11.4171 19.3882 10.3078 19.5444C10.0109 19.5835 9.75316 19.6772 9.6516 19.9897C9.55005 20.3022 9.69847 20.5287 9.9172 20.7396C10.7062 21.4974 11.4796 22.2629 12.2686 23.0207C12.4092 23.1535 12.4639 23.2863 12.4326 23.4816C12.3545 23.8644 12.2998 24.2471 12.2295 24.6299C12.1045 25.4267 11.9717 26.2079 11.8467 26.9188Z" fill="white"/>
<path d="M0.957031 5.77972C1.14452 5.44382 1.42574 5.33445 1.80852 5.35007C2.55065 5.37351 3.29277 5.35789 4.08176 5.35789C4.08176 5.50631 4.07395 5.63911 4.08176 5.77191C4.11301 6.49841 4.05833 7.24835 4.19894 7.95923C4.5036 9.47472 5.97223 10.4981 7.49554 10.3418C9.08134 10.1856 10.2922 8.88883 10.3312 7.31866C10.3469 6.67809 10.3312 6.03752 10.3312 5.37351C14.0887 5.37351 17.815 5.37351 21.5803 5.37351C21.5803 5.91253 21.5646 6.45935 21.5881 6.99837C21.6037 7.3499 21.6193 7.70144 21.7053 8.03734C22.0724 9.48253 23.4707 10.459 24.9628 10.3418C26.447 10.2247 27.6657 9.05288 27.7985 7.57645C27.8532 6.96712 27.8297 6.34999 27.8375 5.73285C27.8375 5.61568 27.8375 5.50631 27.8375 5.35789C28.1813 5.35789 28.4859 5.35789 28.7984 5.35789C29.2593 5.35789 29.7124 5.35789 30.1733 5.35789C30.7436 5.35789 30.9545 5.5688 30.9545 6.13126C30.9545 6.6859 30.9545 7.24054 30.9545 7.80299C30.9545 9.22474 30.9545 10.6543 30.9545 12.0761C30.9545 12.1854 30.9545 12.287 30.9545 12.4432C30.806 12.4432 30.6732 12.4432 30.5404 12.4432C20.8147 12.4432 11.089 12.4432 1.36325 12.4432C1.23045 12.4432 1.08983 12.4588 0.957031 12.4588C0.957031 10.2325 0.957031 8.0061 0.957031 5.77972Z" fill="white"/>
<path d="M0.957031 30.5054C1.11327 30.6616 1.2695 30.8178 1.42574 30.9741C1.2695 30.9741 1.11327 30.9741 0.957031 30.9741C0.957031 30.8178 0.957031 30.6616 0.957031 30.5054Z" fill="white"/>
<path d="M26.5719 5.04548C26.5719 5.79542 26.5876 6.54535 26.5719 7.3031C26.5485 8.25614 25.8533 8.97483 24.8924 9.09982C24.0253 9.20919 23.1582 8.6233 22.916 7.74838C22.8613 7.56089 22.8379 7.3656 22.8379 7.1703C22.8301 5.75636 22.8301 4.34242 22.8379 2.92066C22.8379 2.13948 23.1816 1.53797 23.8769 1.18643C24.5331 0.858337 25.1893 0.91302 25.7908 1.32705C26.2829 1.67077 26.5641 2.1551 26.5719 2.75661C26.5798 3.52217 26.5719 4.27992 26.5719 5.04548Z" fill="white"/>
<path d="M5.33941 5.02217C5.33941 4.31911 5.3316 3.61604 5.33941 2.91298C5.34722 1.81151 6.14403 0.983454 7.19081 0.983454C8.2376 0.975642 9.06565 1.78807 9.08128 2.88173C9.0969 4.32692 9.0969 5.77211 9.08128 7.2173C9.06565 8.24846 8.36259 8.99058 7.35486 9.09995C6.46431 9.19369 5.5972 8.56874 5.38628 7.65476C5.34722 7.47509 5.33941 7.2876 5.33941 7.10012C5.3316 6.40487 5.33941 5.71743 5.33941 5.02217Z" fill="white"/>
</svg>
