<svg width="29" height="30" viewBox="0 0 29 30" fill="none" xmlns="http://www.w3.org/2000/svg">
<path d="M28.0739 8.78233C28.0812 8.87883 28.0886 8.96048 28.0886 9.04214C28.0886 14.6094 28.0886 20.1766 28.0886 25.7439C28.0886 27.0726 27.4564 28.0302 26.3169 28.6314C25.1848 29.2327 24.0307 29.2772 22.9133 28.5646C22.678 28.4162 22.4648 28.2083 22.2664 28.0079C17.1572 22.8563 12.0481 17.6974 6.94629 12.5384C6.87277 12.4641 6.82867 12.3751 6.76986 12.286C6.74045 12.3008 6.71104 12.3231 6.67429 12.3379C6.67429 15.2997 6.67429 18.2541 6.67429 21.2307C4.4542 21.2307 2.27087 21.2307 0.0654838 21.2307C0.0581325 21.1416 0.0507812 21.0674 0.0507812 20.9857C0.0507813 15.4111 0.0507813 9.82897 0.0507813 4.23945C0.0507813 2.8365 0.756505 1.86409 1.97682 1.27767C3.18243 0.706103 4.37334 0.765487 5.44662 1.61913C5.78478 1.88636 6.07148 2.21297 6.38024 2.52474C11.3277 7.52042 16.2751 12.5161 21.2151 17.5044C21.2813 17.5712 21.3475 17.6306 21.4577 17.7345C21.4577 14.7207 21.4577 11.759 21.4577 8.78233C23.6778 8.78233 25.8611 8.78233 28.0739 8.78233Z" fill="white"/>
<path d="M21.4649 6.10282C21.5311 5.05617 21.3252 4.02438 21.6855 3.02227C22.2147 1.55994 23.7585 0.632063 25.2508 0.877022C26.8681 1.14425 28.037 2.44328 28.0811 4.05407C28.0958 4.72956 28.0811 5.40506 28.0811 6.09539C25.8757 6.10282 23.6997 6.10282 21.4649 6.10282Z" fill="white"/>
<path d="M6.68192 23.9033C6.60841 24.9277 6.8216 25.9446 6.47609 26.9245C5.93944 28.4388 4.41773 29.3741 2.89601 29.1217C1.24932 28.847 0.0878211 27.5183 0.0657672 25.863C0.058416 25.2172 0.0657672 24.5714 0.0657672 23.9033C2.25645 23.9033 4.43978 23.9033 6.68192 23.9033Z" fill="white"/>
</svg>
