<svg width="16" height="15" viewBox="0 0 16 15" fill="none" xmlns="http://www.w3.org/2000/svg">
<path d="M15.401 6.11458C15.4117 6.11458 15.4189 6.11458 15.4297 6.11458C15.4297 6.20962 15.4297 6.30115 15.4297 6.39619C15.3652 6.52292 15.272 6.625 15.1717 6.72357C14.1575 7.69161 13.1434 8.66318 12.1293 9.63123C12.1042 9.65235 12.0791 9.67347 12.054 9.69459C11.839 9.66995 11.6419 9.58194 11.4377 9.51858C10.5812 9.25105 9.72479 8.97647 8.86834 8.7019C8.63183 8.62446 8.39532 8.54701 8.1194 8.45549C8.19823 8.42733 8.23765 8.40621 8.28065 8.39565C8.62825 8.283 8.97943 8.17388 9.32702 8.06123C10.5347 7.67401 11.7459 7.29031 12.9535 6.9031C13.7741 6.63908 14.5875 6.37859 15.401 6.11458Z" fill="#198FD2"/>
<path d="M15.3999 6.11438C14.5865 6.37487 13.773 6.63889 12.956 6.89938C11.7484 7.2866 10.5372 7.67029 9.32953 8.05751C8.98193 8.17016 8.63075 8.27928 8.28316 8.39193C8.24016 8.40601 8.19715 8.42361 8.1219 8.45177C8.39425 8.54329 8.63075 8.62074 8.87084 8.69818C9.72729 8.97276 10.5802 9.25085 11.4402 9.51486C11.6444 9.57822 11.8415 9.66623 12.0565 9.69087C12.1067 9.99712 12.1569 10.3034 12.207 10.6096C12.2859 11.0743 12.3683 11.5425 12.4507 12.0071C12.5331 12.4718 12.612 12.94 12.6944 13.4046C12.7374 13.6405 12.7912 13.8799 12.8162 14.1157C12.8377 14.3093 12.7661 14.4713 12.5905 14.5804C12.5941 14.5417 12.5761 14.51 12.5511 14.4783C12.4077 14.2917 12.2716 14.1016 12.1318 13.9115C11.5441 13.1125 10.9564 12.3169 10.3651 11.5178C9.63412 10.5287 8.89951 9.5395 8.16849 8.55034C8.15057 8.52569 8.13982 8.48697 8.08965 8.50809C8.08965 9.84928 8.08965 11.1905 8.08965 12.5316C7.40521 12.8872 6.71718 13.2462 6.03274 13.5983C5.77473 13.732 5.51314 13.8623 5.25155 13.9925C5.11538 13.8587 5.08671 13.6933 5.11179 13.5173C5.13688 13.3307 5.17988 13.1442 5.20855 12.9576C5.24797 12.6936 5.31963 12.4331 5.33755 12.1655C5.35905 12.1303 5.37339 12.0951 5.3698 12.0564C5.43431 12.0494 5.45939 11.9966 5.49164 11.9508C5.8249 11.4967 6.16175 11.0461 6.49501 10.592C6.98236 9.93024 7.4733 9.27197 7.96065 8.61018C7.98573 8.5785 8.05023 8.5433 8.00723 8.49401C7.97498 8.45529 7.92481 8.50105 7.88898 8.51161C7.26187 8.71226 6.63118 8.91643 6.00408 9.1206C5.94674 9.1382 5.8894 9.16636 5.8249 9.1558C5.8034 9.0326 5.67798 9.00444 5.60273 8.93051C5.28022 8.60666 4.9577 8.27928 4.62086 7.96951C4.30193 7.68085 3.99734 7.38164 3.69991 7.07187C3.74649 7.07187 3.79308 7.07891 3.83966 7.09651C4.18368 7.20563 4.52769 7.31476 4.8717 7.42388C5.88582 7.74774 6.89994 8.07511 7.91406 8.39897C7.95348 8.41305 7.9929 8.43769 8.05382 8.40601C7.25112 7.3218 6.45201 6.23759 5.6529 5.15337C6.11875 4.22757 6.58101 3.29825 7.04686 2.37244C7.24395 1.9817 7.43746 1.59096 7.63455 1.20375C7.72772 1.0207 7.86389 0.893971 8.08965 0.908052C8.08965 3.40737 8.08965 5.90317 8.08965 8.40249C8.1004 8.40601 8.11115 8.40953 8.1219 8.41657C8.9246 7.33236 9.72729 6.24463 10.53 5.16041C10.9098 5.21322 11.2933 5.2625 11.6731 5.31882C12.2321 5.39627 12.7912 5.47723 13.3502 5.55819C13.8984 5.63564 14.4503 5.70956 14.9986 5.79404C15.1885 5.81517 15.3426 5.91373 15.3999 6.11438Z" fill="#55BCF6"/>
<path d="M8.09072 12.5354C8.09072 11.1942 8.09072 9.85305 8.09072 8.51186C8.14089 8.49074 8.15164 8.52946 8.16956 8.5541C8.90058 9.54327 9.63519 10.5324 10.3662 11.5216C10.9539 12.3207 11.5452 13.1162 12.1329 13.9153C12.2726 14.1054 12.4124 14.2955 12.5521 14.4821C12.5772 14.5137 12.5916 14.5454 12.5916 14.5842C12.4339 14.6757 12.2834 14.6898 12.1114 14.6053C10.9181 14.0104 9.7427 13.3838 8.55657 12.7783C8.3989 12.7009 8.24481 12.6164 8.09072 12.5354Z" fill="#198FD2"/>
<path d="M10.5275 5.15692C9.72478 6.24114 8.92208 7.32887 8.11939 8.41308C8.10864 8.40956 8.09789 8.40604 8.08714 8.399C8.08714 5.89968 8.08714 3.40388 8.08714 0.904562C8.32006 0.897522 8.45265 1.03129 8.5494 1.21786C8.88625 1.89373 9.22668 2.56608 9.56711 3.24195C9.88962 3.88262 10.2085 4.51977 10.5275 5.15692Z" fill="#198FD2"/>
<path d="M5.6529 5.15337C6.45201 6.23759 7.2547 7.31828 8.05382 8.40601C7.9929 8.43769 7.95348 8.41305 7.91406 8.39897C6.89994 8.07511 5.88582 7.74774 4.8717 7.42388C4.52769 7.31476 4.18368 7.20563 3.83966 7.09651C3.79308 7.08243 3.74649 7.07187 3.69991 7.07187C3.67124 7.05426 3.6426 7.0333 3.61393 7.0157C3.60318 6.99458 3.58168 6.98754 3.5566 6.98754C3.5566 6.95233 3.53868 6.92417 3.5136 6.90305C3.21258 6.66368 2.95816 6.37855 2.68582 6.11101C2.54606 5.97725 2.41347 5.8294 2.49589 5.60763C2.72882 5.54779 2.97249 5.53019 3.21259 5.49498C3.77519 5.4105 4.33779 5.32954 4.90398 5.25209C5.15124 5.21689 5.40205 5.18858 5.6529 5.15337Z" fill="#198FD2"/>
<path d="M3.61886 7.01574C3.64753 7.03334 3.6762 7.05446 3.70486 7.07206C4.00229 7.38184 4.30689 7.68105 4.62581 7.96971C4.96266 8.27948 5.28517 8.60334 5.60768 8.93071C5.68294 9.00464 5.80477 9.0328 5.82986 9.156C5.82986 9.16656 5.82986 9.1736 5.82986 9.18416C5.79402 9.1912 5.7546 9.19824 5.71877 9.20881C5.25292 9.35665 4.79065 9.5045 4.3248 9.65587C4.2603 9.67699 4.19938 9.69811 4.1313 9.69811C4.06321 9.63827 3.99512 9.58194 3.93062 9.5221C2.92725 8.56109 1.92747 7.60009 0.927681 6.63908C0.773592 6.49124 0.705507 6.32227 0.780759 6.11458C1.62287 6.38211 2.4614 6.64964 3.30352 6.91718C3.38952 6.94534 3.47194 6.98758 3.56153 6.98758C3.57228 7.0087 3.59378 7.01574 3.61886 7.01574Z" fill="#55BCF6"/>
<path d="M4.12784 9.69447C4.19592 9.69799 4.25684 9.67335 4.32134 9.65223C4.78719 9.50439 5.24946 9.35302 5.71531 9.20517C5.75114 9.19461 5.78698 9.18757 5.8264 9.18053C5.86581 9.21221 5.85865 9.25797 5.85148 9.2967C5.77264 9.74376 5.69023 10.1943 5.61139 10.6414C5.52897 11.1131 5.45013 11.5848 5.36771 12.0565C5.3713 12.0952 5.35338 12.1304 5.33546 12.1656C5.30321 12.1797 5.28888 12.2114 5.27096 12.236C4.72269 12.9788 4.17442 13.718 3.62615 14.4608C3.60107 14.496 3.57957 14.5312 3.5294 14.5312C3.31439 14.3552 3.35381 14.1299 3.39681 13.9046C3.48998 13.3801 3.58315 12.8556 3.67632 12.3311C3.76949 11.8066 3.86266 11.2821 3.95225 10.7576C4.01675 10.4091 4.0705 10.0535 4.12784 9.69447Z" fill="#198FD2"/>
<path d="M3.52786 14.5381C3.57803 14.5381 3.59953 14.5029 3.62461 14.4677C4.17288 13.7249 4.72115 12.9857 5.26942 12.243C5.28734 12.2148 5.30168 12.1866 5.33393 12.1726C5.31601 12.4401 5.24434 12.7006 5.20492 12.9646C5.17625 13.1512 5.13684 13.3377 5.10817 13.5243C5.08308 13.7003 5.11175 13.8693 5.24792 13.9995C4.86091 14.2037 4.47748 14.4149 4.0833 14.605C3.89696 14.7 3.69628 14.7 3.52786 14.5381Z" fill="#55BCF6"/>
<path d="M3.56303 6.9873C3.46986 6.98378 3.38744 6.94154 3.30502 6.9169C2.4629 6.64936 1.62437 6.38183 0.782259 6.1143C0.825261 5.95589 0.932764 5.84325 1.08685 5.81156C1.55629 5.72004 2.02572 5.65316 2.50232 5.6074C2.41632 5.82917 2.55249 5.97349 2.69224 6.11078C2.96459 6.37831 3.21901 6.66344 3.52002 6.90282C3.54511 6.92394 3.56303 6.9521 3.56303 6.9873Z" fill="#198FD2"/>
<path d="M5.37021 12.0601C5.44905 11.5884 5.53147 11.1167 5.61389 10.645C5.69272 10.198 5.77514 9.74737 5.85398 9.30031C5.86115 9.26159 5.86928 9.21585 5.82986 9.18416C5.82986 9.1736 5.82986 9.16656 5.82986 9.156C5.89436 9.16656 5.95073 9.1419 6.00807 9.12078C6.63517 8.92013 7.26228 8.71596 7.89297 8.51179C7.93239 8.50123 7.97897 8.45547 8.01122 8.49419C8.05064 8.54347 7.98614 8.57867 7.96464 8.61035C7.47729 9.27215 6.98994 9.93394 6.499 10.5922C6.16216 11.0463 5.82889 11.4969 5.49563 11.951C5.4598 12.0003 5.43471 12.0531 5.37021 12.0601Z" fill="#198FD2"/>
<path d="M3.61886 7.01574C3.59344 7.01574 3.57465 7.00877 3.56012 6.98736C3.58191 6.98736 3.60434 6.99434 3.61886 7.01574Z" fill="#F38B19"/>
</svg>
