<svg width="13" height="11" viewBox="0 0 13 11" fill="none" xmlns="http://www.w3.org/2000/svg">
<path d="M6.31952 0C6.50909 0.00338511 6.63095 0.0913979 6.7122 0.257268C7.20304 1.25926 7.70065 2.26125 8.19487 3.26324C8.2355 3.34449 8.2795 3.37834 8.3709 3.39188C9.46768 3.54759 10.5611 3.70669 11.6578 3.86579C11.9625 3.9098 12.1182 4.07567 12.0911 4.33294C12.0776 4.45142 12.0133 4.53604 11.932 4.6139C11.1298 5.39586 10.3275 6.18121 9.52184 6.95978C9.46429 7.01394 9.44398 7.06134 9.45752 7.14596C9.65386 8.26643 9.84342 9.3869 10.033 10.5074C10.0635 10.6766 10.0127 10.8188 9.87389 10.9204C9.73171 11.0253 9.576 11.0219 9.42028 10.9373C8.42506 10.4126 7.42645 9.89129 6.43123 9.36321C6.34999 9.32259 6.29244 9.3192 6.2112 9.36321C5.21936 9.8879 4.22414 10.4092 3.23231 10.9305C3.07321 11.0151 2.91749 11.0287 2.76855 10.9204C2.6196 10.812 2.57221 10.6631 2.60945 10.4837C2.63314 10.3686 2.64668 10.2501 2.66699 10.135C2.83963 9.13302 3.01227 8.12764 3.1883 7.12565C3.20184 7.04779 3.16799 7.01056 3.12398 6.96317C2.31833 6.17782 1.51267 5.39248 0.707015 4.60713C0.635927 4.53943 0.574995 4.46496 0.55807 4.3634C0.517449 4.12983 0.649468 3.92334 0.88304 3.8861C1.33664 3.81163 1.79363 3.7507 2.25062 3.683C2.94119 3.58144 3.63175 3.47989 4.31893 3.38511C4.3934 3.37495 4.41371 3.32756 4.44079 3.27678C4.9384 2.26802 5.4394 1.25926 5.93362 0.247113C6.01825 0.0812426 6.1435 0 6.31952 0Z" fill="white"/>
</svg>
