<svg width="19" height="18" viewBox="0 0 19 18" fill="none" xmlns="http://www.w3.org/2000/svg">
<path d="M18.1839 7.0625C18.1973 7.0625 18.2062 7.0625 18.2195 7.0625C18.2195 7.18039 18.2195 7.29391 18.2195 7.41179C18.1395 7.56898 18.0239 7.6956 17.8995 7.81785C16.6416 9.01855 15.3838 10.2236 14.1259 11.4243C14.0948 11.4505 14.0637 11.4767 14.0326 11.5029C13.7659 11.4723 13.5215 11.3632 13.2681 11.2846C12.2058 10.9528 11.1436 10.6122 10.0813 10.2716C9.78793 10.1756 9.49458 10.0795 9.15234 9.96601C9.25013 9.93108 9.29902 9.90488 9.35235 9.89178C9.78349 9.75206 10.2191 9.61671 10.6502 9.47699C12.1481 8.99671 13.6504 8.5208 15.1482 8.04052C16.166 7.71306 17.175 7.38996 18.1839 7.0625Z" fill="#CD1A0F"/>
<path d="M18.1759 7.06339C17.167 7.38648 16.1581 7.71395 15.1447 8.03704C13.6468 8.51732 12.1445 8.99323 10.6467 9.47351C10.2155 9.61323 9.77994 9.74858 9.34881 9.8883C9.29547 9.90576 9.24214 9.9276 9.1488 9.96252C9.48659 10.076 9.77994 10.1721 10.0777 10.2682C11.14 10.6087 12.1978 10.9536 13.2646 11.2811C13.5179 11.3597 13.7624 11.4689 14.0291 11.4994C14.0913 11.8793 14.1535 12.2591 14.2157 12.639C14.3135 13.2153 14.4157 13.796 14.518 14.3724C14.6202 14.9487 14.718 15.5294 14.8202 16.1057C14.8735 16.3983 14.9402 16.6952 14.9713 16.9877C14.998 17.2278 14.9091 17.4287 14.6913 17.564C14.6958 17.516 14.6735 17.4767 14.6424 17.4374C14.4646 17.206 14.2957 16.9702 14.1224 16.7345C13.3935 15.7433 12.6645 14.7566 11.9312 13.7655C11.0245 12.5386 10.1133 11.3117 9.20658 10.0848C9.18436 10.0542 9.17102 10.0062 9.1088 10.0324C9.1088 11.6959 9.1088 13.3594 9.1088 15.0229C8.25986 15.4639 7.40648 15.9093 6.55755 16.3459C6.23753 16.5118 5.91307 16.6733 5.58861 16.8349C5.41971 16.669 5.38415 16.4638 5.41527 16.2454C5.44638 16.014 5.49972 15.7826 5.53527 15.5512C5.58416 15.2238 5.67306 14.9007 5.69528 14.5688C5.72195 14.5252 5.73973 14.4815 5.73528 14.4335C5.81529 14.4248 5.8464 14.3593 5.8864 14.3025C6.29976 13.7393 6.71756 13.1804 7.13091 12.6172C7.73539 11.7963 8.34431 10.9798 8.94879 10.159C8.9799 10.1197 9.0599 10.076 9.00657 10.0149C8.96657 9.96689 8.90434 10.0237 8.85989 10.0367C8.08207 10.2856 7.29981 10.5389 6.52199 10.7921C6.45088 10.8139 6.37976 10.8489 6.29976 10.8358C6.27309 10.6829 6.11753 10.648 6.02419 10.5563C5.62417 10.1546 5.22415 9.74858 4.80635 9.36436C4.41077 9.00633 4.03297 8.63521 3.66406 8.25098C3.72184 8.25098 3.77962 8.25972 3.83741 8.28155C4.26409 8.4169 4.69078 8.55225 5.11747 8.6876C6.37532 9.08929 7.63316 9.49534 8.89101 9.89703C8.9399 9.9145 8.98879 9.94506 9.06435 9.90576C8.06874 8.56098 7.07758 7.2162 6.08641 5.87142C6.66422 4.72312 7.23759 3.57045 7.81539 2.42214C8.05985 1.9375 8.29986 1.45285 8.54432 0.972574C8.65988 0.745533 8.82878 0.588351 9.1088 0.605815C9.1088 3.7058 9.1088 6.80141 9.1088 9.9014C9.12213 9.90576 9.13546 9.91013 9.1488 9.91886C10.1444 8.57408 11.14 7.22493 12.1356 5.88015C12.6068 5.94565 13.0823 6.00677 13.5535 6.07663C14.2468 6.17269 14.9402 6.27311 15.6336 6.37353C16.3136 6.46959 16.9981 6.56128 17.6781 6.66606C17.9137 6.69226 18.1048 6.81451 18.1759 7.06339Z" fill="#FF6C63"/>
<path d="M9.11328 15.0274C9.11328 13.3639 9.11328 11.7004 9.11328 10.0368C9.17551 10.0106 9.18884 10.0587 9.21106 10.0892C10.1178 11.3161 11.0289 12.543 11.9357 13.7699C12.6646 14.761 13.398 15.7478 14.1269 16.7389C14.3002 16.9747 14.4736 17.2105 14.6469 17.4419C14.678 17.4812 14.6958 17.5205 14.6958 17.5685C14.5002 17.682 14.3136 17.6995 14.1002 17.5947C12.6201 16.8568 11.1623 16.0796 9.69109 15.3286C9.49552 15.2326 9.3044 15.1278 9.11328 15.0274Z" fill="#CD1A0F"/>
<path d="M12.1323 5.87525C11.1367 7.22003 10.1411 8.56918 9.14547 9.91396C9.13214 9.9096 9.1188 9.90523 9.10547 9.8965C9.10547 6.79651 9.10547 3.7009 9.10547 0.600915C9.39437 0.592183 9.55883 0.758097 9.67883 0.989505C10.0966 1.82781 10.5189 2.66175 10.9411 3.50005C11.3411 4.2947 11.7367 5.08498 12.1323 5.87525Z" fill="#CD1A0F"/>
<path d="M6.08791 5.87109C7.07907 7.21588 8.07468 8.55629 9.06584 9.90544C8.99028 9.94473 8.94139 9.91417 8.8925 9.89671C7.63465 9.49502 6.37681 9.08896 5.11897 8.68728C4.69228 8.55192 4.26559 8.41657 3.8389 8.28122C3.78112 8.26376 3.72334 8.25066 3.66556 8.25066C3.63 8.22883 3.59444 8.20263 3.55888 8.1808C3.54555 8.1546 3.51888 8.14587 3.48777 8.14587C3.48777 8.10221 3.46554 8.06728 3.43443 8.04108C3.06108 7.74418 2.74551 7.39052 2.40771 7.05869C2.23437 6.89278 2.06992 6.7094 2.17214 6.43433C2.46105 6.36011 2.76329 6.33827 3.06108 6.29461C3.75889 6.18982 4.45671 6.0894 5.15897 5.99335C5.46565 5.94968 5.77678 5.91476 6.08791 5.87109Z" fill="#CD1A0F"/>
<path d="M3.56615 8.18024C3.60171 8.20207 3.63726 8.22827 3.67282 8.2501C4.04173 8.63432 4.41953 9.00545 4.8151 9.36347C5.2329 9.7477 5.63293 10.1494 6.03295 10.5554C6.12629 10.6471 6.27741 10.6821 6.30852 10.8349C6.30852 10.848 6.30852 10.8567 6.30852 10.8698C6.26407 10.8785 6.21518 10.8873 6.17073 10.9004C5.59292 11.0837 5.01956 11.2671 4.44175 11.4549C4.36175 11.4811 4.28619 11.5073 4.20174 11.5073C4.11729 11.433 4.03284 11.3632 3.95284 11.289C2.70833 10.097 1.46826 8.90502 0.228196 7.71306C0.0370748 7.52968 -0.0473741 7.3201 0.0459642 7.0625C1.09046 7.39433 2.13052 7.72616 3.17502 8.05799C3.28169 8.09292 3.38392 8.14531 3.49504 8.14531C3.50837 8.17151 3.53504 8.18024 3.56615 8.18024Z" fill="#FF6C63"/>
<path d="M4.19867 11.5037C4.28312 11.508 4.35868 11.4775 4.43869 11.4513C5.01649 11.2679 5.58986 11.0802 6.16767 10.8968C6.21211 10.8837 6.25656 10.8749 6.30545 10.8662C6.35434 10.9055 6.34545 10.9623 6.33656 11.0103C6.23878 11.5648 6.13655 12.1237 6.03877 12.6782C5.93654 13.2632 5.83876 13.8483 5.73653 14.4334C5.74098 14.4814 5.71875 14.5251 5.69653 14.5687C5.65653 14.5862 5.63875 14.6255 5.61653 14.656C4.93649 15.5773 4.25645 16.4942 3.57642 17.4155C3.5453 17.4591 3.51864 17.5028 3.45641 17.5028C3.18973 17.2845 3.23862 17.005 3.29196 16.7256C3.40752 16.0751 3.52308 15.4245 3.63864 14.7739C3.7542 14.1234 3.86977 13.4728 3.98088 12.8223C4.06089 12.39 4.12756 11.949 4.19867 11.5037Z" fill="#CD1A0F"/>
<path d="M3.45312 17.5112C3.51535 17.5112 3.54202 17.4676 3.57313 17.4239C4.25317 16.5026 4.9332 15.5857 5.61324 14.6645C5.63546 14.6295 5.65324 14.5946 5.69324 14.5771C5.67102 14.909 5.58213 15.2321 5.53324 15.5595C5.49768 15.7909 5.44879 16.0224 5.41323 16.2538C5.38212 16.4721 5.41767 16.6816 5.58657 16.8432C5.10655 17.0964 4.63097 17.3584 4.14205 17.5942C3.91093 17.7121 3.66202 17.7121 3.45312 17.5112Z" fill="#FF6C63"/>
<path d="M3.49595 8.14513C3.38038 8.14077 3.27816 8.08837 3.17593 8.05781C2.13143 7.72598 1.09137 7.39415 0.046875 7.06232C0.100211 6.86584 0.233552 6.72613 0.424673 6.68683C1.00693 6.57331 1.58918 6.49035 2.18032 6.43359C2.07365 6.70866 2.24255 6.88768 2.41589 7.05796C2.75368 7.38979 3.06926 7.74345 3.44261 8.04034C3.47372 8.06654 3.49595 8.10147 3.49595 8.14513Z" fill="#CD1A0F"/>
<path d="M5.73828 14.437C5.83606 13.852 5.93829 13.2669 6.04052 12.6818C6.1383 12.1273 6.24053 11.5684 6.33831 11.0139C6.3472 10.9659 6.35609 10.9091 6.3072 10.8699C6.3072 10.8568 6.3072 10.848 6.3072 10.8349C6.3872 10.848 6.45832 10.8175 6.52943 10.7913C7.30725 10.5424 8.08507 10.2892 8.86734 10.0359C8.91623 10.0228 8.97401 9.96606 9.01401 10.0141C9.0629 10.0752 8.9829 10.1189 8.95623 10.1582C8.35175 10.979 7.74728 11.7998 7.13836 12.6163C6.72056 13.1796 6.3072 13.7384 5.89385 14.3017C5.8494 14.3628 5.81829 14.4283 5.73828 14.437Z" fill="#CD1A0F"/>
<path d="M3.56356 8.18057C3.53234 8.18057 3.51003 8.1718 3.49219 8.14551C3.51895 8.14551 3.54572 8.15427 3.56356 8.18057Z" fill="#F38B19"/>
</svg>
