<svg width="15" height="15" viewBox="0 0 15 15" fill="none" xmlns="http://www.w3.org/2000/svg">
<path d="M14.7074 5.94531C14.7181 5.94531 14.7253 5.94531 14.736 5.94531C14.736 6.04036 14.736 6.13188 14.736 6.22693C14.6715 6.35365 14.5784 6.45574 14.478 6.5543C13.4639 7.52235 12.4498 8.49391 11.4357 9.46196C11.4106 9.48308 11.3855 9.5042 11.3604 9.52532C11.1454 9.50068 10.9483 9.41268 10.7441 9.34931C9.88762 9.08178 9.03117 8.80721 8.17473 8.53264C7.93822 8.45519 7.70171 8.37775 7.42578 8.28622C7.50462 8.25806 7.54404 8.23694 7.58704 8.22638C7.93463 8.11374 8.28581 8.00461 8.63341 7.89197C9.84103 7.50475 11.0522 7.12105 12.2599 6.73383C13.0805 6.46982 13.8939 6.20933 14.7074 5.94531Z" fill="#148679"/>
<path d="M14.7039 5.94568C13.8905 6.20617 13.077 6.47018 12.26 6.73067C11.0524 7.11789 9.84115 7.50159 8.63353 7.88881C8.28593 8.00145 7.93475 8.11058 7.58715 8.22322C7.54415 8.2373 7.50115 8.25491 7.4259 8.28307C7.69824 8.37459 7.93475 8.45203 8.17484 8.52948C9.03129 8.80405 9.88415 9.08214 10.7442 9.34616C10.9484 9.40952 11.1455 9.49753 11.3605 9.52217C11.4107 9.82842 11.4609 10.1347 11.511 10.4409C11.5899 10.9056 11.6723 11.3738 11.7547 11.8384C11.8371 12.3031 11.916 12.7713 11.9984 13.2359C12.0414 13.4718 12.0951 13.7112 12.1202 13.947C12.1417 14.1406 12.0701 14.3026 11.8945 14.4117C11.8981 14.373 11.8801 14.3413 11.8551 14.3096C11.7117 14.123 11.5755 13.9329 11.4358 13.7428C10.8481 12.9438 10.2604 12.1482 9.66915 11.3491C8.93812 10.36 8.20351 9.3708 7.47248 8.38163C7.45457 8.35699 7.44382 8.31827 7.39365 8.33939C7.39365 9.68057 7.39365 11.0218 7.39365 12.3629C6.70921 12.7185 6.02118 13.0775 5.33674 13.4296C5.07873 13.5633 4.81714 13.6936 4.55555 13.8238C4.41937 13.69 4.39071 13.5246 4.41579 13.3486C4.44087 13.162 4.48388 12.9754 4.51254 12.7889C4.55196 12.5249 4.62363 12.2644 4.64155 11.9968C4.66305 11.9616 4.67738 11.9264 4.6738 11.8877C4.7383 11.8807 4.76339 11.8279 4.79564 11.7821C5.1289 11.328 5.46574 10.8774 5.79901 10.4233C6.28636 9.76154 6.77729 9.10327 7.26464 8.44147C7.28973 8.40979 7.35423 8.37459 7.31123 8.32531C7.27898 8.28659 7.22881 8.33235 7.19297 8.34291C6.56587 8.54356 5.93518 8.74773 5.30807 8.9519C5.25074 8.9695 5.1934 8.99766 5.1289 8.9871C5.1074 8.86389 4.98198 8.83573 4.90672 8.76181C4.58421 8.43795 4.2617 8.11058 3.92486 7.8008C3.60593 7.51215 3.30133 7.21294 3.00391 6.90316C3.05049 6.90316 3.09708 6.9102 3.14366 6.9278C3.48767 7.03693 3.83169 7.14605 4.1757 7.25518C5.18982 7.57903 6.20394 7.90641 7.21806 8.23026C7.25748 8.24434 7.29689 8.26899 7.35781 8.2373C6.55512 7.15309 5.756 6.06888 4.95689 4.98467C5.42274 4.05887 5.88501 3.12954 6.35086 2.20374C6.54795 1.813 6.74146 1.42226 6.93855 1.03504C7.03172 0.851993 7.16789 0.725267 7.39365 0.739348C7.39365 3.23867 7.39365 5.73447 7.39365 8.23378C7.4044 8.2373 7.41515 8.24082 7.4259 8.24786C8.22859 7.16365 9.03129 6.07592 9.83399 4.99171C10.2138 5.04451 10.5973 5.0938 10.9771 5.15012C11.5361 5.22756 12.0952 5.30853 12.6542 5.38949C13.2024 5.46693 13.7543 5.54086 14.3026 5.62534C14.4925 5.64646 14.6466 5.74503 14.7039 5.94568Z" fill="#36CEBC"/>
<path d="M7.39453 12.3665C7.39453 11.0254 7.39453 9.68418 7.39453 8.343C7.4447 8.32188 7.45545 8.3606 7.47337 8.38524C8.20439 9.37441 8.939 10.3636 9.67003 11.3527C10.2577 12.1518 10.849 12.9474 11.4367 13.7465C11.5764 13.9365 11.7162 14.1266 11.8559 14.3132C11.881 14.3449 11.8954 14.3766 11.8954 14.4153C11.7377 14.5068 11.5872 14.5209 11.4152 14.4364C10.2219 13.8415 9.04651 13.2149 7.86038 12.6094C7.70271 12.532 7.54862 12.4475 7.39453 12.3665Z" fill="#148679"/>
<path d="M9.83096 4.98798C9.02827 6.07219 8.22557 7.15992 7.42288 8.24413C7.41213 8.24061 7.40138 8.23709 7.39062 8.23005C7.39062 5.73073 7.39062 3.23494 7.39062 0.735617C7.62355 0.728577 7.75614 0.862343 7.85289 1.04891C8.18974 1.72478 8.53017 2.39714 8.87059 3.07301C9.19311 3.71368 9.51203 4.35083 9.83096 4.98798Z" fill="#148679"/>
<path d="M4.95588 4.98438C5.75499 6.06859 6.55769 7.14928 7.3568 8.23701C7.29588 8.26869 7.25646 8.24405 7.21704 8.22997C6.20292 7.90611 5.1888 7.57874 4.17468 7.25488C3.83067 7.14576 3.48666 7.03663 3.14265 6.92751C3.09606 6.91343 3.04948 6.90287 3.00289 6.90287C2.97422 6.88527 2.94556 6.86414 2.91689 6.84654C2.90614 6.82542 2.88464 6.81838 2.85955 6.81838C2.85955 6.78318 2.84164 6.75502 2.81655 6.7339C2.51554 6.49453 2.26111 6.20939 1.98877 5.94186C1.84902 5.80809 1.71643 5.66025 1.79885 5.43848C2.03177 5.37863 2.27545 5.36103 2.51554 5.32583C3.07814 5.24135 3.64075 5.16038 4.20694 5.08294C4.45419 5.04774 4.70504 5.01958 4.95588 4.98438Z" fill="#148679"/>
<path d="M2.92355 6.84648C2.95222 6.86408 2.98088 6.8852 3.00955 6.9028C3.30698 7.21257 3.61157 7.51179 3.9305 7.80044C4.26735 8.11022 4.58986 8.43407 4.91237 8.76145C4.98762 8.83537 5.10946 8.86353 5.13454 8.98674C5.13454 8.9973 5.13454 9.00434 5.13454 9.0149C5.09871 9.02194 5.05929 9.02898 5.02346 9.03954C4.55761 9.18739 4.09534 9.33523 3.62949 9.4866C3.56499 9.50772 3.50407 9.52884 3.43598 9.52884C3.3679 9.469 3.29981 9.41268 3.23531 9.35283C2.23194 8.39183 1.23215 7.43082 0.232369 6.46982C0.0782799 6.32197 0.0101941 6.153 0.0854468 5.94531C0.92756 6.21285 1.76609 6.48038 2.6082 6.74791C2.69421 6.77607 2.77663 6.81831 2.86621 6.81831C2.87696 6.83944 2.89846 6.84648 2.92355 6.84648Z" fill="#36CEBC"/>
<path d="M3.43282 9.52566C3.50091 9.52918 3.56183 9.50454 3.62633 9.48342C4.09218 9.33557 4.55445 9.18421 5.0203 9.03636C5.05613 9.0258 5.09197 9.01876 5.13138 9.01172C5.1708 9.0434 5.16363 9.08916 5.15647 9.12788C5.07763 9.57495 4.99521 10.0255 4.91638 10.4726C4.83396 10.9443 4.75512 11.416 4.6727 11.8877C4.67628 11.9264 4.65837 11.9616 4.64045 11.9968C4.6082 12.0109 4.59386 12.0426 4.57595 12.0672C4.02768 12.81 3.47941 13.5492 2.93114 14.292C2.90605 14.3272 2.88455 14.3624 2.83438 14.3624C2.61938 14.1864 2.6588 13.9611 2.7018 13.7358C2.79497 13.2113 2.88814 12.6868 2.98131 12.1623C3.07448 11.6378 3.16765 11.1133 3.25723 10.5888C3.32174 10.2403 3.37549 9.88472 3.43282 9.52566Z" fill="#148679"/>
<path d="M2.83203 14.3695C2.8822 14.3695 2.9037 14.3343 2.92878 14.2991C3.47705 13.5563 4.02532 12.8171 4.57359 12.0743C4.59151 12.0461 4.60585 12.018 4.6381 12.0039C4.62018 12.2714 4.54851 12.5319 4.50909 12.7959C4.48042 12.9825 4.44101 13.1691 4.41234 13.3557C4.38725 13.5317 4.41592 13.7006 4.55209 13.8309C4.16508 14.035 3.78165 14.2463 3.38747 14.4363C3.20113 14.5314 3.00045 14.5314 2.83203 14.3695Z" fill="#36CEBC"/>
<path d="M2.8667 6.81838C2.77353 6.81486 2.69111 6.77262 2.6087 6.74798C1.76658 6.48045 0.928051 6.21291 0.0859375 5.94538C0.128939 5.78697 0.236443 5.67433 0.390532 5.64265C0.859965 5.55112 1.3294 5.48424 1.806 5.43848C1.72 5.66025 1.85617 5.80457 1.99592 5.94186C2.26827 6.20939 2.52269 6.49453 2.8237 6.7339C2.84879 6.75502 2.8667 6.78318 2.8667 6.81838Z" fill="#148679"/>
<path d="M4.67578 11.8908C4.75462 11.4191 4.83704 10.9474 4.91946 10.4757C4.99829 10.0286 5.08071 9.57804 5.15955 9.13098C5.16672 9.09226 5.17388 9.0465 5.13446 9.01482C5.13446 9.00425 5.13446 8.99721 5.13446 8.98665C5.19897 8.99721 5.2563 8.97257 5.31364 8.95145C5.94074 8.7508 6.56785 8.54663 7.19854 8.34246C7.23796 8.3319 7.28454 8.28614 7.31679 8.32486C7.35621 8.37415 7.29171 8.40935 7.27021 8.44103C6.78286 9.10282 6.29551 9.76461 5.80457 10.4229C5.46773 10.877 5.13446 11.3276 4.8012 11.7817C4.76537 11.8309 4.74028 11.8838 4.67578 11.8908Z" fill="#148679"/>
<path d="M2.92138 6.8469C2.89596 6.8469 2.87781 6.83976 2.86328 6.81836C2.88507 6.81836 2.90686 6.82549 2.92138 6.8469Z" fill="#F38B19"/>
</svg>
