<svg width="34" height="34" viewBox="0 0 34 34" fill="none" xmlns="http://www.w3.org/2000/svg">
<path d="M15.9946 0.806641C16.6638 0.806641 17.333 0.806641 18.0022 0.806641C18.5459 0.882597 19.098 0.924795 19.6418 1.02607C23.8076 1.76876 27.2121 3.81959 29.7635 7.21233C32.6327 11.027 33.6281 15.3397 32.7582 20.0406C32.0137 24.0916 29.9559 27.3915 26.7102 29.8896C23.1969 32.5903 19.2068 33.6368 14.8235 33.0629C11.6364 32.641 8.81738 31.3328 6.40824 29.1723C3.60595 26.6741 1.85766 23.5599 1.18845 19.838C1.07971 19.2388 1.02115 18.6312 0.9375 18.0235C0.9375 17.3483 0.9375 16.6732 0.9375 15.998C1.00442 15.4579 1.06298 14.9093 1.15499 14.3776C1.71545 11.0186 3.17933 8.10693 5.53828 5.67631C7.94741 3.2035 10.8417 1.65904 14.2296 1.05983C14.8151 0.958554 15.409 0.891037 15.9946 0.806641ZM31.0517 17.0192C31.0601 9.21252 24.7695 2.85747 17.0235 2.83215C9.27746 2.81527 2.95348 9.1872 2.94511 17.0023C2.93675 24.8005 9.22727 31.164 16.9733 31.1893C24.711 31.2147 31.0433 24.8427 31.0517 17.0192Z" fill="white"/>
<path d="M16.472 25.6352C13.5944 25.5677 10.7419 24.268 8.49171 21.6686C8.02327 21.12 8.03163 20.5039 8.50007 20.1072C8.96015 19.7106 9.54571 19.8034 10.0058 20.3436C11.5951 22.1918 13.586 23.3059 15.9952 23.5506C19.1321 23.8713 21.7587 22.8079 23.8834 20.4617C24.0423 20.2845 24.2096 20.0988 24.4104 19.9806C24.8203 19.7528 25.3306 19.8794 25.6233 20.2507C25.9245 20.6305 25.9161 21.1538 25.5815 21.5589C24.653 22.6898 23.5404 23.6097 22.2522 24.3017C20.621 25.1879 18.8727 25.6352 16.472 25.6352Z" fill="white"/>
<path d="M25.4728 13.7873C25.4728 13.9308 25.4811 14.0827 25.4728 14.2262C25.4561 14.7832 25.0378 15.2136 24.5024 15.2305C23.9838 15.2474 23.5154 14.8254 23.4735 14.2768C23.4568 14.0658 23.4735 13.8548 23.4652 13.6438C23.4652 13.5679 23.4735 13.4919 23.4568 13.4244C23.3732 13.0446 22.8127 12.783 22.2188 12.8336C21.6834 12.8843 21.3404 13.1965 21.3321 13.627C21.3321 13.8295 21.3321 14.0321 21.3321 14.2262C21.3154 14.7663 20.9138 15.1883 20.3868 15.222C19.8849 15.2558 19.4081 14.8507 19.3412 14.3274C19.1237 12.7999 19.7929 11.5761 21.1313 11.036C22.5534 10.4621 24.2264 10.9178 25.0378 12.0994C25.364 12.5973 25.4728 13.0024 25.4728 13.7873Z" fill="white"/>
<path d="M8.52434 13.7698C8.37377 11.8878 10.1974 10.529 12.1297 10.8497C13.3175 11.0438 14.2293 11.6599 14.5639 12.8837C14.6894 13.3479 14.681 13.8627 14.6476 14.3522C14.6141 14.8839 14.1038 15.2721 13.5936 15.2299C13.0666 15.1877 12.6734 14.7657 12.665 14.2171C12.6567 14.0483 12.665 13.8796 12.665 13.7108C12.665 13.2972 12.5396 13.0525 12.1464 12.9512C11.8202 12.8668 11.4437 12.8499 11.1091 12.9174C10.6658 13.0103 10.532 13.2635 10.5236 13.7192C10.5236 13.8964 10.532 14.0821 10.5152 14.2593C10.4734 14.8079 10.0301 15.2299 9.50306 15.2299C8.95933 15.2215 8.53271 14.7826 8.51598 14.2087C8.52434 14.0652 8.52434 13.9133 8.52434 13.7698Z" fill="white"/>
</svg>
