<svg width="37" height="32" viewBox="0 0 37 32" fill="none" xmlns="http://www.w3.org/2000/svg">
<path d="M0.653891 9.7644C0.747512 9.45269 0.803687 9.1221 0.925394 8.81984C1.55265 7.32744 2.65738 6.45845 4.26766 6.35455C5.36302 6.28843 6.46774 6.32621 7.56311 6.33566C7.79716 6.33566 7.91887 6.26009 8.03121 6.06174C8.95806 4.47488 9.91299 2.90692 10.8398 1.32007C11.1301 0.828896 11.5139 0.621094 12.0756 0.621094C16.4384 0.630539 20.8011 0.630539 25.1732 0.621094C25.7349 0.621094 26.1188 0.828896 26.409 1.32007C27.3358 2.90692 28.2814 4.47488 29.2176 6.06174C29.33 6.26009 29.4517 6.33566 29.6857 6.33566C30.6594 6.32621 31.6237 6.32621 32.5973 6.32621C34.9378 6.33566 36.5949 8.00752 36.6043 10.3689C36.6043 15.9607 36.6043 21.5619 36.6043 27.1537C36.6043 29.5056 34.9378 31.2058 32.6067 31.2058C23.2914 31.2153 13.9761 31.2058 4.66086 31.2153C2.35779 31.2153 0.906667 29.5151 0.700701 27.9093C0.700701 27.881 0.663255 27.8527 0.644531 27.8243C0.653893 21.8075 0.653891 15.7907 0.653891 9.7644ZM18.5916 29.0995C23.2352 29.0995 27.8788 29.0995 32.5224 29.0995C33.7582 29.0995 34.4885 28.3627 34.4885 27.1253C34.4885 21.5525 34.4885 15.9796 34.4885 10.4161C34.4885 9.18822 33.7676 8.47036 32.5412 8.47036C31.3803 8.47036 30.2287 8.45147 29.0678 8.4798C28.4499 8.48925 28.038 8.272 27.7197 7.72416C26.8209 6.16564 25.8847 4.62601 24.9672 3.07694C24.8362 2.85969 24.7144 2.76524 24.4523 2.76524C20.5577 2.77468 16.6631 2.77468 12.7684 2.76524C12.525 2.76524 12.3939 2.85025 12.2722 3.05805C11.3548 4.61657 10.4092 6.16564 9.50106 7.7336C9.19211 8.26255 8.78955 8.48925 8.18101 8.4798C7.02011 8.46091 5.86857 8.47036 4.70767 8.47036C3.43443 8.47036 2.74163 9.17877 2.74163 10.4728C2.74163 15.9985 2.74163 21.5241 2.74163 27.0403C2.74163 28.4099 3.43443 29.1089 4.79193 29.1089C9.39808 29.0995 13.9949 29.0995 18.5916 29.0995Z" fill="white"/>
<path d="M12.4157 21.8834C12.3596 22.129 12.3127 22.3274 12.2566 22.5163C12.0881 23.0547 11.5825 23.3758 11.0676 23.2719C10.5059 23.1586 10.1127 22.6485 10.2156 22.0818C10.4216 21.0428 10.6463 20.0037 10.9084 18.9742C11.0489 18.4169 11.5731 18.1241 12.1349 18.2469C13.0617 18.4452 13.9792 18.653 14.906 18.8608C15.5707 19.012 15.964 19.5031 15.8703 20.0793C15.7767 20.6838 15.3086 21.0144 14.6158 20.9766C14.5784 20.9766 14.5503 20.9766 14.4379 20.9766C14.5596 21.0994 14.6345 21.1939 14.7188 21.2789C17.8083 24.1503 22.6578 22.9319 24.0434 18.9364C24.2026 18.4736 24.4554 18.143 24.9609 18.0769C25.7567 17.9824 26.3465 18.6908 26.0844 19.4653C25.1294 22.3179 23.1915 24.1692 20.2799 24.7926C17.2185 25.4444 14.6345 24.4715 12.5749 22.0912C12.5281 22.0157 12.4906 21.9779 12.4157 21.8834Z" fill="white"/>
<path d="M24.8458 12.2485C24.902 12.0029 24.9394 11.8045 25.005 11.6156C25.1735 11.0678 25.6977 10.7655 26.2407 10.8883C26.7744 11.0111 27.1489 11.5306 27.0459 12.0784C26.8399 13.108 26.6152 14.1281 26.3625 15.1483C26.222 15.7244 25.6884 16.0267 25.1079 15.8945C24.1624 15.6961 23.2168 15.4789 22.2712 15.2616C21.6814 15.1199 21.3069 14.6193 21.3818 14.0809C21.4567 13.5047 21.9155 13.1364 22.5521 13.1552C22.6176 13.1552 22.6832 13.1552 22.7487 13.1552C22.7674 13.1269 22.7861 13.0891 22.8049 13.0608C22.3836 12.7396 21.981 12.3807 21.5316 12.1068C18.4047 10.2366 14.4164 11.729 13.2274 15.186C13.0776 15.6111 12.8623 15.9606 12.4036 16.055C11.5984 16.2345 10.9056 15.4977 11.1771 14.7138C12.207 11.6628 14.2947 9.78318 17.4497 9.28256C20.3333 8.81973 22.7581 9.82096 24.6773 12.0501C24.7147 12.1162 24.7615 12.1635 24.8458 12.2485Z" fill="white"/>
</svg>
