<svg width="32" height="23" viewBox="0 0 32 23" fill="none" xmlns="http://www.w3.org/2000/svg">
<path d="M14.0313 16.3239C13.3119 16.3239 12.6021 16.3239 11.9019 16.3239C9.98359 16.3239 8.06525 16.3336 6.14691 16.3142C5.88793 16.3142 5.77283 16.3916 5.67692 16.6335C5.0055 18.2879 4.31489 19.9326 3.62429 21.5774C3.35572 22.2256 2.74185 22.6126 2.16634 22.5448C1.44697 22.4578 0.813914 21.9063 0.717997 21.2291C0.67963 20.9872 0.717999 20.7163 0.804325 20.4938C3.39409 14.2051 5.98385 7.92617 8.58321 1.63753C8.823 1.06672 9.31217 0.86355 9.88768 0.853875C10.4728 0.8442 10.9907 1.02802 11.2401 1.61819C13.8107 7.82943 16.3717 14.0503 18.9423 20.2712C19.2012 20.9098 19.1533 21.5096 18.6833 22.0224C18.2325 22.5158 17.657 22.6222 17.0335 22.4094C16.6307 22.2739 16.3717 22.003 16.2182 21.6064C15.4988 19.8552 14.7603 18.0944 14.0313 16.3239ZM12.7364 13.1989C11.7964 10.935 10.8756 8.70016 9.92605 6.4169C8.97647 8.71951 8.04607 10.9447 7.11567 13.1989C9.00524 13.1989 10.8469 13.1989 12.7364 13.1989Z" fill="white"/>
<path d="M28.4451 11.0125C28.8 10.316 29.3755 10.0838 30.0948 10.1515C30.795 10.2192 31.313 10.7416 31.3801 11.4479C31.3897 11.5543 31.3897 11.6608 31.3897 11.7769C31.3897 14.8148 31.3897 17.843 31.3897 20.8809C31.3897 21.8096 30.9101 22.4095 30.1236 22.4966C29.3467 22.5836 28.8767 22.3514 28.4259 21.6355C26.8432 22.5353 25.1647 22.7771 23.419 22.216C22.0762 21.7903 21.0115 20.9873 20.2154 19.8263C18.6327 17.5334 18.7862 14.4761 20.5894 12.3186C22.316 10.2579 25.4716 9.31945 28.4451 11.0125ZM28.3108 16.3337C28.3204 14.6116 26.9679 13.2378 25.2702 13.2184C23.6012 13.2087 22.2009 14.6116 22.1913 16.3047C22.1817 17.9881 23.5725 19.4006 25.251 19.42C26.9392 19.4296 28.3012 18.0558 28.3108 16.3337Z" fill="white"/>
</svg>
