<svg width="13" height="12" viewBox="0 0 13 12" fill="none" xmlns="http://www.w3.org/2000/svg">
<path d="M12.7891 3.22965C12.7571 3.07023 12.7315 2.91082 12.6932 2.7514C12.3448 1.39318 11.0921 0.446257 9.68596 0.484517C8.91259 0.506835 8.23189 0.777841 7.67902 1.31666C6.95997 2.01809 6.2537 2.73227 5.54424 3.44645C5.18951 3.80673 5.1991 4.35831 5.54743 4.70264C5.89577 5.04379 6.43586 5.04379 6.79698 4.68989C7.14852 4.34555 7.49366 3.99803 7.83881 3.6505C7.87076 3.61862 7.89633 3.58355 7.92829 3.54848C8.94135 4.56555 9.94482 5.56668 10.9419 6.56143C10.9707 6.55505 10.9803 6.55505 10.9866 6.55186C11.335 6.20115 11.6961 5.86319 12.0317 5.49972C12.4535 5.03423 12.6932 4.47946 12.7667 3.85774C12.7699 3.83224 12.7827 3.80673 12.7891 3.77804C12.7891 3.5963 12.7891 3.41138 12.7891 3.22965Z" fill="white"/>
<path d="M5.10261 6.72461C5.77372 6.76924 6.22433 7.24111 6.27227 7.87558C6.43845 7.92341 6.61102 7.9521 6.76122 8.02543C7.48346 8.36339 7.66882 9.30076 7.12554 9.8874C6.91142 10.117 6.67493 10.3306 6.43845 10.5633C6.66535 10.7642 6.86668 10.9714 7.09997 11.1404C7.43553 11.3827 7.90211 11.3221 8.19932 11.032C8.49653 10.7387 8.55085 10.2859 8.33034 9.93523C8.31117 9.90335 8.2888 9.87146 8.25045 9.81089C8.47096 9.93204 8.67868 9.98305 8.90239 9.94161C9.12929 9.90016 9.31145 9.78857 9.45206 9.60683C9.64381 9.36133 9.74607 8.92772 9.44567 8.51643C9.5735 8.54832 9.70772 8.60252 9.84514 8.61527C10.2095 8.64715 10.4939 8.4973 10.6792 8.18485C10.8614 7.87877 10.8071 7.5727 10.6409 7.27937C10.6249 7.25068 10.6025 7.22836 10.5802 7.20604C9.72051 6.3452 8.85765 5.48754 7.99479 4.6267C7.97881 4.61076 7.95963 4.59482 7.93087 4.56931C7.71036 4.79249 7.49625 5.01567 7.27254 5.22929C6.63978 5.84145 5.63631 5.8255 5.01952 5.2006C4.41232 4.58525 4.40593 3.5905 5.00993 2.96559C5.31353 2.65314 5.62352 2.35025 5.93032 2.04417C5.96227 2.01229 6.00062 1.98997 6.03258 1.96447C5.29436 1.18014 4.44748 0.679579 3.34493 0.759287C1.95797 0.861313 0.858622 1.81143 0.583785 3.16965C0.37606 4.19309 0.6477 5.09857 1.36675 5.85739C1.64478 6.15071 1.95797 6.41534 2.26476 6.70229C2.29992 6.6704 2.33187 6.64171 2.36064 6.61302C2.60671 6.36752 2.84639 6.11564 3.09886 5.8797C3.76358 5.26117 4.85014 5.58957 5.06107 6.47273C5.08024 6.55244 5.08983 6.63533 5.10261 6.72461Z" fill="white"/>
<path d="M3.58563 8.96506C3.59202 9.13085 3.67511 9.27751 3.85088 9.36041C4.02665 9.4433 4.20241 9.42736 4.35581 9.29983C4.44529 9.2265 4.52199 9.14041 4.60508 9.05752C4.87033 8.79289 5.13558 8.52826 5.40083 8.26363C5.60216 8.05958 5.60536 7.77263 5.41361 7.58133C5.22506 7.39641 4.93744 7.40279 4.7393 7.60046C4.40375 7.93205 4.07139 8.26363 3.73903 8.59521C3.63996 8.69086 3.58563 8.80245 3.58563 8.96506Z" fill="white"/>
<path d="M4.76163 10.1475C4.76802 10.3101 4.8575 10.4599 5.03966 10.5364C5.21863 10.6162 5.39439 10.5938 5.5414 10.4599C5.70119 10.3101 5.85458 10.1539 6.01118 9.99762C6.19653 9.8127 6.38508 9.62778 6.57044 9.43967C6.77497 9.23243 6.78456 8.94867 6.59281 8.75737C6.40426 8.56607 6.11344 8.57245 5.90891 8.77331C5.57655 9.10171 5.24739 9.43329 4.91822 9.76169C4.81596 9.86053 4.76163 9.97212 4.76163 10.1475Z" fill="white"/>
<path d="M2.41015 7.78906C2.41974 7.96442 2.50602 8.11427 2.68818 8.19397C2.87673 8.27687 3.05889 8.24818 3.20909 8.1047C3.41043 7.9134 3.60537 7.71254 3.80351 7.51487C3.94412 7.37458 4.08793 7.23429 4.22535 7.09082C4.42349 6.88677 4.42988 6.6062 4.24452 6.41809C4.05597 6.22679 3.76196 6.22998 3.56063 6.43084C3.22827 6.75924 2.8991 7.08763 2.56994 7.41922C2.46767 7.51487 2.41334 7.62964 2.41015 7.78906Z" fill="white"/>
</svg>
