<svg width="20" height="16" viewBox="0 0 20 16" fill="none" xmlns="http://www.w3.org/2000/svg">
<path d="M0 14.1961C2.19624 14.3933 4.14685 13.8595 5.92888 12.5276C4.71517 12.4555 3.73746 11.9987 2.96685 11.1236C2.61044 10.7197 2.34554 10.2677 2.17216 9.72433C2.76938 9.79646 3.33771 9.80607 3.93493 9.64739C1.51232 9.02712 0.664652 6.87778 0.770611 5.64684C1.31485 5.92091 1.87836 6.10363 2.55265 6.11806C1.54122 5.38238 0.958446 4.43994 0.809141 3.25708C0.698365 2.37715 0.871752 1.53568 1.3293 0.742302C3.51591 3.30997 6.27566 4.72844 9.62782 4.95443C9.61337 4.55053 9.57965 4.16586 9.58928 3.786C9.63745 2.14154 10.909 0.559585 12.508 0.150874C14.0058 -0.228987 15.3255 0.107597 16.4525 1.17025C16.5392 1.25199 16.6115 1.26161 16.7271 1.23756C17.5073 1.05965 18.249 0.790386 18.9474 0.3961C18.9907 0.372059 19.0389 0.352825 19.116 0.314358C18.9811 0.785578 18.7692 1.19429 18.4658 1.54049C18.1671 1.88188 17.8204 2.18481 17.4784 2.5214C17.8444 2.44446 18.2153 2.37715 18.5717 2.28098C18.9281 2.18481 19.2749 2.05018 19.665 1.96363C19.3423 2.34349 19.0341 2.73777 18.6873 3.0984C18.408 3.3869 18.0756 3.62732 17.7818 3.9014C17.7192 3.95429 17.6711 4.06007 17.6711 4.13701C17.6662 8.29625 16.0287 11.6381 12.638 14.0759C11.2028 15.1097 9.56039 15.6627 7.80725 15.8935C6.15525 16.1098 4.52734 15.9992 2.92832 15.5376C1.92653 15.2491 0.982529 14.8212 0.0963263 14.2682C0.0626121 14.2538 0.0481632 14.2346 0 14.1961Z" fill="white"/>
</svg>
