<svg width="23" height="26" viewBox="0 0 23 26" fill="none" xmlns="http://www.w3.org/2000/svg">
<path d="M10.9638 26.0001C8.51447 25.9584 6.00647 25.6668 3.60751 24.7418C2.57579 24.3418 1.61117 23.8334 0.847864 23.0001C0.277482 22.3834 -0.0160952 21.6668 0.000680774 20.8168C0.0761725 17.8835 1.13305 15.3668 3.1965 13.2668C3.63267 12.8251 4.23661 12.8001 4.656 13.1918C5.08379 13.5918 5.08379 14.2001 4.63084 14.6668C3.25521 16.0668 2.40803 17.7251 2.11445 19.6584C2.05573 20.0168 2.05573 20.3834 2.01379 20.7501C1.96347 21.2001 2.15639 21.5334 2.47513 21.8251C3.08745 22.3834 3.8256 22.7251 4.60568 23.0001C7.07174 23.8751 9.63007 24.0835 12.222 23.9751C14.0421 23.9001 15.8372 23.6418 17.5399 22.9918C18.1774 22.7501 18.7897 22.4085 19.3769 22.0585C19.9473 21.7168 20.1821 21.2001 20.1318 20.5001C19.9473 18.2668 19.1252 16.3251 17.5483 14.7168C17.2883 14.4501 17.0954 14.1668 17.1457 13.7835C17.196 13.3751 17.4225 13.0918 17.8083 12.9501C18.211 12.8085 18.5716 12.9085 18.8736 13.2085C20.2241 14.5418 21.1719 16.1168 21.7088 17.9335C21.9856 18.8751 22.1198 19.8418 22.1533 20.8251C22.1869 21.8084 21.7758 22.6001 21.0713 23.2585C20.1486 24.1168 19.0246 24.6251 17.8419 25.0168C15.6442 25.7251 13.3711 25.9834 10.9638 26.0001Z" fill="#727272"/>
<path d="M4.02671 7.00002C4.01832 3.16668 7.17219 0.00834997 11.0306 1.66278e-05C14.9814 -0.00831671 18.1101 3.11668 18.1101 7.07502C18.1101 10.85 14.9143 14 11.0894 14C7.18896 14 4.0351 10.875 4.02671 7.00002ZM6.03982 6.97502C6.03982 9.73336 8.2794 11.9917 11.0306 12C13.8406 12.0084 16.097 9.77502 16.097 6.99168C16.097 4.23335 13.8322 2.00002 11.039 2.00002C8.30456 2.00002 6.03982 4.25002 6.03982 6.97502Z" fill="#727272"/>
</svg>
