<svg width="11" height="8" viewBox="0 0 11 8" fill="none" xmlns="http://www.w3.org/2000/svg">
<path d="M4.05418 7.99957C3.02925 7.99957 2.00711 7.99957 0.982179 7.99957C0.701644 7.99957 0.576653 7.87679 0.582208 7.59851C0.601651 5.99698 1.82656 4.5919 3.44033 4.31361C5.00967 4.04351 6.52067 4.81017 7.20395 6.22343C7.41782 6.66542 7.52893 7.13469 7.53726 7.62579C7.54004 7.86588 7.40671 7.99957 7.15951 7.99957C6.12347 7.99957 5.09021 7.99957 4.05418 7.99957Z" fill="white"/>
<path d="M2.15064 1.87168C2.16175 0.829467 3.01725 -0.00812547 4.06162 5.94797e-05C5.12821 0.00824442 5.96981 0.851294 5.9587 1.9017C5.94759 2.92754 5.08654 3.75149 4.03106 3.74331C2.9978 3.73239 2.14231 2.88116 2.15064 1.87168Z" fill="white"/>
<path d="M6.82432 4.63042C7.20485 4.41215 7.61593 4.30029 8.05757 4.29211C9.41858 4.27301 10.5629 5.36979 10.5768 6.70394C10.5796 6.93857 10.4463 7.07499 10.2074 7.07499C9.5519 7.07771 8.89639 7.07499 8.23811 7.07499C8.18256 7.07499 8.14923 7.06953 8.13811 7.00405C7.97424 6.08734 7.55482 5.30704 6.85487 4.6768C6.84654 4.66861 6.83821 4.66316 6.83265 4.65497C6.82988 4.64951 6.82988 4.64133 6.82432 4.63042Z" fill="white"/>
<path d="M9.49786 2.51269C9.49786 3.28207 8.86457 3.90413 8.08407 3.90686C7.30357 3.90686 6.66751 3.2848 6.66473 2.51815C6.66473 1.74876 7.29802 1.12671 8.07852 1.12398C8.86179 1.12398 9.49786 1.74603 9.49786 2.51269Z" fill="white"/>
</svg>
