<svg width="27" height="28" viewBox="0 0 27 28" fill="none" xmlns="http://www.w3.org/2000/svg">
<path d="M0.390625 27.0352C0.390625 19.124 0.390625 11.2204 0.390625 3.30919C0.405753 3.271 0.428442 3.23282 0.436006 3.19464C0.534335 2.53028 0.852012 1.99574 1.35122 1.56047C1.71428 1.24739 2.15298 1.09466 2.60681 0.964844C9.73189 0.964844 16.857 0.964844 23.9896 0.964844C24.0047 0.97248 24.0123 0.995389 24.0274 0.995389C25.336 1.20921 26.236 2.41574 26.2209 3.82845C26.1831 8.21932 26.2058 12.6178 26.2058 17.0087C26.2058 17.7647 26.2133 18.5207 26.2058 19.2767C26.1982 19.8341 26.0167 20.3381 25.6763 20.781C25.109 21.5218 24.3527 21.8272 23.4374 21.8272C17.568 21.8196 11.6909 21.8272 5.82141 21.8196C5.63232 21.8196 5.49617 21.873 5.36002 22.0105C3.70355 23.6905 2.04709 25.3628 0.390625 27.0352ZM21.0322 6.19571C19.3076 7.58551 17.6133 8.95241 15.8737 10.3575C15.8737 8.9295 15.8737 7.57024 15.8737 6.18043C15.7602 6.18043 15.6694 6.18043 15.5787 6.18043C12.3338 6.18043 9.08896 6.18043 5.85167 6.1728C5.60206 6.1728 5.54912 6.24152 5.54912 6.48588C5.55668 9.76186 5.55668 13.0378 5.55668 16.3062C5.55668 16.3978 5.55668 16.4894 5.55668 16.5887C9.01332 16.5887 12.4397 16.5887 15.8888 16.5887C15.8888 15.2142 15.8888 13.8549 15.8888 12.4422C17.6209 13.8396 19.3152 15.2065 21.0397 16.5963C21.0322 13.1066 21.0322 9.67786 21.0322 6.19571Z" fill="white"/>
</svg>
