<svg width="23" height="14" viewBox="0 0 23 14" fill="none" xmlns="http://www.w3.org/2000/svg">
<path d="M22.9838 12.8369C22.8381 13.2733 22.6276 13.4511 22.1528 13.4619C21.122 13.4942 20.0859 13.4834 19.0606 13.5427C18.1648 13.5966 17.4579 13.2518 16.8535 12.6484C16.3624 12.1527 15.9145 11.6247 15.4342 11.1183C15.2615 10.9351 15.0618 10.7735 14.8514 10.628C14.4952 10.3856 14.2362 10.4341 13.9448 10.7519C13.6102 11.1129 13.5239 11.5655 13.4699 12.0288C13.4429 12.2604 13.4429 12.4921 13.4267 12.7238C13.3997 13.1656 13.1785 13.4295 12.736 13.4619C12.2233 13.4996 11.7053 13.4996 11.1872 13.4834C10.7609 13.4726 10.3346 13.4511 9.91905 13.3811C8.67787 13.1709 7.63636 12.5352 6.62723 11.8241C5.68825 11.1614 4.99211 10.2778 4.31216 9.37813C2.57451 7.08304 1.25238 4.55629 0.0975456 1.93257C-0.129104 1.41537 0.0381849 1.12444 0.610207 1.08134C1.02573 1.04902 1.44665 1.05979 1.86757 1.0544C2.53134 1.04902 3.20049 1.04902 3.86425 1.04363C4.35533 1.04363 4.67912 1.25913 4.90037 1.71168C5.48318 2.91849 6.08219 4.11991 6.70278 5.31055C6.96181 5.81159 7.29638 6.2803 7.75508 6.63588C7.86301 6.72208 7.99252 6.7975 8.12204 6.84599C8.38107 6.93758 8.58074 6.84599 8.71565 6.60894C8.9369 6.22104 8.95309 5.78465 9.00705 5.35365C9.12038 4.36773 9.10958 3.3872 8.89912 2.41206C8.7804 1.85176 8.42964 1.55544 7.88999 1.43692C7.80365 1.41537 7.7227 1.36688 7.63636 1.32917C7.68493 1.24835 7.71731 1.15138 7.77667 1.08134C8.00871 0.82274 8.30012 0.661115 8.64549 0.60724C9.94064 0.413289 11.2358 0.38635 12.5309 0.591076C13.1677 0.693439 13.3997 0.90894 13.4591 1.64703C13.5077 2.23427 13.4537 2.8269 13.4483 3.41414C13.4375 4.18994 13.4213 4.96575 13.4321 5.74155C13.4321 5.96783 13.4861 6.20488 13.567 6.41499C13.7451 6.86754 14.0959 6.93219 14.4628 6.61972C15.0672 6.11868 15.472 5.4614 15.8875 4.8149C16.5189 3.83437 17.0315 2.78919 17.4687 1.70629C17.5172 1.58238 17.5766 1.45847 17.6467 1.34533C17.7493 1.17832 17.9058 1.07595 18.1108 1.07595C19.4707 1.05979 20.8306 1.03824 22.1959 1.03824C22.5197 1.03824 22.8597 1.0975 22.9946 1.48002C22.9946 1.58238 22.9946 1.69013 22.9946 1.79249C22.8489 2.13191 22.7302 2.48748 22.5575 2.81074C21.9855 3.88824 21.2084 4.83106 20.4853 5.8062C20.1129 6.30724 19.7352 6.81366 19.4006 7.34164C19.1469 7.74571 19.2117 8.13361 19.5247 8.49457C19.6758 8.66697 19.8377 8.83399 20.005 8.99561C20.6202 9.61518 21.2623 10.2078 21.8506 10.8543C22.3578 11.4146 22.8813 11.9803 23 12.7777C22.9838 12.8046 22.9838 12.8208 22.9838 12.8369Z" fill="white"/>
</svg>
