<svg width="19" height="12" viewBox="0 0 19 12" fill="none" xmlns="http://www.w3.org/2000/svg">
<path d="M9.31542 0.504883C9.00275 0.591307 8.91135 0.738229 8.91135 0.939886C8.91616 4.33637 8.91616 7.73573 8.91135 11.1322C8.91135 11.3339 9.00275 11.4808 9.31542 11.5672C9.41163 11.5672 9.50784 11.5672 9.60405 11.5672C9.91673 11.4808 10.0081 11.3339 10.0081 11.1322C10.0033 7.73573 10.0033 4.33637 10.0081 0.939886C10.0081 0.738229 9.91673 0.591307 9.60405 0.504883C9.50784 0.504883 9.41163 0.504883 9.31542 0.504883Z" fill="white"/>
<path d="M12.1683 6.03561C12.1683 4.866 12.1683 3.69638 12.1683 2.52677C12.1683 2.27038 11.8075 2.10617 11.4371 2.1926C11.2302 2.24157 11.1148 2.33952 11.0907 2.47204C11.0859 2.50661 11.0859 2.54406 11.0859 2.57863C11.0859 4.88328 11.0859 7.18505 11.0859 9.4897C11.0859 9.74898 11.288 9.89878 11.6247 9.90166C11.9662 9.90166 12.1683 9.74898 12.1683 9.49259C12.1683 8.34026 12.1683 7.18793 12.1683 6.03561Z" fill="white"/>
<path d="M13.2518 6.04861C13.2518 6.72272 13.2518 7.39395 13.2518 8.06806C13.2518 8.24956 13.4057 8.37919 13.6655 8.41664C13.9926 8.46274 14.3052 8.32734 14.3341 8.12856C14.3389 8.1084 14.3341 8.08535 14.3341 8.06518C14.3341 6.71408 14.3341 5.36586 14.3341 4.01476C14.3341 3.76701 14.0311 3.60856 13.6655 3.6633C13.4105 3.70075 13.2566 3.8275 13.2566 4.01188C13.2518 4.68887 13.2518 5.36874 13.2518 6.04861Z" fill="white"/>
<path d="M15.418 6.04295C15.418 6.44627 15.418 6.84958 15.418 7.2529C15.418 7.48048 15.6296 7.63028 15.9567 7.63316C16.279 7.63604 16.5003 7.48336 16.5003 7.25866C16.5003 6.43763 16.5003 5.61947 16.5003 4.79844C16.5003 4.54493 16.1347 4.38072 15.7643 4.47003C15.5478 4.52188 15.4228 4.64 15.4228 4.79556C15.418 5.20752 15.418 5.62524 15.418 6.04295Z" fill="white"/>
<path d="M18.6605 6.03349C18.6605 5.83471 18.6605 5.63882 18.6605 5.44004C18.6605 5.24126 18.4344 5.09434 18.1265 5.08858C17.8186 5.0857 17.5781 5.2355 17.5781 5.44004C17.5781 5.84047 17.5733 6.23803 17.5781 6.63846C17.5781 6.83724 17.8138 6.98416 18.1217 6.98416C18.4248 6.98416 18.6605 6.83724 18.6605 6.63846C18.6605 6.4368 18.6605 6.23515 18.6605 6.03349Z" fill="white"/>
<path d="M6.75658 6.03629C6.75658 7.19437 6.75658 8.35534 6.75658 9.51343C6.75658 9.56528 6.76139 9.6229 6.78544 9.67188C6.8576 9.82168 7.10293 9.91675 7.34826 9.89946C7.60802 9.87929 7.81006 9.75542 7.83411 9.59697C7.83892 9.5624 7.83411 9.52495 7.83411 9.49038C7.83411 7.18573 7.83411 4.88396 7.83411 2.57931C7.83411 2.32003 7.63207 2.17023 7.29053 2.17023C6.949 2.17023 6.75177 2.32292 6.75177 2.58219C6.75658 3.73451 6.75658 4.88396 6.75658 6.03629Z" fill="white"/>
<path d="M5.67519 6.03589C5.67519 5.35601 5.67519 4.67614 5.67519 3.99627C5.67519 3.76292 5.37213 3.61024 5.01616 3.65633C4.78526 3.68802 4.6169 3.80325 4.59766 3.94441C4.59285 3.96458 4.59766 3.98763 4.59766 4.00779C4.59766 5.36177 4.59766 6.71288 4.59766 8.06686C4.59766 8.30597 4.90552 8.46153 5.2663 8.40968C5.52125 8.37223 5.68 8.24259 5.68 8.0611C5.67519 7.38987 5.67519 6.71288 5.67519 6.03589Z" fill="white"/>
<path d="M3.50812 6.03047C3.50812 5.62428 3.50812 5.21808 3.50812 4.81189C3.50812 4.59294 3.29165 4.44314 2.97417 4.44026C2.65187 4.43738 2.42578 4.59006 2.42578 4.81477C2.42578 5.6358 2.42578 6.45395 2.42578 7.27498C2.42578 7.52561 2.77694 7.68694 3.14734 7.60916C3.36862 7.56306 3.50812 7.43919 3.50812 7.28074C3.50812 6.86591 3.50812 6.44819 3.50812 6.03047Z" fill="white"/>
<path d="M1.34406 6.03633C1.34406 5.83755 1.34406 5.64166 1.34406 5.44288C1.34406 5.23834 1.10835 5.08854 0.800485 5.08854C0.487809 5.09142 0.266529 5.23834 0.261719 5.44576C0.261719 5.83755 0.261719 6.22934 0.261719 6.62113C0.261719 6.82855 0.487808 6.97836 0.795675 6.98124C1.11316 6.98412 1.33925 6.83143 1.34406 6.61825C1.34406 6.42524 1.34406 6.22934 1.34406 6.03633Z" fill="white"/>
</svg>
