<svg width="63" height="9" viewBox="0 0 63 9" fill="none" xmlns="http://www.w3.org/2000/svg">
<path d="M5.75094 6.38993C5.75094 7.90458 4.66228 8.82757 2.91097 8.82757C1.79865 8.82757 0.709992 8.42524 0 7.76258L0.402329 6.98159C1.18332 7.64425 2.03531 7.97558 2.8873 7.97558C4.11796 7.97558 4.75695 7.43125 4.75695 6.36627C4.75695 5.30128 4.09429 4.78062 2.76897 4.78062H1.77498V3.92863H2.57964C3.85763 3.92863 4.56762 3.36063 4.56762 2.29564C4.56762 1.37265 3.97596 0.851991 2.9583 0.851991C2.12998 0.851991 1.32532 1.18332 0.520661 1.84598L0.141998 1.06499C0.828325 0.402329 1.89331 0 3.00563 0C4.54395 0 5.56161 0.851991 5.56161 2.20098C5.56161 3.19497 5.04095 3.97596 4.18896 4.30729C5.20661 4.59128 5.75094 5.32494 5.75094 6.38993ZM12.7799 6.38993C12.7799 7.90458 11.6912 8.82757 9.93989 8.82757C8.82757 8.82757 7.73892 8.42524 7.02893 7.76258L7.43125 6.98159C8.21225 7.64425 9.06424 7.97558 9.91623 7.97558C11.1469 7.97558 11.7859 7.43125 11.7859 6.36627C11.7859 5.30128 11.1232 4.78062 9.7979 4.78062H8.80391V3.92863H9.60856C10.8866 3.92863 11.5965 3.36063 11.5965 2.29564C11.5965 1.37265 11.0049 0.851991 9.98723 0.851991C9.1589 0.851991 8.35424 1.18332 7.54959 1.84598L7.17092 1.06499C7.85725 0.402329 8.92224 0 10.0346 0C11.5729 0 12.5905 0.851991 12.5905 2.20098C12.5905 3.19497 12.0699 3.97596 11.2179 4.30729C12.2355 4.59128 12.7799 5.32494 12.7799 6.38993ZM19.8088 6.38993C19.8088 7.90458 18.7201 8.82757 16.9688 8.82757C15.8565 8.82757 14.7678 8.42524 14.0579 7.76258L14.4602 6.98159C15.2412 7.64425 16.0932 7.97558 16.9452 7.97558C18.1758 7.97558 18.8148 7.43125 18.8148 6.36627C18.8148 5.30128 18.1521 4.78062 16.8268 4.78062H15.8328V3.92863H16.6375C17.9155 3.92863 18.6255 3.36063 18.6255 2.29564C18.6255 1.37265 18.0338 0.851991 17.0162 0.851991C16.1878 0.851991 15.3832 1.18332 14.5785 1.84598L14.1998 1.06499C14.8862 0.402329 15.9512 0 17.0635 0C18.6018 0 19.6195 0.851991 19.6195 2.20098C19.6195 3.19497 19.0988 3.97596 18.2468 4.30729C19.2645 4.59128 19.8088 5.32494 19.8088 6.38993ZM26.8377 6.38993C26.8377 7.90458 25.7491 8.82757 23.9977 8.82757C22.8854 8.82757 21.7968 8.42524 21.0868 7.76258L21.4891 6.98159C22.2701 7.64425 23.1221 7.97558 23.9741 7.97558C25.2047 7.97558 25.8437 7.43125 25.8437 6.36627C25.8437 5.30128 25.1811 4.78062 23.8557 4.78062H22.8618V3.92863H23.6664C24.9444 3.92863 25.6544 3.36063 25.6544 2.29564C25.6544 1.37265 25.0627 0.851991 24.0451 0.851991C23.2168 0.851991 22.4121 1.18332 21.6074 1.84598L21.2288 1.06499C21.9151 0.402329 22.9801 0 24.0924 0C25.6307 0 26.6484 0.851991 26.6484 2.20098C26.6484 3.19497 26.1277 3.97596 25.2757 4.30729C26.2934 4.59128 26.8377 5.32494 26.8377 6.38993ZM33.8666 6.38993C33.8666 7.90458 32.778 8.82757 31.0267 8.82757C29.9144 8.82757 28.8257 8.42524 28.1157 7.76258L28.518 6.98159C29.299 7.64425 30.151 7.97558 31.003 7.97558C32.2337 7.97558 32.8727 7.43125 32.8727 6.36627C32.8727 5.30128 32.21 4.78062 30.8847 4.78062H29.8907V3.92863H30.6953C31.9733 3.92863 32.6833 3.36063 32.6833 2.29564C32.6833 1.37265 32.0917 0.851991 31.074 0.851991C30.2457 0.851991 29.441 1.18332 28.6364 1.84598L28.2577 1.06499C28.944 0.402329 30.009 0 31.1213 0C32.6597 0 33.6773 0.851991 33.6773 2.20098C33.6773 3.19497 33.1566 3.97596 32.3047 4.30729C33.3223 4.59128 33.8666 5.32494 33.8666 6.38993ZM41.2032 6.0586C41.2032 7.69159 40.0436 8.82757 38.2686 8.82757C37.2273 8.82757 36.1386 8.42524 35.4286 7.76258L35.8073 6.98159C36.6119 7.64425 37.4403 7.97558 38.2686 7.97558C39.4756 7.97558 40.2092 7.24192 40.2092 6.0586C40.2092 4.92261 39.4756 4.14162 38.3396 4.14162C37.5113 4.14162 36.8723 4.49662 36.3753 5.15928H35.689V0.0946657H40.8482V0.92299H36.6829V3.99962C37.1563 3.54996 37.7716 3.3133 38.5053 3.3133C40.1382 3.3133 41.2032 4.42562 41.2032 6.0586ZM48.5162 6.38993C48.5162 7.90458 47.4275 8.82757 45.6762 8.82757C44.5639 8.82757 43.4752 8.42524 42.7652 7.76258L43.1675 6.98159C43.9485 7.64425 44.8005 7.97558 45.6525 7.97558C46.8832 7.97558 47.5222 7.43125 47.5222 6.36627C47.5222 5.30128 46.8595 4.78062 45.5342 4.78062H44.5402V3.92863H45.3449C46.6228 3.92863 47.3328 3.36063 47.3328 2.29564C47.3328 1.37265 46.7412 0.851991 45.7235 0.851991C44.8952 0.851991 44.0905 1.18332 43.2859 1.84598L42.9072 1.06499C43.5935 0.402329 44.6585 0 45.7708 0C47.3092 0 48.3268 0.851991 48.3268 2.20098C48.3268 3.19497 47.8062 3.97596 46.9542 4.30729C47.9718 4.59128 48.5162 5.32494 48.5162 6.38993ZM54.7168 0.0946657V6.03494H56.0184V6.86326H54.7168V8.73291H53.7228V6.86326H49.7468V6.10594L53.9121 0.0946657H54.7168ZM53.7228 6.03494V1.79865L50.7881 6.03494H53.7228ZM63 6.38993C63 7.90458 61.9113 8.82757 60.16 8.82757C59.0477 8.82757 57.9591 8.42524 57.2491 7.76258L57.6514 6.98159C58.4324 7.64425 59.2844 7.97558 60.1364 7.97558C61.367 7.97558 62.006 7.43125 62.006 6.36627C62.006 5.30128 61.3434 4.78062 60.018 4.78062H59.024V3.92863H59.8287C61.1067 3.92863 61.8167 3.36063 61.8167 2.29564C61.8167 1.37265 61.225 0.851991 60.2074 0.851991C59.379 0.851991 58.5744 1.18332 57.7697 1.84598L57.3911 1.06499C58.0774 0.402329 59.1424 0 60.2547 0C61.793 0 62.8107 0.851991 62.8107 2.20098C62.8107 3.19497 62.29 3.97596 61.438 4.30729C62.4557 4.59128 63 5.32494 63 6.38993Z" fill="white"/>
</svg>
