<svg width="30" height="30" viewBox="0 0 30 30" fill="none" xmlns="http://www.w3.org/2000/svg">
<path d="M6.49609 0.916992C12.3088 0.916992 18.1287 0.916992 23.9414 0.916992C23.9414 1.39159 23.9414 1.86619 23.9414 2.36912C24.0688 2.36912 24.168 2.36912 24.2671 2.36912C25.5486 2.36912 26.8301 2.36203 28.1116 2.3762C28.3948 2.3762 28.6921 2.43287 28.9612 2.53204C29.4072 2.69496 29.5842 3.1058 29.7188 3.52373C29.7188 4.97586 29.7188 6.43507 29.7188 7.88719C29.6975 7.97928 29.6692 8.06428 29.6621 8.15637C29.2939 11.0039 27.0637 13.3132 24.2246 13.7665C23.991 13.8019 23.9131 13.8869 23.9131 14.1207C23.906 15.1266 23.7361 16.1183 23.3679 17.0533C22.2634 19.8442 20.2668 21.6647 17.364 22.458C17.2861 22.4793 17.2153 22.5147 17.1162 22.5501C17.4419 23.5276 17.7534 24.4839 18.0862 25.4331C18.1074 25.4969 18.2561 25.5606 18.3481 25.5606C19.3464 25.5677 20.3518 25.5606 21.3501 25.5677C22.051 25.5677 22.5325 25.9219 22.759 26.5736C23.113 27.5865 23.467 28.5995 23.821 29.6195C23.8494 29.7116 23.8777 29.8037 23.906 29.9099C18.1003 29.9099 12.3372 29.9099 6.55273 29.9099C6.57397 29.832 6.58105 29.7682 6.60229 29.7116C6.97046 28.642 7.33862 27.5723 7.71387 26.5027C7.91211 25.9431 8.40063 25.589 9.00952 25.5677C9.23608 25.5606 9.46265 25.5677 9.68921 25.5677C10.5671 25.5677 11.4451 25.5677 12.3301 25.5677C12.6699 24.5548 13.0027 23.556 13.3425 22.5289C13.208 22.4934 13.0947 22.4651 12.9885 22.4368C10.2415 21.6434 8.30151 19.9363 7.18286 17.3012C6.7439 16.2741 6.55273 15.1903 6.53149 14.0782C6.53149 13.9082 6.48901 13.8161 6.29077 13.7807C2.93481 13.1857 0.72583 10.5435 0.71875 7.1505C0.71875 6.10214 0.71875 5.05378 0.71875 4.00541C0.71875 2.88622 1.22852 2.3762 2.34009 2.36912C3.6145 2.36912 4.88892 2.36912 6.16333 2.36912C6.26953 2.36912 6.38281 2.36912 6.49609 2.36912C6.49609 1.8591 6.49609 1.38451 6.49609 0.916992ZM12.323 15.4099C12.4504 15.3462 12.5283 15.3037 12.6062 15.2612C13.4062 14.822 14.2134 14.3828 15.0063 13.9365C15.155 13.8515 15.2683 13.8515 15.417 13.9365C16.0754 14.312 16.7339 14.6661 17.3994 15.0274C17.6189 15.1478 17.8384 15.2682 18.1003 15.4099C18.0791 15.3178 18.072 15.2753 18.0649 15.2328C17.8596 14.4111 17.6472 13.5894 17.4561 12.7607C17.4277 12.6261 17.4631 12.4419 17.541 12.3286C18.1357 11.5069 18.7588 10.6923 19.3677 9.87767C19.4172 9.80683 19.4668 9.736 19.5518 9.62266C18.5818 9.62266 17.6755 9.61558 16.7764 9.62974C16.5852 9.62974 16.4932 9.57307 16.4153 9.39599C16.0613 8.59555 15.7002 7.79511 15.3391 6.99467C15.3037 6.92383 15.2683 6.853 15.2117 6.75383C15.1479 6.88133 15.0984 6.97342 15.0559 7.0655C14.709 7.83761 14.355 8.60971 14.0151 9.3889C13.9443 9.55891 13.8523 9.62266 13.6611 9.62266C12.8469 9.60849 12.0398 9.61558 11.2256 9.61558C11.1265 9.61558 11.0273 9.62266 10.8928 9.62974C10.9707 9.74308 11.0203 9.81391 11.0769 9.89183C11.6787 10.6923 12.2734 11.4927 12.8752 12.2932C12.9956 12.449 13.0239 12.5907 12.9744 12.7819C12.7549 13.6461 12.5496 14.5032 12.323 15.4099ZM23.9414 5.28753C23.9414 7.17176 23.9414 9.02764 23.9414 10.9119C24.0618 10.8835 24.1609 10.8694 24.26 10.841C25.4353 10.4373 26.2 9.61558 26.6177 8.46096C26.8726 7.75969 26.823 7.03008 26.823 6.30756C26.823 5.97464 26.823 5.63463 26.823 5.28753C25.8459 5.28753 24.9043 5.28753 23.9414 5.28753ZM6.49609 10.8977C6.49609 9.01347 6.49609 7.15759 6.49609 5.29462C5.52612 5.29462 4.58447 5.29462 3.6145 5.29462C3.6145 5.89672 3.62158 6.48465 3.6145 7.0655C3.59326 8.21304 3.99683 9.18348 4.83228 9.96975C5.29956 10.416 5.84473 10.7348 6.49609 10.8977Z" fill="white"/>
</svg>
