<svg width="22" height="24" viewBox="0 0 22 24" fill="none" xmlns="http://www.w3.org/2000/svg">
<path d="M10.1443 18.0757C10.1443 16.5552 10.1443 15.0348 10.1443 13.5143C10.1443 13.1036 10.0369 12.9955 9.62169 12.9955C7.28058 12.9955 4.93948 12.9955 2.60553 12.9955C1.82517 12.9955 1.40277 13.4279 1.40277 14.2205C1.40277 16.7642 1.40277 19.3151 1.40277 21.8588C1.40277 22.6659 1.81801 23.0838 2.61985 23.0838C4.98243 23.0838 7.34502 23.0838 9.7076 23.0838C10.1014 23.0838 10.1515 23.0334 10.1515 22.6371C10.1443 21.1166 10.1443 19.5962 10.1443 18.0757ZM11.9198 18.0901C11.9198 19.6178 11.9198 21.1454 11.9198 22.6731C11.9198 23.019 11.9914 23.0838 12.3351 23.0838C14.712 23.0838 17.0889 23.0838 19.4658 23.0838C20.2533 23.0838 20.6757 22.6587 20.6757 21.866C20.6757 19.3223 20.6757 16.7714 20.6757 14.2277C20.6757 13.4206 20.2605 12.9955 19.4586 12.9955C17.1318 12.9955 14.8122 12.9955 12.4854 12.9955C12.0272 12.9955 11.927 13.0964 11.927 13.5504C11.9198 15.0636 11.9198 16.5769 11.9198 18.0901ZM5.49075 11.7993C6.90114 11.7993 8.30437 11.7993 9.71476 11.7993C10.0584 11.7993 10.1443 11.7056 10.1443 11.3669C10.1443 9.8609 10.1443 8.35485 10.1443 6.8488C10.1443 6.47409 10.0369 6.366 9.65748 6.366C6.90114 6.366 4.14479 6.366 1.38845 6.366C0.622398 6.366 0.207156 6.79116 0.207156 7.55499C0.207156 8.54941 0.228636 9.55104 0.199999 10.5455C0.17852 11.2444 0.600919 11.8209 1.44572 11.7993C2.79168 11.7777 4.14479 11.7993 5.49075 11.7993ZM16.5734 6.37321C15.1559 6.37321 13.7455 6.37321 12.3279 6.37321C12.0344 6.37321 11.9198 6.4813 11.9198 6.76954C11.9198 8.32603 11.9198 9.88252 11.9198 11.439C11.9198 11.6696 12.0201 11.7705 12.2492 11.7921C12.3136 11.7993 12.378 11.7993 12.4496 11.7993C15.1916 11.7993 17.9337 11.7993 20.6757 11.7993C21.4418 11.7993 21.857 11.3742 21.857 10.6103C21.857 9.60869 21.8355 8.59985 21.8642 7.59822C21.8785 6.89204 21.4274 6.35159 20.6399 6.366C19.2868 6.38762 17.9265 6.37321 16.5734 6.37321Z" fill="white"/>
<path d="M5.70515 0.399414C5.87698 0.435444 6.0488 0.457059 6.22063 0.500295C7.71693 0.882211 9.01993 1.60281 10.1368 2.6765C10.2657 2.799 10.373 2.94312 10.4661 3.08724C10.8169 3.62048 10.731 4.21137 10.2585 4.64373C9.90769 4.95358 9.49244 5.12653 9.04856 5.24903C7.58806 5.63815 6.11324 5.75345 4.64557 5.31388C3.84373 5.07609 3.20654 4.62211 2.91301 3.78622C2.59084 2.87827 2.91301 1.31457 3.92964 0.766917C4.24465 0.593973 4.60977 0.521914 4.95342 0.406618C5.204 0.399412 5.45458 0.399414 5.70515 0.399414ZM8.59753 3.62048C8.60469 3.59886 8.61184 3.57725 8.619 3.54842C8.58321 3.5268 8.54025 3.51239 8.51161 3.48357C7.94603 3.05841 7.3518 2.6837 6.69314 2.42429C6.16335 2.20811 5.6264 2.05679 5.04649 2.12885C4.81739 2.15767 4.66705 2.26576 4.5883 2.48194C4.33772 3.1593 4.47375 3.45474 5.15388 3.69254C5.19684 3.70695 5.2398 3.72137 5.28275 3.72857C6.10608 3.94475 6.93656 3.90151 7.76704 3.78622C8.04625 3.74298 8.31831 3.67092 8.59753 3.62048Z" fill="white"/>
<path d="M17.1016 0.399414C17.5025 0.485886 17.9034 0.565152 18.2471 0.810155C18.8628 1.24251 19.1491 1.86222 19.2494 2.58282C19.4355 3.92313 18.7769 4.90314 17.4381 5.31388C16.3427 5.65257 15.2258 5.63815 14.109 5.47241C13.4646 5.37873 12.8274 5.24182 12.2404 4.93196C11.8896 4.74461 11.596 4.49961 11.46 4.10328C11.281 3.57004 11.5173 3.15209 11.8466 2.77738C12.4122 2.14326 13.1138 1.68928 13.8512 1.28575C14.6244 0.860595 15.4334 0.521913 16.3284 0.428235C16.3498 0.428235 16.3713 0.413826 16.3856 0.399414C16.6362 0.399414 16.8725 0.399414 17.1016 0.399414ZM13.4718 3.5268C13.4789 3.56283 13.4861 3.59886 13.5004 3.63489C13.9013 3.69974 14.3023 3.78622 14.7032 3.82945C15.4191 3.90872 16.1351 3.90872 16.8438 3.71416C17.5669 3.51239 17.7387 3.18812 17.5025 2.48914C17.4953 2.46753 17.4953 2.4387 17.481 2.42429C17.3521 2.32341 17.2376 2.18649 17.0944 2.12885C16.9655 2.0784 16.808 2.09281 16.6577 2.10002C15.9561 2.13605 15.3117 2.39546 14.7103 2.73414C14.2879 2.98635 13.887 3.26739 13.4718 3.5268Z" fill="white"/>
<path d="M10.1432 18.0753C10.1432 19.5958 10.1432 21.1162 10.1432 22.6367C10.1432 23.0258 10.086 23.0835 9.69936 23.0835C7.33678 23.0835 4.9742 23.0835 2.61162 23.0835C1.80977 23.0835 1.39453 22.6655 1.39453 21.8585C1.39453 19.3148 1.39453 16.7638 1.39453 14.2201C1.39453 13.4275 1.81694 12.9951 2.5973 12.9951C4.93841 12.9951 7.27951 12.9951 9.61345 12.9951C10.0287 12.9951 10.1361 13.1032 10.1361 13.5139C10.1432 15.0344 10.1432 16.5549 10.1432 18.0753Z" fill="white"/>
<path d="M11.9212 18.0897C11.9212 16.5765 11.9212 15.0632 11.9212 13.55C11.9212 13.0888 12.0215 12.9951 12.4797 12.9951C14.8064 12.9951 17.1261 12.9951 19.4528 12.9951C20.2547 12.9951 20.6699 13.4203 20.6699 14.2273C20.6699 16.771 20.6699 19.322 20.6699 21.8657C20.6699 22.6583 20.2475 23.0835 19.46 23.0835C17.0831 23.0835 14.7062 23.0835 12.3293 23.0835C11.9857 23.0835 11.9141 23.0186 11.9141 22.6727C11.9212 21.1451 11.9212 19.6174 11.9212 18.0897Z" fill="white"/>
<path d="M5.49075 11.7991C4.14479 11.7991 2.79168 11.7775 1.44572 11.8063C0.600919 11.8208 0.17852 11.2515 0.199999 10.5525C0.228636 9.55808 0.207156 8.56366 0.207156 7.56203C0.207156 6.7982 0.629557 6.37305 1.38845 6.37305C4.14479 6.37305 6.90114 6.37305 9.65748 6.37305C10.0369 6.37305 10.1443 6.47393 10.1443 6.85585C10.1443 8.36189 10.1443 9.86794 10.1443 11.374C10.1443 11.7127 10.0584 11.8063 9.71476 11.8063C8.30437 11.7991 6.90114 11.7991 5.49075 11.7991Z" fill="white"/>
<path d="M16.5754 6.37321C17.9286 6.37321 19.2888 6.39483 20.642 6.366C21.4295 6.35159 21.8805 6.89204 21.8662 7.59822C21.8376 8.59985 21.859 9.60869 21.859 10.6103C21.859 11.3742 21.4366 11.7993 20.6777 11.7993C17.9357 11.7993 15.1937 11.7993 12.4517 11.7993C12.3872 11.7993 12.3228 11.7993 12.2512 11.7921C12.0221 11.7705 11.9219 11.6696 11.9219 11.439C11.9219 9.88252 11.9219 8.32603 11.9219 6.76954C11.9219 6.4813 12.0364 6.38041 12.33 6.37321C13.7403 6.37321 15.1579 6.37321 16.5754 6.37321Z" fill="white"/>
</svg>
